<?xml version="1.0" standalone="no"?>
<!DOCTYPE svg PUBLIC "-//W3C//DTD SVG 1.1//EN" "http://www.w3.org/Graphics/SVG/1.1/DTD/svg11.dtd" >
<svg xmlns="http://www.w3.org/2000/svg" xmlns:xlink="http://www.w3.org/1999/xlink" version="1.1">
<metadata></metadata>
<defs>
<font id="ryanairregularregularregular" horiz-adv-x="2048" >
<font-face units-per-em="2048" ascent="1920" descent="-128" />
<missing-glyph horiz-adv-x="500" />
<glyph horiz-adv-x="0" />
<glyph horiz-adv-x="682" />
<glyph unicode="#" d="M0 -128h288v288h-288v-288zM0 192h288v1408h-288v-1408zM0 1632h288v288h-288v-288zM320 -128h1408v288h-1408v-288zM320 192h1408v1408h-1408v-1408zM320 1632h1408v288h-1408v-288zM640 892q0 22 8 124q8 48 24 84q13 21 40 48q24 20 60 24q11 4 76 4h64q34 -8 40 -8 l-4 -52q-7 4 -32 4h-68q-38 0 -64 -8q-28 -4 -40 -24q-16 -16 -28 -60q-8 -69 -8 -100q25 25 40 32q15 15 40 20q11 4 52 4q60 0 88 -16q32 -20 44 -56q16 -28 16 -104q0 -13 -8 -72q-8 -32 -24 -56q-17 -20 -52 -36q-28 -16 -84 -16t-92 12q-44 20 -56 44q-19 31 -24 80 q-8 102 -8 128zM708 880q0 -77 4 -92q0 -36 12 -60q8 -20 36 -32q26 -8 60 -8q30 0 56 8q21 5 28 24q11 11 16 36q0 17 4 28v24q0 13 -8 72q-12 28 -32 36q-24 12 -60 12q-33 0 -40 -4l-36 -12q-34 -26 -40 -32zM1060 812q-4 4 4 40l152 316h68l-152 -312q-4 -16 0 -24 q8 -8 20 -8h184v156l12 88h52v-244h68v-48l-68 -8v-128h-64v128h-220q-24 0 -36 12q-12 8 -20 32zM1760 -128h288v288h-288v-288zM1760 192h288v1408h-288v-1408zM1760 1632h288v288h-288v-288z" />
<glyph unicode="," horiz-adv-x="1240" d="M144 764q0 -105 40 -184q36 -88 100 -152t152 -100q79 -40 184 -40q101 0 184 40q93 41 152 100q64 64 100 152q36 84 36 180t-36 188q-41 93 -100 152q-56 56 -152 104q-92 36 -184 36q-100 0 -184 -36q-92 -43 -152 -104q-59 -59 -100 -152q-40 -83 -40 -184zM376 988 q4 0 4 4h4v4q4 -3 24 -8t24 -8q22 -15 48 -20l48 -24q1 0 20 -6.5t36 -13.5q-9 -3 -28 -12l-24 -8q-2 0 -10 -2q-5 -1 -10 -6l-8 -4q-8 -5 -8 -8q0 -4 -4 -8l-8 -8q-4 -4 -4 -8q-4 -7 -4 -12q-4 -4 -4 -12t-4 -12q-3 -9 -12 -28q0 1 -6.5 20t-13.5 36q-14 28 -20 48 q-14 28 -20 48t-20 48zM384 520l20 48q16 35 16 48l20 48l16 44l16 40l8 40q8 20 20 40q5 13 20 28q29 20 32 20q2 1 20 8q13 5 16 8q4 4 20 8q15 4 20 4t20 4q16 4 20 8q20 8 44 20q6 0 24 8t24 8q20 6 48 20q4 3 24 8t24 8v-8q-4 -4 -4 -12v-4q-4 -4 -4 -8l-12 -32 q-2 -6 -4.5 -12t-4.5 -12t-3 -8q-2 -4 -28 -68q-18 -53 -24 -68q-10 -21 -28 -72q-4 -4 -4 -8l-4 -4q0 -8 -4 -8l-8 -8q-4 -4 -8 -4l-80 -32l-34 -14q-26 -10 -42 -18q-18 -5 -40 -16t-40 -16q-3 -2 -36 -14q-27 -10 -40 -18h-4q-4 -4 -8 -4h-8zM564 764q0 17 4 24q0 4 4 8 l8 8q5 5 20 12q4 4 20 4q17 0 24 -4q4 0 8 -4l8 -8l8 -8q4 -4 4 -8q4 -7 4 -24q0 -16 -4 -20q-6 -10 -12 -16q-4 0 -8 -4l-8 -8q-18 -8 -24 -8q-16 0 -20 4q-15 7 -20 12t-12 20q-4 4 -4 20zM668 600q28 8 48 12t36 24q15 11 20 32q4 7 6 22q2 18 2 22h4h4q0 -4 4 -4 q5 -26 20 -44q6 -20 20 -48l16 -48q14 -28 20 -48h-4v-8h-4q-4 0 -20 6q-19 7 -24 10l-48 24l-48 16q-20 6 -48 20v12h-4z" />
<glyph unicode="1" d="M320 896q0 -64 64 -64h192q64 0 64 64t-64 64h-192q-64 0 -64 -64zM528 400q44 -56 88 0l136 136q44 44 0 88t-88 0l-136 -136q-56 -44 0 -88zM528 1304l132 -136q48 -44 92 0t0 92l-136 132q-44 56 -88 0q-56 -44 0 -88zM768 896q0 -104 76 -180t180 -76t180 76t76 180 t-76 180t-180 76t-180 -76t-76 -180zM960 256q0 -64 64 -64t64 64v192q0 64 -64 64t-64 -64v-192zM960 1344q0 -64 64 -64t64 64v192q0 64 -64 64t-64 -64v-192zM1296 536l136 -136q44 -56 88 0q56 44 0 88l-136 136q-44 44 -88 0t0 -88zM1296 1168q44 -44 88 0l136 136 q56 44 0 88q-44 56 -88 0l-136 -132q-44 -48 0 -92zM1408 896q0 -64 64 -64h192q64 0 64 64t-64 64h-192q-64 0 -64 -64z" />
<glyph unicode="2" d="M320 972q0 -148 84 -260q88 -119 216 -160l32 124q-92 32 -148 116q-56 80 -56 180q0 140 96 228q92 92 224 92q120 0 208 -76q88 -80 108 -192q92 -56 184 -48q52 60 140 60q80 0 136 -56t56 -136q0 -57 -28 -100l-56 -200q92 32 152 116t60 184q0 136 -92 228 q-101 92 -228 92q-120 0 -208 -76q-40 144 -156 240q-125 92 -276 92q-179 0 -316 -128q-132 -132 -132 -320zM712 432q-19 -84 16 -88q16 -4 36 16q17 17 24 52l12 48h-80zM740 524h76l56 192h-80zM812 780h76l8 32q19 84 -16 88q-12 4 -32 -16q-17 -17 -24 -52zM904 432 q-19 -84 16 -88q16 -4 36 16q17 17 24 52l28 112h-76zM948 588h80l52 192h-76zM1020 844h72q7 52 -20 56q-12 4 -28 -12q-19 -19 -24 -44zM1092 396q0 -44 20 -52q16 -4 32 12q15 22 20 40h-72zM1104 460h80l52 192h-76zM1176 716h80l24 96q19 84 -16 88q-12 4 -32 -16 q-17 -17 -24 -52zM1288 432q-19 -84 16 -88q16 -4 36 16q17 17 24 52l28 112h-76zM1332 588h80l52 192h-76zM1404 844h72q7 52 -20 56q-12 4 -28 -12q-19 -19 -24 -44z" />
<glyph unicode="3" d="M320 972q0 -148 84 -260q88 -119 216 -160l32 124q-92 32 -148 116q-56 80 -56 180q0 140 96 228q92 92 224 92q120 0 208 -76q88 -80 108 -192q92 -56 184 -48q52 60 140 60q80 0 136 -56t56 -136q0 -57 -28 -100l-56 -200q92 32 152 116t60 184q0 136 -92 228 q-101 92 -228 92q-120 0 -208 -76q-40 144 -156 240q-125 92 -276 92q-179 0 -316 -128q-132 -132 -132 -320zM712 432q-19 -84 16 -88q16 -4 36 16q17 17 24 52l108 400q19 84 -16 88q-12 4 -32 -16q-17 -17 -24 -52zM904 432q-19 -84 16 -88q16 -4 36 16q17 17 24 52 l108 400q19 84 -16 88q-12 4 -32 -16q-17 -17 -24 -52zM1096 432q-19 -84 16 -88q16 -4 36 16q17 17 24 52l108 400q19 84 -16 88q-12 4 -32 -16q-17 -17 -24 -52zM1288 432q-19 -84 16 -88q16 -4 36 16q17 17 24 52l108 400q19 84 -16 88q-12 4 -32 -16q-17 -17 -24 -52z " />
<glyph unicode="4" d="M388 872q-28 -52 20 -80l72 -40l-40 -72q-28 -52 20 -80l24 -8q36 0 56 32l56 96l132 36l156 -156l-36 -128l-100 -56q-36 -16 -28 -60l8 -20q32 -56 80 -24l68 40l40 -68q28 -48 80 -20l8 4l12 8q24 36 4 68l-56 96l36 144l200 52l100 -100v-116q0 -36 36 -56l24 -4 q60 0 60 60v76h80q24 0 44 20q16 16 16 40q0 28 -16 44t-44 16h-112l-112 112l52 188l148 40l100 -56q32 -20 64 4l16 16q28 52 -24 80l-68 40l40 72q20 32 -4 64l-16 16q-48 32 -80 -24l-60 -96l-144 -40l-140 140l40 148l96 56q48 28 20 80q-32 56 -80 24l-68 -40l-40 68 q-28 48 -80 20l-8 -4l-12 -12q-20 -33 -4 -64l60 -100l-36 -132l-204 -56l-104 104v112q0 56 -60 56l-20 -4q-36 -12 -36 -52v-80h-80q-24 0 -40 -16q-20 -20 -20 -44q0 -20 20 -40t40 -20h116l92 -92l-56 -216l-128 -32l-100 56q-32 20 -64 -4zM812 840l52 204l204 56 l148 -148l-56 -204l-200 -52z" />
<glyph unicode="5" d="M300 1272q-16 -28 12 -52l28 -16l-16 -24q-24 -36 16 -52l12 -4q23 -4 40 16l24 48l60 12l68 -68l-16 -56l-44 -28q-24 -12 -20 -36l4 -12l12 -12q20 -20 40 -4l28 16l16 -28q12 -36 52 -12q28 16 12 52l-24 44l16 64l88 24l44 -48v-52q0 -40 40 -40q36 0 36 40v32h32 q40 0 40 36q0 40 -40 40h-52l-48 48l24 84l64 16l44 -24q32 -20 56 12q16 40 -16 52l-28 16l16 28q20 24 0 44l-8 4l-4 4q-36 16 -52 -12l-28 -48l-64 -16l-64 64l20 64l44 24q28 24 12 52q-16 40 -52 16l-24 -16l-16 28q-17 20 -40 16l-12 -4q-40 -16 -16 -52l28 -48 l-16 -56l-92 -24l-44 44v52q0 40 -40 40l-12 -4q-24 -12 -24 -36v-32h-32q-40 0 -40 -36q0 -40 40 -40h56l40 -40l-28 -96l-52 -16l-48 28q-24 16 -44 -4l-4 -4zM500 452q-4 -24 20 -36l24 -16l-16 -28q-20 -32 16 -52l12 -4q28 -4 40 20l28 44l56 16l68 -72l-16 -52 l-44 -28q-36 -20 -16 -52q24 -32 52 -16l28 16l16 -28q16 -28 52 -12q36 12 12 52l-24 44l16 64l88 24l44 -44v-56q0 -36 40 -36t40 36v32h28q40 0 40 36q0 40 -40 40h-52l-48 48l24 84l64 20l48 -28q28 -16 52 16q20 32 -16 52l-24 16l12 24q12 24 0 44l-8 4l-4 4 q-36 16 -52 -12l-28 -48l-64 -16l-64 64l20 64l44 28q32 12 16 52q-24 32 -56 12l-24 -16l-16 28q-12 20 -40 20l-12 -4q-32 -20 -16 -56l28 -44l-16 -60l-92 -24l-44 44v52q0 40 -36 40l-12 -4h-4q-24 -4 -24 -36v-28h-32q-36 0 -36 -40t36 -40h56l40 -40l-28 -96l-52 -16 l-48 28q-28 16 -52 -12zM528 1256l24 92l92 24l64 -68l-24 -88l-92 -24zM732 452l24 88l92 24l64 -64l-24 -92l-88 -24zM1100 1000q-12 -36 12 -48l12 -8l-8 -12q-20 -32 12 -44q32 -24 48 12l16 28l36 8l40 -44l-8 -32l-28 -16q-20 -13 -16 -40v-4q16 -28 48 -16l12 8 l8 -12q12 -32 44 -12t16 44l-20 32l12 36l56 16l24 -28v-36q0 -32 36 -32q32 0 32 32v16h16q32 0 32 32q0 36 -32 36h-36l-28 28l12 52l40 12l32 -16q28 -16 44 12q20 32 -12 44l-12 8l8 12q12 24 -8 44l-4 4q-32 20 -48 -12l-16 -32l-40 -12l-36 40l8 40l28 16q32 20 16 48 t-48 12l-12 -8l-8 12q-12 32 -44 12t-16 -44l20 -32l-8 -32l-60 -16l-24 24v36q0 32 -36 32h-4q-28 -4 -28 -32v-16h-16q-32 0 -32 -32q0 -36 32 -36h36l24 -24l-16 -60l-32 -8l-32 20q-20 17 -40 -8zM1272 984l16 56l56 16l40 -40l-16 -56l-56 -16zM1332 452q-4 -19 8 -32 l4 -4v-4q-8 -8 -4 -12q6 -10 12 -16q8 -8 16 -4l12 12l12 16l16 4l20 -24l-4 -16l-16 -8q-20 -12 -8 -32q20 -12 32 -8l4 4v-4q12 -20 32 -8q6 6 12 16q4 4 -4 12l-8 16l4 20l28 8l12 -12v-20q0 -24 24 -24q20 0 20 24v4h8q20 0 20 24q0 20 -20 20h-20l-12 16l4 24l20 8 l16 -12q20 -8 32 12q7 24 -8 28l-4 4v4q12 20 -8 32q-24 7 -28 -8l-12 -16l-16 -8l-20 20l4 20l16 8q20 12 8 32t-32 8l-4 -4v4q-12 20 -32 12q-20 -12 -8 -32l8 -16l-4 -16l-28 -8l-12 12v16q0 24 -24 24h-4q-20 -8 -20 -24v-4h-4q-20 0 -20 -20q0 -24 20 -24h20l12 -12 l-8 -32l-16 -4l-16 12q-20 4 -32 -8zM1436 444l8 28l28 8l24 -20l-8 -32l-28 -4zM1496 1508q-8 -20 8 -32l4 -4v-4q-12 -20 8 -28q8 -8 16 -4l12 12l12 16l16 4l20 -24l-4 -16l-16 -8q-20 -12 -8 -32q12 -16 32 -8l4 4v-4q12 -20 32 -8q6 6 12 16q4 4 -4 12l-8 16l4 20l28 8 l12 -16v-16q0 -24 24 -24q20 0 20 24v4h8q20 0 20 24q0 20 -20 20h-20l-12 16l4 24l20 8l16 -12q16 -7 32 8q4 27 -8 32l-4 4v4q12 20 -8 32q-20 17 -28 -12l-12 -16l-16 -4l-20 20l4 20l16 8q20 12 8 32q-12 16 -32 8l-4 -4v4q-12 20 -32 8h-4q-12 -7 -4 -28l8 -16l-4 -16 l-28 -8l-12 12v16q0 24 -24 24h-4q-20 -8 -20 -24v-4h-4q-20 0 -20 -24q0 -20 20 -20h20l12 -12l-8 -32l-16 -4l-16 12q-12 4 -32 -8zM1600 1500l8 28l28 8l24 -24l-8 -28l-28 -8z" />
<glyph unicode="6" d="M300 320q0 -64 288 -64h292q28 -64 172 -64h508q72 0 128 24q52 24 52 56q0 48 -76 64q-56 48 -280 48h-796q-288 0 -288 -64zM404 1424q-7 -24 8 -28l8 -4l-4 -4q-12 -20 8 -28q20 -12 32 8l8 12l16 8l20 -24l-4 -16l-16 -8q-16 -12 -8 -32q12 -16 32 -8l4 4l4 -4 q6 -6 16 -12q4 -4 12 4q6 6 12 16q4 4 -4 12l-8 16l4 20l28 8l12 -16v-16q0 -24 24 -24t24 24v4h4q20 0 20 24q0 20 -20 20h-20l-12 16l8 24l16 8l16 -12q20 -8 32 8q8 20 -8 32l-4 4v4q8 8 4 16l-12 12q-8 8 -12 4q-10 -6 -16 -12l-12 -16l-16 -4l-20 20l4 20l16 8 q20 12 8 32q-4 15 -32 8l-4 -4v4q-12 20 -32 8h-4q-8 -9 -4 -28l8 -16l-4 -20l-28 -4l-12 12v16q0 24 -24 24h-4q-16 -4 -16 -24v-4h-8q-20 0 -20 -24q0 -20 20 -20h20l12 -12l-8 -32l-16 -4l-16 12q-20 8 -32 -12zM448 772q-4 -28 12 -40l16 -8l-8 -20q-16 -16 8 -36 q28 -20 36 12l20 28l40 12l44 -48l-8 -36l-32 -20q-16 -12 -12 -36q20 -25 40 -8l16 8l12 -16q8 -28 36 -12q24 20 8 36l-16 32l12 44l60 16l28 -32v-36q0 -28 28 -28t28 28v20h20q28 0 28 28t-28 28h-36l-32 32l16 56l44 12l32 -16q12 -12 28 0l8 8l4 12q0 20 -16 24 l-16 12l8 16q17 20 -8 40q-24 4 -36 -12l-20 -32l-44 -12l-40 44l12 44l28 16q24 12 12 40q-12 20 -40 8l-16 -8l-8 16q-12 20 -40 8l-8 -4q-8 -12 0 -32l20 -32l-12 -36l-64 -20l-28 32v36q0 24 -28 24h-12q-16 -4 -16 -24v-20h-20q-28 0 -28 -28t28 -28h36l28 -28l-16 -64 l-36 -12l-32 20q-20 12 -40 -8zM512 1420l8 28l28 8l20 -24l-8 -28l-28 -8zM608 760l16 60l60 16l48 -44l-16 -60l-64 -20zM992 1152q-16 -40 16 -52l24 -16l-12 -28q-12 -20 0 -40l12 -12l16 -4q24 0 36 20l28 44l56 16l68 -68l-12 -56l-48 -28q-20 -8 -20 -40l4 -12 l12 -12q20 -17 40 -4l28 16l16 -24q24 -32 52 -16q36 20 16 52l-28 44l16 64l92 24l44 -44v-56q0 -36 36 -36q40 0 40 36v32h32q36 0 36 40q0 36 -36 36h-52l-52 48l24 88l64 16l48 -28q32 -20 52 16q16 28 -16 52l-24 16l16 24q12 20 -4 44l-12 12q-36 12 -52 -16l-28 -44 l-64 -20l-60 64l16 64l44 28q32 12 16 52q-20 41 -52 12l-28 -12l-16 24q-12 32 -52 16q-41 -20 -12 -52l24 -48l-16 -56l-92 -28l-44 44v52q0 40 -36 40l-16 -4q-24 -8 -24 -36v-28h-32q-36 0 -36 -40q0 -36 36 -36h56l40 -40l-24 -100l-56 -12l-48 24q-20 12 -40 0z M1220 1136l24 88l92 28l68 -68l-24 -92l-92 -24z" />
<glyph unicode="7" d="M264 992q0 -32 44 -32h1376q44 0 44 32t-44 32h-1376q-44 0 -44 -32zM268 864q0 -32 40 -32h1428q44 0 44 32t-44 32h-1428q-40 0 -40 -32zM304 1120q0 -32 40 -32h804q44 0 44 32t-44 32h-804q-40 0 -40 -32zM308 736q0 -32 44 -32h1388q44 0 44 32t-44 32h-1388 q-44 0 -44 -32zM384 1248q0 -32 44 -32h632q44 0 44 32t-44 32h-632q-44 0 -44 -32zM396 608q0 -32 44 -32h1244q40 0 40 32t-40 32h-1244q-44 0 -44 -32zM592 1376q0 -32 44 -32h220q44 0 44 32t-44 32h-220q-44 0 -44 -32zM640 480q0 -32 44 -32h808q44 0 44 32t-44 32 h-808q-44 0 -44 -32zM1332 1120q0 -32 44 -32h132q40 0 40 32t-40 32h-132q-44 0 -44 -32z" />
<glyph unicode="8" d="M320 928q0 -184 132 -316t316 -132h640q132 0 228 96q92 92 92 224q0 127 -92 228q-101 92 -228 92q-120 0 -208 -76q-40 144 -156 240q-125 92 -276 92q-184 0 -316 -132t-132 -316zM448 928q0 132 96 228q92 92 224 92q120 0 208 -76q89 -77 108 -196q99 -52 184 -44 q60 60 140 60t136 -56t56 -136t-56 -136t-136 -56h-640q-136 0 -224 96q-96 88 -96 224z" />
<glyph unicode="9" d="M256 608q0 -172 124 -292q120 -124 292 -124h608q132 0 228 96q92 92 92 224q0 127 -92 228q-101 92 -228 92q-128 0 -216 -84q-44 120 -152 200q-103 76 -240 76q-172 0 -292 -120q-124 -124 -124 -296zM384 608q0 120 84 204t204 84q109 0 188 -64q84 -64 96 -168 q4 -40 72 -60q72 -19 88 4q52 96 164 96q80 0 136 -56t56 -136t-56 -136t-136 -56h-608q-120 0 -204 84t-84 204zM592 1368l132 -136q48 -44 92 0t0 92l-136 132q-44 56 -88 0q-56 -44 0 -88zM864 1080q141 -53 236 -196q97 44 180 44h28q11 -4 32 -4q4 7 4 36 q0 104 -76 180t-180 76q-148 0 -224 -136zM1024 1408q0 -64 64 -64t64 64v192q0 64 -64 64t-64 -64v-192zM1360 1232q44 -44 88 0l136 136q56 44 0 88q-44 56 -88 0l-136 -132q-44 -48 0 -92zM1472 960q0 -64 64 -64h192q64 0 64 64t-64 64h-192q-64 0 -64 -64z" />
<glyph unicode=":" horiz-adv-x="1600" d="M228 525v572q0 57 42.5 98.5t102.5 41.5v-853q-60 0 -102.5 41.5t-42.5 99.5zM446 384v853h721v-853h-721zM552 1143q0 54 20.5 103t55.5 84.5t83 56.5t101.5 21t102 -21t83 -56.5t55 -84.5t20.5 -103q0 -22 -4 -40.5t-10 -31.5t-15.5 -23.5t-18.5 -17t-22 -11.5t-22 -7 t-22 -3.5t-19 -1.5h-17h-51h-119h-51q-67 0 -103 26q-47 40 -47 110zM633 751h167v43h-124v42h-43v-85zM633 926h124v43h-124v-43zM638 1126q0 -6 3 -13.5t9 -11.5q13 -9 52 -9h47q21 5 64 5h64h46q29 0 42 4t17.5 14t4.5 33q0 46 -23 86.5t-63 64.5t-88.5 24t-88.5 -24.5 t-63 -65.5t-23 -90v-17zM676 836h81v43h-81v-43zM757 879h43v43h-43v-43zM838 789h43v-42h81v42h43v133h-43v42h-81v-42h-43v-133zM885 789v133h81v-133h-81zM1235 384v853q60 0 102.5 -41.5t42.5 -98.5v-572q0 -58 -42.5 -99.5t-102.5 -41.5z" />
<glyph unicode=";" d="M371 818l68 112q17 27 49 10l-103 -166q-33 16 -14 44zM400 764l102 166l161 -88l-102 -165zM497 311v244h88v-244h-88zM497 560l308 19l34 215l141 390h-205l-122 -278l-92 39l146 341h312l249 -97l151 -113l195 171l68 -83l-263 -224l-195 151l-146 -293l204 -151 l20 -395l-141 -5l-15 327l-166 122l-10 5l-44 -254l-419 -29zM522 935l14 -10q28 28 54 10l34 -19q33 -17 15 -44l14 -10q25 43 -24 68l-34 20q-48 25 -73 -15zM575 667l103 166q39 -19 14 -44l-68 -112q-17 -27 -49 -10zM1078 1408q0 141 141 141t141 -141t-141 -141 t-141 141zM1156 243v87h243v-87h-243z" />
<glyph unicode="&#x3c;" d="M243 888q0 188 82.5 352.5t225.5 272.5t320 140v156l279 -213l-279 -212v127q-212 -49 -350.5 -223t-138.5 -400q0 -140 57.5 -265t159.5 -217l-7 -29v-141q-160 109 -254.5 281.5t-94.5 370.5zM541 886l34 15l171 -88q52 31 195 98q-22 59 -29 78q-90 145 -142 214 q-88 117 -112 117q10 5 34 5q9 0 49 -10q124 -99 298 -243q47 32 92 39q0 8 17 -7l3 -3q2 -5 6.5 -14.5t7.5 -14.5q0 -26 -4 -30q-7 -4 -16 -8t-21.5 -8t-21.5 -8l24 -29q14 7 78 29q62 24 74 24q57 25 112 25h9q55 0 78 -30v-9q0 -30 -63 -64q-250 -137 -600 -229 q-25 -6 -195 -29q-15 14 -5 24l39 25zM683 686q44 0 78 10l-10 -93l-34 -9zM801 179l279 212v-134q155 17 283 105t201.5 227t73.5 299q0 161 -75 299.5t-204 231.5v163q188 -98 303 -284t115 -410q0 -199 -92 -372t-252 -282t-353 -126v-142zM1029 759v5l166 54 q0 -6 -2.5 -23.5t-2.5 -30.5q45 20 63 20q15 0 20 -10q9 -27 9 -39q0 -10 -9 -19q-51 -30 -93 -30q-2 -26 -7 -56.5t-12 -69.5t-10 -59q-10 -21 -54 -39q5 0 5 24q0 10 -10 78q-27 123 -53 176l-5 10z" />
<glyph unicode="=" d="M502 1028q53 -259 73 -342q12 -54 20.5 -84t23 -57.5t28 -39t41 -20.5t57 -11t79.5 -2h224q37 2 52 32.5t-1 60t-55 29.5h-205q-83 0 -108.5 20.5t-47.5 105.5l-69 332q-7 39 -38 48t-56 -13t-18 -59zM610 1447q0 59 41.5 102.5t99.5 43.5t99.5 -43.5t41.5 -102.5 t-41.5 -102.5t-99.5 -43.5q-63 0 -104 42t-37 104zM644 1120q-7 49 13 87.5t54.5 54t72 15.5t70 -29t43.5 -79l64 -332h243q52 0 82.5 -34t30.5 -78l234 -453q0 -53 -39 -74.5t-78 0t-39 74.5q0 35 -31.5 90t-81.5 113t-76 86t-50 52q-9 9 -84.5 11.5t-147.5 0.5l-71 -2 q-55 0 -89 32t-42 80z" />
<glyph unicode="&#x3e;" d="M293 896q0 149 58.5 284.5t156.5 233.5t233.5 155.5t282.5 57.5q149 0 284.5 -58.5t233.5 -156.5t155.5 -233.5t57.5 -282.5t-57.5 -282.5t-155.5 -233.5t-233.5 -156.5t-284.5 -58.5t-284.5 57.5t-233.5 155.5t-155.5 233.5t-57.5 284.5zM473 891q0 -149 73 -275.5 t200 -201t278 -74.5t278 74.5t200 202.5t73 279q0 149 -73 275.5t-200 201t-278 74.5q-150 0 -277.5 -75.5t-200.5 -203.5t-73 -277zM522 891q0 19 14 34t35 15q19 0 33.5 -14t14.5 -35q0 -18 -15 -33.5t-33 -15.5t-33.5 15.5t-15.5 33.5zM796 1018q0 -21 18 -39l176 -176 q3 -3 7.5 -6t18 -7.5t23.5 4.5q15 7 89.5 77.5t141.5 137.5l66 67q18 18 18 39t-18 39q-21 25 -45 27t-38 -17l-234 -234l-127 127q-18 18 -39 18t-39 -18t-18 -39zM975 443q0 19 14 33.5t35 14.5t35 -14.5t14 -33.5q0 -18 -15.5 -33.5t-33.5 -15.5t-33.5 15.5t-15.5 33.5z M975 1349q0 18 15.5 33.5t33.5 15.5t33.5 -15.5t15.5 -33.5q0 -19 -14 -33.5t-35 -14.5t-35 14.5t-14 33.5zM1434 891q0 19 13.5 34t34.5 15q18 0 33.5 -15.5t15.5 -33.5t-15.5 -33.5t-33.5 -15.5t-33 15.5t-15 33.5z" />
<glyph unicode="A" d="M924 536q0 12 8 20l164 292l-164 292q-8 18 -8 24q0 12 12 24q5 5 28 12h4q16 0 20 -12l188 -316q8 -18 8 -24t-8 -24l-188 -316q-8 -8 -24 -8q-20 0 -28 8q-12 20 -12 28z" />
<glyph unicode="B" d="M860 848q0 -17 4 -24l188 -316l28 -8q20 0 28 8q12 12 12 28q0 12 -8 20l-164 292l164 292q8 18 8 24q0 12 -12 24q-23 16 -32 16q-8 0 -24 -16l-188 -316q-4 -7 -4 -24z" />
<glyph unicode="C" d="M800 896q0 -88 68 -156t156 -68q92 0 160 68q64 64 64 156q0 96 -64 160t-160 64q-92 0 -156 -64q-68 -68 -68 -160zM940 912l4 20q4 4 8 4q7 4 12 4q4 4 12 4q9 0 16 4h12q24 0 36 -12t12 -32v-12q-4 -4 -4 -16l-16 -60q-4 -4 -4 -16v-16q0 -12 4 -16t16 -4t16 4 q8 0 8 4l-4 -20q-27 -7 -32 -12q-4 -4 -24 -4q-24 0 -36 12q-16 12 -16 28q0 12 4 16v16l16 60q4 4 4 16q4 4 4 16q0 8 -4 12v4l-8 4h-12q-8 0 -12 -4q-8 0 -12 -4zM1000 1020q0 12 12 24t28 12t24 -12q12 -12 12 -24q0 -16 -12 -28q-8 -12 -24 -12t-28 12t-12 28z" />
<glyph unicode="D" d="M544 816q0 -204 148 -348q144 -148 348 -148t352 148q144 144 144 348q0 200 -144 352q45 25 80 60q12 12 12 28t-24 44q-28 24 -44 24t-28 -12q-24 -16 -64 -88q-74 49 -148 68q-5 -5 -12 -40l-12 -32l-4 -20q128 -32 212 -140q80 -113 80 -244q0 -164 -116 -280 q-120 -120 -284 -120q-168 0 -280 120q-120 112 -120 280q0 136 84 244t212 144q-19 60 -28 92q-158 -41 -260 -176q-104 -140 -104 -304zM676 816q0 -4 4 -4q36 -24 80 -24h20q8 0 16 8q4 4 4 24t-4 24q-4 0 -8 4h-8h-20q-44 0 -80 -24q-4 -4 -4 -8zM780 568q0 -12 12 -12 q43 12 84 56q8 8 8 16t-12 20q-16 12 -24 12l-16 -8q-40 -28 -52 -84zM780 1068q12 -44 52 -84l16 -8q8 0 24 16q12 12 12 20l-8 16q-40 40 -84 52q-12 0 -12 -12zM928 1412q0 -36 36 -36h16q19 -131 48 -184q12 -16 28 0q29 53 48 184h12q36 0 36 36v56q0 36 -36 36h-152 q-36 0 -36 -36v-56zM992 816q0 -48 44 -48l236 -212q4 -4 12 4q4 0 8 4l8 8q4 4 0 12l-212 236q-8 44 -48 44q-48 0 -48 -48zM1012 536q0 -44 24 -80l4 -4q4 0 8 4q24 36 24 80v20q0 8 -8 16q-4 4 -20 4q-24 0 -28 -4v-8q-4 -4 -4 -8v-20zM1196 1012q0 -8 12 -20 q12 -16 20 -16t16 8q44 41 56 84q0 12 -12 12q-44 -12 -84 -52zM1280 820q0 -20 4 -24q8 -8 16 -8h24q40 0 76 24l4 4q0 4 -4 8q-36 24 -76 24h-24h-8q-4 -4 -8 -4q-4 -4 -4 -24z" />
<glyph unicode="E" d="M704 816q0 -45 16 -108l64 20q-16 31 -16 88q0 180 164 248l-24 60q-95 -43 -148 -120q-56 -89 -56 -188zM768 640l72 -172l32 56q80 -44 168 -44q136 0 236 100t100 236q0 124 -76 212l26 18q3 3 7.5 6t7 5t3.5 3l8 24q0 12 -16 28t-28 16l-24 -8q-1 -1 -3 -3.5t-5 -7 t-6 -7.5l-18 -26q-29 29 -80 48l-24 -60q164 -68 164 -248q0 -112 -80 -192t-192 -80q-76 0 -136 36l36 60h-172zM800 816q0 -4 4 -8q16 -16 68 -16q4 0 8 4t4 16t-4 16l-8 8q-48 0 -68 -20h-4zM872 972q12 -37 36 -56q8 -8 12 -8t16 12q8 8 8 12q0 8 -4 12q-36 36 -60 36 q-8 0 -8 -8zM960 1176q0 -12 24 -12h16q0 -59 32 -132q8 -26 16 0q27 50 32 132h16q24 0 24 12v48q0 24 -24 24h-112q-24 0 -24 -24v-48zM992 816q0 -48 48 -48h12l140 -120q4 -4 8 0q20 12 12 20l-124 136v12q0 48 -48 48t-48 -48zM1020 632q0 -24 16 -52h8q20 32 20 52v8 l-4 8q0 12 -4 12q-4 4 -16 4t-16 -4q-4 0 -4 -12v-16zM1136 932q0 -4 12 -12q4 -12 12 -12q4 0 12 8q24 19 36 56q0 8 -8 8q-24 0 -60 -36l-4 -8v-4zM1188 812q0 -12 4 -16l8 -4h4q52 0 68 16q4 4 4 8h-4q-20 20 -68 20q-4 -4 -8 -4t-4 -4q-4 -4 -4 -16z" />
<glyph unicode="F" d="M732 832q0 -8 8 -16l104 -104q18 -8 20 -8q8 0 16 8q16 16 0 32l-60 68l84 -12h136q24 0 24 32t-24 32h-136l-84 -16l60 72q16 16 0 32t-36 0l-104 -104q-8 -8 -8 -16zM948 960q0 -32 28 -32h132l88 12l-60 -68q-19 -16 0 -32l16 -12q8 0 16 12l104 104q8 8 8 16t-8 16 l-104 104l-16 12q-8 0 -16 -12q-19 -16 0 -32l56 -72l-84 16h-132q-28 0 -28 -32z" />
<glyph unicode="G" d="M768 736q0 -36 44 -44l228 -20q130 0 228 20q44 8 44 44v268q0 20 -40 32l-232 24q-120 0 -232 -24q-40 -12 -40 -32v-268zM816 756v220l208 -176q16 -16 32 0l204 176q4 -4 4 -8v-212q-69 51 -100 72q-8 8 -16 0q-4 -4 4 -16q14 -23 76 -76l-188 -16q-107 0 -188 16 q62 53 76 76q8 12 4 16q-8 8 -16 0q-31 -21 -100 -72zM848 992q81 16 196 16q107 0 188 -16l-192 -148z" />
<glyph unicode="H" d="M832 880q0 16 12 28l128 108l20 8q8 0 12 -4q16 -4 16 -28l-28 -76l204 12q20 0 20 -20v-56q0 -20 -20 -20l-204 12l28 -76q0 -24 -16 -28l-12 -4q-2 0 -20 8l-128 108q-12 12 -12 28z" />
<glyph unicode="I" d="M732 992q0 -12 4 -16q4 -12 40 -40l68 -44q16 -4 8 -24l-28 -76q-16 -48 -12 -60q12 -24 36 -24t52 28l60 48q16 16 28 0l64 -52q28 -24 52 -24q32 0 36 24q4 12 -12 60l-28 72q-8 20 8 24l68 44q32 20 44 44l4 4v8q0 20 -20 28q-18 8 -56 8l-80 -4q-20 0 -20 16l-24 80 q-5 33 -24 52q-18 8 -24 8q-2 0 -20 -8q-11 -7 -28 -52l-16 -80q-4 -16 -24 -16l-80 8q-40 0 -60 -12q-16 -12 -16 -24z" />
<glyph unicode="J" d="M416 840l144 -164l-48 -28q-4 -4 -4 -12t8 -16q149 5 264 32q472 113 804 284q84 48 84 76v8q-12 36 -108 36q-100 0 -160 -24l-204 -72l-20 20q-11 7 -20 16q34 11 80 32q12 12 8 36q-14 37 -16 40q-16 16 -28 8q-61 -17 -124 -52q-185 149 -400 304q-24 12 -56 12 q-9 0 -52 -8h4q24 0 144 -140q116 -144 192 -264q15 -28 40 -96q-146 -56 -260 -120l-228 108zM600 592l48 -104l48 8l12 108zM1068 688q9 -9 16 -24q33 -75 68 -216q16 -58 16 -100q0 -28 -12 -36q52 12 76 52q35 180 40 232q64 4 124 36q12 8 12 24v8q-14 37 -16 40 q-12 16 -24 12q-40 -4 -84 -24q0 25 4 40v32q-67 -27 -220 -76z" />
<glyph unicode="K" d="M480 636q0 -28 28 -28h72q28 0 28 28v28q0 32 208 36q15 4 76 4l148 4q8 0 74 -2t74 -2q61 0 76 -4q208 -4 208 -36v-28q0 -28 28 -28h72q28 0 28 28v392q0 28 -16 44t-44 16h-68v-224h-864v196q0 28 -16 44t-44 16h-68v-484zM640 960q0 -64 64 -64t64 64t-64 64t-64 -64 zM800 896h640v128q-17 21 -260 28h-28q-211 0 -284 -32q-68 -32 -68 -104v-20z" />
<glyph unicode="L" d="M416 820q0 -49 4 -60q7 -15 24 -32q20 -24 32 -24h60v20q-4 7 -4 16q0 56 40 96t96 40t96 -40q36 -44 36 -96q0 -29 -4 -36h444q-4 7 -4 36q0 56 40 96t96 40t96 -40q36 -44 36 -96q0 -29 -4 -36h104q8 0 20 24q8 43 8 120q0 44 -52 80q-66 37 -100 44q-13 3 -60 10 q-51 7 -64 10q-73 5 -112 32q-216 156 -344 156l-408 -20q-12 -12 -8 -16l48 -28q-32 -24 -68 -80q-32 -49 -44 -80v-104zM564 740q0 -36 32 -68t72 -32q44 0 72 28t28 72t-28 72t-72 28t-72 -28q-32 -32 -32 -72zM616 1024q0 20 12 44q16 40 56 44l188 12q124 0 256 -96 v-76q-10 0 -26 4q-18 4 -36 6q-17 1 -34 6l-96 12l-48 108l-4 4l-20 -4l12 -104q-55 7 -256 12q-4 7 -4 28zM1268 740q0 -36 32 -68t72 -32t72 32q28 28 28 68q0 44 -28 72t-72 28t-72 -28q-32 -32 -32 -72z" />
<glyph unicode="M" d="M512 192h1024v1088l-320 320h-704v-1408zM672 672v288h84q32 0 56 -12q16 -4 40 -28q12 -17 12 -52q0 -36 -12 -52q-17 -25 -40 -32q-24 -12 -56 -12h-52v-100h-32zM704 800h48q37 0 56 16q24 16 24 52q0 28 -24 48q-19 16 -56 16h-48v-132zM928 672v288h64q9 0 68 -8 q32 -12 48 -28q24 -20 32 -44q12 -32 12 -64t-12 -64q-8 -24 -32 -44q-16 -16 -48 -28q-59 -8 -68 -8h-64zM960 700h32q40 0 72 12q27 16 44 40q12 24 12 64t-12 64q-16 28 -44 40q-32 12 -72 12h-32v-232zM1216 672v288h160v-28h-128v-100h104v-28h-104v-132h-32z M1216 1288v16l24 -24h-16zM1216 1320v16l56 -56h-16zM1216 1352v16l88 -88h-16zM1216 1384v16l120 -120h-16zM1216 1416v16l152 -152h-16zM1216 1448v16l184 -184h-16zM1216 1480v16l216 -216h-16zM1216 1512v16l248 -248h-16zM1216 1544v16l280 -280h-16zM1216 1576v16 l312 -312h-16z" />
<glyph unicode="N" d="M768 808q0 -8 12 -24q8 -13 24 -20l60 -12v-64q74 -16 164 -16q91 0 156 16v64l60 12q16 7 24 20q12 16 12 24v172q0 12 -12 28q-8 13 -24 20l-60 12v64q-65 16 -156 16q-90 0 -164 -16v-64l-60 -12q-16 -7 -24 -20q-12 -16 -12 -28v-172zM896 716v148h256v-148 q-60 -12 -124 -12q-68 0 -132 12zM896 992v84q64 12 132 12q64 0 124 -12v-84h-256zM928 736h192v32h-192v-32zM928 800h192v32h-192v-32z" />
<glyph unicode="O" d="M832 840h36q4 0 16 20l16 28l108 -8l-60 -152l32 4q16 4 52 52l60 92l56 -4q68 0 68 36t-68 36l-56 -4l-60 92q-28 48 -52 52l-32 4l60 -152l-108 -8l-16 28q-12 20 -16 20h-36l20 -64v-8z" />
<glyph unicode="P" d="M800 824q0 -24 48 -24l36 4l40 -64q20 -32 32 -32l20 -4l-36 100l68 8l12 -20l12 -12l24 -4l-12 44v8l12 40h-24l-8 -8l-4 -4l-12 -20l-68 4l36 104l-20 -4q-12 0 -32 -32l-40 -64l-36 4q-48 0 -48 -24zM1024 904l24 4l8 8l4 4l12 20l68 -8l-36 -100l20 4q12 0 32 32 l40 64l36 -4q48 0 48 24t-48 24l-36 -4l-40 64q-20 32 -32 32l-20 4l36 -104l-68 -4l-12 20l-12 12h-24l12 -40v-8z" />
<glyph unicode="Q" d="M896 788q0 -12 4 -16l16 -4q12 0 24 12l84 84l84 -84l24 -12q12 0 16 4t4 16t-12 24l-84 84l84 84q12 12 12 24t-4 16l-16 4q-12 0 -24 -12l-84 -84l-84 84l-24 12q-12 0 -16 -4t-4 -16t12 -24l84 -84l-84 -84q-12 -12 -12 -24z" />
<glyph unicode="R" d="M864 912q0 16 12 28l128 108l20 8q8 0 12 -4q16 -4 16 -28l-28 -76l140 12q20 0 20 -20v-56q0 -20 -20 -20l-140 12l28 -76q0 -24 -16 -28l-12 -4q-2 0 -20 8l-128 108q-12 12 -12 28z" />
<glyph unicode="S" d="M928 824v176l160 -88z" />
<glyph unicode="T" d="M744 704q79 -52 180 -52q136 0 232 96t96 236v20q47 31 60 52q-26 -8 -56 -8q24 20 44 68q-44 -32 -76 -32q-40 36 -88 36q-52 0 -84 -32q-36 -36 -36 -88q0 -21 4 -28q-149 17 -240 128q-16 -28 -16 -60q0 -56 48 -100l-48 16q0 -92 88 -120q-4 -4 -28 -4h-16 q31 -75 108 -80q-67 -48 -148 -48h-24z" />
<glyph unicode="U" d="M768 728q0 1 8 44q8 20 44 40q4 2 68 28q21 0 32 4h28l-4 4q0 8 -4 8q-4 4 -4 8q-8 26 -8 28q0 8 4 12q0 8 4 12h-24q-56 0 -84 36q-28 28 -28 72q0 48 44 92q23 23 60 28l56 8h136l-40 -24h-44q4 0 8 -4l8 -8l4 -8l12 -12l12 -24q0 -13 4 -20v-16q0 -32 -16 -60l-12 -12 l-4 -8l-8 -4l-12 -12l-4 -8l-8 -8q-8 -8 -8 -20q0 -8 8 -16t8 -12l24 -20q24 -16 40 -40q16 -19 16 -56q0 -44 -44 -88q-52 -40 -132 -40q-64 0 -108 32q-32 20 -32 64zM824 744q0 -36 32 -60t84 -24q44 0 76 24q24 20 24 52q0 24 -20 44q-28 28 -56 44h-40q-1 0 -44 -8 l-8 -4q0 -4 -4 -4q-13 -5 -20 -12q-16 -12 -16 -20q-8 -26 -8 -32zM856 1056q0 -40 24 -76q4 -16 28 -32q12 -12 36 -12t44 20l12 24v24q0 38 -20 80q-7 15 -24 32q-20 12 -36 12q-28 0 -48 -20q-16 -28 -16 -52zM1124 896v44h72v72h40v-72h76v-44h-76v-72h-40v72h-72z" />
<glyph unicode="V" d="M896 864h64v-192h96v192h76l8 96h-84v76q0 32 32 32h64v76l-92 4q-36 0 -64 -28q-36 -32 -36 -64v-96h-64v-96z" />
<glyph unicode="W" d="M832 912q0 -88 60 -148t148 -60t148 60t60 148t-60 148t-148 60t-148 -60t-60 -148zM908 804v12q0 72 92 92q16 -12 40 -12t40 12q92 -20 92 -92v-12q-43 -48 -100 -60h-48q-68 8 -116 60zM984 1020q0 64 56 64t56 -64q0 -92 -56 -92t-56 92z" />
<glyph unicode="X" d="M640 896q0 160 112 272t272 112t272 -112t112 -272t-112 -272t-272 -112t-272 112t-112 272zM853 902q0 -62 47 -126q40 -48 64 -48q11 0 32 8t36 8t36 -8t32 -8q32 0 64 48l28 56q-56 20 -56 80q0 24 12 42q13 20 22 26q11 8 14 8q-28 40 -76 40q-19 4 -48 -8 q-28 -12 -32 -12q-9 0 -30 10t-38 10q-52 0 -88 -48q-19 -39 -19 -78zM1023 1044q0 -4 1 -8h6q22 0 54 24q24 28 24 68q-32 0 -64 -32q-21 -27 -21 -52z" />
<glyph unicode="Y" d="M640 896q0 160 112 272t272 112t272 -112t112 -272t-112 -272t-272 -112t-272 112t-112 272zM792 824q0 -36 32 -36t32 36v144q0 36 -32 36t-32 -36v-144zM884 788q0 -32 32 -32h32v-92q0 -28 28 -28q32 0 32 28v92h32v-92q0 -28 28 -28q32 0 32 28v92h32q36 0 28 32v216 h-276v-216zM884 1036h280q0 72 -72 104l20 40v8q-4 0 -4 -4l-24 -40q-16 12 -60 12q-40 0 -60 -12l-20 40q0 4 -8 4v-8l20 -40q-72 -28 -72 -104zM948 1080q0 16 16 16t16 -16t-16 -16t-16 16zM1072 1080q0 16 12 16q16 0 16 -16t-16 -16q-12 0 -12 16zM1192 824 q0 -36 32 -36t32 36v144q0 36 -32 36t-32 -36v-144z" />
<glyph unicode="a" d="M800 880q0 -48 48 -48t48 48t-48 48t-48 -48zM960 880q0 -48 48 -48t48 48t-48 48t-48 -48zM1120 880q0 -48 48 -48t48 48t-48 48t-48 -48z" />
<glyph unicode="b" d="M844 756q0 -5 16 -28l60 -60l24 -12q12 0 24 12l216 212q12 12 12 36q0 20 -12 28l-216 216l-24 12q-12 0 -24 -12l-60 -64q-8 -8 -8 -24v-4q0 -16 4 -20l136 -136l-136 -132q-12 -12 -12 -24z" />
<glyph unicode="c" d="M848 916q0 20 12 28l216 216l24 12q12 0 24 -12l60 -64q8 -8 12 -24v-4q0 -12 -8 -20l-136 -136l136 -132q12 -12 12 -24t-16 -28l-60 -60l-24 -12q-12 0 -24 12l-216 212q-12 12 -12 36z" />
<glyph unicode="d" d="M852 1024q0 -36 12 -60l76 -172q12 -24 40 -24q32 0 36 28l76 168q16 35 16 60q0 48 -36 92q-41 36 -92 36q-52 0 -88 -36q-40 -36 -40 -92zM928 1020q0 48 48 48t48 -48t-48 -48q-16 0 -32 16q-16 12 -16 32z" />
<glyph unicode="e" d="M800 672h416v288h-416v-288zM800 992h416v96h-64v32h-96v-32h-96v32h-96v-32h-64v-96zM832 704v32h64v-32h-64zM832 768v32h64v-32h-64zM832 832v32h64v-32h-64zM832 896v32h64v-32h-64zM896 1056v32h32v-32h-32zM928 704v32h64v-32h-64zM928 768v32h64v-32h-64zM928 832 v32h64v-32h-64zM928 896v32h64v-32h-64zM1024 704v32h64v-32h-64zM1024 768v32h64v-32h-64zM1024 832v32h64v-32h-64zM1024 896v32h64v-32h-64zM1088 1056v32h32v-32h-32zM1120 704v32h64v-32h-64zM1120 768v32h64v-32h-64zM1120 832v32h64v-32h-64zM1120 896v32h64v-32h-64 z" />
<glyph unicode="f" d="M576 904l128 -140l-44 -28q-12 -8 4 -24q168 19 228 32q420 102 700 244q76 36 76 68l-4 4v4q-20 32 -92 32h-8q-76 -8 -132 -24l-42 -14q-19 -7 -46 -14q-18 -6 -54 -20q-34 -14 -38 -16l-32 32q64 26 68 28q16 12 8 32q-4 16 -16 32q-16 12 -20 8q-46 -12 -108 -44 q-104 84 -348 264q-21 8 -56 8q-29 0 -40 -4q32 0 132 -124q86 -103 164 -228q12 -24 36 -84q-116 -46 -228 -104l-196 96zM740 692l40 -96l40 8l12 96q-25 -2 -48.5 -4t-33 -3t-10.5 -1zM1144 776l8 -8l4 -8l4 -8q36 -77 60 -188q12 -52 12 -84q0 -24 -12 -32q47 19 64 44 q24 102 36 200q59 7 108 32q12 4 12 20q0 24 -12 40t-24 12q-3 0 -72 -20q0 49 4 60z" />
<glyph unicode="g" d="M512 668q0 -28 28 -28h72q28 0 28 28v28q0 32 208 36q15 4 76 4l148 4q8 0 74 -2t74 -2q61 0 76 -4q208 -4 208 -36v-28q0 -28 28 -28h72q28 0 28 28v392q0 28 -16 44t-44 16h-68v-224h-864v196q0 28 -16 44t-44 16h-68v-484zM672 992q0 -64 64 -64t64 64t-64 64t-64 -64 zM832 928h640v128q-17 21 -260 28h-28q-211 0 -284 -32q-68 -32 -68 -104v-20z" />
<glyph unicode="h" d="M348 820l4 -28v-32q7 -15 24 -32q17 -24 32 -24h64q-8 34 -8 36q0 56 40 96t96 40t96 -40q36 -44 36 -96q0 -29 -4 -36h512q-8 34 -8 36q0 56 40 96t96 40t96 -40q36 -44 36 -96q0 -29 -4 -36h108q4 0 16 24q8 26 8 120q0 44 -52 80q-66 37 -100 44q-13 3 -60 10 q-51 7 -64 10q-73 5 -112 32q-216 156 -344 156l-472 -20q-8 -8 -8 -16l48 -28q-37 -37 -68 -84q-40 -52 -40 -76q-4 -28 -4 -76v-28zM500 740q0 -40 32 -72q28 -28 68 -28q44 0 72 28t28 72t-28 72t-72 28q-40 0 -68 -28q-32 -32 -32 -72zM548 1032q0 10 8 36q17 37 60 44 l256 12q120 0 252 -96v-76l-104 16q-76 8 -120 12l-48 108l-4 4l-16 -4l8 -104q-16 0 -284 12q-8 26 -8 36zM1268 740q0 -40 32 -72q28 -28 68 -28q44 0 72 28t28 72t-28 72t-72 28q-40 0 -68 -28q-32 -32 -32 -72z" />
<glyph unicode="i" d="M656 688l512 -20q290 0 512 20v8l-4 8l-108 164v340q0 16 -12 40q-19 19 -32 24q-202 44 -368 44t-344 -44q-16 -4 -28 -24q-16 -19 -16 -40v-340l-108 -164l-4 -8v-8zM660 660q8 -60 44 -68l464 -24q232 0 464 24q36 8 44 68l-508 -20q-220 0 -508 20zM828 928v276l8 8 l64 16q124 24 260 24q128 0 260 -24l84 -16v-4l4 -4l4 -276q0 -20 -32 -32q-132 -24 -284 -24q-160 0 -340 24q-28 4 -28 32zM1056 1052q0 -8 8 -16l88 -92q8 -8 20 -8q11 0 16 8l152 184q4 7 4 20v12q-7 15 -24 20h-12q-12 0 -20 -8l-116 -156l-4 4l-60 56q-17 8 -24 4 q-19 -7 -24 -16l-4 -4v-8z" />
<glyph unicode="j" d="M732 992q0 -12 4 -16q4 -12 40 -40l68 -44q16 -4 8 -24l-28 -76q-16 -48 -12 -60q12 -24 36 -24t52 28l60 48q16 16 28 0l64 -52q28 -24 52 -24q32 0 36 24q4 12 -12 60l-28 72q-8 20 8 24l68 44q32 20 44 44l4 4v8q0 20 -20 28q-18 8 -56 8l-80 -4q-20 0 -20 16l-24 80 q-5 33 -24 52q-18 8 -24 8q-2 0 -20 -8q-11 -7 -28 -52l-16 -80q-4 -16 -24 -16l-80 8q-40 0 -60 -12q-16 -12 -16 -24zM780 984h24l84 -4q52 0 64 48l20 76q0 8 4 12v12l4 -12q4 -4 4 -12l24 -80q8 -48 64 -48l80 8h20l-4 -8q-4 0 -12 -8l-72 -44q-28 -16 -28 -48 q0 -17 4 -28l32 -72q0 -12 4 -16v-8l-8 4q0 8 -8 8l-64 52q-29 20 -40 20q-20 0 -40 -20l-64 -48l-16 -16v12q4 4 4 12l32 76q8 26 8 28q0 28 -32 48l-68 44q-4 0 -12 8z" />
<glyph unicode="k" d="M740 888q0 -155 4 -208q0 -16 8 -16q18 -15 104 -20v44q-27 5 -64 16q-8 0 -8 16q0 307 4 396q8 0 22 2l14 2l8 4v-36q0 -8 16 -8t16 8v40q12 0 16 4h16v-44q0 -8 16 -8t16 8v44h32v-44q0 -8 16 -8t16 8v44q7 -4 32 -4v-40q0 -8 16 -8t16 8v36q4 -4 12 -4q11 -4 16 -4 q11 -4 28 -4q0 -39 4 -56v-52h40q0 116 -4 148q0 8 -16 12q-77 8 -80 8v36q0 8 -16 8t-16 -8v-32h-32v32q0 8 -16 8t-16 -8v-28h-32v28q0 8 -16 8t-16 -8v-32h-32v32q0 8 -16 8t-16 -8v-36l-72 -8q-12 0 -16 -16q-4 -85 -4 -260zM824 948q0 -12 8 -12h96l96 24h-192 q-8 0 -8 -12zM824 1012q0 -12 8 -12h192q8 0 8 12t-8 12h-192q-8 0 -8 -12zM896 664q0 -40 32 -52q111 -28 232 -28q117 0 216 28q32 20 32 52v160q0 36 -32 48q-70 21 -128 28l-16 40q-11 11 -32 16l-48 4q-2 0 -24 -2t-24 -2q-21 -5 -32 -16l-16 -44q-61 -5 -128 -24 q-32 -12 -32 -48v-160zM1056 744q0 40 28 68t68 28t68 -28t28 -68t-28 -68t-68 -28t-68 28t-28 68z" />
<glyph unicode="l" d="M700 1064l8 -8l4 -4q20 -20 32 -12l236 136l232 -136q12 -8 32 12q12 4 12 12q0 24 -8 32l-256 148q-4 4 -12 4t-12 -4l-256 -148q-12 -8 -12 -32zM768 800h120q0 -4 4 -4h36l8 -12q-8 -34 -8 -48v-144q0 -16 16 -16h32q16 0 16 16v24q0 24 144 28h20q124 0 124 -28v-24 q0 -16 16 -16h36q12 0 12 16v144q0 41 -4 48l4 12h40q8 0 8 12t-8 20q-16 16 -40 0l-20 -16q-60 116 -140 116v12h-416v-20h284l-24 -12h-260v-20h236l-12 -12h-224v-20h208l-4 -8q-4 0 -4 -4h-200v-12h132h-4q0 -4 -4 -4q0 -4 -4 -8v-4h-120v-16zM768 952h416v20h-416v-20z M768 984h416v20h-416v-20zM768 1016h416v4l-28 16h-360l-28 -16v-4zM820 1048h316l-32 20h-252zM872 1080h208l-32 20h-140zM920 832h40q-8 -8 -8 -16h-8l-16 12zM928 1112h100l-48 28zM976 692q0 24 24 24q20 0 20 -24q0 -20 -20 -20q-24 0 -24 20zM992 772q24 56 28 60 q44 44 92 44h52q48 0 92 -44q11 -11 28 -60q-62 -20 -144 -20q-86 0 -148 20zM1052 676v28h172v-28h-172zM1260 692q0 24 20 24q24 0 24 -24q0 -20 -24 -20q-20 0 -20 20z" />
<glyph unicode="m" d="M672 608l224 -32l224 32l224 -32l32 288l-32 224l-140 12q0 -17 4 -28q0 -24 -8 -32l80 -8l32 -164l-144 28l-4 -32l-40 -76l-16 -116l-192 -28l12 84q-12 8 -12 12l-16 32l-16 -132l-148 24l32 200l100 -20l-16 36l-88 20l-28 152l68 -8q-8 12 0 32q4 11 4 32l-136 12 l32 -256zM864 1056q0 -33 16 -68l84 -196q20 -24 44 -24q32 0 44 28l84 188q16 28 16 72q0 64 -40 104t-104 40q-60 0 -100 -40q-44 -44 -44 -104zM952 1052q0 56 56 56q52 0 52 -56q0 -52 -52 -52q-56 0 -56 52zM1140 668l24 196l144 -28l-28 -196z" />
<glyph unicode="n" d="M724 884v12l28 28q0 4 4 8t4 12q6 10 12 16v12q0 21 -7 22q-2 0 -5 -2q-16 -8 -24 12q-4 7 -4 32q-4 11 -4 20q0 24 8 32q24 12 44 12q13 0 20 -4q13 -13 20 -28q0 -17 -4 -28v-32l4 4q4 4 4 8q15 18 52 84q24 80 200 80q6 0 44 -2t40 -2q108 0 136 28l28 16q4 -4 4 -8 l-16 -32q-8 -36 -60 -60q-56 -24 -64 -32q-12 -4 -56 -12l-44 -4h-24q-97 -5 -128 -12q-24 0 -40 -28q-18 -34 -24 -40q-5 -5 -12 -44l-4 -36v-56q0 -36 20 -36q52 -4 76 -52q58 -58 64 -68q31 -31 64 -36q45 -5 120 -80q72 -72 84 -104l4 -16q-8 0 -16 8q-52 64 -168 112 l-4 -4q-16 8 -60 36q-84 48 -100 48q-20 -4 -48 24l-28 28l-52 48q-26 22 -32 28l-16 24q-2 4 -4.5 7.5t-4.5 7.5t-3 5l-8 16l-4 4q-16 12 -16 24zM924 932v4q0 32 4 36q8 8 12 8q8 0 16 -8v-16q-4 -4 -4 -20v-12q0 -25 8 -68q0 -8 -8 -8q-8 -8 -8 4q-20 49 -20 80z M1008 1000q0 4 8 12q20 8 32 0q8 -8 8 -100v-92q0 -2 -2 -12t-2 -12q0 -9 8 -52q4 -12 -4 -12q-4 0 -12 8v4q-4 0 -4 4q-13 17 -20 84l-4 8q-4 43 -4 108v28v12q0 5 -4 12zM1112 944v8q0 56 12 68q8 8 24 8q8 0 12 -4t4 -44q0 -76 -8 -148v-36q0 -44 12 -92q0 -16 -8 -24 q-8 0 -12 16q-27 51 -32 128v8q-4 7 -4 112zM1216 744v36v16q0 63 8 140q0 29 -4 40q0 52 4 56v4q8 24 24 24q20 0 28 -20v-12q0 -36 -12 -152q0 -18 -2 -44q-2 -20 -6 -32v-12v-12q0 -75 8 -152q0 -20 -4 -20h-4q-4 0 -4 4q-4 0 -4 4t-4 8q-28 40 -28 124z" />
<glyph unicode="o" d="M736 672q0 -7 20 -36q17 -25 44 -32l256 -24q128 0 256 24q27 7 44 32q20 29 20 36v288q0 8 -20 40q-18 21 -44 28q-112 20 -156 24q-23 28 -56 48q10 10 112 120q4 -4 20 -4q48 0 48 48t-48 48t-48 -48q0 -16 4 -20q-57 -49 -136 -128q-32 8 -56 0q-55 46 -76 60 q8 8 8 24q0 48 -48 48t-48 -48t48 -48q20 0 24 4q0 -3 44 -56q-4 0 -12 -8q-31 -19 -48 -44l-48 -8l-40 -12q-26 -7 -44 -28q-20 -32 -20 -40v-288zM800 712v208q0 16 16 32t36 24q120 24 232 24q6 0 32 -2t32 -2q68 0 68 -68v-240q0 -20 -16 -36t-40 -16q-6 0 -46 -2 t-42 -2q-120 0 -220 24q-20 8 -36 24t-16 32zM1248 720q0 48 48 48t48 -48t-48 -48t-48 48zM1248 848q0 48 48 48t48 -48t-48 -48t-48 48z" />
<glyph unicode="p" horiz-adv-x="1820" d="M1189 656q19 -2 37 -2q54 0 103.5 17.5t90.5 49.5q-33 0 -63 14.5t-51.5 39t-31.5 54.5q16 -2 30 -2q21 0 41 5q-21 5 -40.5 14.5t-35 24t-26.5 32.5t-17.5 39t-6.5 44v1q34 -18 71 -19q-32 21 -50.5 55.5t-18.5 74.5q0 42 21 79q59 -72 142.5 -115.5t179.5 -48.5 q-4 18 -4 36q0 43 21 79t57 56.5t78 20.5q33 0 62.5 -13t51.5 -36q53 10 99 38q-9 -27 -26.5 -49.5t-42.5 -36.5q47 5 90 24q-31 -47 -78 -81q1 -13 1 -20q0 -35 -6 -70t-17.5 -69.5t-28 -67.5t-39.5 -63.5t-50 -57t-60.5 -48t-71 -37t-81.5 -24t-91 -8.5q-130 0 -239 70z " />
<glyph unicode="q" horiz-adv-x="1790" d="M1059 561v670q0 11 4.5 21.5t12.5 18t18.5 12t22.5 4.5h667q15 0 28.5 -7.5t21 -20.5t8.5 -28v-670q0 -24 -17.5 -40.5t-40.5 -16.5h-667q-24 0 -41 16.5t-17 40.5zM1166 1112q0 -28 19.5 -48t47.5 -20t47.5 20t19.5 48t-19.5 47.5t-47.5 19.5t-47.5 -19.5t-19.5 -47.5z M1175 620h116v374h-116v-374zM1363 620h116v185q0 16 1.5 28.5t6 25.5t12 22t20 14.5t30.5 5.5q12 0 22 -3.5t16 -8.5t10.5 -14t7 -16t3.5 -19t1 -19v-19v-182h116v205q0 33 -3 57.5t-12 48t-24 38.5t-40.5 24.5t-59.5 9.5q-39 0 -67.5 -18t-42.5 -42h-1v51h-111zM1934 661z " />
<glyph unicode="r" horiz-adv-x="1489" d="M795 860v72q0 16 0.5 33t1.5 31.5t2 28.5t2 24.5t2 19t1 12.5l1 5q0 2 1 6.5t4 17.5t7 24.5t10.5 24.5t14.5 21t16 14t16 10t14.5 6.5t15.5 4.5t12.5 2.5t11.5 1.5l9 1q59 4 142 6.5t137 2.5l53 1h1q199 0 331 -10q2 0 8.5 -0.5t10 -1t10.5 -2t12.5 -3t13 -4.5t13.5 -7 t13.5 -9.5t14.5 -12.5q8 -8 14.5 -21t10.5 -25t7 -23.5t4 -17.5l1 -7q10 -77 10 -154v-72q0 -34 -2.5 -72.5t-4.5 -59.5l-2 -21q-1 -3 -1.5 -7.5t-4 -17.5t-7 -24t-10.5 -24t-15 -21t-15.5 -14t-16 -10.5t-15 -7t-15.5 -4t-12.5 -2.5t-12 -1.5t-8.5 -1.5q-59 -4 -142 -6.5 t-137 -2.5l-53 -1q-247 3 -323 10q-3 1 -15 2t-21 3t-21.5 6t-24.5 11.5t-22 17.5q-8 9 -15 21.5t-11 24.5t-7 23.5t-4 18.5l-1 7q-10 77 -10 153zM1172 773l256 133l-256 133v-266zM1172 1039l256 -133l-32 -17z" />
<glyph unicode="s" d="M832 1024q0 -8 8 -16q16 -16 32 0l68 92l-12 -116v-136q0 -24 32 -24t32 24v136l-16 116l72 -92q16 -16 32 0t0 36l-104 104q-8 8 -16 8t-16 -8l-104 -104q-8 -18 -8 -20zM956 736q0 -8 12 -16l104 -104q8 -8 16 -8t16 8l104 104q12 8 12 16t-12 16q-16 19 -32 0l-72 -88 l16 116v132q0 28 -32 28t-32 -28v-132l16 -120l-72 92q-16 19 -32 0q-12 -8 -12 -16z" />
<glyph unicode="t" d="M832 852q0 -12 20 -32q17 -17 40 -24q4 -4 28 -4q12 -84 76 -112h4l8 -4q8 0 12 4q16 0 8 20q-4 7 -4 28q0 20 16 36q17 20 52 20h12q64 0 116 12q23 7 40 24q20 20 20 32v168q0 44 -60 56l-164 16q-55 0 -164 -16q-60 -12 -60 -56v-168z" />
<glyph unicode="u" d="M864 852q0 -20 20 -20l140 12l-28 -76q0 -24 16 -28l12 -4q2 0 20 8l128 108q16 16 16 28t-16 28l-128 108l-20 8q-8 0 -12 -4q-16 -4 -16 -28l28 -76l-140 12q-20 0 -20 -20v-56z" />
<glyph unicode="v" d="M800 896q0 -88 68 -156t156 -68q92 0 160 68q64 64 64 156q0 96 -64 160t-160 64q-92 0 -156 -64q-68 -68 -68 -160zM896 880v32q0 16 16 16l144 -8l-56 72q0 16 20 24h12q12 0 16 -4l96 -92q12 -12 12 -24q0 -8 -12 -20l-96 -96q-8 -8 -16 -8l-4 4h-8q-20 8 -20 24 l56 72l-144 -8q-16 0 -16 16z" />
<glyph unicode="w" d="M832 880q0 -72 52 -124t124 -52t124 52t52 124t-52 124t-124 52t-124 -52t-52 -124zM912 808q0 12 8 20l60 52l-60 52q-8 8 -8 20q0 11 8 16q8 12 16 12t20 -12l52 -60l52 60q12 12 20 12t16 -12q12 -7 12 -16q0 -8 -12 -20l-60 -52l60 -52q12 -12 12 -20t-12 -20 q-8 -8 -16 -8t-20 12l-52 60l-52 -60q-12 -12 -20 -12t-16 8t-8 20z" />
<glyph unicode="x" d="M800 896q0 -96 64 -160t160 -64t160 64t64 160t-64 160t-160 64t-160 -64t-64 -160zM880 896q0 28 36 28h80v80q0 36 28 36t28 -36v-80h80q36 0 36 -28t-36 -28h-80v-84q0 -32 -28 -32t-28 36v80h-80q-36 0 -36 28z" />
<glyph unicode="y" d="M672 660v24q0 20 20 20h108v-64h-108q-20 0 -20 20zM672 820v24q0 20 20 20h108v-64h-108q-20 0 -20 20zM672 980v24q0 20 20 20h108v-64h-108q-20 0 -20 20zM672 1140v24q0 20 20 20h108v-64h-108q-20 0 -20 20zM864 640h492q20 0 20 20v24q0 20 -20 20h-492v-64z M864 800h492q20 0 20 20v24q0 20 -20 20h-492v-64zM864 960h492q20 0 20 20v24q0 20 -20 20h-492v-64zM864 1120h492q20 0 20 20v24q0 20 -20 20h-492v-64z" />
<glyph unicode="z" d="M808 888q0 -16 12 -28l128 -124l28 -12q16 0 28 12l228 260q16 12 16 28t-16 32l-28 16q-12 0 -28 -16l-204 -232l-92 96q-16 16 -32 16t-28 -16t-12 -32z" />
<glyph unicode="{" d="M340 1036q0 224 160 384t384 160q225 0 382 -160q158 -161 158 -388q0 -167 -104 -312l356 -356q68 -64 0 -120q-68 -60 -124 0l-356 356q-145 -104 -312 -104q-223 0 -384 158q-160 157 -160 382zM468 1036q0 -172 122 -292t294 -120t292 120t120 292t-120 294t-292 122 t-294 -122t-122 -294zM884 624z" />
<glyph unicode="}" d="M258 701v161h873v-161h-44v-575h-790v575h-39zM375 896q2 78 19 147t39.5 114.5t54.5 86t53 59.5t44 37q39 19 59 24q-47 14 -78.5 56.5t-38.5 94.5q-15 15 -5 34q-34 7 -34 20q0 10 7.5 15t26.5 9l5 10q-69 15 -69 44q0 26 65.5 44.5t159.5 18.5q91 0 157.5 -18.5 t66.5 -44.5q0 -12 -18.5 -24.5t-49.5 -19.5l5 -10q43 -6 43 -24q0 -11 -7.5 -16t-26.5 -8q10 -20 -5 -35q-7 -50 -39 -93.5t-78 -57.5q15 0 35 -10l-249 -433v112q-2 -4 -5.5 -12.5t-7.5 -42.5t-2 -77h-127zM458 330l44 -24q2 -2 4.5 -2t4.5 1l1 1q0 -5 -5 -15q0 -1 -1 -3 t-2 -7t-2 -9.5t-1 -8.5t1 -6q6 -2 13.5 -1t14.5 4l6 2q3 0 8 2.5t7 2.5q-5 -5 0 -10l24 -44l25 44l-5 39v5l10 10l112 102l112 -185q0 -4 3 -4t7 4l29 39q5 5 5 19l-78 205l107 112q15 15 24 34t5 30q-2 2 -4.5 7t-4.5 7q-10 10 -15 10q-11 4 -29.5 -5t-33.5 -24l-113 -107 l-199 83q-15 0 -20 -5l-39 -30q-4 0 -4 -3t4 -6l185 -112l-107 -118l-10 -9h-5l-39 5zM556 1486q15 -46 50.5 -77.5t81.5 -34.5q45 0 80.5 32.5t50.5 79.5q-39 -19 -131 -19q-64 0 -132 19zM556 1486zM571 896l243 424q38 -22 108 -102q48 -63 80.5 -86.5t65.5 -16.5l-34 54 l180 117l78 -127l-112 -78q7 -22 -2.5 -44.5t-31.5 -33.5q-39 -19 -88 -19q-97 0 -190 102v-190h-297zM1063 1159l24 -34q19 7 40 1t29 -20l97 58l-53 83zM1209 808q6 67 21 127.5t34.5 104t41.5 80.5t42.5 60.5t37.5 40.5t28 24l10 7q19 19 58 29q20 5 39 5q11 0 21 -1 t14 -3l4 -1q34 -6 64 -29q3 -2 9 -6.5t24.5 -21t35.5 -37.5t40 -58t41.5 -79.5t36 -104.5t27.5 -132q0 -50 -34 -63v-54v5h29v-317h-102v317h29v49q-15 3 -27.5 17t-16.5 31q-16 122 -34 176v-161q0 -24 -14 -54v-580q0 -30 -20 -51.5t-49 -21.5q-32 0 -52.5 21.5 t-20.5 51.5v493h-10v-493q0 -30 -19.5 -51.5t-48.5 -21.5q-32 0 -52.5 21.5t-20.5 51.5v576q-10 19 -10 48v166q-27 -90 -39 -180q-3 -22 -19.5 -35.5t-38.5 -13.5h-10q-25 4 -38.5 23t-10.5 45zM1365 1447q0 63 45.5 109.5t110.5 46.5q66 -4 111 -49t45 -107 q0 -63 -45.5 -109.5t-110.5 -46.5q-63 0 -109.5 45.5t-46.5 110.5z" />
<glyph unicode="&#x2000;" horiz-adv-x="960" />
<glyph unicode="&#x2001;" horiz-adv-x="1920" />
<glyph unicode="&#x2002;" horiz-adv-x="960" />
<glyph unicode="&#x2003;" horiz-adv-x="1920" />
<glyph unicode="&#x2004;" horiz-adv-x="640" />
<glyph unicode="&#x2005;" horiz-adv-x="480" />
<glyph unicode="&#x2006;" horiz-adv-x="320" />
<glyph unicode="&#x2007;" horiz-adv-x="320" />
<glyph unicode="&#x2008;" horiz-adv-x="240" />
<glyph unicode="&#x2009;" horiz-adv-x="384" />
<glyph unicode="&#x200a;" horiz-adv-x="106" />
<glyph unicode="&#x202f;" horiz-adv-x="384" />
<glyph unicode="&#x205f;" horiz-adv-x="480" />
<glyph unicode="&#x25fc;" horiz-adv-x="1120" d="M0 0v1120h1120v-1120h-1120z" />
</font>
</defs>
</svg>
