<?xml version="1.0" standalone="no"?>
<!DOCTYPE svg PUBLIC "-//W3C//DTD SVG 1.1//EN" "http://www.w3.org/Graphics/SVG/1.1/DTD/svg11.dtd" >
<svg xmlns="http://www.w3.org/2000/svg">
<metadata></metadata>
<defs>
<font id="core_sans_n_55_mediumregular" horiz-adv-x="860" >
<font-face units-per-em="2048" ascent="1638" descent="-410" />
<missing-glyph horiz-adv-x="614" />
<glyph unicode="&#xd;" horiz-adv-x="485" />
<glyph unicode=" "  horiz-adv-x="614" />
<glyph unicode="&#x09;" horiz-adv-x="614" />
<glyph unicode="&#xa0;" horiz-adv-x="614" />
<glyph unicode="!" horiz-adv-x="638" d="M174 121q0 145 145 145q146 0 146 -145q0 -146 -146 -146q-145 0 -145 146zM193 1038v396h253v-396l-49 -665h-155z" />
<glyph unicode="&#x22;" horiz-adv-x="1034" d="M205 1434h262v-84l-55 -496h-176zM567 1434h262v-84l-55 -496h-176z" />
<glyph unicode="#" horiz-adv-x="1392" d="M72 348v195h233l60 340h-218v194h250l62 357h227l-61 -357h268l61 357h228l-62 -357h201v-194h-234l-59 -340h217v-195h-250l-59 -348h-227l59 348h-268l-60 -348h-227l59 348h-200zM532 543h269l59 340h-268z" />
<glyph unicode="$" horiz-adv-x="1132" d="M102 1079q0 154 105.5 252.5t296.5 120.5v190h139v-184q169 -6 322 -67l-19 -238q-151 80 -303 90v-414q210 -78 303.5 -181t93.5 -259q0 -172 -102 -276t-295 -129v-193h-139v184q-106 2 -211 28.5t-182 72.5l20 252q172 -134 373 -140v447q-208 69 -305 177t-97 267z M348 1083q0 -64 36 -112t120 -88v354q-156 -25 -156 -154zM643 199q152 37 152 180q0 68 -34.5 116.5t-117.5 88.5v-385z" />
<glyph unicode="%" horiz-adv-x="1837" d="M164 1073q0 163 92.5 269t245.5 106t245.5 -106t92.5 -269t-92.5 -269t-245.5 -106t-245.5 106t-92.5 269zM276 0l1027 1434h253l-1024 -1434h-256zM391 1073q0 -178 111 -178q110 0 110 178t-110 178q-111 0 -111 -178zM997 360q0 163 92.5 269t245.5 106t245.5 -106 t92.5 -269t-92.5 -268.5t-245.5 -105.5t-245.5 105.5t-92.5 268.5zM1225 360q0 -178 110 -178q111 0 111 178q0 179 -111 179q-110 0 -110 -179z" />
<glyph unicode="&#x26;" horiz-adv-x="1388" d="M82 379q0 244 258 395q-80 83 -118 162.5t-38 175.5q0 154 107.5 250t277.5 96q188 0 290 -97.5t102 -262.5q0 -235 -252 -371l225 -219q35 125 35 299h227q0 -284 -82 -479l336 -328h-309l-148 141q-166 -166 -452 -166q-199 0 -329 106t-130 298zM311 371 q0 -90 63.5 -146.5t178.5 -56.5q170 0 278 131l-339 328q-181 -102 -181 -256zM414 1114q0 -54 29 -103.5t110 -129.5q98 54 138 105t40 112q0 74 -44 121t-120 47q-73 0 -113 -45.5t-40 -106.5z" />
<glyph unicode="'" horiz-adv-x="649" d="M195 1434h260v-84l-56 -496h-176z" />
<glyph unicode="(" horiz-adv-x="792" d="M205 635q0 245 79 464.5t236 436.5h211q-301 -458 -301 -901t301 -901h-211q-157 217 -236 436.5t-79 464.5z" />
<glyph unicode=")" horiz-adv-x="792" d="M61 -266q301 458 301 901t-301 901h211q157 -218 236.5 -437t79.5 -464t-79.5 -464t-236.5 -437h-211z" />
<glyph unicode="*" horiz-adv-x="1146" d="M123 557l254 123l-254 123l119 207l233 -160l-20 283h237l-22 -285l235 162l119 -207l-256 -123l256 -123l-119 -207l-235 160l22 -283h-237l20 283l-233 -160z" />
<glyph unicode="+" horiz-adv-x="1269" d="M123 580v200h395v406h234v-406h395v-200h-395v-406h-234v406h-395z" />
<glyph unicode="," horiz-adv-x="604" d="M145 -199q97 76 113 179q-102 18 -102 141q0 145 145 145q74 0 109.5 -37.5t35.5 -122.5q0 -136 -63 -239.5t-174 -161.5z" />
<glyph unicode="-" horiz-adv-x="831" d="M123 569v222h586v-222h-586z" />
<glyph unicode="." horiz-adv-x="604" d="M156 121q0 145 145 145t145 -145q0 -146 -145 -146t-145 146z" />
<glyph unicode="/" horiz-adv-x="1077" d="M-20 -225l876 1757h242l-873 -1757h-245z" />
<glyph unicode="0" horiz-adv-x="1208" d="M66 717q0 219 59 384t181.5 261t297.5 96t298 -96t182 -261t59 -384t-59 -384t-182 -261.5t-298 -96.5t-297.5 96.5t-181.5 261.5t-59 384zM311 717q0 -261 75.5 -395t217.5 -134t217.5 134t75.5 395q0 260 -75.5 394t-217.5 134t-217.5 -134t-75.5 -394z" />
<glyph unicode="1" horiz-adv-x="1208" d="M207 1161l375 273h213v-1434h-242v1151l-219 -162z" />
<glyph unicode="2" horiz-adv-x="1208" d="M127 0v197q303 261 459 434q100 111 152.5 213t52.5 207q0 95 -68.5 144.5t-183.5 49.5q-87 0 -178.5 -30t-165.5 -85l-17 232q68 43 171 69.5t206 26.5q216 0 348.5 -109.5t132.5 -308.5q0 -139 -56 -256t-183 -256q-122 -136 -326 -319h573v-209h-917z" />
<glyph unicode="3" horiz-adv-x="1208" d="M145 41l21 240q148 -93 354 -93q287 0 287 199q0 128 -126 192t-353 64v209q222 0 340 57t118 162q0 174 -251 174q-198 0 -338 -90l-23 221q161 82 371 82q235 0 361 -98t126 -262q0 -261 -239 -350q119 -43 189.5 -139.5t70.5 -223.5q0 -188 -137 -299t-386 -111 q-226 0 -385 66z" />
<glyph unicode="4" horiz-adv-x="1208" d="M61 295v211l660 928h246v-930h170v-209h-170v-295h-242v295h-664zM336 504h389v551z" />
<glyph unicode="5" horiz-adv-x="1208" d="M164 43l20 244q146 -99 346 -99q146 0 225 75t79 206q0 118 -79.5 177t-219.5 59q-163 0 -318 -58v787h821v-209h-579v-324q61 14 133 14q220 0 353.5 -122.5t133.5 -343.5q0 -99 -35 -184.5t-101.5 -150.5t-169.5 -102t-232 -37q-235 0 -377 68z" />
<glyph unicode="6" horiz-adv-x="1208" d="M96 698q0 195 43.5 342t124 237.5t189 135.5t243.5 45q191 0 332 -63l-20 -240q-129 90 -306 90q-330 0 -350 -391q131 94 307 94q125 0 228.5 -55t168 -166.5t64.5 -259.5q0 -218 -135 -355t-346 -137q-256 0 -399.5 178t-143.5 545zM352 614q3 -424 287 -424 q106 0 170.5 73t64.5 200q0 129 -63 200.5t-178 71.5q-172 0 -281 -121z" />
<glyph unicode="7" horiz-adv-x="1208" d="M129 1225v209h918v-209l-521 -1225h-258l525 1225h-664z" />
<glyph unicode="8" horiz-adv-x="1208" d="M86 385q0 120 68 216.5t192 158.5q-205 128 -205 315q0 163 122.5 273t342.5 110q209 0 335 -108.5t126 -268.5q0 -192 -225 -321q280 -148 280 -375q0 -188 -141 -299t-375 -111q-236 0 -378 111t-142 299zM332 379q0 -89 75 -140t199 -51q120 0 195.5 51t75.5 140 q0 78 -67.5 144t-225.5 130q-124 -45 -188 -118.5t-64 -155.5zM387 1090q0 -80 51 -134t180 -102q205 91 205 238q0 67 -60 110t-157 43q-101 0 -160 -43.5t-59 -111.5z" />
<glyph unicode="9" horiz-adv-x="1208" d="M88 967q0 218 135 354.5t346 136.5q256 0 399.5 -178t143.5 -545q0 -195 -43.5 -342t-124 -237.5t-189 -135.5t-243.5 -45q-188 0 -332 64l21 240q130 -91 305 -91q330 0 350 392q-133 -95 -307 -95q-125 0 -228.5 55.5t-168 167t-64.5 259.5zM334 971q0 -129 63 -201 t178 -72q172 0 281 121q-1 215 -76.5 319.5t-210.5 104.5q-106 0 -170.5 -72.5t-64.5 -199.5z" />
<glyph unicode=":" horiz-adv-x="604" d="M156 121q0 145 145 145t145 -145q0 -146 -145 -146t-145 146zM156 940q0 145 145 145t145 -145t-145 -145t-145 145z" />
<glyph unicode=";" horiz-adv-x="604" d="M145 -199q97 76 113 179q-102 18 -102 141q0 145 145 145q74 0 109.5 -37.5t35.5 -122.5q0 -136 -63 -239.5t-174 -161.5zM156 940q0 145 145 145t145 -145t-145 -145t-145 145z" />
<glyph unicode="&#x3c;" horiz-adv-x="1269" d="M123 573v213l1024 420v-233l-748 -293l748 -293v-233z" />
<glyph unicode="=" horiz-adv-x="1269" d="M123 352v201h1024v-201h-1024zM123 807v201h1024v-201h-1024z" />
<glyph unicode="&#x3e;" horiz-adv-x="1269" d="M123 154v233l747 293l-747 293v233l1024 -420v-213z" />
<glyph unicode="?" horiz-adv-x="1114" d="M102 1362q73 43 174 69.5t199 26.5q233 0 364.5 -100t131.5 -264q0 -110 -58.5 -204t-187.5 -192q-70 -54 -98.5 -115t-28.5 -157v-53h-242v57q0 138 47.5 239t155.5 177q94 69 130 126t36 124t-68.5 108t-189.5 41q-88 0 -181 -29.5t-165 -80.5zM332 121q0 145 145 145 q146 0 146 -145q0 -146 -146 -146q-145 0 -145 146z" />
<glyph unicode="@" horiz-adv-x="1986" d="M92 563q0 189 69 356t188 285t283.5 186t350.5 68q260 0 468 -110.5t325.5 -306t117.5 -439.5q0 -147 -46.5 -260.5t-139.5 -179.5t-221 -66q-182 0 -264 135q-150 -125 -359 -125q-158 0 -264 99t-106 256q0 118 48.5 224t127 179t181 115.5t208.5 42.5q135 0 231.5 -52 t165.5 -161l-82 -416q-2 -67 32 -104t99 -37q89 0 142 100t53 250q0 190 -90.5 345t-255 245t-371.5 90q-147 0 -276.5 -56t-220.5 -152t-144 -229t-53 -282q0 -203 93 -367.5t258 -258t370 -93.5q269 0 487 154l78 -164q-136 -82 -271.5 -124t-293.5 -42q-193 0 -364 69 t-292 187.5t-191.5 284.5t-70.5 354zM729 471q0 -84 41.5 -128t110.5 -44q174 0 272 127l66 342q-51 66 -168 66q-128 0 -225 -108.5t-97 -254.5z" />
<glyph unicode="A" horiz-adv-x="1347" d="M10 0l529 1434h270l528 -1434h-262l-119 346h-565l-119 -346h-262zM463 555h422l-211 614z" />
<glyph unicode="B" horiz-adv-x="1300" d="M164 0v1434h500q227 0 357 -109.5t130 -280.5q0 -92 -41 -165t-119 -117q112 -49 170 -136.5t58 -203.5q0 -201 -138 -311.5t-391 -110.5h-526zM406 209h251q164 0 242 53t78 162q0 213 -320 213h-251v-428zM406 846h225q278 0 278 190q0 189 -278 189h-225v-379z" />
<glyph unicode="C" horiz-adv-x="1271" d="M92 717q0 215 90 383t258 263t389 95q213 0 353 -67l-21 -230q-133 84 -321 84q-234 0 -368 -146.5t-134 -381.5q0 -244 136.5 -386.5t371.5 -142.5q185 0 323 93l21 -236q-149 -70 -352 -70q-224 0 -394 93.5t-261 261.5t-91 387z" />
<glyph unicode="D" horiz-adv-x="1413" d="M164 0v1434h381q168 0 309 -45.5t245.5 -133.5t163 -225.5t58.5 -312.5t-58.5 -312.5t-163 -225.5t-245.5 -133.5t-309 -45.5h-381zM406 209h106q278 0 420.5 122.5t142.5 385.5t-142.5 385.5t-420.5 122.5h-106v-1016z" />
<glyph unicode="E" horiz-adv-x="1177" d="M164 0v1434h913v-209h-671v-383h622v-209h-622v-424h690v-209h-932z" />
<glyph unicode="F" horiz-adv-x="1118" d="M164 0v1434h913v-209h-671v-379h622v-209h-622v-637h-242z" />
<glyph unicode="G" horiz-adv-x="1466" d="M92 717q0 211 92 378.5t266 265t402 97.5q249 0 444 -82l-20 -237q-190 106 -414 106q-237 0 -380.5 -146.5t-143.5 -381.5q0 -242 145 -385.5t402 -143.5q119 0 196 25v391h-376v209h618v-756q-200 -82 -451 -82q-175 0 -321.5 55.5t-247 153.5t-156 235t-55.5 298z" />
<glyph unicode="H" horiz-adv-x="1458" d="M164 0v1434h242v-566h647v566h241v-1434h-241v659h-647v-659h-242z" />
<glyph unicode="I" horiz-adv-x="589" d="M174 0v1434h242v-1434h-242z" />
<glyph unicode="J" horiz-adv-x="956" d="M20 47l21 240q132 -99 297 -99q106 0 159.5 67.5t53.5 221.5v957h242v-957q0 -250 -117 -376t-334 -126q-184 0 -322 72z" />
<glyph unicode="K" horiz-adv-x="1304" d="M164 0v1434h242v-637l546 637h291l-577 -672l669 -762h-313l-616 719v-719h-242z" />
<glyph unicode="L" horiz-adv-x="1177" d="M164 0v1434h242v-1225h731v-209h-973z" />
<glyph unicode="M" horiz-adv-x="1753" d="M164 0v1434h244l469 -729l469 729h243v-1434h-233v1059l-387 -600h-185l-387 600v-1059h-233z" />
<glyph unicode="N" horiz-adv-x="1470" d="M164 0v1434h262l647 -1088v1088h234v-1434h-263l-647 1087v-1087h-233z" />
<glyph unicode="O" horiz-adv-x="1486" d="M92 717q0 156 44 291t125.5 235.5t205.5 157.5t276 57t276 -57t206 -157.5t126 -235.5t44 -291q0 -210 -75.5 -376.5t-225 -266t-351.5 -99.5q-152 0 -276 57.5t-205.5 157.5t-125.5 235.5t-44 291.5zM338 717q0 -246 108 -387.5t297 -141.5t297.5 141.5t108.5 387.5 t-108.5 387t-297.5 141t-297 -141t-108 -387z" />
<glyph unicode="P" horiz-adv-x="1234" d="M164 0v1434h452q250 0 398.5 -119.5t148.5 -335.5q0 -218 -148 -337.5t-399 -119.5h-210v-522h-242zM406 731h190q162 0 242 59.5t80 188.5q0 128 -79.5 187t-242.5 59h-190v-494z" />
<glyph unicode="Q" horiz-adv-x="1484" d="M92 717q0 156 44 291t125.5 235.5t205.5 157.5t276 57t276 -57t206 -157.5t126 -235.5t44 -291q0 -284 -138.5 -484t-382.5 -245q22 -67 64 -92q48 -31 164 -31q103 0 192 29l25 -191q-82 -27 -229 -27q-176 0 -285 64q-126 73 -156 242q-174 22 -301.5 125t-191.5 260 t-64 350zM338 717q0 -246 108 -387.5t297 -141.5t297.5 141.5t108.5 387.5t-108.5 387t-297.5 141t-297 -141t-108 -387z" />
<glyph unicode="R" horiz-adv-x="1304" d="M164 0v1434h483q151 0 270 -47.5t191 -146t72 -234.5q0 -146 -80 -247t-217 -147l401 -612h-270l-367 578h-241v-578h-242zM406 786h223q305 0 305 220q0 113 -77 166t-228 53h-223v-439z" />
<glyph unicode="S" horiz-adv-x="1132" d="M102 1079q0 181 127 280t361 99q215 0 375 -72l-19 -219q-150 78 -346 78q-252 0 -252 -162q0 -78 57.5 -134.5t192.5 -102.5q235 -80 338.5 -186t103.5 -271q0 -201 -131 -307.5t-395 -106.5q-246 0 -403 86l20 234q162 -107 397 -107q267 0 267 191q0 88 -61 146 t-216 106q-215 69 -315.5 178t-100.5 270z" />
<glyph unicode="T" horiz-adv-x="1134" d="M20 1225v209h1094v-209h-426v-1225h-242v1225h-426z" />
<glyph unicode="U" horiz-adv-x="1486" d="M164 565v869h242v-854q0 -192 81 -292t256 -100t256.5 100t81.5 292v854h242v-869q0 -146 -43 -260t-120.5 -185.5t-183 -108t-233.5 -36.5t-233 36.5t-183 108.5t-120.5 185t-42.5 260z" />
<glyph unicode="V" horiz-adv-x="1409" d="M41 1434h262l402 -1190l401 1190h262l-508 -1434h-311z" />
<glyph unicode="W" horiz-adv-x="2060" d="M41 1434h256l321 -1149l265 1149h295l264 -1149l321 1149h256l-422 -1434h-313l-254 1114l-254 -1114h-313z" />
<glyph unicode="X" horiz-adv-x="1386" d="M31 0l520 729l-502 705h279l364 -514l367 514h278l-503 -705l522 -729h-279l-385 539l-383 -539h-278z" />
<glyph unicode="Y" horiz-adv-x="1404" d="M41 1434h266l395 -639l396 639h266l-541 -867v-567h-241v567z" />
<glyph unicode="Z" horiz-adv-x="1171" d="M61 0v211l738 1014h-707v209h998v-211l-740 -1014h760v-209h-1049z" />
<glyph unicode="[" horiz-adv-x="851" d="M246 -266v1802h565v-190h-330v-1422h330v-190h-565z" />
<glyph unicode="\" horiz-adv-x="1077" d="M-20 1532h241l877 -1757h-246z" />
<glyph unicode="]" horiz-adv-x="851" d="M41 -76h330v1422h-330v190h565v-1802h-565v190z" />
<glyph unicode="^" horiz-adv-x="1269" d="M102 756l410 678h246l409 -678h-249l-283 473l-283 -473h-250z" />
<glyph unicode="_" horiz-adv-x="1024" d="M0 -209h1024v-139h-1024v139z" />
<glyph unicode="`" d="M152 1444v51h254l253 -348h-223z" />
<glyph unicode="a" horiz-adv-x="1134" d="M72 319q0 168 124.5 264.5t350.5 96.5h221v51q0 91 -51 126.5t-176 35.5q-190 0 -359 -96l-22 196q69 41 176 66.5t215 25.5q238 0 344 -90t106 -309v-686h-233v63q-107 -88 -291 -88q-176 0 -290.5 89.5t-114.5 254.5zM309 324q0 -156 201 -156q175 0 258 96v228h-213 q-246 0 -246 -168z" />
<glyph unicode="b" horiz-adv-x="1208" d="M143 0v1495h234v-498q109 88 266 88q210 0 346.5 -152.5t136.5 -402.5t-136.5 -402.5t-346.5 -152.5q-157 0 -266 88v-63h-234zM377 264q42 -45 102 -70.5t127 -25.5q128 0 205.5 92.5t77.5 269.5t-77.5 270t-205.5 93q-67 0 -127 -25.5t-102 -70.5v-533z" />
<glyph unicode="c" horiz-adv-x="1048" d="M82 530q0 253 153.5 404t411.5 151q198 0 320 -65l-21 -199q-113 72 -287 72q-150 0 -245 -97.5t-95 -265.5q0 -169 98 -265.5t265 -96.5t274 76l21 -201q-116 -68 -307 -68q-273 0 -430.5 149.5t-157.5 405.5z" />
<glyph unicode="d" horiz-adv-x="1208" d="M82 530q0 251 135 403t348 152q157 0 266 -88v498h234v-1495h-234v63q-109 -88 -266 -88q-213 0 -348 152t-135 403zM319 530q0 -177 77.5 -269.5t205.5 -92.5q67 0 127 25.5t102 70.5v533q-42 45 -102 70.5t-127 25.5q-128 0 -205.5 -93t-77.5 -270z" />
<glyph unicode="e" horiz-adv-x="1136" d="M82 532q0 250 133 401.5t356 151.5q233 0 363.5 -154.5t130.5 -406.5q0 -32 -4 -86h-735q22 -270 321 -270q188 0 311 88l23 -203q-128 -78 -344 -78q-138 0 -245 41.5t-174.5 116.5t-101.5 176t-34 223zM326 627h495q-12 128 -76 197t-174 69q-108 0 -171 -69t-74 -197z " />
<glyph unicode="f" horiz-adv-x="737" d="M20 872v189h195v55q0 186 94 282.5t273 96.5q109 0 176 -20l-23 -195q-54 23 -125 23q-82 0 -121.5 -45.5t-39.5 -157.5v-39h276v-189h-276v-872h-234v872h-195z" />
<glyph unicode="g" horiz-adv-x="1200" d="M82 541q0 123 38 226.5t103 172t152.5 107t185.5 38.5q77 0 146.5 -24t115.5 -64v64h234v-965q0 -267 -121.5 -386.5t-388.5 -119.5q-212 0 -363 80l15 213q150 -104 350 -104q134 0 204 62t70 198v45q-46 -40 -115.5 -64t-146.5 -24q-98 0 -185.5 38.5t-152.5 107.5 t-103 172.5t-38 226.5zM319 541q0 -168 76.5 -260.5t192.5 -92.5q70 0 132 25t103 72v512q-41 46 -103 71t-132 25q-116 0 -192.5 -92t-76.5 -260z" />
<glyph unicode="h" horiz-adv-x="1214" d="M143 0v1495h234v-498q114 88 266 88q206 0 322 -124.5t116 -362.5v-598h-233v600q0 152 -58.5 222.5t-181.5 70.5q-70 0 -131 -26t-100 -70v-797h-234z" />
<glyph unicode="i" horiz-adv-x="540" d="M131 1356q0 139 139 139q140 0 140 -139t-140 -139q-139 0 -139 139zM154 0v1061h233v-1061h-233z" />
<glyph unicode="j" horiz-adv-x="540" d="M-123 -385l21 197q60 -29 131 -29t103 45.5t32 140.5v1092h233v-1084q0 -192 -87 -289.5t-277 -97.5q-76 0 -156 25zM141 1356q0 139 140 139q139 0 139 -139t-139 -139q-140 0 -140 139z" />
<glyph unicode="k" horiz-adv-x="1116" d="M143 0v1495h234v-866l403 432h289l-442 -471l479 -590h-293l-436 551v-551h-234z" />
<glyph unicode="l" horiz-adv-x="540" d="M154 0v1495h233v-1495h-233z" />
<glyph unicode="m" horiz-adv-x="1820" d="M143 0v1061h234v-64q45 39 114 63.5t144 24.5q193 0 303 -137q140 137 344 137q181 0 293.5 -120t112.5 -340v-625h-236v641q0 125 -50.5 188.5t-144.5 63.5q-140 0 -241 -119q16 -72 16 -149v-625h-235v641q0 125 -50.5 188.5t-144.5 63.5q-66 0 -127.5 -27t-97.5 -71 v-795h-234z" />
<glyph unicode="n" horiz-adv-x="1214" d="M143 0v1061h234v-64q114 88 266 88q206 0 322 -124.5t116 -362.5v-598h-233v600q0 152 -58.5 222.5t-181.5 70.5q-70 0 -131 -26t-100 -70v-797h-234z" />
<glyph unicode="o" horiz-adv-x="1212" d="M82 530q0 158 63 284t183 198.5t278 72.5t278 -72.5t183 -198.5t63 -284t-63 -284t-183 -198.5t-278 -72.5t-278 72.5t-183 198.5t-63 284zM319 530q0 -167 76.5 -264.5t210.5 -97.5t210.5 97.5t76.5 264.5t-76.5 265t-210.5 98t-210.5 -98t-76.5 -265z" />
<glyph unicode="p" horiz-adv-x="1208" d="M143 -395v1456h234v-64q109 88 266 88q210 0 346.5 -152.5t136.5 -402.5t-136.5 -402.5t-346.5 -152.5q-157 0 -266 88v-458h-234zM377 264q42 -45 102 -70.5t127 -25.5q128 0 205.5 92.5t77.5 269.5t-77.5 270t-205.5 93q-67 0 -127 -25.5t-102 -70.5v-533z" />
<glyph unicode="q" horiz-adv-x="1208" d="M82 530q0 251 135 403t348 152q157 0 266 -88v64h234v-1456h-234v458q-109 -88 -266 -88q-213 0 -348 152t-135 403zM319 530q0 -177 77.5 -269.5t205.5 -92.5q67 0 127 25.5t102 70.5v533q-42 45 -102 70.5t-127 25.5q-128 0 -205.5 -93t-77.5 -270z" />
<glyph unicode="r" horiz-adv-x="794" d="M143 0v1061h234v-86q92 110 262 110q86 0 145 -20l-24 -213q-56 33 -146 33q-85 0 -145.5 -43.5t-91.5 -124.5v-717h-234z" />
<glyph unicode="s" horiz-adv-x="972" d="M92 59l14 220q156 -111 349 -111q188 0 188 127q0 54 -45.5 89.5t-165.5 68.5q-171 46 -252.5 126.5t-81.5 202.5q0 148 104 225.5t302 77.5q186 0 323 -67l-20 -203q-127 78 -301 78q-168 0 -168 -98q0 -53 42 -89t152 -67q193 -56 271 -136t78 -196q0 -162 -106 -247 t-320 -85q-207 0 -363 84z" />
<glyph unicode="t" horiz-adv-x="806" d="M31 872v189h176v317h233v-317h316v-189h-316v-460q0 -101 18 -154.5t49.5 -71.5t88.5 -18q68 0 129 18l27 -194q-69 -17 -172 -17q-186 0 -279.5 90.5t-93.5 280.5v526h-176z" />
<glyph unicode="u" horiz-adv-x="1214" d="M133 463v598h234v-600q0 -153 58 -223t181 -70q70 0 131.5 26t100.5 70v797h233v-1061h-233v63q-114 -88 -267 -88q-206 0 -322 125t-116 363z" />
<glyph unicode="v" horiz-adv-x="1101" d="M31 1061h250l270 -821l270 821h250l-373 -1061h-297z" />
<glyph unicode="w" horiz-adv-x="1634" d="M31 1061h248l217 -797l182 797h278l183 -797l217 797h248l-322 -1061h-285l-180 807l-180 -807h-285z" />
<glyph unicode="x" horiz-adv-x="1081" d="M20 0l381 549l-354 512h264l230 -336l229 336h264l-356 -512l383 -549h-264l-256 373l-256 -373h-265z" />
<glyph unicode="y" horiz-adv-x="1140" d="M31 1061h254l288 -772l283 772h254l-565 -1456h-246l152 395z" />
<glyph unicode="z" horiz-adv-x="980" d="M51 0v193l578 679h-551v189h831v-191l-575 -682h596v-188h-879z" />
<glyph unicode="{" horiz-adv-x="829" d="M164 541v188q67 0 121.5 57t54.5 148v344q0 127 79.5 192.5t213.5 65.5h155v-190h-137q-76 0 -76 -80v-381q0 -104 -45 -164t-143 -86q98 -26 143 -86t45 -164v-381q0 -80 76 -80h137v-190h-155q-134 0 -213.5 65.5t-79.5 192.5v344q0 91 -54.5 148t-121.5 57z" />
<glyph unicode="|" horiz-adv-x="651" d="M225 -410v1985h201v-1985h-201z" />
<glyph unicode="}" horiz-adv-x="829" d="M41 -76h137q76 0 76 80v381q0 104 45 164t143 86q-98 26 -143 86t-45 164v381q0 80 -76 80h-137v190h156q134 0 213 -65.5t79 -192.5v-344q0 -91 55 -148t122 -57v-188q-67 0 -122 -57t-55 -148v-344q0 -127 -79 -192.5t-213 -65.5h-156v190z" />
<glyph unicode="~" horiz-adv-x="1269" d="M123 502q0 362 303 362q125 0 236 -82q120 -88 174 -88q39 0 57 35t22 131h232q0 -362 -303 -362q-125 0 -236 82q-120 88 -174 88q-40 0 -58 -35t-22 -131h-231z" />
<glyph unicode="&#xa1;" horiz-adv-x="638" d="M174 940q0 145 145 145q146 0 146 -145t-146 -145q-145 0 -145 145zM193 23l49 665h155l49 -665v-396h-253v396z" />
<glyph unicode="&#xa2;" horiz-adv-x="1048" d="M82 530q0 227 132.5 375t352.5 174v191h140v-187q152 -6 260 -59l-21 -211q-99 68 -239 78v-723q154 9 249 86l21 -211q-118 -62 -270 -68v-184h-140v191q-226 28 -355.5 174.5t-129.5 373.5zM319 530q0 -142 64.5 -233t183.5 -119v705q-116 -27 -182 -118t-66 -235z" />
<glyph unicode="&#xa3;" horiz-adv-x="1220" d="M82 0v178q158 126 158 305v183h-158v139h158v229q0 213 118 318.5t344 105.5q222 0 367 -86l-16 -223q-140 96 -332 96q-128 0 -184 -49t-56 -160v-231h406v-139h-406v-148q0 -194 -106 -309h784v-209h-1077z" />
<glyph unicode="&#xa4;" horiz-adv-x="1492" d="M164 279l178 176q-57 102 -57 225t57 225l-178 180l160 164l180 -182q113 66 241 66q129 0 242 -66l182 182l160 -164l-182 -182q59 -105 59 -223q0 -121 -57 -223l180 -178l-160 -164l-180 178q-107 -66 -244 -66q-136 0 -243 66l-178 -178zM504 680q0 -113 66.5 -182.5 t174.5 -69.5q109 0 175.5 69.5t66.5 182.5t-66.5 182.5t-175.5 69.5q-108 0 -174.5 -69.5t-66.5 -182.5z" />
<glyph unicode="&#xa5;" horiz-adv-x="1269" d="M41 1434h256l344 -654l332 654h256l-393 -738h323v-139h-397v-115h397v-139h-397v-303h-242v303h-409v139h409v115h-409v139h333z" />
<glyph unicode="&#xa6;" horiz-adv-x="651" d="M225 -205v666h201v-666h-201zM225 743v666h201v-666h-201z" />
<glyph unicode="&#xa7;" horiz-adv-x="1095" d="M143 -111l19 228q147 -129 354 -129q101 0 150 35.5t49 99.5q0 58 -45 97t-156 67q-176 45 -269 130t-93 208q0 93 51.5 163.5t134.5 104.5q-191 79 -191 258q0 145 105.5 226t314.5 81q194 0 332 -72l-22 -212q-129 92 -312 92q-180 0 -180 -115q0 -50 51.5 -86 t169.5 -72q184 -56 264 -137.5t80 -204.5q0 -172 -174 -260q83 -32 129.5 -102.5t46.5 -157.5q0 -156 -109 -246t-327 -90q-215 0 -373 94zM389 637q0 -56 39.5 -96.5t112.5 -57.5q75 14 123.5 61t48.5 113q0 56 -39.5 96.5t-112.5 57.5q-75 -14 -123.5 -61t-48.5 -113z" />
<glyph unicode="&#xa8;" d="M94 1321q0 129 129 129t129 -129t-129 -129t-129 129zM508 1321q0 129 129 129t129 -129t-129 -129t-129 129z" />
<glyph unicode="&#xa9;" horiz-adv-x="1699" d="M109 717q0 151 58.5 288.5t157.5 236.5t236.5 157.5t288.5 58.5t288.5 -58.5t236.5 -157.5t157.5 -236.5t58.5 -288.5q0 -202 -99 -372.5t-269.5 -270t-372.5 -99.5t-372.5 99.5t-269.5 270t-99 372.5zM223 717q0 -130 49.5 -248t133.5 -202.5t200 -134.5t244 -50t244 50 t200 134.5t133.5 202.5t49.5 248q0 129 -49.5 246.5t-133.5 202.5t-200.5 135.5t-243.5 50.5t-243.5 -50.5t-200.5 -135.5t-133.5 -202.5t-49.5 -246.5zM432 713q0 200 126 322t321 122q150 0 268 -55l-19 -176q-96 71 -233 71q-129 0 -199.5 -74.5t-70.5 -209.5t70.5 -210 t199.5 -75q136 0 233 72l19 -176q-121 -56 -268 -56q-195 0 -321 122.5t-126 322.5z" />
<glyph unicode="&#xaa;" horiz-adv-x="942" d="M102 891q0 137 95.5 203.5t267.5 66.5h129q0 78 -31.5 103.5t-120.5 25.5q-141 0 -258 -65l-18 161q51 29 129 46.5t160 17.5q184 0 264 -74t80 -246v-477h-205v52q-69 -66 -203 -66q-114 0 -201.5 66t-87.5 186zM311 899q0 -45 31.5 -72.5t87.5 -27.5q105 0 164 59v148 h-123q-80 0 -120 -30.5t-40 -76.5z" />
<glyph unicode="&#xab;" horiz-adv-x="1105" d="M143 592v94l455 420v-234l-256 -233l256 -233v-234zM528 592v94l455 420v-234l-256 -233l256 -233v-234z" />
<glyph unicode="&#xac;" horiz-adv-x="1269" d="M113 721v201h1024v-596h-234v395h-790z" />
<glyph unicode="&#xad;" horiz-adv-x="831" d="M123 569v222h586v-222h-586z" />
<glyph unicode="&#xae;" horiz-adv-x="1699" d="M109 717q0 151 58.5 288.5t157.5 236.5t236.5 157.5t288.5 58.5t288.5 -58.5t236.5 -157.5t157.5 -236.5t58.5 -288.5q0 -202 -99 -372.5t-269.5 -270t-372.5 -99.5t-372.5 99.5t-269.5 270t-99 372.5zM223 717q0 -130 49.5 -248t133.5 -202.5t200 -134.5t244 -50t244 50 t200 134.5t133.5 202.5t49.5 248q0 129 -49.5 246.5t-133.5 202.5t-200.5 135.5t-243.5 50.5t-243.5 -50.5t-200.5 -135.5t-133.5 -202.5t-49.5 -246.5zM545 289v854h301q156 0 246 -67.5t90 -190.5q0 -83 -42.5 -142.5t-119.5 -89.5l215 -364h-207l-194 336h-97v-336h-192z M737 782h101q82 0 116.5 26.5t34.5 76.5q0 52 -34 77t-117 25h-101v-205z" />
<glyph unicode="&#xaf;" d="M121 1227v190h618v-190h-618z" />
<glyph unicode="&#xb0;" d="M135 1176q0 120 85 201t210 81q122 0 208.5 -81.5t86.5 -200.5t-86.5 -201t-208.5 -82q-125 0 -210 81.5t-85 201.5zM315 1176q0 -54 32.5 -86.5t82.5 -32.5t82.5 32.5t32.5 86.5t-32 86t-83 32t-83 -32t-32 -86z" />
<glyph unicode="&#xb1;" horiz-adv-x="1269" d="M123 53v201h1024v-201h-1024zM123 711v200h395v385h234v-385h395v-200h-395v-385h-234v385h-395z" />
<glyph unicode="&#xb4;" d="M201 1147l254 348h254v-51l-285 -297h-223z" />
<glyph unicode="&#xb5;" horiz-adv-x="1245" d="M143 -395v1456h234v-787q87 -106 246 -106q158 0 245 106v787h234v-1061h-234v72q-91 -97 -245 -97q-155 0 -246 97v-467h-234z" />
<glyph unicode="&#xb7;" horiz-adv-x="604" d="M156 680q0 145 145 145t145 -145t-145 -145t-145 145z" />
<glyph unicode="&#xb8;" d="M221 -322q47 -20 125 -20q96 0 96 66q0 86 -204 86l100 190h213l-66 -119q67 -12 111.5 -58.5t44.5 -105.5q0 -101 -68 -152.5t-221 -51.5q-74 0 -131 14v151z" />
<glyph unicode="&#xba;" horiz-adv-x="942" d="M86 1044q0 183 108 294.5t277 111.5t277 -111.5t108 -294.5q0 -182 -108 -293.5t-277 -111.5t-277 111.5t-108 293.5zM291 1044q0 -111 50 -178t130 -67t130 67t50 178q0 112 -50 179t-130 67q-81 0 -130.5 -66t-49.5 -180z" />
<glyph unicode="&#xbb;" horiz-adv-x="1105" d="M123 172v234l256 233l-256 233v234l455 -420v-94zM508 172v234l256 233l-256 233v234l455 -420v-94z" />
<glyph unicode="&#xbf;" horiz-adv-x="1114" d="M143 -35q0 110 58.5 203t187.5 192q69 54 98 115.5t29 157.5v53h242v-57q0 -138 -47.5 -239t-155.5 -177q-94 -69 -130 -126t-36 -124t68.5 -108t189.5 -41q88 0 181 29.5t165 80.5l19 -227q-73 -43 -174 -69.5t-199 -26.5q-233 0 -364.5 100t-131.5 264zM492 940 q0 145 145 145t145 -145t-145 -145t-145 145z" />
<glyph unicode="&#xc0;" horiz-adv-x="1347" d="M10 0l529 1434h270l528 -1434h-262l-119 346h-565l-119 -346h-262zM319 1841v51h254l254 -348h-223zM463 555h422l-211 614z" />
<glyph unicode="&#xc1;" horiz-adv-x="1347" d="M10 0l529 1434h270l528 -1434h-262l-119 346h-565l-119 -346h-262zM463 555h422l-211 614zM496 1544l254 348h254v-51l-285 -297h-223z" />
<glyph unicode="&#xc2;" horiz-adv-x="1347" d="M10 0l529 1434h270l528 -1434h-262l-119 346h-565l-119 -346h-262zM297 1544l268 348h217l269 -348h-224l-153 172l-154 -172h-223zM463 555h422l-211 614z" />
<glyph unicode="&#xc3;" horiz-adv-x="1347" d="M10 0l529 1434h270l528 -1434h-262l-119 346h-565l-119 -346h-262zM334 1577q0 289 205 289q78 0 145 -56q62 -49 92 -49q20 0 28.5 20.5t8.5 80.5h203q0 -289 -205 -289q-79 0 -145 55q-62 49 -93 49q-20 0 -28 -20t-8 -80h-203zM463 555h422l-211 614z" />
<glyph unicode="&#xc4;" horiz-adv-x="1347" d="M10 0l529 1434h270l528 -1434h-262l-119 346h-565l-119 -346h-262zM338 1718q0 129 129 129t129 -129t-129 -129t-129 129zM463 555h422l-211 614zM752 1718q0 129 129 129t129 -129t-129 -129t-129 129z" />
<glyph unicode="&#xc5;" horiz-adv-x="1347" d="M10 0l529 1434h270l528 -1434h-262l-119 346h-565l-119 -346h-262zM444 1718q0 93 66 156t164 63t163.5 -63t65.5 -156t-65.5 -156t-163.5 -63t-164 63t-66 156zM463 555h422l-211 614zM602 1718q0 -34 20.5 -53.5t51.5 -19.5q30 0 50.5 19.5t20.5 53.5t-20.5 54 t-50.5 20t-51 -20t-21 -54z" />
<glyph unicode="&#xc6;" horiz-adv-x="1763" d="M10 0l678 1434h977v-209h-575v-383h524v-209h-524v-424h591v-209h-833v352h-397l-160 -352h-281zM545 561h303v666z" />
<glyph unicode="&#xc7;" horiz-adv-x="1271" d="M92 717q0 215 90 383t258 263t389 95q213 0 353 -67l-21 -230q-133 84 -321 84q-234 0 -368 -146.5t-134 -381.5q0 -244 136.5 -386.5t371.5 -142.5q185 0 323 93l21 -236q-134 -61 -295 -68l-51 -96q67 -12 111 -58.5t44 -105.5q0 -101 -67.5 -152.5t-220.5 -51.5 q-74 0 -131 14v151q47 -20 125 -20q96 0 96 66q0 86 -205 86l92 178q-276 43 -436 239t-160 490z" />
<glyph unicode="&#xc8;" horiz-adv-x="1177" d="M164 0v1434h913v-209h-671v-383h622v-209h-622v-424h690v-209h-932zM289 1841v51h254l254 -348h-224z" />
<glyph unicode="&#xc9;" horiz-adv-x="1177" d="M164 0v1434h913v-209h-671v-383h622v-209h-622v-424h690v-209h-932zM422 1544l254 348h254v-51l-285 -297h-223z" />
<glyph unicode="&#xca;" horiz-adv-x="1177" d="M164 0v1434h913v-209h-671v-383h622v-209h-622v-424h690v-209h-932zM244 1544l268 348h217l268 -348h-223l-153 172l-154 -172h-223z" />
<glyph unicode="&#xcb;" horiz-adv-x="1177" d="M164 0v1434h913v-209h-671v-383h622v-209h-622v-424h690v-209h-932zM285 1718q0 129 129 129t129 -129t-129 -129t-129 129zM698 1718q0 129 129 129t129 -129t-129 -129t-129 129z" />
<glyph unicode="&#xcc;" horiz-adv-x="589" d="M-66 1841v51h254l254 -348h-223zM174 0v1434h242v-1434h-242z" />
<glyph unicode="&#xcd;" horiz-adv-x="589" d="M139 1544l254 348h254v-51l-285 -297h-223zM174 0v1434h242v-1434h-242z" />
<glyph unicode="&#xce;" horiz-adv-x="589" d="M-82 1544l268 348h217l269 -348h-223l-154 172l-154 -172h-223zM174 0v1434h242v-1434h-242z" />
<glyph unicode="&#xcf;" horiz-adv-x="589" d="M-41 1718q0 129 129 129t129 -129t-129 -129t-129 129zM174 0v1434h242v-1434h-242zM373 1718q0 129 129 129t129 -129t-129 -129t-129 129z" />
<glyph unicode="&#xd0;" horiz-adv-x="1423" d="M20 633v168h154v633h381q168 0 309 -45.5t245.5 -133.5t163 -225.5t58.5 -312.5t-58.5 -312.5t-163 -225.5t-245.5 -133.5t-309 -45.5h-381v633h-154zM416 209h106q278 0 420.5 122.5t142.5 385.5t-142.5 385.5t-420.5 122.5h-106v-424h299v-168h-299v-424z" />
<glyph unicode="&#xd1;" horiz-adv-x="1470" d="M164 0v1434h262l647 -1088v1088h234v-1434h-263l-647 1087v-1087h-233zM397 1577q0 289 205 289q79 0 146 -56q62 -49 92 -49q20 0 28.5 20.5t8.5 80.5h202q0 -289 -205 -289q-79 0 -145 55q-62 49 -92 49q-20 0 -28.5 -20t-8.5 -80h-203z" />
<glyph unicode="&#xd2;" horiz-adv-x="1486" d="M92 717q0 156 44 291t125.5 235.5t205.5 157.5t276 57t276 -57t206 -157.5t126 -235.5t44 -291q0 -210 -75.5 -376.5t-225 -266t-351.5 -99.5q-152 0 -276 57.5t-205.5 157.5t-125.5 235.5t-44 291.5zM338 717q0 -246 108 -387.5t297 -141.5t297.5 141.5t108.5 387.5 t-108.5 387t-297.5 141t-297 -141t-108 -387zM440 1841v51h254l254 -348h-223z" />
<glyph unicode="&#xd3;" horiz-adv-x="1486" d="M92 717q0 156 44 291t125.5 235.5t205.5 157.5t276 57t276 -57t206 -157.5t126 -235.5t44 -291q0 -210 -75.5 -376.5t-225 -266t-351.5 -99.5q-152 0 -276 57.5t-205.5 157.5t-125.5 235.5t-44 291.5zM338 717q0 -246 108 -387.5t297 -141.5t297.5 141.5t108.5 387.5 t-108.5 387t-297.5 141t-297 -141t-108 -387zM539 1544l254 348h254v-51l-285 -297h-223z" />
<glyph unicode="&#xd4;" horiz-adv-x="1486" d="M92 717q0 156 44 291t125.5 235.5t205.5 157.5t276 57t276 -57t206 -157.5t126 -235.5t44 -291q0 -210 -75.5 -376.5t-225 -266t-351.5 -99.5q-152 0 -276 57.5t-205.5 157.5t-125.5 235.5t-44 291.5zM338 717q0 -246 108 -387.5t297 -141.5t297.5 141.5t108.5 387.5 t-108.5 387t-297.5 141t-297 -141t-108 -387zM367 1544l268 348h217l268 -348h-223l-154 172l-153 -172h-223z" />
<glyph unicode="&#xd5;" horiz-adv-x="1486" d="M92 717q0 156 44 291t125.5 235.5t205.5 157.5t276 57t276 -57t206 -157.5t126 -235.5t44 -291q0 -210 -75.5 -376.5t-225 -266t-351.5 -99.5q-152 0 -276 57.5t-205.5 157.5t-125.5 235.5t-44 291.5zM338 717q0 -246 108 -387.5t297 -141.5t297.5 141.5t108.5 387.5 t-108.5 387t-297.5 141t-297 -141t-108 -387zM403 1577q0 289 205 289q79 0 146 -56q62 -49 92 -49q20 0 28.5 20.5t8.5 80.5h202q0 -289 -204 -289q-80 0 -146 55q-62 49 -92 49q-20 0 -28.5 -20t-8.5 -80h-203z" />
<glyph unicode="&#xd6;" horiz-adv-x="1486" d="M92 717q0 156 44 291t125.5 235.5t205.5 157.5t276 57t276 -57t206 -157.5t126 -235.5t44 -291q0 -210 -75.5 -376.5t-225 -266t-351.5 -99.5q-152 0 -276 57.5t-205.5 157.5t-125.5 235.5t-44 291.5zM338 717q0 -246 108 -387.5t297 -141.5t297.5 141.5t108.5 387.5 t-108.5 387t-297.5 141t-297 -141t-108 -387zM408 1718q0 129 129 129t129 -129t-129 -129t-129 129zM821 1718q0 129 129 129t129 -129t-129 -129t-129 129z" />
<glyph unicode="&#xd7;" horiz-adv-x="1269" d="M166 371l311 311l-311 311l158 156l311 -311l311 311l158 -156l-311 -311l311 -311l-158 -158l-311 311l-311 -311z" />
<glyph unicode="&#xd8;" horiz-adv-x="1486" d="M92 717q0 156 44 291t125.5 235.5t205.5 157.5t276 57q163 0 297 -67l142 247h207l-203 -354q101 -101 155 -248t54 -319q0 -210 -75.5 -376.5t-225 -266t-351.5 -99.5q-144 0 -272 56l-133 -236h-207l191 334q-112 99 -171 252t-59 336zM338 717q0 -244 102 -379 l490 860q-80 47 -187 47q-189 0 -297 -141t-108 -387zM580 221q81 -33 163 -33q189 0 297.5 141.5t108.5 387.5q0 214 -86 352z" />
<glyph unicode="&#xd9;" horiz-adv-x="1486" d="M164 565v869h242v-854q0 -192 81 -292t256 -100t256.5 100t81.5 292v854h242v-869q0 -146 -43 -260t-120.5 -185.5t-183 -108t-233.5 -36.5t-233 36.5t-183 108.5t-120.5 185t-42.5 260zM373 1841v51h254l254 -348h-224z" />
<glyph unicode="&#xda;" horiz-adv-x="1486" d="M164 565v869h242v-854q0 -192 81 -292t256 -100t256.5 100t81.5 292v854h242v-869q0 -146 -43 -260t-120.5 -185.5t-183 -108t-233.5 -36.5t-233 36.5t-183 108.5t-120.5 185t-42.5 260zM596 1544l254 348h254v-51l-285 -297h-223z" />
<glyph unicode="&#xdb;" horiz-adv-x="1486" d="M164 565v869h242v-854q0 -192 81 -292t256 -100t256.5 100t81.5 292v854h242v-869q0 -146 -43 -260t-120.5 -185.5t-183 -108t-233.5 -36.5t-233 36.5t-183 108.5t-120.5 185t-42.5 260zM367 1544l268 348h217l268 -348h-223l-154 172l-153 -172h-223z" />
<glyph unicode="&#xdc;" horiz-adv-x="1486" d="M164 565v869h242v-854q0 -192 81 -292t256 -100t256.5 100t81.5 292v854h242v-869q0 -146 -43 -260t-120.5 -185.5t-183 -108t-233.5 -36.5t-233 36.5t-183 108.5t-120.5 185t-42.5 260zM408 1718q0 129 129 129t129 -129t-129 -129t-129 129zM821 1718q0 129 129 129 t129 -129t-129 -129t-129 129z" />
<glyph unicode="&#xdd;" horiz-adv-x="1404" d="M41 1434h266l395 -639l396 639h266l-541 -867v-567h-241v567zM530 1544l254 348h254v-51l-284 -297h-224z" />
<glyph unicode="&#xde;" horiz-adv-x="1234" d="M164 0v1434h242v-252h210q250 0 398.5 -119.5t148.5 -335.5q0 -218 -148 -337.5t-399 -119.5h-210v-270h-242zM406 479h190q162 0 242 59.5t80 188.5q0 128 -79.5 187t-242.5 59h-190v-494z" />
<glyph unicode="&#xdf;" horiz-adv-x="1189" d="M164 0v963q0 245 114 370t336 125q194 0 316.5 -107t122.5 -270q0 -232 -215 -327q125 -41 197.5 -138t72.5 -221q0 -207 -111.5 -313.5t-328.5 -106.5q-142 0 -232 56l23 243q38 -41 95 -63.5t118 -22.5q190 0 190 207q0 107 -87.5 176t-233.5 70v209q131 0 198.5 60 t67.5 167q0 78 -52.5 123t-144.5 45q-204 0 -204 -254v-991h-242z" />
<glyph unicode="&#xe0;" horiz-adv-x="1134" d="M72 319q0 168 124.5 264.5t350.5 96.5h221v51q0 91 -51 126.5t-176 35.5q-190 0 -359 -96l-22 196q69 41 176 66.5t215 25.5q238 0 344 -90t106 -309v-686h-233v63q-107 -88 -291 -88q-176 0 -290.5 89.5t-114.5 254.5zM250 1485v51h254l254 -348h-223zM309 324 q0 -156 201 -156q175 0 258 96v228h-213q-246 0 -246 -168z" />
<glyph unicode="&#xe1;" horiz-adv-x="1134" d="M72 319q0 168 124.5 264.5t350.5 96.5h221v51q0 91 -51 126.5t-176 35.5q-190 0 -359 -96l-22 196q69 41 176 66.5t215 25.5q238 0 344 -90t106 -309v-686h-233v63q-107 -88 -291 -88q-176 0 -290.5 89.5t-114.5 254.5zM309 324q0 -156 201 -156q175 0 258 96v228h-213 q-246 0 -246 -168zM369 1188l254 348h254v-51l-285 -297h-223z" />
<glyph unicode="&#xe2;" horiz-adv-x="1134" d="M72 319q0 168 124.5 264.5t350.5 96.5h221v51q0 91 -51 126.5t-176 35.5q-190 0 -359 -96l-22 196q69 41 176 66.5t215 25.5q238 0 344 -90t106 -309v-686h-233v63q-107 -88 -291 -88q-176 0 -290.5 89.5t-114.5 254.5zM178 1188l268 348h218l268 -348h-223l-154 172 l-154 -172h-223zM309 324q0 -156 201 -156q175 0 258 96v228h-213q-246 0 -246 -168z" />
<glyph unicode="&#xe3;" horiz-adv-x="1134" d="M72 319q0 168 124.5 264.5t350.5 96.5h221v51q0 91 -51 126.5t-176 35.5q-190 0 -359 -96l-22 196q69 41 176 66.5t215 25.5q238 0 344 -90t106 -309v-686h-233v63q-107 -88 -291 -88q-176 0 -290.5 89.5t-114.5 254.5zM219 1219q0 288 205 288q79 0 145 -55 q62 -49 93 -49q20 0 28 20t8 80h203q0 -289 -205 -289q-78 0 -145 56q-62 49 -92 49q-20 0 -28.5 -20t-8.5 -80h-203zM309 324q0 -156 201 -156q175 0 258 96v228h-213q-246 0 -246 -168z" />
<glyph unicode="&#xe4;" horiz-adv-x="1134" d="M72 319q0 168 124.5 264.5t350.5 96.5h221v51q0 91 -51 126.5t-176 35.5q-190 0 -359 -96l-22 196q69 41 176 66.5t215 25.5q238 0 344 -90t106 -309v-686h-233v63q-107 -88 -291 -88q-176 0 -290.5 89.5t-114.5 254.5zM233 1362q0 129 129 129q130 0 130 -129t-130 -129 q-129 0 -129 129zM309 324q0 -156 201 -156q175 0 258 96v228h-213q-246 0 -246 -168zM647 1362q0 129 129 129t129 -129t-129 -129t-129 129z" />
<glyph unicode="&#xe5;" horiz-adv-x="1134" d="M72 319q0 168 124.5 264.5t350.5 96.5h221v51q0 91 -51 126.5t-176 35.5q-190 0 -359 -96l-22 196q69 41 176 66.5t215 25.5q238 0 344 -90t106 -309v-686h-233v63q-107 -88 -291 -88q-176 0 -290.5 89.5t-114.5 254.5zM309 324q0 -156 201 -156q175 0 258 96v228h-213 q-246 0 -246 -168zM330 1362q0 93 65.5 156t163.5 63t163.5 -63t65.5 -156t-65.5 -156t-163.5 -63t-163.5 63t-65.5 156zM487 1362q0 -34 21 -54t51 -20t51 20t21 54t-21 54t-51 20t-51 -20t-21 -54z" />
<glyph unicode="&#xe6;" horiz-adv-x="1753" d="M72 324q0 170 117 266t341 96h213v31q0 89 -59 132.5t-182 43.5q-165 0 -320 -90l-24 201q187 81 362 81q251 0 357 -161q55 75 140.5 118t186.5 43q153 0 262 -73t162 -198.5t53 -291.5q0 -26 -4 -84h-710q18 -125 99 -197.5t220 -72.5q172 0 289 88l24 -201 q-122 -80 -323 -80q-141 0 -247.5 50t-166.5 143q-57 -93 -156.5 -143t-228.5 -50q-184 0 -294.5 91t-110.5 258zM305 328q0 -79 46 -119.5t124 -40.5q200 0 268 178v152h-204q-125 0 -179.5 -44t-54.5 -126zM967 627h479q-11 126 -72.5 198t-169.5 72q-106 0 -166 -71.5 t-71 -198.5z" />
<glyph unicode="&#xe7;" horiz-adv-x="1048" d="M82 528q0 253 153.5 404t411.5 151q198 0 320 -65l-21 -199q-113 72 -287 72q-150 0 -245 -97.5t-95 -265.5q0 -169 98 -265.5t265 -96.5t274 76l21 -201q-95 -56 -246 -66l-51 -94q67 -12 111.5 -58.5t44.5 -105.5q0 -101 -68 -152.5t-221 -51.5q-74 0 -131 14v151 q47 -20 125 -20q96 0 96 66q0 86 -205 86l92 176q-209 37 -325.5 179.5t-116.5 362.5z" />
<glyph unicode="&#xe8;" horiz-adv-x="1136" d="M82 532q0 250 133 401.5t356 151.5q233 0 363.5 -154.5t130.5 -406.5q0 -32 -4 -86h-735q22 -270 321 -270q188 0 311 88l23 -203q-128 -78 -344 -78q-138 0 -245 41.5t-174.5 116.5t-101.5 176t-34 223zM254 1485v51h254l254 -348h-223zM326 627h495q-12 128 -76 197 t-174 69q-108 0 -171 -69t-74 -197z" />
<glyph unicode="&#xe9;" horiz-adv-x="1136" d="M82 532q0 250 133 401.5t356 151.5q233 0 363.5 -154.5t130.5 -406.5q0 -32 -4 -86h-735q22 -270 321 -270q188 0 311 88l23 -203q-128 -78 -344 -78q-138 0 -245 41.5t-174.5 116.5t-101.5 176t-34 223zM326 627h495q-12 128 -76 197t-174 69q-108 0 -171 -69t-74 -197z M377 1188l254 348h254v-51l-285 -297h-223z" />
<glyph unicode="&#xea;" horiz-adv-x="1136" d="M82 532q0 250 133 401.5t356 151.5q233 0 363.5 -154.5t130.5 -406.5q0 -32 -4 -86h-735q22 -270 321 -270q188 0 311 88l23 -203q-128 -78 -344 -78q-138 0 -245 41.5t-174.5 116.5t-101.5 176t-34 223zM195 1188l268 348h217l268 -348h-223l-154 172l-153 -172h-223z M326 627h495q-12 128 -76 197t-174 69q-108 0 -171 -69t-74 -197z" />
<glyph unicode="&#xeb;" horiz-adv-x="1136" d="M82 532q0 250 133 401.5t356 151.5q233 0 363.5 -154.5t130.5 -406.5q0 -32 -4 -86h-735q22 -270 321 -270q188 0 311 88l23 -203q-128 -78 -344 -78q-138 0 -245 41.5t-174.5 116.5t-101.5 176t-34 223zM236 1362q0 129 129 129t129 -129t-129 -129t-129 129zM326 627 h495q-12 128 -76 197t-174 69q-108 0 -171 -69t-74 -197zM649 1362q0 129 129 129t129 -129t-129 -129t-129 129z" />
<glyph unicode="&#xec;" horiz-adv-x="540" d="M-92 1485v51h254l254 -348h-223zM154 0v1061h233v-1061h-233z" />
<glyph unicode="&#xed;" horiz-adv-x="540" d="M125 1188l254 348h254v-51l-285 -297h-223zM154 0v1061h233v-1061h-233z" />
<glyph unicode="&#xee;" horiz-adv-x="540" d="M-106 1188l268 348h217l268 -348h-223l-154 172l-153 -172h-223zM154 0v1061h233v-1061h-233z" />
<glyph unicode="&#xef;" horiz-adv-x="540" d="M-66 1362q0 129 129 129q130 0 130 -129t-130 -129q-129 0 -129 129zM154 0v1061h233v-1061h-233zM348 1362q0 129 129 129t129 -129t-129 -129t-129 129z" />
<glyph unicode="&#xf0;" horiz-adv-x="1150" d="M82 502q0 246 127 383t344 137q74 0 140 -22.5t110 -63.5q-38 123 -141 213l-388 -117l-47 148l248 73q-80 30 -149 43l18 199q242 -58 399 -160l265 80l49 -147l-172 -54q184 -203 184 -552q0 -322 -132 -504.5t-384 -182.5q-207 0 -339 140t-132 387zM315 502 q0 -155 63 -244.5t175 -89.5q129 0 206 124.5t77 371.5v24q-122 141 -283 141q-112 0 -175 -87t-63 -240z" />
<glyph unicode="&#xf1;" horiz-adv-x="1214" d="M143 0v1061h234v-64q114 88 266 88q206 0 322 -124.5t116 -362.5v-598h-233v600q0 152 -58.5 222.5t-181.5 70.5q-70 0 -131 -26t-100 -70v-797h-234zM272 1219q0 288 205 288q80 0 146 -55q62 -49 92 -49q20 0 28.5 20t8.5 80h202q0 -289 -204 -289q-79 0 -146 56 q-62 49 -92 49q-20 0 -28.5 -20t-8.5 -80h-203z" />
<glyph unicode="&#xf2;" horiz-adv-x="1212" d="M82 530q0 158 63 284t183 198.5t278 72.5t278 -72.5t183 -198.5t63 -284t-63 -284t-183 -198.5t-278 -72.5t-278 72.5t-183 198.5t-63 284zM281 1485v51h254l253 -348h-223zM319 530q0 -167 76.5 -264.5t210.5 -97.5t210.5 97.5t76.5 264.5t-76.5 265t-210.5 98 t-210.5 -98t-76.5 -265z" />
<glyph unicode="&#xf3;" horiz-adv-x="1212" d="M82 530q0 158 63 284t183 198.5t278 72.5t278 -72.5t183 -198.5t63 -284t-63 -284t-183 -198.5t-278 -72.5t-278 72.5t-183 198.5t-63 284zM319 530q0 -167 76.5 -264.5t210.5 -97.5t210.5 97.5t76.5 264.5t-76.5 265t-210.5 98t-210.5 -98t-76.5 -265zM424 1188l254 348 h254v-51l-285 -297h-223z" />
<glyph unicode="&#xf4;" horiz-adv-x="1212" d="M82 530q0 158 63 284t183 198.5t278 72.5t278 -72.5t183 -198.5t63 -284t-63 -284t-183 -198.5t-278 -72.5t-278 72.5t-183 198.5t-63 284zM229 1188l269 348h217l268 -348h-223l-154 172l-153 -172h-224zM319 530q0 -167 76.5 -264.5t210.5 -97.5t210.5 97.5t76.5 264.5 t-76.5 265t-210.5 98t-210.5 -98t-76.5 -265z" />
<glyph unicode="&#xf5;" horiz-adv-x="1212" d="M82 530q0 158 63 284t183 198.5t278 72.5t278 -72.5t183 -198.5t63 -284t-63 -284t-183 -198.5t-278 -72.5t-278 72.5t-183 198.5t-63 284zM264 1219q0 288 205 288q79 0 145 -55q62 -49 93 -49q20 0 28 20t8 80h203q0 -289 -205 -289q-78 0 -145 56q-62 49 -92 49 q-20 0 -28.5 -20t-8.5 -80h-203zM319 530q0 -167 76.5 -264.5t210.5 -97.5t210.5 97.5t76.5 264.5t-76.5 265t-210.5 98t-210.5 -98t-76.5 -265z" />
<glyph unicode="&#xf6;" horiz-adv-x="1212" d="M82 530q0 158 63 284t183 198.5t278 72.5t278 -72.5t183 -198.5t63 -284t-63 -284t-183 -198.5t-278 -72.5t-278 72.5t-183 198.5t-63 284zM270 1362q0 129 129 129t129 -129t-129 -129t-129 129zM319 530q0 -167 76.5 -264.5t210.5 -97.5t210.5 97.5t76.5 264.5 t-76.5 265t-210.5 98t-210.5 -98t-76.5 -265zM684 1362q0 129 129 129t129 -129t-129 -129t-129 129z" />
<glyph unicode="&#xf7;" horiz-adv-x="1269" d="M123 580v200h1024v-200h-1024zM489 274q0 146 146 146q145 0 145 -146q0 -145 -145 -145q-146 0 -146 145zM489 1085q0 146 146 146q145 0 145 -146q0 -145 -145 -145q-146 0 -146 145z" />
<glyph unicode="&#xf8;" horiz-adv-x="1212" d="M72 -225l186 323q-85 75 -130.5 187t-45.5 245q0 158 63 284t183 198.5t278 72.5q116 0 201 -36l137 237h197l-189 -325q85 -75 131.5 -186.5t46.5 -244.5q0 -158 -63 -284t-183 -198.5t-278 -72.5q-110 0 -203 35l-135 -235h-196zM319 530q0 -139 54 -233l334 577 q-49 19 -101 19q-134 0 -210.5 -98t-76.5 -265zM504 184q50 -16 102 -16q134 0 210.5 97.5t76.5 264.5q0 139 -55 232z" />
<glyph unicode="&#xf9;" horiz-adv-x="1214" d="M133 463v598h234v-600q0 -153 58 -223t181 -70q70 0 131.5 26t100.5 70v797h233v-1061h-233v63q-114 -88 -267 -88q-206 0 -322 125t-116 363zM246 1485v51h254l254 -348h-224z" />
<glyph unicode="&#xfa;" horiz-adv-x="1214" d="M133 463v598h234v-600q0 -153 58 -223t181 -70q70 0 131.5 26t100.5 70v797h233v-1061h-233v63q-114 -88 -267 -88q-206 0 -322 125t-116 363zM440 1188l254 348h254v-51l-284 -297h-224z" />
<glyph unicode="&#xfb;" horiz-adv-x="1214" d="M133 463v598h234v-600q0 -153 58 -223t181 -70q70 0 131.5 26t100.5 70v797h233v-1061h-233v63q-114 -88 -267 -88q-206 0 -322 125t-116 363zM225 1188l269 348h217l268 -348h-223l-154 172l-153 -172h-224z" />
<glyph unicode="&#xfc;" horiz-adv-x="1214" d="M133 463v598h234v-600q0 -153 58 -223t181 -70q70 0 131.5 26t100.5 70v797h233v-1061h-233v63q-114 -88 -267 -88q-206 0 -322 125t-116 363zM266 1362q0 129 129 129t129 -129t-129 -129t-129 129zM680 1362q0 129 129 129t129 -129t-129 -129t-129 129z" />
<glyph unicode="&#xfd;" horiz-adv-x="1140" d="M31 1061h254l288 -772l283 772h254l-565 -1456h-246l152 395zM420 1188l254 348h254v-51l-285 -297h-223z" />
<glyph unicode="&#xfe;" horiz-adv-x="1208" d="M143 -395v1890h234v-498q109 88 266 88q210 0 346.5 -152.5t136.5 -402.5t-136.5 -402.5t-346.5 -152.5q-157 0 -266 88v-458h-234zM377 264q42 -45 102 -70.5t127 -25.5q128 0 205.5 92.5t77.5 269.5t-77.5 270t-205.5 93q-67 0 -127 -25.5t-102 -70.5v-533z" />
<glyph unicode="&#xff;" horiz-adv-x="1140" d="M31 1061h254l288 -772l283 772h254l-565 -1456h-246l152 395zM219 1362q0 129 129 129t129 -129t-129 -129t-129 129zM633 1362q0 129 129 129t129 -129t-129 -129t-129 129z" />
<glyph unicode="&#x100;" horiz-adv-x="1347" d="M10 0l529 1434h270l528 -1434h-262l-119 346h-565l-119 -346h-262zM369 1624v191h618v-191h-618zM463 555h422l-211 614z" />
<glyph unicode="&#x101;" horiz-adv-x="1134" d="M72 319q0 168 124.5 264.5t350.5 96.5h221v51q0 91 -51 126.5t-176 35.5q-190 0 -359 -96l-22 196q69 41 176 66.5t215 25.5q238 0 344 -90t106 -309v-686h-233v63q-107 -88 -291 -88q-176 0 -290.5 89.5t-114.5 254.5zM250 1266v190h618v-190h-618zM309 324 q0 -156 201 -156q175 0 258 96v228h-213q-246 0 -246 -168z" />
<glyph unicode="&#x102;" horiz-adv-x="1347" d="M10 0l529 1434h270l528 -1434h-262l-119 346h-565l-119 -346h-262zM332 1886h207q9 -164 135 -164t135 164h207q-3 -112 -50 -189t-121.5 -112t-170.5 -35t-170.5 35t-121.5 112t-50 189zM463 555h422l-211 614z" />
<glyph unicode="&#x103;" horiz-adv-x="1134" d="M72 319q0 168 124.5 264.5t350.5 96.5h221v51q0 91 -51 126.5t-176 35.5q-190 0 -359 -96l-22 196q69 41 176 66.5t215 25.5q238 0 344 -90t106 -309v-686h-233v63q-107 -88 -291 -88q-176 0 -290.5 89.5t-114.5 254.5zM213 1528h207q9 -164 135 -164t135 164h207 q-3 -112 -50 -189t-121.5 -112t-170.5 -35t-170.5 35t-121.5 112t-50 189zM309 324q0 -156 201 -156q175 0 258 96v228h-213q-246 0 -246 -168z" />
<glyph unicode="&#x104;" horiz-adv-x="1347" d="M10 0l529 1434h270l528 -1434q-131 -120 -131 -209q0 -59 72 -59q53 0 88 18v-184q-59 -15 -139 -15q-119 0 -181.5 53.5t-62.5 147.5q0 71 36 137t93 111h-37l-119 346h-565l-119 -346h-262zM463 555h422l-211 614z" />
<glyph unicode="&#x105;" horiz-adv-x="1134" d="M72 319q0 168 124.5 264.5t350.5 96.5h221v51q0 91 -51 126.5t-176 35.5q-190 0 -359 -96l-22 196q69 41 176 66.5t215 25.5q238 0 344 -90t106 -309v-686q-131 -120 -131 -209q0 -59 72 -59q53 0 88 18v-184q-58 -15 -139 -15q-119 0 -181.5 53.5t-62.5 147.5 q0 71 36 137t93 111h-8v63q-107 -88 -291 -88q-176 0 -290.5 89.5t-114.5 254.5zM309 324q0 -156 201 -156q175 0 258 96v228h-213q-246 0 -246 -168z" />
<glyph unicode="&#x106;" horiz-adv-x="1271" d="M92 717q0 215 90 383t258 263t389 95q213 0 353 -67l-21 -230q-133 84 -321 84q-234 0 -368 -146.5t-134 -381.5q0 -244 136.5 -386.5t371.5 -142.5q185 0 323 93l21 -236q-149 -70 -352 -70q-224 0 -394 93.5t-261 261.5t-91 387zM610 1544l254 348h254v-51l-284 -297 h-224z" />
<glyph unicode="&#x107;" horiz-adv-x="1048" d="M82 530q0 253 153.5 404t411.5 151q198 0 320 -65l-21 -199q-113 72 -287 72q-150 0 -245 -97.5t-95 -265.5q0 -169 98 -265.5t265 -96.5t274 76l21 -201q-116 -68 -307 -68q-273 0 -430.5 149.5t-157.5 405.5zM414 1188l254 348h254v-51l-285 -297h-223z" />
<glyph unicode="&#x108;" horiz-adv-x="1271" d="M92 717q0 215 90 383t258 263t389 95q213 0 353 -67l-21 -230q-133 84 -321 84q-234 0 -368 -146.5t-134 -381.5q0 -244 136.5 -386.5t371.5 -142.5q185 0 323 93l21 -236q-149 -70 -352 -70q-224 0 -394 93.5t-261 261.5t-91 387zM418 1544l268 348h217l268 -348h-223 l-153 172l-154 -172h-223z" />
<glyph unicode="&#x109;" horiz-adv-x="1062" d="M82 530q0 253 153.5 404t411.5 151q198 0 320 -65l-21 -199q-113 72 -287 72q-150 0 -245 -97.5t-95 -265.5q0 -169 98 -265.5t265 -96.5t274 76l21 -201q-116 -68 -307 -68q-273 0 -430.5 149.5t-157.5 405.5zM238 1188l268 348h217l268 -348h-223l-154 172l-153 -172 h-223z" />
<glyph unicode="&#x10a;" horiz-adv-x="1271" d="M92 717q0 215 90 383t258 263t389 95q213 0 353 -67l-21 -230q-133 84 -321 84q-234 0 -368 -146.5t-134 -381.5q0 -244 136.5 -386.5t371.5 -142.5q185 0 323 93l21 -236q-149 -70 -352 -70q-224 0 -394 93.5t-261 261.5t-91 387zM643 1718q0 140 139 140 q140 0 140 -140q0 -139 -140 -139q-139 0 -139 139z" />
<glyph unicode="&#x10b;" horiz-adv-x="1048" d="M82 530q0 253 153.5 404t411.5 151q198 0 320 -65l-21 -199q-113 72 -287 72q-150 0 -245 -97.5t-95 -265.5q0 -169 98 -265.5t265 -96.5t274 76l21 -201q-116 -68 -307 -68q-273 0 -430.5 149.5t-157.5 405.5zM485 1362q0 139 140 139q139 0 139 -139t-139 -139 q-140 0 -140 139z" />
<glyph unicode="&#x10c;" horiz-adv-x="1271" d="M92 717q0 215 90 383t258 263t389 95q213 0 353 -67l-21 -230q-133 84 -321 84q-234 0 -368 -146.5t-134 -381.5q0 -244 136.5 -386.5t371.5 -142.5q185 0 323 93l21 -236q-149 -70 -352 -70q-224 0 -394 93.5t-261 261.5t-91 387zM418 1892h223l154 -172l153 172h223 l-268 -348h-217z" />
<glyph unicode="&#x10d;" horiz-adv-x="1062" d="M82 530q0 253 153.5 404t411.5 151q198 0 320 -65l-21 -199q-113 72 -287 72q-150 0 -245 -97.5t-95 -265.5q0 -169 98 -265.5t265 -96.5t274 76l21 -201q-116 -68 -307 -68q-273 0 -430.5 149.5t-157.5 405.5zM238 1536h223l153 -172l154 172h223l-268 -348h-217z" />
<glyph unicode="&#x10e;" horiz-adv-x="1413" d="M164 0v1434h381q168 0 309 -45.5t245.5 -133.5t163 -225.5t58.5 -312.5t-58.5 -312.5t-163 -225.5t-245.5 -133.5t-309 -45.5h-381zM186 1892h224l153 -172l154 172h223l-268 -348h-217zM406 209h106q278 0 420.5 122.5t142.5 385.5t-142.5 385.5t-420.5 122.5h-106 v-1016z" />
<glyph unicode="&#x10f;" horiz-adv-x="1495" d="M82 530q0 251 135 403t348 152q157 0 266 -88v498h234v-1495h-234v63q-109 -88 -266 -88q-213 0 -348 152t-135 403zM319 530q0 -177 77.5 -269.5t205.5 -92.5q67 0 127 25.5t102 70.5v533q-42 45 -102 70.5t-127 25.5q-128 0 -205.5 -93t-77.5 -270zM1153 1055 q98 76 113 178q-103 18 -103 141q0 146 146 146q74 0 109.5 -37.5t35.5 -122.5q0 -137 -63 -240.5t-174 -161.5z" />
<glyph unicode="&#x110;" horiz-adv-x="1423" d="M20 633v168h154v633h381q168 0 309 -45.5t245.5 -133.5t163 -225.5t58.5 -312.5t-58.5 -312.5t-163 -225.5t-245.5 -133.5t-309 -45.5h-381v633h-154zM416 209h106q278 0 420.5 122.5t142.5 385.5t-142.5 385.5t-420.5 122.5h-106v-424h299v-168h-299v-424z" />
<glyph unicode="&#x111;" horiz-adv-x="1218" d="M82 530q0 251 135 403t348 152q157 0 266 -88v207h-372v160h372v131h234v-131h143v-160h-143v-1204h-234v63q-109 -88 -266 -88q-213 0 -348 152t-135 403zM319 530q0 -177 77.5 -269.5t205.5 -92.5q67 0 127 25.5t102 70.5v533q-42 45 -102 70.5t-127 25.5 q-128 0 -205.5 -93t-77.5 -270z" />
<glyph unicode="&#x112;" horiz-adv-x="1177" d="M164 0v1434h913v-209h-671v-383h622v-209h-622v-424h690v-209h-932zM303 1624v191h619v-191h-619z" />
<glyph unicode="&#x113;" horiz-adv-x="1136" d="M82 532q0 250 133 401.5t356 151.5q233 0 363.5 -154.5t130.5 -406.5q0 -32 -4 -86h-735q22 -270 321 -270q188 0 311 88l23 -203q-128 -78 -344 -78q-138 0 -245 41.5t-174.5 116.5t-101.5 176t-34 223zM258 1266v190h619v-190h-619zM326 627h495q-12 128 -76 197 t-174 69q-108 0 -171 -69t-74 -197z" />
<glyph unicode="&#x114;" horiz-adv-x="1177" d="M164 0v1434h913v-209h-671v-383h622v-209h-622v-424h690v-209h-932zM274 1886h207q9 -164 135 -164q127 0 136 164h206q-3 -112 -50 -189t-121.5 -112t-170.5 -35t-170.5 35t-121.5 112t-50 189z" />
<glyph unicode="&#x115;" horiz-adv-x="1136" d="M82 532q0 250 133 401.5t356 151.5q233 0 363.5 -154.5t130.5 -406.5q0 -32 -4 -86h-735q22 -270 321 -270q188 0 311 88l23 -203q-128 -78 -344 -78q-138 0 -245 41.5t-174.5 116.5t-101.5 176t-34 223zM227 1528h207q9 -164 135 -164q127 0 136 164h206 q-3 -112 -50 -189t-121.5 -112t-170.5 -35t-170.5 35t-121.5 112t-50 189zM326 627h495q-12 128 -76 197t-174 69q-108 0 -171 -69t-74 -197z" />
<glyph unicode="&#x116;" horiz-adv-x="1177" d="M164 0v1434h913v-209h-671v-383h622v-209h-622v-424h690v-209h-932zM475 1718q0 140 139 140q140 0 140 -140q0 -139 -140 -139q-139 0 -139 139z" />
<glyph unicode="&#x117;" horiz-adv-x="1136" d="M82 532q0 250 133 401.5t356 151.5q233 0 363.5 -154.5t130.5 -406.5q0 -32 -4 -86h-735q22 -270 321 -270q188 0 311 88l23 -203q-128 -78 -344 -78q-138 0 -245 41.5t-174.5 116.5t-101.5 176t-34 223zM326 627h495q-12 128 -76 197t-174 69q-108 0 -171 -69t-74 -197z M422 1362q0 139 139 139t139 -139t-139 -139t-139 139z" />
<glyph unicode="&#x118;" horiz-adv-x="1177" d="M164 0v1434h913v-209h-671v-383h622v-209h-622v-424h690v-209h-60q-131 -120 -131 -209q0 -59 72 -59q53 0 88 18v-184q-58 -15 -139 -15q-119 0 -181.5 53.5t-62.5 147.5q0 71 36 137t93 111h-647z" />
<glyph unicode="&#x119;" horiz-adv-x="1136" d="M82 532q0 250 133 401.5t356 151.5q233 0 363.5 -154.5t130.5 -406.5q0 -32 -4 -86h-735q22 -270 321 -270q188 0 311 88l23 -203q-59 -39 -145 -55q-127 -116 -127 -207q0 -59 71 -59q53 0 88 18v-184q-58 -15 -139 -15q-119 0 -181.5 53.5t-62.5 147.5q0 125 103 225 q-249 15 -377.5 165t-128.5 390zM326 627h495q-12 128 -76 197t-174 69q-108 0 -171 -69t-74 -197z" />
<glyph unicode="&#x11a;" horiz-adv-x="1177" d="M164 0v1434h913v-209h-671v-383h622v-209h-622v-424h690v-209h-932zM242 1892h223l153 -172l154 172h223l-268 -348h-217z" />
<glyph unicode="&#x11b;" horiz-adv-x="1136" d="M82 532q0 250 133 401.5t356 151.5q233 0 363.5 -154.5t130.5 -406.5q0 -32 -4 -86h-735q22 -270 321 -270q188 0 311 88l23 -203q-128 -78 -344 -78q-138 0 -245 41.5t-174.5 116.5t-101.5 176t-34 223zM195 1536h223l153 -172l154 172h223l-268 -348h-217zM326 627h495 q-12 128 -76 197t-174 69q-108 0 -171 -69t-74 -197z" />
<glyph unicode="&#x11c;" horiz-adv-x="1466" d="M92 717q0 211 92 378.5t266 265t402 97.5q249 0 444 -82l-20 -237q-190 106 -414 106q-237 0 -380.5 -146.5t-143.5 -381.5q0 -242 145 -385.5t402 -143.5q119 0 196 25v391h-376v209h618v-756q-200 -82 -451 -82q-175 0 -321.5 55.5t-247 153.5t-156 235t-55.5 298z M430 1544l268 348h217l269 -348h-223l-154 172l-154 -172h-223z" />
<glyph unicode="&#x11d;" horiz-adv-x="1200" d="M82 541q0 123 38 226.5t103 172t152.5 107t185.5 38.5q77 0 146.5 -24t115.5 -64v64h234v-965q0 -267 -121.5 -386.5t-388.5 -119.5q-212 0 -363 80l15 213q150 -104 350 -104q134 0 204 62t70 198v45q-46 -40 -115.5 -64t-146.5 -24q-98 0 -185.5 38.5t-152.5 107.5 t-103 172.5t-38 226.5zM242 1188l268 348h217l268 -348h-223l-154 172l-153 -172h-223zM319 541q0 -168 76.5 -260.5t192.5 -92.5q70 0 132 25t103 72v512q-41 46 -103 71t-132 25q-116 0 -192.5 -92t-76.5 -260z" />
<glyph unicode="&#x11e;" horiz-adv-x="1466" d="M92 717q0 211 92 378.5t266 265t402 97.5q249 0 444 -82l-20 -237q-190 106 -414 106q-237 0 -380.5 -146.5t-143.5 -381.5q0 -242 145 -385.5t402 -143.5q119 0 196 25v391h-376v209h618v-756q-200 -82 -451 -82q-175 0 -321.5 55.5t-247 153.5t-156 235t-55.5 298z M469 1886h207q9 -164 135 -164t135 164h207q-3 -112 -50 -189t-121.5 -112t-170.5 -35t-170.5 35t-121.5 112t-50 189z" />
<glyph unicode="&#x11f;" horiz-adv-x="1200" d="M82 541q0 123 38 226.5t103 172t152.5 107t185.5 38.5q77 0 146.5 -24t115.5 -64v64h234v-965q0 -267 -121.5 -386.5t-388.5 -119.5q-212 0 -363 80l15 213q150 -104 350 -104q134 0 204 62t70 198v45q-46 -40 -115.5 -64t-146.5 -24q-98 0 -185.5 38.5t-152.5 107.5 t-103 172.5t-38 226.5zM276 1528h207q9 -164 135 -164q127 0 136 164h207q-3 -112 -50.5 -189t-122 -112t-170.5 -35t-170.5 35t-121.5 112t-50 189zM319 541q0 -168 76.5 -260.5t192.5 -92.5q70 0 132 25t103 72v512q-41 46 -103 71t-132 25q-116 0 -192.5 -92t-76.5 -260z " />
<glyph unicode="&#x120;" horiz-adv-x="1466" d="M92 717q0 211 92 378.5t266 265t402 97.5q249 0 444 -82l-20 -237q-190 106 -414 106q-237 0 -380.5 -146.5t-143.5 -381.5q0 -242 145 -385.5t402 -143.5q119 0 196 25v391h-376v209h618v-756q-200 -82 -451 -82q-175 0 -321.5 55.5t-247 153.5t-156 235t-55.5 298z M672 1718q0 140 139 140t139 -140q0 -139 -139 -139t-139 139z" />
<glyph unicode="&#x121;" horiz-adv-x="1200" d="M82 541q0 123 38 226.5t103 172t152.5 107t185.5 38.5q77 0 146.5 -24t115.5 -64v64h234v-965q0 -267 -121.5 -386.5t-388.5 -119.5q-212 0 -363 80l15 213q150 -104 350 -104q134 0 204 62t70 198v45q-46 -40 -115.5 -64t-146.5 -24q-98 0 -185.5 38.5t-152.5 107.5 t-103 172.5t-38 226.5zM319 541q0 -168 76.5 -260.5t192.5 -92.5q70 0 132 25t103 72v512q-41 46 -103 71t-132 25q-116 0 -192.5 -92t-76.5 -260zM455 1362q0 139 139 139t139 -139t-139 -139t-139 139z" />
<glyph unicode="&#x122;" horiz-adv-x="1466" d="M92 717q0 211 92 378.5t266 265t402 97.5q249 0 444 -82l-20 -237q-190 106 -414 106q-237 0 -380.5 -146.5t-143.5 -381.5q0 -242 145 -385.5t402 -143.5q119 0 196 25v391h-376v209h618v-756q-200 -82 -451 -82q-175 0 -321.5 55.5t-247 153.5t-156 235t-55.5 298z M741 -207q0 123 129 123q69 0 101.5 -34t32.5 -111q0 -100 -48.5 -188t-138.5 -142l-63 98q79 57 82 133q-44 6 -69.5 38.5t-25.5 82.5z" />
<glyph unicode="&#x123;" horiz-adv-x="1200" d="M82 541q0 123 38 226.5t103 172t152.5 107t185.5 38.5q77 0 146.5 -24t115.5 -64v64h234v-965q0 -267 -121.5 -386.5t-388.5 -119.5q-212 0 -363 80l15 213q150 -104 350 -104q134 0 204 62t70 198v45q-46 -40 -115.5 -64t-146.5 -24q-98 0 -185.5 38.5t-152.5 107.5 t-103 172.5t-38 226.5zM319 541q0 -168 76.5 -260.5t192.5 -92.5q70 0 132 25t103 72v512q-41 46 -103 71t-132 25q-116 0 -192.5 -92t-76.5 -260zM446 1329q0 100 48.5 188t138.5 142l63 -98q-79 -57 -82 -134q44 -6 69.5 -38t25.5 -82q0 -123 -129 -123q-69 0 -101.5 34 t-32.5 111z" />
<glyph unicode="&#x124;" horiz-adv-x="1458" d="M164 0v1434h242v-566h647v566h241v-1434h-241v659h-647v-659h-242zM352 1544l269 348h217l268 -348h-223l-154 172l-154 -172h-223z" />
<glyph unicode="&#x125;" horiz-adv-x="1214" d="M45 1544l268 348h217l269 -348h-224l-153 172l-154 -172h-223zM143 0v1495h234v-498q114 88 266 88q206 0 322 -124.5t116 -362.5v-598h-233v600q0 152 -58.5 222.5t-181.5 70.5q-70 0 -131 -26t-100 -70v-797h-234z" />
<glyph unicode="&#x126;" horiz-adv-x="1478" d="M51 1081v168h123v185h242v-185h647v185h242v-185h122v-168h-122v-1081h-242v659h-647v-659h-242v1081h-123zM416 868h647v213h-647v-213z" />
<glyph unicode="&#x127;" horiz-adv-x="1224" d="M10 1204v160h144v131h233v-131h373v-160h-373v-207q114 88 266 88q206 0 322.5 -125t116.5 -362v-598h-234v600q0 152 -58.5 222.5t-181.5 70.5q-70 0 -131 -26t-100 -70v-797h-233v1204h-144z" />
<glyph unicode="&#x128;" horiz-adv-x="589" d="M-45 1577q0 289 205 289q78 0 145 -56q62 -49 92 -49q20 0 28.5 20.5t8.5 80.5h203q0 -289 -205 -289q-79 0 -145 55q-62 49 -92 49q-20 0 -28.5 -20t-8.5 -80h-203zM174 0v1434h242v-1434h-242z" />
<glyph unicode="&#x129;" horiz-adv-x="540" d="M-70 1219q0 288 205 288q80 0 146 -55q62 -49 92 -49q20 0 28.5 20t8.5 80h202q0 -289 -204 -289q-79 0 -146 56q-62 49 -92 49q-20 0 -28.5 -20t-8.5 -80h-203zM154 0v1061h233v-1061h-233z" />
<glyph unicode="&#x12a;" horiz-adv-x="589" d="M-14 1624v191h618v-191h-618zM174 0v1434h242v-1434h-242z" />
<glyph unicode="&#x12b;" horiz-adv-x="540" d="M-39 1266v190h619v-190h-619zM154 0v1061h233v-1061h-233z" />
<glyph unicode="&#x12c;" horiz-adv-x="589" d="M-47 1886h207q9 -164 135 -164t135 164h207q-3 -112 -50 -189t-121.5 -112t-170.5 -35t-170.5 35t-121.5 112t-50 189zM174 0v1434h242v-1434h-242z" />
<glyph unicode="&#x12d;" horiz-adv-x="540" d="M-72 1528h207q9 -164 135 -164q127 0 136 164h206q-3 -112 -50 -189t-121.5 -112t-170.5 -35t-170.5 35t-121.5 112t-50 189zM154 0v1061h233v-1061h-233z" />
<glyph unicode="&#x12e;" horiz-adv-x="589" d="M61 -248q0 71 36 137t93 111h-16v1434h242v-1434q-131 -120 -131 -209q0 -59 71 -59q53 0 88 18v-184q-59 -15 -139 -15q-119 0 -181.5 53.5t-62.5 147.5z" />
<glyph unicode="&#x12f;" horiz-adv-x="540" d="M33 -248q0 71 36 137t93 111h-8v1061h233v-1061q-131 -120 -131 -209q0 -59 72 -59q53 0 88 18v-184q-59 -15 -140 -15q-119 0 -181 53.5t-62 147.5zM131 1356q0 139 139 139q140 0 140 -139t-140 -139q-139 0 -139 139z" />
<glyph unicode="&#x130;" horiz-adv-x="589" d="M156 1718q0 140 139 140t139 -140q0 -139 -139 -139t-139 139zM174 0v1434h242v-1434h-242z" />
<glyph unicode="&#x131;" horiz-adv-x="540" d="M154 0v1061h233v-1061h-233z" />
<glyph unicode="&#x132;" horiz-adv-x="1429" d="M164 0v1434h242v-1434h-242zM494 47l20 240q132 -99 297 -99q106 0 159.5 67.5t53.5 221.5v957h242v-957q0 -250 -117 -376t-334 -126q-183 0 -321 72z" />
<glyph unicode="&#x133;" horiz-adv-x="1036" d="M121 1356q0 139 139 139t139 -139t-139 -139t-139 139zM143 0v1061h234v-1061h-234zM373 -385l20 197q60 -29 131 -29t103 45.5t32 140.5v1092h234v-1084q0 -191 -87.5 -289t-277.5 -98q-75 0 -155 25zM637 1356q0 139 139 139t139 -139t-139 -139t-139 139z" />
<glyph unicode="&#x134;" horiz-adv-x="956" d="M20 47l21 240q132 -99 297 -99q106 0 159.5 67.5t53.5 221.5v957h242v-957q0 -250 -117 -376t-334 -126q-184 0 -322 72zM287 1544l268 348h217l268 -348h-223l-153 172l-154 -172h-223z" />
<glyph unicode="&#x135;" horiz-adv-x="540" d="M-123 -385l21 197q60 -29 131 -29t103 45.5t32 140.5v1092h233v-1084q0 -192 -87 -289.5t-277 -97.5q-76 0 -156 25zM-94 1188l268 348h217l268 -348h-223l-153 172l-154 -172h-223z" />
<glyph unicode="&#x136;" horiz-adv-x="1304" d="M164 0v1434h242v-637l546 637h291l-577 -672l669 -762h-313l-616 719v-719h-242zM553 -207q0 123 129 123q69 0 101 -34t32 -111q0 -101 -48 -188.5t-138 -141.5l-64 98q79 57 82 133q-44 6 -69 38.5t-25 82.5z" />
<glyph unicode="&#x137;" horiz-adv-x="1116" d="M143 0v1495h234v-866l403 432h289l-442 -471l479 -590h-293l-436 551v-551h-234zM442 -207q0 123 129 123q69 0 101.5 -34t32.5 -111q0 -100 -48.5 -188t-138.5 -142l-63 98q79 57 82 133q-44 6 -69.5 38.5t-25.5 82.5z" />
<glyph unicode="&#x138;" horiz-adv-x="1116" d="M143 0v1061h234v-467l403 467h289l-442 -508l479 -553h-291l-438 510v-510h-234z" />
<glyph unicode="&#x139;" horiz-adv-x="1177" d="M117 1544l254 348h254v-51l-285 -297h-223zM164 0v1434h242v-1225h731v-209h-973z" />
<glyph unicode="&#x13a;" horiz-adv-x="540" d="M117 1544l254 348h254v-51l-285 -297h-223zM154 0v1495h233v-1495h-233z" />
<glyph unicode="&#x13b;" horiz-adv-x="1177" d="M164 0v1434h242v-1225h731v-209h-973zM539 -207q0 123 129 123q69 0 101 -34t32 -111q0 -100 -48.5 -188t-138.5 -142l-63 98q79 57 82 133q-44 6 -69 38.5t-25 82.5z" />
<glyph unicode="&#x13c;" horiz-adv-x="548" d="M143 -207q0 123 129 123q69 0 101.5 -34t32.5 -111q0 -100 -48.5 -188t-138.5 -142l-63 98q79 57 82 133q-44 6 -69.5 38.5t-25.5 82.5zM160 0v1495h233v-1495h-233z" />
<glyph unicode="&#x13d;" horiz-adv-x="1177" d="M164 0v1434h242v-1225h731v-209h-973zM707 1055q96 75 112 178q-102 18 -102 141q0 146 145 146q74 0 110 -38t36 -122q0 -136 -63 -240t-175 -162z" />
<glyph unicode="&#x13e;" horiz-adv-x="817" d="M154 0v1495h233v-1495h-233zM475 1055q98 76 113 178q-103 18 -103 141q0 146 146 146q74 0 109.5 -37.5t35.5 -122.5q0 -137 -63 -240.5t-174 -161.5z" />
<glyph unicode="&#x13f;" horiz-adv-x="1177" d="M164 0v1434h242v-1225h731v-209h-973zM715 776q0 139 139 139t139 -139t-139 -139t-139 139z" />
<glyph unicode="&#x140;" horiz-adv-x="870" d="M154 0v1495h233v-1495h-233zM571 776q0 139 140 139q139 0 139 -139t-139 -139q-140 0 -140 139z" />
<glyph unicode="&#x141;" horiz-adv-x="1198" d="M-10 565l194 131v738h242v-576l514 346l100 -145l-614 -416v-434h731v-209h-973v481l-100 -67z" />
<glyph unicode="&#x142;" horiz-adv-x="808" d="M-20 608l284 191v696h234v-539l231 156l100 -141l-331 -223v-748h-234v590l-190 -129z" />
<glyph unicode="&#x143;" horiz-adv-x="1470" d="M164 0v1434h262l647 -1088v1088h234v-1434h-263l-647 1087v-1087h-233zM608 1544l254 348h254v-51l-285 -297h-223z" />
<glyph unicode="&#x144;" horiz-adv-x="1214" d="M143 0v1061h234v-64q114 88 266 88q206 0 322 -124.5t116 -362.5v-598h-233v600q0 152 -58.5 222.5t-181.5 70.5q-70 0 -131 -26t-100 -70v-797h-234zM424 1188l254 348h254v-51l-285 -297h-223z" />
<glyph unicode="&#x145;" horiz-adv-x="1470" d="M164 0v1434h262l647 -1088v1088h234v-1434h-263l-647 1087v-1087h-233zM629 -207q0 123 129 123q69 0 101 -34t32 -111q0 -101 -48 -188.5t-138 -141.5l-64 98q79 57 82 133q-44 6 -69 38.5t-25 82.5z" />
<glyph unicode="&#x146;" horiz-adv-x="1214" d="M143 0v1061h234v-64q114 88 266 88q206 0 322 -124.5t116 -362.5v-598h-233v600q0 152 -58.5 222.5t-181.5 70.5q-70 0 -131 -26t-100 -70v-797h-234zM483 -207q0 123 129 123q69 0 101 -34t32 -111q0 -101 -48 -188.5t-138 -141.5l-63 98q79 57 82 133q-44 6 -69.5 38.5 t-25.5 82.5z" />
<glyph unicode="&#x147;" horiz-adv-x="1470" d="M164 0v1434h262l647 -1088v1088h234v-1434h-263l-647 1087v-1087h-233zM348 1892h223l154 -172l154 172h223l-268 -348h-218z" />
<glyph unicode="&#x148;" horiz-adv-x="1214" d="M143 0v1061h234v-64q114 88 266 88q206 0 322 -124.5t116 -362.5v-598h-233v600q0 152 -58.5 222.5t-181.5 70.5q-70 0 -131 -26t-100 -70v-797h-234zM229 1536h224l153 -172l154 172h223l-268 -348h-217z" />
<glyph unicode="&#x149;" horiz-adv-x="1366" d="M41 1055q98 76 113 178q-103 18 -103 141q0 146 146 146q74 0 109.5 -37.5t35.5 -122.5q0 -136 -63 -240t-175 -162zM295 0v1061h233v-64q114 88 267 88q206 0 322 -124.5t116 -362.5v-598h-234v600q0 153 -58 223t-181 70q-70 0 -131.5 -26t-100.5 -70v-797h-233z" />
<glyph unicode="&#x14a;" horiz-adv-x="1470" d="M164 0v1434h262l647 -1072v1072h234v-1454q0 -201 -82 -295.5t-260 -94.5q-78 0 -162 23l18 194q60 -24 127 -24q62 0 91.5 40t29.5 138l-672 1126v-1087h-233z" />
<glyph unicode="&#x14b;" horiz-adv-x="1214" d="M143 0v1061h234v-64q114 88 266 88q206 0 322 -124.5t116 -362.5v-618q0 -209 -81 -299.5t-261 -90.5q-77 0 -161 23l18 194q64 -24 137 -24q58 0 86.5 39.5t28.5 138.5v639q0 152 -58.5 222.5t-181.5 70.5q-70 0 -131 -26t-100 -70v-797h-234z" />
<glyph unicode="&#x14c;" horiz-adv-x="1486" d="M92 717q0 156 44 291t125.5 235.5t205.5 157.5t276 57t276 -57t206 -157.5t126 -235.5t44 -291q0 -210 -75.5 -376.5t-225 -266t-351.5 -99.5q-152 0 -276 57.5t-205.5 157.5t-125.5 235.5t-44 291.5zM338 717q0 -246 108 -387.5t297 -141.5t297.5 141.5t108.5 387.5 t-108.5 387t-297.5 141t-297 -141t-108 -387zM434 1624v191h619v-191h-619z" />
<glyph unicode="&#x14d;" horiz-adv-x="1212" d="M82 530q0 158 63 284t183 198.5t278 72.5t278 -72.5t183 -198.5t63 -284t-63 -284t-183 -198.5t-278 -72.5t-278 72.5t-183 198.5t-63 284zM297 1266v190h618v-190h-618zM319 530q0 -167 76.5 -264.5t210.5 -97.5t210.5 97.5t76.5 264.5t-76.5 265t-210.5 98t-210.5 -98 t-76.5 -265z" />
<glyph unicode="&#x14e;" horiz-adv-x="1486" d="M92 717q0 156 44 291t125.5 235.5t205.5 157.5t276 57t276 -57t206 -157.5t126 -235.5t44 -291q0 -210 -75.5 -376.5t-225 -266t-351.5 -99.5q-152 0 -276 57.5t-205.5 157.5t-125.5 235.5t-44 291.5zM338 717q0 -246 108 -387.5t297 -141.5t297.5 141.5t108.5 387.5 t-108.5 387t-297.5 141t-297 -141t-108 -387zM401 1886h207q9 -164 135 -164q127 0 136 164h206q-3 -112 -50 -189t-121.5 -112t-170.5 -35t-170.5 35t-121.5 112t-50 189z" />
<glyph unicode="&#x14f;" horiz-adv-x="1212" d="M82 530q0 158 63 284t183 198.5t278 72.5t278 -72.5t183 -198.5t63 -284t-63 -284t-183 -198.5t-278 -72.5t-278 72.5t-183 198.5t-63 284zM264 1528h207q9 -164 135 -164t135 164h207q-3 -112 -50 -189t-121.5 -112t-170.5 -35t-170.5 35t-121.5 112t-50 189zM319 530 q0 -167 76.5 -264.5t210.5 -97.5t210.5 97.5t76.5 264.5t-76.5 265t-210.5 98t-210.5 -98t-76.5 -265z" />
<glyph unicode="&#x150;" horiz-adv-x="1486" d="M92 717q0 156 44 291t125.5 235.5t205.5 157.5t276 57t276 -57t206 -157.5t126 -235.5t44 -291q0 -210 -75.5 -376.5t-225 -266t-351.5 -99.5q-152 0 -276 57.5t-205.5 157.5t-125.5 235.5t-44 291.5zM338 717q0 -246 108 -387.5t297 -141.5t297.5 141.5t108.5 387.5 t-108.5 387t-297.5 141t-297 -141t-108 -387zM399 1544l254 348h254v-51l-284 -297h-224zM756 1544l254 348h254v-51l-285 -297h-223z" />
<glyph unicode="&#x151;" horiz-adv-x="1212" d="M82 530q0 158 63 284t183 198.5t278 72.5t278 -72.5t183 -198.5t63 -284t-63 -284t-183 -198.5t-278 -72.5t-278 72.5t-183 198.5t-63 284zM283 1188l254 348h254v-51l-285 -297h-223zM319 530q0 -167 76.5 -264.5t210.5 -97.5t210.5 97.5t76.5 264.5t-76.5 265 t-210.5 98t-210.5 -98t-76.5 -265zM639 1188l254 348h254v-51l-285 -297h-223z" />
<glyph unicode="&#x152;" horiz-adv-x="1726" d="M92 717q0 158 50 289.5t143.5 226.5t234.5 148t316 53h792v-209h-575v-383h524v-209h-524v-424h592v-209h-809q-175 0 -316 53t-234.5 148t-143.5 226.5t-50 289.5zM338 717q0 -227 120.5 -364t352.5 -144v1016q-234 -7 -353.5 -143.5t-119.5 -364.5z" />
<glyph unicode="&#x153;" horiz-adv-x="1855" d="M82 530q0 248 127 401.5t362 153.5q246 0 375 -196q58 90 150 143t209 53q231 0 354 -152t123 -409q0 -57 -4 -86h-711q18 -124 98.5 -197t208.5 -73q183 0 301 88l25 -201q-128 -80 -338 -80q-139 0 -246.5 51.5t-169.5 145.5q-120 -197 -375 -197q-235 0 -362 153.5 t-127 401.5zM319 530q0 -172 61.5 -267t190.5 -95q250 0 250 362q0 363 -250 363q-129 0 -190.5 -95t-61.5 -268zM1067 627h483q-11 128 -73.5 199t-171.5 71q-108 0 -167.5 -70.5t-70.5 -199.5z" />
<glyph unicode="&#x154;" horiz-adv-x="1304" d="M164 0v1434h483q151 0 270 -47.5t191 -146t72 -234.5q0 -146 -80 -247t-217 -147l401 -612h-270l-367 578h-241v-578h-242zM406 786h223q305 0 305 220q0 113 -77 166t-228 53h-223v-439zM416 1544l254 348h254v-51l-285 -297h-223z" />
<glyph unicode="&#x155;" horiz-adv-x="794" d="M143 0v1061h234v-86q92 110 262 110q86 0 145 -20l-24 -213q-56 33 -146 33q-85 0 -145.5 -43.5t-91.5 -124.5v-717h-234zM221 1188l254 348h254v-51l-285 -297h-223z" />
<glyph unicode="&#x156;" horiz-adv-x="1304" d="M164 0v1434h483q151 0 270 -47.5t191 -146t72 -234.5q0 -146 -80 -247t-217 -147l401 -612h-270l-367 578h-241v-578h-242zM406 786h223q305 0 305 220q0 113 -77 166t-228 53h-223v-439zM545 -207q0 123 129 123q69 0 101 -34t32 -111q0 -101 -48 -188.5t-138 -141.5 l-64 98q79 57 82 133q-44 6 -69 38.5t-25 82.5z" />
<glyph unicode="&#x157;" horiz-adv-x="794" d="M125 -207q0 123 129 123q69 0 101 -34t32 -111q0 -101 -48 -188.5t-138 -141.5l-64 98q79 57 82 133q-44 6 -69 38.5t-25 82.5zM143 0v1061h234v-86q92 110 262 110q86 0 145 -20l-24 -213q-56 33 -146 33q-85 0 -145.5 -43.5t-91.5 -124.5v-717h-234z" />
<glyph unicode="&#x158;" horiz-adv-x="1304" d="M164 0v1434h483q151 0 270 -47.5t191 -146t72 -234.5q0 -146 -80 -247t-217 -147l401 -612h-270l-367 578h-241v-578h-242zM201 1892h223l154 -172l153 172h223l-268 -348h-217zM406 786h223q305 0 305 220q0 113 -77 166t-228 53h-223v-439z" />
<glyph unicode="&#x159;" horiz-adv-x="794" d="M68 1536h223l153 -172l154 172h223l-268 -348h-217zM143 0v1061h234v-86q92 110 262 110q86 0 145 -20l-24 -213q-56 33 -146 33q-85 0 -145.5 -43.5t-91.5 -124.5v-717h-234z" />
<glyph unicode="&#x15a;" horiz-adv-x="1132" d="M102 1079q0 181 127 280t361 99q215 0 375 -72l-19 -219q-150 78 -346 78q-252 0 -252 -162q0 -78 57.5 -134.5t192.5 -102.5q235 -80 338.5 -186t103.5 -271q0 -201 -131 -307.5t-395 -106.5q-246 0 -403 86l20 234q162 -107 397 -107q267 0 267 191q0 88 -61 146 t-216 106q-215 69 -315.5 178t-100.5 270zM414 1544l254 348h254v-51l-285 -297h-223z" />
<glyph unicode="&#x15b;" horiz-adv-x="972" d="M92 59l14 220q156 -111 349 -111q188 0 188 127q0 54 -45.5 89.5t-165.5 68.5q-171 46 -252.5 126.5t-81.5 202.5q0 148 104 225.5t302 77.5q186 0 323 -67l-20 -203q-127 78 -301 78q-168 0 -168 -98q0 -53 42 -89t152 -67q193 -56 271 -136t78 -196q0 -162 -106 -247 t-320 -85q-207 0 -363 84zM297 1188l254 348h254v-51l-285 -297h-223z" />
<glyph unicode="&#x15c;" horiz-adv-x="1132" d="M102 1079q0 181 127 280t361 99q215 0 375 -72l-19 -219q-150 78 -346 78q-252 0 -252 -162q0 -78 57.5 -134.5t192.5 -102.5q235 -80 338.5 -186t103.5 -271q0 -201 -131 -307.5t-395 -106.5q-246 0 -403 86l20 234q162 -107 397 -107q267 0 267 191q0 88 -61 146 t-216 106q-215 69 -315.5 178t-100.5 270zM190 1544l269 348h217l268 -348h-223l-154 172l-153 -172h-224z" />
<glyph unicode="&#x15d;" horiz-adv-x="972" d="M92 59l14 220q156 -111 349 -111q188 0 188 127q0 54 -45.5 89.5t-165.5 68.5q-171 46 -252.5 126.5t-81.5 202.5q0 148 104 225.5t302 77.5q186 0 323 -67l-20 -203q-127 78 -301 78q-168 0 -168 -98q0 -53 42 -89t152 -67q193 -56 271 -136t78 -196q0 -162 -106 -247 t-320 -85q-207 0 -363 84zM94 1188l268 348h218l268 -348h-223l-154 172l-154 -172h-223z" />
<glyph unicode="&#x15e;" horiz-adv-x="1132" d="M102 1079q0 181 127 280t361 99q215 0 375 -72l-19 -219q-150 78 -346 78q-252 0 -252 -162q0 -78 57.5 -134.5t192.5 -102.5q235 -80 338.5 -186t103.5 -271q0 -329 -335 -395l-62 -113q67 -12 111.5 -58.5t44.5 -105.5q0 -101 -68 -152.5t-221 -51.5q-74 0 -131 14v151 q47 -20 125 -20q96 0 96 66q0 86 -205 86l86 165q-228 7 -370 86l20 234q162 -107 397 -107q267 0 267 191q0 88 -61 146t-216 106q-215 69 -315.5 178t-100.5 270z" />
<glyph unicode="&#x15f;" horiz-adv-x="972" d="M92 59l14 220q156 -111 349 -111q188 0 188 127q0 54 -45.5 89.5t-165.5 68.5q-171 46 -252.5 126.5t-81.5 202.5q0 148 104 225.5t302 77.5q186 0 323 -67l-20 -203q-127 78 -301 78q-168 0 -168 -98q0 -53 42 -89t152 -67q193 -56 271 -136t78 -196q0 -257 -263 -315 l-59 -111q67 -12 111.5 -58.5t44.5 -105.5q0 -101 -68 -152.5t-221 -51.5q-74 0 -131 14v151q47 -20 125 -20q96 0 96 66q0 86 -205 86l88 167q-174 10 -307 82z" />
<glyph unicode="&#x160;" horiz-adv-x="1132" d="M102 1079q0 181 127 280t361 99q215 0 375 -72l-19 -219q-150 78 -346 78q-252 0 -252 -162q0 -78 57.5 -134.5t192.5 -102.5q235 -80 338.5 -186t103.5 -271q0 -201 -131 -307.5t-395 -106.5q-246 0 -403 86l20 234q162 -107 397 -107q267 0 267 191q0 88 -61 146 t-216 106q-215 69 -315.5 178t-100.5 270zM190 1892h224l153 -172l154 172h223l-268 -348h-217z" />
<glyph unicode="&#x161;" horiz-adv-x="972" d="M92 59l14 220q156 -111 349 -111q188 0 188 127q0 54 -45.5 89.5t-165.5 68.5q-171 46 -252.5 126.5t-81.5 202.5q0 148 104 225.5t302 77.5q186 0 323 -67l-20 -203q-127 78 -301 78q-168 0 -168 -98q0 -53 42 -89t152 -67q193 -56 271 -136t78 -196q0 -162 -106 -247 t-320 -85q-207 0 -363 84zM104 1536h224l153 -172l154 172h223l-268 -348h-217z" />
<glyph unicode="&#x162;" horiz-adv-x="1134" d="M20 1225v209h1094v-209h-426v-1225l-65 -119q67 -12 111 -58.5t44 -105.5q0 -101 -68 -152.5t-221 -51.5q-74 0 -131 14v151q47 -20 125 -20q97 0 97 66q0 86 -205 86l100 190h-29v1225h-426z" />
<glyph unicode="&#x163;" horiz-adv-x="806" d="M31 872v189h176v317h233v-317h316v-189h-316v-460q0 -101 18 -154.5t49.5 -71.5t88.5 -18q68 0 129 18l27 -194q-62 -14 -136 -17l-51 -94q67 -12 111.5 -58.5t44.5 -105.5q0 -101 -68 -152.5t-221 -51.5q-74 0 -131 14v151q47 -20 125 -20q96 0 96 66q0 86 -205 86 l99 188q-209 69 -209 348v526h-176z" />
<glyph unicode="&#x164;" horiz-adv-x="1134" d="M20 1225v209h1094v-209h-426v-1225h-242v1225h-426zM190 1892h224l153 -172l154 172h223l-268 -348h-217z" />
<glyph unicode="&#x165;" horiz-adv-x="1110" d="M31 872v189h176v317h233v-317h316v-189h-316v-460q0 -101 18 -154.5t49.5 -71.5t88.5 -18q68 0 129 18l27 -194q-69 -17 -172 -17q-186 0 -279.5 90.5t-93.5 280.5v526h-176zM768 1055q98 76 113 178q-103 18 -103 141q0 146 146 146q74 0 109.5 -37.5t35.5 -122.5 q0 -136 -63 -240t-175 -162z" />
<glyph unicode="&#x166;" horiz-adv-x="1134" d="M20 1225v209h1094v-209h-426v-422h287v-168h-287v-635h-242v635h-286v168h286v422h-426z" />
<glyph unicode="&#x167;" horiz-adv-x="806" d="M31 872v189h176v317h233v-317h316v-189h-316v-184h269v-164h-269v-112q0 -101 18 -154.5t49.5 -71.5t88.5 -18q68 0 129 18l27 -194q-69 -17 -172 -17q-186 0 -279.5 90.5t-93.5 280.5v178h-129v164h129v184h-176z" />
<glyph unicode="&#x168;" horiz-adv-x="1486" d="M164 565v869h242v-854q0 -192 81 -292t256 -100t256.5 100t81.5 292v854h242v-869q0 -146 -43 -260t-120.5 -185.5t-183 -108t-233.5 -36.5t-233 36.5t-183 108.5t-120.5 185t-42.5 260zM401 1577q0 289 205 289q79 0 146 -56q62 -49 92 -49q20 0 28.5 20.5t8.5 80.5h202 q0 -289 -204 -289q-80 0 -146 55q-62 49 -92 49q-20 0 -28.5 -20t-8.5 -80h-203z" />
<glyph unicode="&#x169;" horiz-adv-x="1214" d="M133 463v598h234v-600q0 -153 58 -223t181 -70q70 0 131.5 26t100.5 70v797h233v-1061h-233v63q-114 -88 -267 -88q-206 0 -322 125t-116 363zM262 1219q0 288 205 288q79 0 145 -55q62 -49 93 -49q20 0 28 20t8 80h203q0 -289 -205 -289q-78 0 -145 56q-62 49 -92 49 q-20 0 -28.5 -20t-8.5 -80h-203z" />
<glyph unicode="&#x16a;" horiz-adv-x="1486" d="M164 565v869h242v-854q0 -192 81 -292t256 -100t256.5 100t81.5 292v854h242v-869q0 -146 -43 -260t-120.5 -185.5t-183 -108t-233.5 -36.5t-233 36.5t-183 108.5t-120.5 185t-42.5 260zM432 1624v191h619v-191h-619z" />
<glyph unicode="&#x16b;" horiz-adv-x="1214" d="M133 463v598h234v-600q0 -153 58 -223t181 -70q70 0 131.5 26t100.5 70v797h233v-1061h-233v63q-114 -88 -267 -88q-206 0 -322 125t-116 363zM293 1266v190h618v-190h-618z" />
<glyph unicode="&#x16c;" horiz-adv-x="1486" d="M164 565v869h242v-854q0 -192 81 -292t256 -100t256.5 100t81.5 292v854h242v-869q0 -146 -43 -260t-120.5 -185.5t-183 -108t-233.5 -36.5t-233 36.5t-183 108.5t-120.5 185t-42.5 260zM401 1886h207q9 -164 135 -164q127 0 136 164h206q-3 -112 -50 -189t-121.5 -112 t-170.5 -35t-170.5 35t-121.5 112t-50 189z" />
<glyph unicode="&#x16d;" horiz-adv-x="1214" d="M133 463v598h234v-600q0 -153 58 -223t181 -70q70 0 131.5 26t100.5 70v797h233v-1061h-233v63q-114 -88 -267 -88q-206 0 -322 125t-116 363zM260 1528h207q9 -164 135 -164t135 164h207q-3 -112 -50 -189t-121.5 -112t-170.5 -35t-170.5 35t-121.5 112t-50 189z" />
<glyph unicode="&#x16e;" horiz-adv-x="1486" d="M164 565v869h242v-854q0 -192 81 -292t256 -100t256.5 100t81.5 292v854h242v-869q0 -146 -43 -260t-120.5 -185.5t-183 -108t-233.5 -36.5t-233 36.5t-183 108.5t-120.5 185t-42.5 260zM514 1718q0 93 65.5 156t163.5 63t164 -63t66 -156t-66 -156t-164 -63t-163.5 63 t-65.5 156zM672 1718q0 -34 20.5 -53.5t50.5 -19.5q31 0 51.5 19.5t20.5 53.5t-21 54t-51 20t-50.5 -20t-20.5 -54z" />
<glyph unicode="&#x16f;" horiz-adv-x="1214" d="M133 463v598h234v-600q0 -153 58 -223t181 -70q70 0 131.5 26t100.5 70v797h233v-1061h-233v63q-114 -88 -267 -88q-206 0 -322 125t-116 363zM373 1362q0 93 65.5 156t163.5 63t163.5 -63t65.5 -156t-65.5 -156t-163.5 -63t-163.5 63t-65.5 156zM530 1362q0 -34 21 -54 t51 -20t51 20t21 54t-21 54t-51 20t-51 -20t-21 -54z" />
<glyph unicode="&#x170;" horiz-adv-x="1486" d="M164 565v869h242v-854q0 -192 81 -292t256 -100t256.5 100t81.5 292v854h242v-869q0 -146 -43 -260t-120.5 -185.5t-183 -108t-233.5 -36.5t-233 36.5t-183 108.5t-120.5 185t-42.5 260zM410 1544l254 348h254v-51l-285 -297h-223zM766 1544l254 348h254v-51l-285 -297 h-223z" />
<glyph unicode="&#x171;" horiz-adv-x="1214" d="M133 463v598h234v-600q0 -153 58 -223t181 -70q70 0 131.5 26t100.5 70v797h233v-1061h-233v63q-114 -88 -267 -88q-206 0 -322 125t-116 363zM293 1188l254 348h254v-51l-285 -297h-223zM649 1188l254 348h254v-51l-285 -297h-223z" />
<glyph unicode="&#x172;" horiz-adv-x="1486" d="M164 565v869h242v-854q0 -192 81 -292t256 -100t256.5 100t81.5 292v854h242v-869q0 -247 -115.5 -392.5t-316.5 -182.5q-119 -111 -119 -199q0 -59 72 -59q53 0 88 18v-184q-59 -15 -139 -15q-119 0 -181.5 53.5t-62.5 147.5q0 64 29 124.5t77 105.5q-227 23 -359 170.5 t-132 412.5z" />
<glyph unicode="&#x173;" horiz-adv-x="1214" d="M133 463v598h234v-600q0 -153 58 -223t181 -70q70 0 131.5 26t100.5 70v797h233v-1061q-131 -120 -131 -209q0 -59 72 -59q53 0 88 18v-184q-59 -15 -139 -15q-119 0 -181.5 53.5t-62.5 147.5q0 71 36 137t93 111h-8v63q-114 -88 -267 -88q-206 0 -322 125t-116 363z" />
<glyph unicode="&#x174;" horiz-adv-x="2060" d="M41 1434h256l321 -1149l265 1149h295l264 -1149l321 1149h256l-422 -1434h-313l-254 1114l-254 -1114h-313zM653 1544l269 348h217l268 -348h-223l-154 172l-153 -172h-224z" />
<glyph unicode="&#x175;" horiz-adv-x="1634" d="M31 1061h248l217 -797l182 797h278l183 -797l217 797h248l-322 -1061h-285l-180 807l-180 -807h-285zM440 1188l269 348h217l268 -348h-223l-154 172l-153 -172h-224z" />
<glyph unicode="&#x176;" horiz-adv-x="1404" d="M41 1434h266l395 -639l396 639h266l-541 -867v-567h-241v567zM326 1544l268 348h217l268 -348h-223l-154 172l-153 -172h-223z" />
<glyph unicode="&#x177;" horiz-adv-x="1140" d="M31 1061h254l288 -772l283 772h254l-565 -1456h-246l152 395zM197 1188l268 348h217l268 -348h-223l-154 172l-153 -172h-223z" />
<glyph unicode="&#x178;" horiz-adv-x="1404" d="M41 1434h266l395 -639l396 639h266l-541 -867v-567h-241v567zM367 1718q0 129 129 129t129 -129t-129 -129t-129 129zM780 1718q0 129 129 129t129 -129t-129 -129t-129 129z" />
<glyph unicode="&#x179;" horiz-adv-x="1171" d="M61 0v211l738 1014h-707v209h998v-211l-740 -1014h760v-209h-1049zM426 1544l254 348h254v-51l-285 -297h-223z" />
<glyph unicode="&#x17a;" horiz-adv-x="980" d="M51 0v193l578 679h-551v189h831v-191l-575 -682h596v-188h-879zM317 1188l254 348h254v-51l-284 -297h-224z" />
<glyph unicode="&#x17b;" horiz-adv-x="1171" d="M61 0v211l738 1014h-707v209h998v-211l-740 -1014h760v-209h-1049zM436 1718q0 140 139 140q140 0 140 -140q0 -139 -140 -139q-139 0 -139 139z" />
<glyph unicode="&#x17c;" horiz-adv-x="980" d="M51 0v193l578 679h-551v189h831v-191l-575 -682h596v-188h-879zM340 1362q0 139 139 139t139 -139t-139 -139t-139 139z" />
<glyph unicode="&#x17d;" horiz-adv-x="1171" d="M61 0v211l738 1014h-707v209h998v-211l-740 -1014h760v-209h-1049zM209 1892h223l154 -172l153 172h224l-269 -348h-217z" />
<glyph unicode="&#x17e;" horiz-adv-x="980" d="M51 0v193l578 679h-551v189h831v-191l-575 -682h596v-188h-879zM113 1536h223l153 -172l154 172h223l-268 -348h-217z" />
<glyph unicode="&#x17f;" horiz-adv-x="737" d="M20 872v189h195v55q0 186 94 282.5t273 96.5q109 0 176 -20l-23 -195q-54 23 -125 23q-82 0 -121.5 -45.5t-39.5 -157.5v-1100h-234v872h-195z" />
<glyph unicode="&#x191;" horiz-adv-x="1118" d="M-137 -389l22 213q54 -23 125 -23q81 0 117.5 41t36.5 144v1448h913v-209h-671v-379h622v-209h-622v-668q0 -183 -93 -281t-274 -98q-105 0 -176 21z" />
<glyph unicode="&#x192;" horiz-adv-x="737" d="M-94 -389l22 194q52 -22 125 -22q82 0 122 45.5t40 157.5v886h-195v189h195v55q0 186 94 282.5t273 96.5q109 0 176 -20l-23 -195q-54 23 -125 23q-82 0 -121.5 -45.5t-39.5 -157.5v-39h276v-189h-276v-903q0 -186 -94 -282.5t-273 -96.5q-106 0 -176 21z" />
<glyph unicode="&#x1fa;" horiz-adv-x="1347" d="M10 0l502 1358q-68 65 -68 158t66 156t164 63t163.5 -63t65.5 -156q0 -94 -67 -158l501 -1358h-262l-119 346h-565l-119 -346h-262zM463 555h422l-211 614zM547 1774l139 233h234v-39l-170 -194h-203zM602 1516q0 -34 21 -54t51 -20t50.5 20t20.5 54t-20.5 53.5 t-50.5 19.5q-31 0 -51.5 -19.5t-20.5 -53.5z" />
<glyph unicode="&#x1fb;" horiz-adv-x="1134" d="M72 319q0 168 124.5 264.5t350.5 96.5h221v51q0 91 -51 126.5t-176 35.5q-190 0 -359 -96l-22 196q69 41 176 66.5t215 25.5q238 0 344 -90t106 -309v-686h-233v63q-107 -88 -291 -88q-176 0 -290.5 89.5t-114.5 254.5zM309 324q0 -156 201 -156q175 0 258 96v228h-213 q-246 0 -246 -168zM330 1362q0 93 65.5 156t163.5 63t163.5 -63t65.5 -156t-65.5 -156t-163.5 -63t-163.5 63t-65.5 156zM432 1620l139 233h234v-38l-170 -195h-203zM487 1362q0 -34 21 -54t51 -20t51 20t21 54t-21 54t-51 20t-51 -20t-21 -54z" />
<glyph unicode="&#x1fc;" horiz-adv-x="1763" d="M10 0l678 1434h977v-209h-575v-383h524v-209h-524v-424h591v-209h-833v352h-397l-160 -352h-281zM545 561h303v666zM999 1544l254 348h254v-51l-284 -297h-224z" />
<glyph unicode="&#x1fd;" horiz-adv-x="1753" d="M72 324q0 170 117 266t341 96h213v31q0 89 -59 132.5t-182 43.5q-165 0 -320 -90l-24 201q187 81 362 81q251 0 357 -161q55 75 140.5 118t186.5 43q153 0 262 -73t162 -198.5t53 -291.5q0 -26 -4 -84h-710q18 -125 99 -197.5t220 -72.5q172 0 289 88l24 -201 q-122 -80 -323 -80q-141 0 -247.5 50t-166.5 143q-57 -93 -156.5 -143t-228.5 -50q-184 0 -294.5 91t-110.5 258zM305 328q0 -79 46 -119.5t124 -40.5q200 0 268 178v152h-204q-125 0 -179.5 -44t-54.5 -126zM713 1188l254 348h254v-51l-285 -297h-223zM967 627h479 q-11 126 -72.5 198t-169.5 72q-106 0 -166 -71.5t-71 -198.5z" />
<glyph unicode="&#x1fe;" horiz-adv-x="1486" d="M92 717q0 156 44 291t125.5 235.5t205.5 157.5t276 57q163 0 297 -67l142 247h207l-203 -354q101 -101 155 -248t54 -319q0 -210 -75.5 -376.5t-225 -266t-351.5 -99.5q-144 0 -272 56l-133 -236h-207l191 334q-112 99 -171 252t-59 336zM338 717q0 -244 102 -379 l490 860q-80 47 -187 47q-189 0 -297 -141t-108 -387zM539 1544l254 348h254v-51l-285 -297h-223zM580 221q81 -33 163 -33q189 0 297.5 141.5t108.5 387.5q0 214 -86 352z" />
<glyph unicode="&#x1ff;" horiz-adv-x="1212" d="M72 -225l186 323q-85 75 -130.5 187t-45.5 245q0 158 63 284t183 198.5t278 72.5q116 0 201 -36l137 237h197l-189 -325q85 -75 131.5 -186.5t46.5 -244.5q0 -158 -63 -284t-183 -198.5t-278 -72.5q-110 0 -203 35l-135 -235h-196zM319 530q0 -139 54 -233l334 577 q-49 19 -101 19q-134 0 -210.5 -98t-76.5 -265zM424 1188l254 348h254v-51l-285 -297h-223zM504 184q50 -16 102 -16q134 0 210.5 97.5t76.5 264.5q0 139 -55 232z" />
<glyph unicode="&#x218;" horiz-adv-x="1132" d="M102 1079q0 181 127 280t361 99q215 0 375 -72l-19 -219q-150 78 -346 78q-252 0 -252 -162q0 -78 57.5 -134.5t192.5 -102.5q235 -80 338.5 -186t103.5 -271q0 -201 -131 -307.5t-395 -106.5q-246 0 -403 86l20 234q162 -107 397 -107q267 0 267 191q0 88 -61 146 t-216 106q-215 69 -315.5 178t-100.5 270zM457 -207q0 123 129 123q69 0 101 -34t32 -111q0 -100 -48.5 -188t-138.5 -142l-63 98q79 57 82 133q-44 6 -69 38.5t-25 82.5z" />
<glyph unicode="&#x219;" horiz-adv-x="972" d="M92 59l14 220q156 -111 349 -111q188 0 188 127q0 54 -45.5 89.5t-165.5 68.5q-171 46 -252.5 126.5t-81.5 202.5q0 148 104 225.5t302 77.5q186 0 323 -67l-20 -203q-127 78 -301 78q-168 0 -168 -98q0 -53 42 -89t152 -67q193 -56 271 -136t78 -196q0 -162 -106 -247 t-320 -85q-207 0 -363 84zM371 -207q0 123 129 123q69 0 101 -34t32 -111q0 -100 -48.5 -188t-138.5 -142l-63 98q79 57 82 133q-44 6 -69 38.5t-25 82.5z" />
<glyph unicode="&#x21a;" horiz-adv-x="1134" d="M20 1225v209h1094v-209h-426v-1225h-242v1225h-426zM436 -207q0 123 129 123q69 0 101 -34t32 -111q0 -101 -48 -188.5t-138 -141.5l-63 98q78 56 81 133q-44 6 -69 38.5t-25 82.5z" />
<glyph unicode="&#x21b;" horiz-adv-x="806" d="M31 872v189h176v317h233v-317h316v-189h-316v-460q0 -101 18 -154.5t49.5 -71.5t88.5 -18q68 0 129 18l27 -194q-69 -17 -172 -17q-186 0 -279.5 90.5t-93.5 280.5v526h-176zM350 -207q0 123 129 123q69 0 101 -34t32 -111q0 -101 -48 -188.5t-138 -141.5l-64 98 q79 57 82 133q-44 6 -69 38.5t-25 82.5z" />
<glyph unicode="&#x237;" horiz-adv-x="540" d="M-123 -385l21 197q60 -29 131 -29t103 45.5t32 140.5v1092h233v-1084q0 -192 -87 -289.5t-277 -97.5q-76 0 -156 25z" />
<glyph unicode="&#x2bc;" d="M274 1071q98 76 113 178q-102 18 -102 142q0 145 145 145q74 0 109.5 -37.5t35.5 -122.5q0 -136 -63 -239.5t-174 -161.5z" />
<glyph unicode="&#x2c6;" d="M53 1147l269 348h217l268 -348h-223l-154 172l-154 -172h-223z" />
<glyph unicode="&#x2c7;" d="M53 1495h223l154 -172l154 172h223l-268 -348h-217z" />
<glyph unicode="&#x2c9;" d="M121 1227v190h618v-190h-618z" />
<glyph unicode="&#x2d8;" d="M88 1487h207q9 -164 135 -164t135 164h207q-3 -112 -50 -189t-121.5 -112t-170.5 -35t-170.5 35t-121.5 112t-50 189z" />
<glyph unicode="&#x2d9;" d="M291 1321q0 139 139 139t139 -139t-139 -139t-139 139z" />
<glyph unicode="&#x2da;" d="M201 1321q0 93 65.5 156t163.5 63t163.5 -63t65.5 -156t-65.5 -156t-163.5 -63t-163.5 63t-65.5 156zM358 1321q0 -34 21 -54t51 -20t51 20t21 54t-21 54t-51 20t-51 -20t-21 -54z" />
<glyph unicode="&#x2db;" d="M250 -248q0 71 36 137t93 111h225q-131 -120 -131 -209q0 -59 72 -59q53 0 88 18v-184q-59 -15 -139 -15q-119 0 -181.5 53.5t-62.5 147.5z" />
<glyph unicode="&#x2dc;" d="M88 1180q0 288 205 288q79 0 145 -55q62 -49 92 -49q20 0 28.5 20t8.5 80h203q0 -288 -205 -288q-79 0 -145 55q-62 49 -92 49q-20 0 -28.5 -20t-8.5 -80h-203z" />
<glyph unicode="&#x2dd;" d="M-33 1147l254 348h254v-51l-285 -297h-223zM324 1147l254 348h253v-51l-284 -297h-223z" />
<glyph unicode="&#x300;" horiz-adv-x="0" d="M-836 1444v51h254l254 -348h-223z" />
<glyph unicode="&#x301;" horiz-adv-x="0" d="M-713 1147l254 348h254v-51l-284 -297h-224z" />
<glyph unicode="&#x302;" horiz-adv-x="0" d="M-895 1147l268 348h217l269 -348h-224l-153 172l-154 -172h-223z" />
<glyph unicode="&#x303;" horiz-adv-x="0" d="M-864 1180q0 288 205 288q79 0 145 -55q62 -49 92 -49q20 0 28.5 20t8.5 80h203q0 -288 -205 -288q-79 0 -145 55q-62 49 -93 49q-20 0 -28.5 -20t-8.5 -80h-202z" />
<glyph unicode="&#x304;" horiz-adv-x="0" d="M-834 1227v190h619v-190h-619z" />
<glyph unicode="&#x306;" horiz-adv-x="0" d="M-860 1487h207q9 -164 135 -164t135 164h207q-3 -112 -50 -189t-121.5 -112t-170.5 -35t-170.5 35t-121.5 112t-50 189z" />
<glyph unicode="&#x307;" horiz-adv-x="0" d="M-657 1321q0 139 139 139t139 -139t-139 -139t-139 139z" />
<glyph unicode="&#x308;" horiz-adv-x="0" d="M-854 1321q0 129 129 129t129 -129t-129 -129t-129 129zM-440 1321q0 129 129 129t129 -129t-129 -129t-129 129z" />
<glyph unicode="&#x30a;" horiz-adv-x="0" d="M-748 1321q0 93 66 156t164 63t163.5 -63t65.5 -156t-65.5 -156t-163.5 -63t-164 63t-66 156zM-590 1321q0 -34 21 -54t51 -20t51 20t21 54t-21 54t-51 20t-51 -20t-21 -54z" />
<glyph unicode="&#x30c;" horiz-adv-x="0" d="M-895 1495h223l154 -172l153 172h224l-269 -348h-217z" />
<glyph unicode="&#x327;" horiz-adv-x="0" d="M-723 -322q47 -20 125 -20q96 0 96 66q0 86 -205 86l101 190h213l-66 -119q67 -12 111.5 -58.5t44.5 -105.5q0 -101 -68 -152.5t-221 -51.5q-74 0 -131 14v151z" />
<glyph unicode="&#x384;" d="M254 1130l154 365h247v-49l-196 -316h-205z" />
<glyph unicode="&#x385;" d="M94 1126q0 129 129 129t129 -129t-129 -129t-129 129zM305 1278l201 283h254v-52l-234 -231h-221zM508 1126q0 129 129 129t129 -129t-129 -129t-129 129z" />
<glyph unicode="&#x386;" horiz-adv-x="1347" d="M10 0l529 1434h270l528 -1434h-262l-119 346h-565l-119 -346h-262zM18 1069l154 365h248v-50l-197 -315h-205zM463 555h422l-211 614z" />
<glyph unicode="&#x387;" horiz-adv-x="604" d="M156 680q0 145 145 145t145 -145t-145 -145t-145 145z" />
<glyph unicode="&#x388;" horiz-adv-x="1411" d="M-61 1069l153 365h248v-50l-197 -315h-204zM397 0v1434h914v-209h-672v-383h623v-209h-623v-424h690v-209h-932z" />
<glyph unicode="&#x389;" horiz-adv-x="1691" d="M-61 1069l153 365h248v-50l-197 -315h-204zM397 0v1434h242v-566h647v566h242v-1434h-242v659h-647v-659h-242z" />
<glyph unicode="&#x38a;" horiz-adv-x="813" d="M-61 1069l153 365h248v-50l-197 -315h-204zM397 0v1434h242v-1434h-242z" />
<glyph unicode="&#x38c;" horiz-adv-x="1601" d="M-61 1069l153 365h248v-50l-197 -315h-204zM207 717q0 156 44 291t125.5 235.5t205.5 157.5t276 57t276 -57t205.5 -157.5t125.5 -235.5t44 -291t-44 -291.5t-125.5 -235.5t-205.5 -157.5t-276 -57.5t-276 57.5t-205.5 157.5t-125.5 235.5t-44 291.5zM453 717 q0 -246 108 -387.5t297 -141.5t297.5 141.5t108.5 387.5t-108.5 387t-297.5 141t-297 -141t-108 -387z" />
<glyph unicode="&#x38e;" horiz-adv-x="1730" d="M-61 1069l153 365h248v-50l-197 -315h-204zM367 1434h266l395 -639l395 639h267l-541 -867v-567h-242v567z" />
<glyph unicode="&#x38f;" horiz-adv-x="1615" d="M-61 1069l153 365h248v-50l-197 -315h-204zM221 756q0 202 76 360t225.5 250t349.5 92t349.5 -91.5t226 -250t76.5 -360.5q0 -170 -63 -310t-171 -237h215v-209h-538v197q311 212 311 559q0 224 -112.5 356.5t-293.5 132.5t-293 -132.5t-112 -356.5q0 -347 311 -559v-197 h-538v209h215q-108 97 -171 237t-63 310z" />
<glyph unicode="&#x390;" horiz-adv-x="702" d="M-76 1272q0 129 129 129t129 -129t-129 -129t-129 129zM135 1423l201 283h254v-51l-234 -232h-221zM143 344v717h234v-649q0 -101 17 -154.5t48.5 -71.5t89.5 -18q76 0 123 20l27 -194q-81 -19 -174 -19q-183 0 -274 89.5t-91 279.5zM338 1272q0 129 129 129t129 -129 t-129 -129t-129 129z" />
<glyph unicode="&#x391;" horiz-adv-x="1347" d="M10 0l529 1434h270l528 -1434h-262l-119 346h-565l-119 -346h-262zM463 555h422l-211 614z" />
<glyph unicode="&#x392;" horiz-adv-x="1300" d="M164 0v1434h500q227 0 357 -109.5t130 -280.5q0 -92 -41 -165t-119 -117q112 -49 170 -136.5t58 -203.5q0 -201 -138 -311.5t-391 -110.5h-526zM406 209h251q164 0 242 53t78 162q0 213 -320 213h-251v-428zM406 846h225q278 0 278 190q0 189 -278 189h-225v-379z" />
<glyph unicode="&#x393;" horiz-adv-x="1101" d="M164 0v1434h917v-209h-675v-1225h-242z" />
<glyph unicode="&#x394;" horiz-adv-x="1359" d="M10 0l553 1434h234l553 -1434h-1340zM354 209h652l-326 897z" />
<glyph unicode="&#x395;" horiz-adv-x="1177" d="M164 0v1434h913v-209h-671v-383h622v-209h-622v-424h690v-209h-932z" />
<glyph unicode="&#x396;" horiz-adv-x="1171" d="M61 0v211l738 1014h-707v209h998v-211l-740 -1014h760v-209h-1049z" />
<glyph unicode="&#x397;" horiz-adv-x="1458" d="M164 0v1434h242v-566h647v566h241v-1434h-241v659h-647v-659h-242z" />
<glyph unicode="&#x398;" horiz-adv-x="1486" d="M92 717q0 156 44 291t125.5 235.5t205.5 157.5t276 57t276 -57t206 -157.5t126 -235.5t44 -291q0 -210 -75.5 -376.5t-225 -266t-351.5 -99.5q-152 0 -276 57.5t-205.5 157.5t-125.5 235.5t-44 291.5zM338 717q0 -246 108 -387.5t297 -141.5t297.5 141.5t108.5 387.5 t-108.5 387t-297.5 141t-297 -141t-108 -387zM487 616v201h521v-201h-521z" />
<glyph unicode="&#x399;" horiz-adv-x="589" d="M174 0v1434h242v-1434h-242z" />
<glyph unicode="&#x39a;" horiz-adv-x="1304" d="M164 0v1434h242v-637l546 637h291l-577 -672l669 -762h-313l-616 719v-719h-242z" />
<glyph unicode="&#x39b;" horiz-adv-x="1347" d="M10 0l529 1434h270l528 -1434h-262l-401 1169l-402 -1169h-262z" />
<glyph unicode="&#x39c;" horiz-adv-x="1753" d="M164 0v1434h244l469 -729l469 729h243v-1434h-233v1059l-387 -600h-185l-387 600v-1059h-233z" />
<glyph unicode="&#x39d;" horiz-adv-x="1470" d="M164 0v1434h262l647 -1088v1088h234v-1434h-263l-647 1087v-1087h-233z" />
<glyph unicode="&#x39e;" horiz-adv-x="1163" d="M72 0v209h1020v-209h-1020zM72 1225v209h1020v-209h-1020zM174 618v209h815v-209h-815z" />
<glyph unicode="&#x39f;" horiz-adv-x="1486" d="M92 717q0 156 44 291t125.5 235.5t205.5 157.5t276 57t276 -57t206 -157.5t126 -235.5t44 -291q0 -210 -75.5 -376.5t-225 -266t-351.5 -99.5q-152 0 -276 57.5t-205.5 157.5t-125.5 235.5t-44 291.5zM338 717q0 -246 108 -387.5t297 -141.5t297.5 141.5t108.5 387.5 t-108.5 387t-297.5 141t-297 -141t-108 -387z" />
<glyph unicode="&#x3a0;" horiz-adv-x="1449" d="M164 0v1434h1122v-1434h-242v1225h-638v-1225h-242z" />
<glyph unicode="&#x3a1;" horiz-adv-x="1234" d="M164 0v1434h452q250 0 398.5 -119.5t148.5 -335.5q0 -218 -148 -337.5t-399 -119.5h-210v-522h-242zM406 731h190q162 0 242 59.5t80 188.5q0 128 -79.5 187t-242.5 59h-190v-494z" />
<glyph unicode="&#x3a3;" horiz-adv-x="1118" d="M61 0v213l408 547l-408 463v211h1016v-209h-712l370 -422v-88l-377 -506h719v-209h-1016z" />
<glyph unicode="&#x3a4;" horiz-adv-x="1134" d="M20 1225v209h1094v-209h-426v-1225h-242v1225h-426z" />
<glyph unicode="&#x3a5;" horiz-adv-x="1404" d="M41 1434h266l395 -639l396 639h266l-541 -867v-567h-241v567z" />
<glyph unicode="&#x3a6;" horiz-adv-x="1490" d="M82 717q0 141 71 251.5t192.5 175t279.5 81.5v209h241v-209q158 -17 279.5 -81.5t192.5 -175t71 -251.5t-71 -251.5t-192.5 -175t-279.5 -81.5v-209h-241v209q-158 17 -279.5 81.5t-192.5 175t-71 251.5zM328 717q0 -133 77 -208t220 -87v590q-143 -12 -220 -87t-77 -208 zM866 422q143 12 220 87t77 208t-77 208t-220 87v-590z" />
<glyph unicode="&#x3a7;" horiz-adv-x="1386" d="M31 0l520 729l-502 705h279l364 -514l367 514h278l-503 -705l522 -729h-279l-385 539l-383 -539h-278z" />
<glyph unicode="&#x3a8;" horiz-adv-x="1445" d="M143 891v543h242v-533q0 -156 51.5 -249.5t165.5 -123.5v906h242v-906q114 30 165.5 123.5t51.5 249.5v533h242v-543q0 -254 -122.5 -401t-336.5 -179v-311h-242v311q-215 32 -337 179t-122 401z" />
<glyph unicode="&#x3a9;" horiz-adv-x="1486" d="M92 756q0 202 76 360t225.5 250t349.5 92t349.5 -91.5t226 -250t76.5 -360.5q0 -170 -63 -310t-171 -237h215v-209h-538v197q311 212 311 559q0 224 -112.5 356.5t-293.5 132.5t-293 -132.5t-112 -356.5q0 -347 311 -559v-197h-538v209h215q-108 97 -171 237t-63 310z " />
<glyph unicode="&#x3aa;" horiz-adv-x="589" d="M-41 1718q0 129 129 129t129 -129t-129 -129t-129 129zM174 0v1434h242v-1434h-242zM373 1718q0 129 129 129t129 -129t-129 -129t-129 129z" />
<glyph unicode="&#x3ab;" horiz-adv-x="1404" d="M41 1434h266l395 -639l396 639h266l-541 -867v-567h-241v567zM367 1718q0 129 129 129t129 -129t-129 -129t-129 129zM780 1718q0 129 129 129t129 -129t-129 -129t-129 129z" />
<glyph unicode="&#x3ac;" horiz-adv-x="1280" d="M82 530q0 248 125.5 401.5t327.5 153.5q131 0 224 -65.5t152 -204.5l76 246h227l-194 -596q26 -112 51 -176t44 -82.5t42 -18.5h72v-188h-99q-83 0 -140 50t-97 169q-50 -123 -150 -183.5t-221 -60.5q-201 0 -320.5 144.5t-119.5 410.5zM315 530q0 -177 57.5 -269.5 t149.5 -92.5q91 0 160.5 75.5t134.5 274.5q-24 115 -57 193.5t-72 116t-75 51.5t-78 14q-98 0 -159 -101.5t-61 -261.5zM489 1188l254 348h254v-51l-284 -297h-224z" />
<glyph unicode="&#x3ad;" horiz-adv-x="1017" d="M102 287q0 89 57.5 158.5t164.5 105.5q-98 27 -154.5 89t-56.5 155q0 142 116 216t349 74q200 0 354 -45l-19 -209q-145 62 -329 62q-131 0 -182.5 -23.5t-51.5 -76.5q0 -140 424 -140v-188q-434 0 -434 -170q0 -58 65 -92.5t199 -34.5q187 0 332 65l20 -204 q-156 -54 -362 -54q-230 0 -361 81t-131 231zM348 1188l254 348h254v-51l-285 -297h-223z" />
<glyph unicode="&#x3ae;" horiz-adv-x="1214" d="M143 0v1061h234v-64q114 88 266 88q206 0 322 -124.5t116 -362.5v-993h-233v995q0 152 -58.5 222.5t-181.5 70.5q-70 0 -131 -26t-100 -70v-797h-234zM424 1188l254 348h254v-51l-285 -297h-223z" />
<glyph unicode="&#x3af;" horiz-adv-x="702" d="M121 1188l254 348h254v-51l-285 -297h-223zM143 344v717h234v-649q0 -101 17 -154.5t48.5 -71.5t89.5 -18q76 0 123 20l27 -194q-81 -19 -174 -19q-183 0 -274 89.5t-91 279.5z" />
<glyph unicode="&#x3b0;" horiz-adv-x="1153" d="M20 1061q49 14 117 14q138 0 201 -76.5t63 -248.5v-283q0 -157 48 -228t163 -71q222 0 222 297q0 305 -152 596h256q133 -269 133 -592q0 -238 -118.5 -366t-340.5 -128q-217 0 -330.5 118.5t-113.5 344.5v301q0 84 -17 116t-57 32q-27 0 -57 -10zM184 1272 q0 129 129 129t129 -129t-129 -129t-129 129zM395 1423l201 283h254v-51l-234 -232h-221zM598 1272q0 129 129 129t129 -129t-129 -129t-129 129z" />
<glyph unicode="&#x3b1;" horiz-adv-x="1280" d="M82 530q0 248 125.5 401.5t327.5 153.5q131 0 224 -65.5t152 -204.5l76 246h227l-194 -596q26 -112 51 -176t44 -82.5t42 -18.5h72v-188h-99q-83 0 -140 50t-97 169q-50 -123 -150 -183.5t-221 -60.5q-201 0 -320.5 144.5t-119.5 410.5zM315 530q0 -177 57.5 -269.5 t149.5 -92.5q91 0 160.5 75.5t134.5 274.5q-24 115 -57 193.5t-72 116t-75 51.5t-78 14q-98 0 -159 -101.5t-61 -261.5z" />
<glyph unicode="&#x3b2;" horiz-adv-x="1144" d="M143 -395v1415q0 246 110 373t320 127q196 0 316.5 -108.5t120.5 -274.5q0 -246 -209 -353q122 -56 192 -161t70 -238q0 -186 -108.5 -298t-309.5 -112q-139 0 -242 56l21 217q96 -80 211 -80q98 0 144 52.5t46 164.5q0 124 -93 210.5t-243 86.5v188q146 0 214.5 66 t68.5 197q0 88 -53.5 141t-149.5 53t-144 -72t-48 -204v-1446h-234z" />
<glyph unicode="&#x3b3;" horiz-adv-x="1183" d="M31 1061h250l311 -590l311 590h250l-440 -809q91 -154 126 -245.5t35 -158.5q0 -113 -80 -185.5t-202 -72.5t-202.5 72.5t-80.5 185.5q0 66 35 158t127 246zM535 -141q0 -76 57 -76t57 76q0 77 -57 176q-57 -99 -57 -176z" />
<glyph unicode="&#x3b4;" horiz-adv-x="1212" d="M82 530q0 211 111.5 360t302.5 185l-318 240v180h823v-188h-479l396 -308q212 -165 212 -469q0 -158 -63 -284t-183 -198.5t-278 -72.5t-278 72.5t-183 198.5t-63 284zM319 530q0 -167 76.5 -264.5t210.5 -97.5t210.5 97.5t76.5 264.5t-76.5 265t-210.5 98t-210.5 -98 t-76.5 -265z" />
<glyph unicode="&#x3b5;" horiz-adv-x="1017" d="M102 287q0 89 57.5 158.5t164.5 105.5q-98 27 -154.5 89t-56.5 155q0 142 116 216t349 74q200 0 354 -45l-19 -209q-145 62 -329 62q-131 0 -182.5 -23.5t-51.5 -76.5q0 -140 424 -140v-188q-434 0 -434 -170q0 -58 65 -92.5t199 -34.5q187 0 332 65l20 -204 q-156 -54 -362 -54q-230 0 -361 81t-131 231z" />
<glyph unicode="&#x3b6;" horiz-adv-x="919" d="M82 451q0 234 125 451.5t364 404.5h-385v188h688v-195q-278 -181 -416.5 -396t-138.5 -445q0 -79 41.5 -130.5t126.5 -88.5q108 -48 250 -74q87 -17 124.5 -52t37.5 -102q0 -59 -47 -145l-147 -262h-252l200 348q4 8 4 12q0 9 -14 12q-189 42 -295 91q-130 59 -198 150.5 t-68 232.5z" />
<glyph unicode="&#x3b7;" horiz-adv-x="1214" d="M143 0v1061h234v-64q114 88 266 88q206 0 322 -124.5t116 -362.5v-993h-233v995q0 152 -58.5 222.5t-181.5 70.5q-70 0 -131 -26t-100 -70v-797h-234z" />
<glyph unicode="&#x3b8;" horiz-adv-x="1232" d="M82 748q0 233 57.5 404t179 269.5t297.5 98.5t298 -98.5t179.5 -269.5t57.5 -404t-57.5 -404.5t-179.5 -270t-298 -98.5t-297.5 98.5t-179 270t-57.5 404.5zM322 653q11 -239 84.5 -362t209.5 -123q134 0 208.5 123t86.5 362h-589zM322 842h589q-12 238 -86.5 361.5 t-208.5 123.5q-136 0 -209.5 -123.5t-84.5 -361.5z" />
<glyph unicode="&#x3b9;" horiz-adv-x="702" d="M143 344v717h234v-649q0 -101 17 -154.5t48.5 -71.5t89.5 -18q76 0 123 20l27 -194q-81 -19 -174 -19q-183 0 -274 89.5t-91 279.5z" />
<glyph unicode="&#x3ba;" horiz-adv-x="1116" d="M143 0v1061h234v-465l303 365q54 63 107.5 88.5t134.5 25.5q86 0 145 -24l-20 -185q-38 23 -91 23q-28 0 -50.5 -14t-49.5 -46l-233 -276l483 -553h-291l-438 510v-510h-234z" />
<glyph unicode="&#x3bb;" horiz-adv-x="1091" d="M10 0l422 987l-205 508h246l608 -1495h-245l-285 696l-293 -696h-248z" />
<glyph unicode="&#x3bc;" horiz-adv-x="1277" d="M143 -395v1456h234v-787q87 -106 246 -106q158 0 245 106v787h234v-791q0 -58 16 -80t51 -22q47 0 68 16l20 -184q-64 -25 -153 -25q-165 0 -215 115q-58 -63 -121 -89t-145 -26q-155 0 -246 97v-467h-234z" />
<glyph unicode="&#x3bd;" horiz-adv-x="1122" d="M31 1061h250l282 -797q110 156 178.5 360.5t85.5 436.5h234q-23 -300 -127 -574t-277 -487h-227z" />
<glyph unicode="&#x3be;" horiz-adv-x="927" d="M102 434q0 129 69.5 235t188.5 167q-97 42 -152.5 121.5t-55.5 185.5q0 159 118.5 255.5t347.5 96.5h160v-188h-141q-137 0 -192.5 -43.5t-55.5 -120.5q0 -82 65.5 -133.5t184.5 -51.5h127v-188q-193 0 -309.5 -91.5t-116.5 -244.5q0 -169 197 -246q96 -37 213 -57 q157 -27 157 -160q0 -62 -41 -133l-137 -233h-250l178 305q9 15 9 22q0 8 -13 11q-94 16 -209 57q-342 119 -342 434z" />
<glyph unicode="&#x3bf;" horiz-adv-x="1212" d="M82 530q0 158 63 284t183 198.5t278 72.5t278 -72.5t183 -198.5t63 -284t-63 -284t-183 -198.5t-278 -72.5t-278 72.5t-183 198.5t-63 284zM319 530q0 -167 76.5 -264.5t210.5 -97.5t210.5 97.5t76.5 264.5t-76.5 265t-210.5 98t-210.5 -98t-76.5 -265z" />
<glyph unicode="&#x3c0;" horiz-adv-x="1288" d="M31 872v189h1198v-189h-268v-460q0 -100 15.5 -154.5t41 -72t69.5 -17.5q73 0 123 20l27 -198q-95 -15 -164 -15q-160 0 -253 92.5t-93 276.5v528h-211q-2 -273 -44.5 -492t-141.5 -409l-226 86q98 169 137.5 368.5t41.5 446.5h-252z" />
<glyph unicode="&#x3c1;" horiz-adv-x="1198" d="M133 -395v999q0 231 125 356t352 125q104 0 196.5 -39t161 -109.5t108.5 -176t40 -230.5q0 -250 -136.5 -402.5t-346.5 -152.5q-157 0 -266 88v-458h-234zM367 264q42 -45 102 -70.5t127 -25.5q128 0 205.5 92.5t77.5 269.5q0 175 -78 269t-207 94q-110 0 -168.5 -69 t-58.5 -189v-371z" />
<glyph unicode="&#x3c2;" horiz-adv-x="1017" d="M82 530q0 250 159 402.5t414 152.5q187 0 312 -61l-21 -211q-116 80 -289 80q-154 0 -246 -96t-92 -267q0 -167 91.5 -257.5t259.5 -104.5q70 -6 126.5 -22t103 -46t72 -79.5t25.5 -114.5q0 -132 -103 -201.5t-288 -69.5v189q88 0 121 21.5t33 62.5q0 34 -21 49t-69 18 q-274 17 -431 162.5t-157 392.5z" />
<glyph unicode="&#x3c3;" horiz-adv-x="1222" d="M82 518q0 153 63 275.5t183.5 195t277.5 72.5h606v-189h-219q137 -143 137 -354q0 -153 -63 -275.5t-183.5 -195t-277.5 -72.5t-277.5 72.5t-183.5 195t-63 275.5zM319 518q0 -159 77 -254.5t210 -95.5t210 95.5t77 254.5t-77 254.5t-210 95.5t-210 -95.5t-77 -254.5z " />
<glyph unicode="&#x3c4;" horiz-adv-x="974" d="M31 872v189h893v-189h-346v-460q0 -100 16.5 -154.5t43.5 -72t75 -17.5q84 0 131 20l26 -198q-86 -15 -172 -15q-161 0 -257.5 93t-96.5 276v528h-313z" />
<glyph unicode="&#x3c5;" horiz-adv-x="1153" d="M20 1061q49 14 117 14q138 0 201 -76.5t63 -248.5v-283q0 -157 48 -228t163 -71q222 0 222 297q0 305 -152 596h256q133 -269 133 -592q0 -238 -118.5 -366t-340.5 -128q-217 0 -330.5 118.5t-113.5 344.5v301q0 84 -17 116t-57 32q-27 0 -57 -10z" />
<glyph unicode="&#x3c6;" horiz-adv-x="1357" d="M82 522q0 299 217 565l188 -120q-168 -211 -168 -455q0 -150 56 -235.5t176 -108.5v541q0 191 86 283.5t246 92.5q187 0 290 -141t103 -405q0 -252 -129 -394t-363 -172v-368h-233v368q-216 30 -342.5 173t-126.5 376zM784 166q125 17 189.5 111.5t64.5 259.5 q0 177 -42.5 266.5t-112.5 89.5q-51 0 -75 -47t-24 -152v-528z" />
<glyph unicode="&#x3c7;" horiz-adv-x="1124" d="M20 -395l414 753l-385 703h254l258 -471l260 471h254l-387 -703l416 -753h-256l-287 522l-285 -522h-256z" />
<glyph unicode="&#x3c8;" horiz-adv-x="1376" d="M133 475v586h234v-590q0 -132 48 -206t156 -97v893h234v-893q99 26 152 104t53 199v590h233v-586q0 -214 -113.5 -342.5t-324.5 -157.5v-370h-234v370q-211 29 -324.5 157.5t-113.5 342.5z" />
<glyph unicode="&#x3c9;" horiz-adv-x="1579" d="M102 596q0 254 62 481l239 -18q-63 -197 -63 -455q0 -436 154 -436q92 0 136 172t44 545h233q0 -374 43.5 -545.5t134.5 -171.5q154 0 154 436q0 258 -63 455l239 18q62 -227 62 -481q0 -286 -105 -453.5t-278 -167.5q-226 0 -303 234q-43 -119 -117 -176.5t-189 -57.5 q-172 0 -277.5 167.5t-105.5 453.5z" />
<glyph unicode="&#x3ca;" horiz-adv-x="702" d="M-74 1362q0 129 129 129t129 -129t-129 -129t-129 129zM143 344v717h234v-649q0 -101 17 -154.5t48.5 -71.5t89.5 -18q76 0 123 20l27 -194q-81 -19 -174 -19q-183 0 -274 89.5t-91 279.5zM340 1362q0 129 129 129t129 -129t-129 -129t-129 129z" />
<glyph unicode="&#x3cb;" horiz-adv-x="1153" d="M20 1061q49 14 117 14q138 0 201 -76.5t63 -248.5v-283q0 -157 48 -228t163 -71q222 0 222 297q0 305 -152 596h256q133 -269 133 -592q0 -238 -118.5 -366t-340.5 -128q-217 0 -330.5 118.5t-113.5 344.5v301q0 84 -17 116t-57 32q-27 0 -57 -10zM186 1362 q0 129 129 129t129 -129t-129 -129t-129 129zM600 1362q0 129 129 129t129 -129t-129 -129t-129 129z" />
<glyph unicode="&#x3cc;" horiz-adv-x="1212" d="M82 530q0 158 63 284t183 198.5t278 72.5t278 -72.5t183 -198.5t63 -284t-63 -284t-183 -198.5t-278 -72.5t-278 72.5t-183 198.5t-63 284zM319 530q0 -167 76.5 -264.5t210.5 -97.5t210.5 97.5t76.5 264.5t-76.5 265t-210.5 98t-210.5 -98t-76.5 -265zM424 1188l254 348 h254v-51l-285 -297h-223z" />
<glyph unicode="&#x3cd;" horiz-adv-x="1153" d="M20 1061q49 14 117 14q138 0 201 -76.5t63 -248.5v-283q0 -157 48 -228t163 -71q222 0 222 297q0 305 -152 596h256q133 -269 133 -592q0 -238 -118.5 -366t-340.5 -128q-217 0 -330.5 118.5t-113.5 344.5v301q0 84 -17 116t-57 32q-27 0 -57 -10zM369 1188l254 348h254 v-51l-285 -297h-223z" />
<glyph unicode="&#x3ce;" horiz-adv-x="1579" d="M102 596q0 254 62 481l239 -18q-63 -197 -63 -455q0 -436 154 -436q92 0 136 172t44 545h233q0 -374 43.5 -545.5t134.5 -171.5q154 0 154 436q0 258 -63 455l239 18q62 -227 62 -481q0 -286 -105 -453.5t-278 -167.5q-226 0 -303 234q-43 -119 -117 -176.5t-189 -57.5 q-172 0 -277.5 167.5t-105.5 453.5zM633 1188l254 348h254v-51l-285 -297h-223z" />
<glyph unicode="&#x400;" horiz-adv-x="1177" d="M164 0v1434h913v-209h-671v-383h622v-209h-622v-424h690v-209h-932zM289 1841v51h254l254 -348h-224z" />
<glyph unicode="&#x401;" horiz-adv-x="1177" d="M164 0v1434h913v-209h-671v-383h622v-209h-622v-424h690v-209h-932zM274 1718q0 129 129 129t129 -129t-129 -129t-129 129zM688 1718q0 129 129 129t129 -129t-129 -129t-129 129z" />
<glyph unicode="&#x402;" horiz-adv-x="1482" d="M20 1225v209h1096v-209h-426v-367h217q236 0 365 -116t129 -336q0 -203 -112.5 -317t-305.5 -114q-106 0 -188 33v230q80 -50 184 -50q83 0 129.5 56t46.5 159q0 130 -59 188t-193 58h-213v-649h-241v1225h-429z" />
<glyph unicode="&#x403;" horiz-adv-x="1101" d="M164 0v1434h917v-209h-675v-1225h-242zM436 1544l254 348h254v-51l-285 -297h-223z" />
<glyph unicode="&#x404;" horiz-adv-x="1271" d="M92 717q0 215 90 383t258 263t389 95q213 0 353 -67l-21 -230q-133 84 -321 84q-208 0 -338 -115t-158 -309h746v-209h-746q29 -199 161.5 -311.5t340.5 -112.5q185 0 323 93l21 -236q-149 -70 -352 -70q-224 0 -394 93.5t-261 261.5t-91 387z" />
<glyph unicode="&#x405;" horiz-adv-x="1132" d="M102 1079q0 181 127 280t361 99q215 0 375 -72l-19 -219q-150 78 -346 78q-252 0 -252 -162q0 -78 57.5 -134.5t192.5 -102.5q235 -80 338.5 -186t103.5 -271q0 -201 -131 -307.5t-395 -106.5q-246 0 -403 86l20 234q162 -107 397 -107q267 0 267 191q0 88 -61 146 t-216 106q-215 69 -315.5 178t-100.5 270z" />
<glyph unicode="&#x406;" horiz-adv-x="589" d="M174 0v1434h242v-1434h-242z" />
<glyph unicode="&#x407;" horiz-adv-x="589" d="M-41 1718q0 129 129 129t129 -129t-129 -129t-129 129zM174 0v1434h242v-1434h-242zM373 1718q0 129 129 129t129 -129t-129 -129t-129 129z" />
<glyph unicode="&#x408;" horiz-adv-x="956" d="M20 47l21 240q132 -99 297 -99q106 0 159.5 67.5t53.5 221.5v957h242v-957q0 -250 -117 -376t-334 -126q-184 0 -322 72z" />
<glyph unicode="&#x409;" horiz-adv-x="1964" d="M20 -8l19 215q80 -19 127 -19q99 0 137.5 45t38.5 166v1035h856v-574h184q223 0 361.5 -115t138.5 -315q0 -202 -138 -316t-362 -114h-426v1225h-372v-875q0 -193 -105.5 -284t-296.5 -91q-55 0 -162 17zM1198 209h158q138 0 209 53t71 168q0 221 -280 221h-158v-442z " />
<glyph unicode="&#x40a;" horiz-adv-x="2031" d="M164 0v1434h242v-572h618v572h242v-574h184q223 0 361.5 -115t138.5 -315q0 -202 -138 -316t-362 -114h-426v653h-618v-653h-242zM1266 209h155q139 0 211 53t72 168q0 221 -283 221h-155v-442z" />
<glyph unicode="&#x40b;" horiz-adv-x="1624" d="M20 1225v209h1098v-209h-432v-332q140 65 301 65q236 0 370 -120.5t134 -372.5v-465h-242v451q0 161 -67 227.5t-213 66.5q-79 0 -155.5 -24.5t-127.5 -65.5v-655h-233v1225h-433z" />
<glyph unicode="&#x40c;" horiz-adv-x="1304" d="M164 0v1434h242v-637l546 637h291l-577 -672l669 -762h-313l-616 719v-719h-242zM461 1544l254 348h254v-51l-285 -297h-223z" />
<glyph unicode="&#x40d;" horiz-adv-x="1470" d="M164 0v1434h233v-1088l645 1088h265v-1434h-234v1087l-647 -1087h-262zM360 1841v51h254l254 -348h-223z" />
<glyph unicode="&#x40e;" horiz-adv-x="1255" d="M31 1434h256l348 -723l334 723h256l-664 -1434h-254l207 449zM264 1886h207q9 -164 135 -164t135 164h207q-3 -112 -50 -189t-121.5 -112t-170.5 -35t-170.5 35t-121.5 112t-50 189z" />
<glyph unicode="&#x40f;" horiz-adv-x="1449" d="M164 0v1434h242v-1225h638v1225h242v-1434h-440v-336h-242v336h-440z" />
<glyph unicode="&#x410;" horiz-adv-x="1347" d="M10 0l529 1434h270l528 -1434h-262l-119 346h-565l-119 -346h-262zM463 555h422l-211 614z" />
<glyph unicode="&#x411;" horiz-adv-x="1204" d="M164 0v1434h854v-209h-615v-305h209q228 0 364 -127.5t136 -333.5q0 -205 -136 -332t-364 -127h-448zM403 209h185q139 0 209.5 65t70.5 185q0 123 -70 187.5t-210 64.5h-185v-502z" />
<glyph unicode="&#x412;" horiz-adv-x="1300" d="M164 0v1434h500q227 0 357 -109.5t130 -280.5q0 -92 -41 -165t-119 -117q112 -49 170 -136.5t58 -203.5q0 -201 -138 -311.5t-391 -110.5h-526zM406 209h251q164 0 242 53t78 162q0 213 -320 213h-251v-428zM406 846h225q278 0 278 190q0 189 -278 189h-225v-379z" />
<glyph unicode="&#x413;" horiz-adv-x="1101" d="M164 0v1434h917v-209h-675v-1225h-242z" />
<glyph unicode="&#x414;" horiz-adv-x="1290" d="M20 -205v414h109q311 531 332 1225h641v-1225h147v-414h-241v205h-746v-205h-242zM408 209h452v1016h-172q-47 -542 -280 -1016z" />
<glyph unicode="&#x415;" horiz-adv-x="1177" d="M164 0v1434h913v-209h-671v-383h622v-209h-622v-424h690v-209h-932z" />
<glyph unicode="&#x416;" horiz-adv-x="1740" d="M-10 0l520 766l-424 668h260l404 -629v629h241v-629l404 629h260l-424 -668l520 -766h-276l-484 719v-719h-241v719l-484 -719h-276z" />
<glyph unicode="&#x417;" horiz-adv-x="1130" d="M72 45l18 234q192 -91 383 -91q90 0 160.5 21.5t115 69t44.5 114.5q0 84 -68 141.5t-179.5 83t-260.5 25.5v209q226 0 360.5 58t134.5 165q0 170 -305 170q-175 0 -350 -94l-25 238q175 69 394 69q238 0 385 -98.5t147 -263.5q0 -248 -256 -346q268 -99 268 -369 q0 -125 -76 -218.5t-201 -140.5t-278 -47q-234 0 -411 70z" />
<glyph unicode="&#x418;" horiz-adv-x="1470" d="M164 0v1434h233v-1088l645 1088h265v-1434h-234v1087l-647 -1087h-262z" />
<glyph unicode="&#x419;" horiz-adv-x="1470" d="M164 0v1434h233v-1088l645 1088h265v-1434h-234v1087l-647 -1087h-262zM403 1886h207q9 -164 135 -164q127 0 136 164h206q-3 -112 -50 -189t-121.5 -112t-170.5 -35t-170.5 35t-121.5 112t-50 189z" />
<glyph unicode="&#x41a;" horiz-adv-x="1304" d="M164 0v1434h242v-637l546 637h291l-577 -672l669 -762h-313l-616 719v-719h-242z" />
<glyph unicode="&#x41b;" horiz-adv-x="1445" d="M20 -8l21 213q73 -17 131 -17q99 0 137.5 47t38.5 168v1031h934v-1434h-242v1225h-450v-875q0 -375 -402 -375q-74 0 -168 17z" />
<glyph unicode="&#x41c;" horiz-adv-x="1753" d="M164 0v1434h244l469 -729l469 729h243v-1434h-233v1059l-387 -600h-185l-387 600v-1059h-233z" />
<glyph unicode="&#x41d;" horiz-adv-x="1458" d="M164 0v1434h242v-566h647v566h241v-1434h-241v659h-647v-659h-242z" />
<glyph unicode="&#x41e;" horiz-adv-x="1486" d="M92 717q0 156 44 291t125.5 235.5t205.5 157.5t276 57t276 -57t206 -157.5t126 -235.5t44 -291q0 -210 -75.5 -376.5t-225 -266t-351.5 -99.5q-152 0 -276 57.5t-205.5 157.5t-125.5 235.5t-44 291.5zM338 717q0 -246 108 -387.5t297 -141.5t297.5 141.5t108.5 387.5 t-108.5 387t-297.5 141t-297 -141t-108 -387z" />
<glyph unicode="&#x41f;" horiz-adv-x="1449" d="M164 0v1434h1122v-1434h-242v1225h-638v-1225h-242z" />
<glyph unicode="&#x420;" horiz-adv-x="1234" d="M164 0v1434h452q250 0 398.5 -119.5t148.5 -335.5q0 -218 -148 -337.5t-399 -119.5h-210v-522h-242zM406 731h190q162 0 242 59.5t80 188.5q0 128 -79.5 187t-242.5 59h-190v-494z" />
<glyph unicode="&#x421;" horiz-adv-x="1271" d="M92 717q0 215 90 383t258 263t389 95q213 0 353 -67l-21 -230q-133 84 -321 84q-234 0 -368 -146.5t-134 -381.5q0 -244 136.5 -386.5t371.5 -142.5q185 0 323 93l21 -236q-149 -70 -352 -70q-224 0 -394 93.5t-261 261.5t-91 387z" />
<glyph unicode="&#x422;" horiz-adv-x="1134" d="M20 1225v209h1094v-209h-426v-1225h-242v1225h-426z" />
<glyph unicode="&#x423;" horiz-adv-x="1255" d="M31 1434h256l348 -723l334 723h256l-664 -1434h-254l207 449z" />
<glyph unicode="&#x424;" horiz-adv-x="1490" d="M82 717q0 141 71 251.5t192.5 175t279.5 81.5v209h241v-209q158 -17 279.5 -81.5t192.5 -175t71 -251.5t-71 -251.5t-192.5 -175t-279.5 -81.5v-209h-241v209q-158 17 -279.5 81.5t-192.5 175t-71 251.5zM328 717q0 -133 77 -208t220 -87v590q-143 -12 -220 -87t-77 -208 zM866 422q143 12 220 87t77 208t-77 208t-220 87v-590z" />
<glyph unicode="&#x425;" horiz-adv-x="1386" d="M31 0l520 729l-502 705h279l364 -514l367 514h278l-503 -705l522 -729h-279l-385 539l-383 -539h-278z" />
<glyph unicode="&#x426;" horiz-adv-x="1501" d="M164 0v1434h242v-1225h638v1225h242v-1223h174v-436h-233v225h-1063z" />
<glyph unicode="&#x427;" horiz-adv-x="1361" d="M143 889v545h242v-535q0 -158 54.5 -226.5t187.5 -68.5q93 0 180.5 29.5t148.5 83.5v717h242v-1434h-242v485q-157 -90 -350 -90q-224 0 -343.5 125t-119.5 369z" />
<glyph unicode="&#x428;" horiz-adv-x="1716" d="M164 0v1434h242v-1225h331v1225h242v-1225h332v1225h241v-1434h-1388z" />
<glyph unicode="&#x429;" horiz-adv-x="1767" d="M164 0v1434h242v-1225h331v1225h242v-1225h332v1225h241v-1223h174v-436h-233v225h-1329z" />
<glyph unicode="&#x42a;" horiz-adv-x="1386" d="M20 1225v209h562v-514h223q228 0 364 -127.5t136 -333.5q0 -205 -136 -332t-364 -127h-465v1225h-320zM582 209h196q139 0 210 65t71 185q0 123 -70.5 187.5t-210.5 64.5h-196v-502z" />
<glyph unicode="&#x42b;" horiz-adv-x="1642" d="M164 0v1434h242v-514h225q227 0 362 -127.5t135 -333.5q0 -205 -135 -332t-362 -127h-467zM406 209h196q140 0 210.5 64.5t70.5 185.5q0 123 -70 187.5t-211 64.5h-196v-502zM1237 0v1434h242v-1434h-242z" />
<glyph unicode="&#x42c;" horiz-adv-x="1210" d="M164 0v1434h242v-514h225q227 0 362 -127.5t135 -333.5q0 -205 -135 -332t-362 -127h-467zM406 209h196q140 0 210.5 64.5t70.5 185.5q0 123 -70 187.5t-211 64.5h-196v-502z" />
<glyph unicode="&#x42d;" horiz-adv-x="1271" d="M82 45l20 236q138 -93 324 -93q208 0 340 112.5t160 311.5h-744v209h744q-28 193 -158 308.5t-336 115.5q-188 0 -321 -84l-21 230q140 67 352 67q221 0 389.5 -95t258.5 -263t90 -383q0 -219 -91 -387t-261 -261.5t-394 -93.5q-203 0 -352 70z" />
<glyph unicode="&#x42e;" horiz-adv-x="1730" d="M164 0v1434h242v-617h155q9 138 47.5 254t104.5 203t164.5 135.5t220.5 48.5q106 0 194 -37t151.5 -103.5t107.5 -159t65.5 -204t21.5 -237.5q0 -159 -34.5 -293t-100 -234.5t-169.5 -157.5t-236 -57q-121 0 -219.5 48t-164.5 134.5t-105 202.5t-48 256h-155v-616h-242z M803 717q0 -255 74 -392t221 -137q146 0 220.5 137.5t74.5 391.5t-74.5 391t-220.5 137q-147 0 -221 -136.5t-74 -391.5z" />
<glyph unicode="&#x42f;" horiz-adv-x="1304" d="M20 0l400 612q-137 46 -216 147t-79 247q0 203 150 315.5t382 112.5h484v-1434h-242v578h-242l-366 -578h-271zM371 1006q0 -220 305 -220h223v439h-223q-151 0 -228 -53t-77 -166z" />
<glyph unicode="&#x430;" horiz-adv-x="1134" d="M72 319q0 168 124.5 264.5t350.5 96.5h221v51q0 91 -51 126.5t-176 35.5q-190 0 -359 -96l-22 196q69 41 176 66.5t215 25.5q238 0 344 -90t106 -309v-686h-233v63q-107 -88 -291 -88q-176 0 -290.5 89.5t-114.5 254.5zM309 324q0 -156 201 -156q175 0 258 96v228h-213 q-246 0 -246 -168z" />
<glyph unicode="&#x431;" horiz-adv-x="1157" d="M82 657q0 202 48 344.5t159.5 248t295 164.5t453.5 81l17 -201q-347 -24 -516 -115t-199 -255q43 43 113 68.5t149 25.5q213 0 343 -137.5t130 -382.5q0 -243 -133.5 -382t-339.5 -139q-250 0 -385 181.5t-135 498.5zM313 659q0 -489 289 -489q112 0 176 87.5t64 240.5 q0 152 -66.5 239.5t-191.5 87.5q-160 0 -271 -141v-25z" />
<glyph unicode="&#x432;" horiz-adv-x="1089" d="M143 0v1061h338q473 0 473 -281q0 -142 -135 -215q88 -33 138.5 -99t50.5 -153q0 -313 -500 -313h-365zM365 188h108q159 0 228 33t69 103t-69 101.5t-228 31.5h-108v-269zM365 645h90q140 0 201 25.5t61 89.5t-60.5 88t-201.5 24h-90v-227z" />
<glyph unicode="&#x433;" horiz-adv-x="923" d="M143 0v1061h760v-189h-526v-872h-234z" />
<glyph unicode="&#x434;" horiz-adv-x="1167" d="M20 188h101q239 392 272 873h586v-873h147v-393h-233v205h-639v-205h-234v393zM381 188h364v684h-141q-23 -169 -82 -349t-141 -335z" />
<glyph unicode="&#x435;" horiz-adv-x="1136" d="M82 532q0 250 133 401.5t356 151.5q233 0 363.5 -154.5t130.5 -406.5q0 -32 -4 -86h-735q22 -270 321 -270q188 0 311 88l23 -203q-128 -78 -344 -78q-138 0 -245 41.5t-174.5 116.5t-101.5 176t-34 223zM326 627h495q-12 128 -76 197t-174 69q-108 0 -171 -69t-74 -197z " />
<glyph unicode="&#x436;" horiz-adv-x="1572" d="M10 0l424 553l-383 508h271l348 -471v471h233v-471l348 471h271l-383 -508l424 -553h-275l-385 514v-514h-233v514l-385 -514h-275z" />
<glyph unicode="&#x437;" horiz-adv-x="1017" d="M61 29l21 204q145 -65 332 -65q134 0 199 34.5t65 92.5q0 170 -434 170v188q424 0 424 140q0 53 -51.5 76.5t-182.5 23.5q-185 0 -330 -62l-18 209q154 45 354 45q233 0 349 -74t116 -216q0 -93 -56.5 -155t-154.5 -89q107 -36 164 -105.5t57 -158.5q0 -150 -130.5 -231 t-360.5 -81q-207 0 -363 54z" />
<glyph unicode="&#x438;" horiz-adv-x="1253" d="M143 0v1061h234v-719l493 719h240v-1061h-233v719l-494 -719h-240z" />
<glyph unicode="&#x439;" horiz-adv-x="1253" d="M143 0v1061h234v-719l493 719h240v-1061h-233v719l-494 -719h-240zM285 1528h207q9 -164 135 -164t135 164h207q-3 -112 -50 -189t-121.5 -112t-170.5 -35t-170.5 35t-121.5 112t-50 189z" />
<glyph unicode="&#x43a;" horiz-adv-x="1116" d="M143 0v1061h234v-467l403 467h289l-442 -508l479 -553h-291l-438 510v-510h-234z" />
<glyph unicode="&#x43b;" horiz-adv-x="1222" d="M20 -8l21 194q59 -18 125 -18q96 0 135 49t39 184v660h739v-1061h-233v868h-273v-514q0 -190 -97.5 -284.5t-285.5 -94.5q-87 0 -170 17z" />
<glyph unicode="&#x43c;" horiz-adv-x="1437" d="M143 0v1061h222l354 -490l354 490h221v-1061h-233v713l-277 -375h-131l-276 375v-713h-234z" />
<glyph unicode="&#x43d;" horiz-adv-x="1216" d="M143 0v1061h234v-391h463v391h233v-1061h-233v481h-463v-481h-234z" />
<glyph unicode="&#x43e;" horiz-adv-x="1212" d="M82 530q0 158 63 284t183 198.5t278 72.5t278 -72.5t183 -198.5t63 -284t-63 -284t-183 -198.5t-278 -72.5t-278 72.5t-183 198.5t-63 284zM319 530q0 -167 76.5 -264.5t210.5 -97.5t210.5 97.5t76.5 264.5t-76.5 265t-210.5 98t-210.5 -98t-76.5 -265z" />
<glyph unicode="&#x43f;" horiz-adv-x="1175" d="M143 0v1061h889v-1061h-233v872h-422v-872h-234z" />
<glyph unicode="&#x440;" horiz-adv-x="1208" d="M143 -395v1456h234v-64q109 88 266 88q210 0 346.5 -152.5t136.5 -402.5t-136.5 -402.5t-346.5 -152.5q-157 0 -266 88v-458h-234zM377 264q42 -45 102 -70.5t127 -25.5q128 0 205.5 92.5t77.5 269.5t-77.5 270t-205.5 93q-67 0 -127 -25.5t-102 -70.5v-533z" />
<glyph unicode="&#x441;" horiz-adv-x="1048" d="M82 530q0 253 153.5 404t411.5 151q198 0 320 -65l-21 -199q-113 72 -287 72q-150 0 -245 -97.5t-95 -265.5q0 -169 98 -265.5t265 -96.5t274 76l21 -201q-116 -68 -307 -68q-273 0 -430.5 149.5t-157.5 405.5z" />
<glyph unicode="&#x442;" horiz-adv-x="1009" d="M20 872v189h969v-189h-368v-872h-234v872h-367z" />
<glyph unicode="&#x443;" horiz-adv-x="1140" d="M31 1061h254l288 -772l283 772h254l-565 -1456h-246l152 395z" />
<glyph unicode="&#x444;" horiz-adv-x="1896" d="M82 530q0 251 135 403t348 152q157 0 266 -88v498h234v-498q109 88 266 88q210 0 347 -152.5t137 -402.5t-137 -402.5t-347 -152.5q-157 0 -266 88v-458h-234v458q-109 -88 -266 -88q-213 0 -348 152t-135 403zM319 530q0 -177 77.5 -269.5t205.5 -92.5q67 0 127 25.5 t102 70.5v533q-42 45 -102 70.5t-127 25.5q-128 0 -205.5 -93t-77.5 -270zM1065 264q42 -45 102 -70.5t127 -25.5q128 0 205.5 92.5t77.5 269.5t-77.5 270t-205.5 93q-67 0 -127 -25.5t-102 -70.5v-533z" />
<glyph unicode="&#x445;" horiz-adv-x="1081" d="M20 0l381 549l-354 512h264l230 -336l229 336h264l-356 -512l383 -549h-264l-256 373l-256 -373h-265z" />
<glyph unicode="&#x446;" horiz-adv-x="1234" d="M143 0v1061h234v-873h422v873h233v-873h162v-401h-221v213h-830z" />
<glyph unicode="&#x447;" horiz-adv-x="1132" d="M113 836v225h233v-230q0 -155 45.5 -222.5t153.5 -67.5q134 0 211 77v443h233v-1061h-233v403q-89 -55 -238 -55q-192 0 -298.5 124t-106.5 364z" />
<glyph unicode="&#x448;" horiz-adv-x="1456" d="M143 0v1061h234v-873h235v873h234v-873h233v873h234v-1061h-1170z" />
<glyph unicode="&#x449;" horiz-adv-x="1513" d="M143 0v1061h234v-873h235v873h234v-873h233v873h234v-873h160v-401h-222v213h-1108z" />
<glyph unicode="&#x44a;" horiz-adv-x="1269" d="M10 872v189h514v-361h156q528 0 528 -350t-528 -350h-387v872h-283zM526 188h152q162 0 227.5 37.5t65.5 124.5t-65.5 124.5t-227.5 37.5h-152v-324z" />
<glyph unicode="&#x44b;" horiz-adv-x="1574" d="M143 0v1061h232v-361h155q529 0 529 -350t-529 -350h-387zM377 188h151q162 0 227.5 37.5t65.5 124.5t-65.5 124.5t-227.5 37.5h-151v-324zM1198 0v1061h234v-1061h-234z" />
<glyph unicode="&#x44c;" horiz-adv-x="1120" d="M143 0v1061h232v-361h155q529 0 529 -350t-529 -350h-387zM377 188h151q162 0 227.5 37.5t65.5 124.5t-65.5 124.5t-227.5 37.5h-151v-324z" />
<glyph unicode="&#x44d;" horiz-adv-x="1048" d="M72 43l20 211q109 -86 287 -86q140 0 228.5 70t113.5 198h-567v189h567q-25 128 -112.5 198t-217.5 70q-173 0 -289 -80l-20 211q125 61 311 61q255 0 414.5 -152.5t159.5 -402.5q0 -253 -159.5 -404t-428.5 -151q-177 0 -307 68z" />
<glyph unicode="&#x44e;" horiz-adv-x="1495" d="M143 0v1061h234v-436h102q25 202 150 330t315 128q213 0 341 -155.5t128 -397.5q0 -245 -127.5 -399t-341.5 -154q-197 0 -320.5 124.5t-144.5 334.5h-102v-436h-234zM715 530q0 -168 60 -264t169 -96t170.5 96.5t61.5 263.5t-61.5 264t-170.5 97t-169 -96.5t-60 -264.5z " />
<glyph unicode="&#x44f;" horiz-adv-x="1134" d="M20 0l302 457q-97 37 -150 110t-53 172q0 148 115 235t309 87h448v-1061h-233v420h-195l-270 -420h-273zM352 739q0 -133 201 -133h205v266h-205q-201 0 -201 -133z" />
<glyph unicode="&#x450;" horiz-adv-x="1136" d="M82 532q0 250 133 401.5t356 151.5q233 0 363.5 -154.5t130.5 -406.5q0 -32 -4 -86h-735q22 -270 321 -270q188 0 311 88l23 -203q-128 -78 -344 -78q-138 0 -245 41.5t-174.5 116.5t-101.5 176t-34 223zM254 1485v51h254l254 -348h-223zM326 627h495q-12 128 -76 197 t-174 69q-108 0 -171 -69t-74 -197z" />
<glyph unicode="&#x451;" horiz-adv-x="1136" d="M82 532q0 250 133 401.5t356 151.5q233 0 363.5 -154.5t130.5 -406.5q0 -32 -4 -86h-735q22 -270 321 -270q188 0 311 88l23 -203q-128 -78 -344 -78q-138 0 -245 41.5t-174.5 116.5t-101.5 176t-34 223zM236 1362q0 129 129 129t129 -129t-129 -129t-129 129zM326 627 h495q-12 128 -76 197t-174 69q-108 0 -171 -69t-74 -197zM649 1362q0 129 129 129t129 -129t-129 -129t-129 129z" />
<glyph unicode="&#x452;" horiz-adv-x="1224" d="M10 1204v160h144v131h233v-131h373v-160h-373v-207q114 88 266 88q206 0 322.5 -125t116.5 -362v-618q0 -209 -81 -299.5t-261 -90.5q-78 0 -162 23l18 194q64 -24 137 -24q58 0 86.5 39.5t28.5 138.5v639q0 152 -58.5 222.5t-181.5 70.5q-70 0 -131 -26t-100 -70v-797 h-233v1204h-144z" />
<glyph unicode="&#x453;" horiz-adv-x="923" d="M143 0v1061h760v-189h-526v-872h-234zM332 1188l254 348h254v-51l-285 -297h-223z" />
<glyph unicode="&#x454;" horiz-adv-x="1048" d="M82 530q0 250 159 402.5t414 152.5q187 0 312 -61l-21 -211q-116 80 -289 80q-131 0 -217.5 -70t-111.5 -198h567v-189h-567q23 -128 112 -198t230 -70q177 0 286 86l21 -211q-130 -68 -307 -68q-269 0 -428.5 151t-159.5 404z" />
<glyph unicode="&#x455;" horiz-adv-x="972" d="M92 59l14 220q156 -111 349 -111q188 0 188 127q0 54 -45.5 89.5t-165.5 68.5q-171 46 -252.5 126.5t-81.5 202.5q0 148 104 225.5t302 77.5q186 0 323 -67l-20 -203q-127 78 -301 78q-168 0 -168 -98q0 -53 42 -89t152 -67q193 -56 271 -136t78 -196q0 -162 -106 -247 t-320 -85q-207 0 -363 84z" />
<glyph unicode="&#x456;" horiz-adv-x="540" d="M131 1356q0 139 139 139q140 0 140 -139t-140 -139q-139 0 -139 139zM154 0v1061h233v-1061h-233z" />
<glyph unicode="&#x457;" horiz-adv-x="540" d="M-66 1362q0 129 129 129q130 0 130 -129t-130 -129q-129 0 -129 129zM154 0v1061h233v-1061h-233zM348 1362q0 129 129 129t129 -129t-129 -129t-129 129z" />
<glyph unicode="&#x458;" horiz-adv-x="540" d="M-123 -385l21 197q60 -29 131 -29t103 45.5t32 140.5v1092h233v-1084q0 -192 -87 -289.5t-277 -97.5q-76 0 -156 25zM141 1356q0 139 140 139q139 0 139 -139t-139 -139q-140 0 -140 139z" />
<glyph unicode="&#x459;" horiz-adv-x="1677" d="M10 -8l21 194q71 -18 125 -18q96 0 135 49t39 184v660h731v-385h26q260 0 394.5 -82t134.5 -256t-134.5 -256t-394.5 -82h-260v877h-264v-523q0 -189 -99.5 -284t-283.5 -95q-63 0 -170 17zM1063 188h33q154 0 218 35t64 115t-64 114.5t-218 34.5h-33v-299z" />
<glyph unicode="&#x45a;" horiz-adv-x="1638" d="M143 0v1061h234v-385h411v385h234v-385h27q260 0 394 -81.5t134 -256.5t-134 -256.5t-394 -81.5h-261v487h-411v-487h-234zM1024 188h33q154 0 218 35t64 115t-64 114.5t-218 34.5h-33v-299z" />
<glyph unicode="&#x45b;" horiz-adv-x="1224" d="M10 1204v160h144v131h233v-131h373v-160h-373v-207q114 88 266 88q206 0 322.5 -125t116.5 -362v-598h-234v600q0 152 -58.5 222.5t-181.5 70.5q-70 0 -131 -26t-100 -70v-797h-233v1204h-144z" />
<glyph unicode="&#x45c;" horiz-adv-x="1116" d="M143 0v1061h234v-467l403 467h289l-442 -508l479 -553h-291l-438 510v-510h-234zM385 1188l254 348h254v-51l-285 -297h-223z" />
<glyph unicode="&#x45d;" horiz-adv-x="1253" d="M143 0v1061h234v-719l493 719h240v-1061h-233v719l-494 -719h-240zM287 1485v51h254l254 -348h-224z" />
<glyph unicode="&#x45e;" horiz-adv-x="1140" d="M31 1061h254l288 -772l283 772h254l-565 -1456h-246l152 395zM201 1528h207q9 -164 135 -164t135 164h207q-3 -112 -50 -189t-121.5 -112t-170.5 -35t-170.5 35t-121.5 112t-50 189z" />
<glyph unicode="&#x45f;" horiz-adv-x="1175" d="M143 0v1061h234v-873h422v873h233v-1061h-334v-213h-221v213h-334z" />
<glyph unicode="&#x490;" horiz-adv-x="1101" d="M164 0v1434h676v252h241v-461h-675v-1225h-242z" />
<glyph unicode="&#x491;" horiz-adv-x="917" d="M143 0v1061h521v270h233v-459h-520v-872h-234z" />
<glyph unicode="&#x1e80;" horiz-adv-x="2060" d="M41 1434h256l321 -1149l265 1149h295l264 -1149l321 1149h256l-422 -1434h-313l-254 1114l-254 -1114h-313zM649 1841v51h254l254 -348h-223z" />
<glyph unicode="&#x1e81;" horiz-adv-x="1634" d="M31 1061h248l217 -797l182 797h278l183 -797l217 797h248l-322 -1061h-285l-180 807l-180 -807h-285zM430 1485v51h254l254 -348h-223z" />
<glyph unicode="&#x1e82;" horiz-adv-x="2060" d="M41 1434h256l321 -1149l265 1149h295l264 -1149l321 1149h256l-422 -1434h-313l-254 1114l-254 -1114h-313zM883 1544l254 348h254v-51l-285 -297h-223z" />
<glyph unicode="&#x1e83;" horiz-adv-x="1634" d="M31 1061h248l217 -797l182 797h278l183 -797l217 797h248l-322 -1061h-285l-180 807l-180 -807h-285zM696 1188l254 348h254v-51l-284 -297h-224z" />
<glyph unicode="&#x1e84;" horiz-adv-x="2060" d="M41 1434h256l321 -1149l265 1149h295l264 -1149l321 1149h256l-422 -1434h-313l-254 1114l-254 -1114h-313zM694 1718q0 129 129 129t129 -129t-129 -129t-129 129zM1108 1718q0 129 129 129t129 -129t-129 -129t-129 129z" />
<glyph unicode="&#x1e85;" horiz-adv-x="1634" d="M31 1061h248l217 -797l182 797h278l183 -797l217 797h248l-322 -1061h-285l-180 807l-180 -807h-285zM481 1362q0 129 129 129t129 -129t-129 -129t-129 129zM895 1362q0 129 129 129t129 -129t-129 -129t-129 129z" />
<glyph unicode="&#x1ef2;" horiz-adv-x="1404" d="M41 1434h266l395 -639l396 639h266l-541 -867v-567h-241v567zM346 1841v51h254l254 -348h-223z" />
<glyph unicode="&#x1ef3;" horiz-adv-x="1140" d="M31 1061h254l288 -772l283 772h254l-565 -1456h-246l152 395zM193 1485v51h253l254 -348h-223z" />
<glyph unicode="&#x2000;" horiz-adv-x="1023" />
<glyph unicode="&#x2001;" horiz-adv-x="2046" />
<glyph unicode="&#x2002;" horiz-adv-x="1023" />
<glyph unicode="&#x2003;" horiz-adv-x="2046" />
<glyph unicode="&#x2004;" horiz-adv-x="682" />
<glyph unicode="&#x2005;" horiz-adv-x="511" />
<glyph unicode="&#x2006;" horiz-adv-x="341" />
<glyph unicode="&#x2007;" horiz-adv-x="341" />
<glyph unicode="&#x2008;" horiz-adv-x="255" />
<glyph unicode="&#x2009;" horiz-adv-x="409" />
<glyph unicode="&#x200a;" horiz-adv-x="113" />
<glyph unicode="&#x2010;" horiz-adv-x="831" d="M123 569v222h586v-222h-586z" />
<glyph unicode="&#x2011;" horiz-adv-x="831" d="M123 569v222h586v-222h-586z" />
<glyph unicode="&#x2012;" horiz-adv-x="1208" d="M82 580v200h1044v-200h-1044z" />
<glyph unicode="&#x2013;" horiz-adv-x="1024" d="M0 580v200h1024v-200h-1024z" />
<glyph unicode="&#x2014;" horiz-adv-x="2048" d="M0 580v200h2048v-200h-2048z" />
<glyph unicode="&#x2015;" horiz-adv-x="2048" d="M205 580v200h1638v-200h-1638z" />
<glyph unicode="&#x2016;" horiz-adv-x="946" d="M205 -266v1800h201v-1800h-201zM543 -266v1800h198v-1800h-198z" />
<glyph unicode="&#x2017;" horiz-adv-x="1228" d="M102 -51h1024v-160h-1024v160zM102 -281h1024v-159h-1024v159z" />
<glyph unicode="&#x2018;" horiz-adv-x="604" d="M158 1180q0 136 63 239.5t174 161.5l64 -96q-98 -76 -113 -178q103 -18 103 -142q0 -145 -146 -145q-74 0 -109.5 37.5t-35.5 122.5z" />
<glyph unicode="&#x2019;" horiz-adv-x="604" d="M145 1116q98 76 113 178q-102 18 -102 142q0 145 145 145q74 0 109.5 -37.5t35.5 -122.5q0 -136 -63 -239.5t-174 -161.5z" />
<glyph unicode="&#x201a;" horiz-adv-x="604" d="M145 -199q97 76 113 179q-102 18 -102 141q0 145 145 145q74 0 109.5 -37.5t35.5 -122.5q0 -136 -63 -239.5t-174 -161.5z" />
<glyph unicode="&#x201b;" horiz-adv-x="604" d="M158 1421q0 85 35.5 122.5t109.5 37.5q146 0 146 -145q0 -124 -103 -142q14 -98 113 -178l-64 -96q-111 58 -174 161.5t-63 239.5z" />
<glyph unicode="&#x201c;" horiz-adv-x="972" d="M158 1180q0 136 63 239.5t174 161.5l64 -96q-98 -76 -113 -178q103 -18 103 -142q0 -145 -146 -145q-74 0 -109.5 37.5t-35.5 122.5zM526 1180q0 136 63 239t175 162l63 -96q-96 -75 -112 -178q102 -18 102 -142q0 -145 -145 -145q-74 0 -110 38t-36 122z" />
<glyph unicode="&#x201d;" horiz-adv-x="972" d="M145 1116q98 76 113 178q-102 18 -102 142q0 145 145 145q74 0 109.5 -37.5t35.5 -122.5q0 -136 -63 -239.5t-174 -161.5zM514 1116q98 76 113 178q-103 18 -103 142q0 145 146 145q74 0 109.5 -37.5t35.5 -122.5q0 -136 -63 -239.5t-174 -161.5z" />
<glyph unicode="&#x201e;" horiz-adv-x="972" d="M145 -199q97 76 113 179q-102 18 -102 141q0 145 145 145q74 0 109.5 -37.5t35.5 -122.5q0 -136 -63 -239.5t-174 -161.5zM514 -199q97 76 113 179q-103 18 -103 141q0 145 146 145q74 0 109.5 -37.5t35.5 -122.5q0 -136 -63 -239.5t-174 -161.5z" />
<glyph unicode="&#x201f;" horiz-adv-x="972" d="M158 1421q0 85 35.5 122.5t109.5 37.5q146 0 146 -145q0 -124 -103 -142q14 -98 113 -178l-64 -96q-111 58 -174 161.5t-63 239.5zM526 1421q0 84 36 122t110 38q145 0 145 -145q0 -124 -102 -142q15 -99 112 -178l-63 -96q-112 59 -175 162t-63 239z" />
<glyph unicode="&#x2020;" horiz-adv-x="1196" d="M164 999v189h317v344h234v-344h317v-189h-317v-1267h-234v1267h-317z" />
<glyph unicode="&#x2021;" horiz-adv-x="1196" d="M164 76v188h317v735h-317v189h317v344h234v-344h317v-189h-317v-735h317v-188h-317v-344h-234v344h-317z" />
<glyph unicode="&#x2022;" horiz-adv-x="942" d="M205 680q0 130 68.5 201t197.5 71t197.5 -71t68.5 -201t-68.5 -201t-197.5 -71t-197.5 71t-68.5 201z" />
<glyph unicode="&#x2024;" horiz-adv-x="604" d="M156 121q0 145 145 145t145 -145q0 -146 -145 -146t-145 146z" />
<glyph unicode="&#x2025;" horiz-adv-x="1208" d="M156 121q0 145 145 145t145 -145q0 -146 -145 -146t-145 146zM760 121q0 145 145 145q146 0 146 -145q0 -146 -146 -146q-145 0 -145 146z" />
<glyph unicode="&#x2026;" horiz-adv-x="1812" d="M156 121q0 145 145 145t145 -145q0 -146 -145 -146t-145 146zM760 121q0 145 145 145q146 0 146 -145q0 -146 -146 -146q-145 0 -145 146zM1364 121q0 145 145 145q146 0 146 -145q0 -146 -146 -146q-145 0 -145 146z" />
<glyph unicode="&#x202f;" horiz-adv-x="409" />
<glyph unicode="&#x2032;" horiz-adv-x="692" d="M154 874l129 560h256v-88l-195 -472h-190z" />
<glyph unicode="&#x2033;" horiz-adv-x="1101" d="M164 874l129 560h256v-88l-195 -472h-190zM553 874l129 560h256v-88l-195 -472h-190z" />
<glyph unicode="&#x2039;" horiz-adv-x="720" d="M143 592v94l455 420v-234l-256 -233l256 -233v-234z" />
<glyph unicode="&#x203a;" horiz-adv-x="720" d="M123 172v234l256 233l-256 233v234l455 -420v-94z" />
<glyph unicode="&#x203c;" horiz-adv-x="1021" d="M164 121q0 145 145 145q146 0 146 -145q0 -146 -146 -146q-145 0 -145 146zM182 1038v396h254v-396l-49 -665h-156zM567 121q0 145 146 145q145 0 145 -145q0 -146 -145 -146q-146 0 -146 146zM586 1038v396h254v-396l-49 -665h-156z" />
<glyph unicode="&#x203e;" d="M121 1227v190h618v-190h-618z" />
<glyph unicode="&#x2044;" horiz-adv-x="962" d="M-20 -31l806 1495h197l-805 -1495h-198z" />
<glyph unicode="&#x205f;" horiz-adv-x="511" />
<glyph unicode="&#x2071;" horiz-adv-x="819" d="M299 1331q0 115 111 115q110 0 110 -115q0 -114 -110 -114q-111 0 -111 114zM311 483v656h205v-656h-205z" />
<glyph unicode="&#x207a;" horiz-adv-x="819" d="M63 879v172h246v243h201v-243h246v-172h-246v-244h-201v244h-246z" />
<glyph unicode="&#x207b;" horiz-adv-x="819" d="M63 879v172h693v-172h-693z" />
<glyph unicode="&#x207c;" horiz-adv-x="819" d="M63 745v173h693v-173h-693zM63 1012v172h693v-172h-693z" />
<glyph unicode="&#x207d;" horiz-adv-x="819" d="M233 961q0 314 220 593h176q-205 -285 -205 -593t205 -599h-176q-220 279 -220 599z" />
<glyph unicode="&#x207e;" horiz-adv-x="819" d="M190 362q205 291 205 599t-205 593h177q219 -278 219 -593q0 -321 -219 -599h-177z" />
<glyph unicode="&#x208a;" horiz-adv-x="819" d="M63 135v172h246v244h201v-244h246v-172h-246v-244h-201v244h-246z" />
<glyph unicode="&#x208b;" horiz-adv-x="819" d="M63 135v172h693v-172h-693z" />
<glyph unicode="&#x208c;" horiz-adv-x="819" d="M63 2v172h693v-172h-693zM63 268v172h693v-172h-693z" />
<glyph unicode="&#x208d;" horiz-adv-x="819" d="M233 217q0 315 220 594h176q-205 -285 -205 -594q0 -307 205 -598h-176q-220 279 -220 598z" />
<glyph unicode="&#x208e;" horiz-adv-x="819" d="M190 -381q205 291 205 598q0 309 -205 594h177q219 -278 219 -594q0 -320 -219 -598h-177z" />
<glyph unicode="&#x2090;" horiz-adv-x="819" d="M66 -39q0 122 89.5 186t254.5 64h133q-5 50 -39 71t-115 21q-139 0 -239 -59l-17 172q104 55 268 55q178 0 255 -69.5t77 -225.5v-436h-190v43q-68 -59 -203 -59q-119 0 -196.5 66t-77.5 171zM262 -37q0 -35 30 -53.5t81 -18.5q112 0 170 66v86h-129q-82 0 -117 -20.5 t-35 -59.5z" />
<glyph unicode="&#x2091;" horiz-adv-x="819" d="M68 98q0 176 94 274.5t250 98.5q160 0 251 -100t91 -277q0 -49 -4 -78h-478q11 -65 59.5 -95t114.5 -30q143 0 238 78l16 -178q-104 -67 -258 -67q-178 0 -276 100t-98 274zM270 182h273q-21 121 -135 121q-117 0 -138 -121z" />
<glyph unicode="&#x2092;" horiz-adv-x="819" d="M43 96q0 167 99.5 271t267.5 104t267 -104t99 -271t-99 -271t-267 -104t-267.5 104t-99.5 271zM250 96q0 -92 44 -149.5t116 -57.5t115.5 57t43.5 150t-43.5 150t-115.5 57t-116 -57.5t-44 -149.5z" />
<glyph unicode="&#x2093;" horiz-adv-x="819" d="M27 -260l264 366l-248 349h231l134 -187l135 187h231l-248 -349l267 -366h-240l-145 203l-144 -203h-237z" />
<glyph unicode="&#x2094;" horiz-adv-x="819" d="M68 100q0 49 4 78h477q-11 65 -59.5 95t-114.5 30q-143 0 -238 -78l-16 178q105 68 258 68q178 0 276.5 -100.5t98.5 -274.5q0 -176 -94 -274t-250 -98q-160 0 -251 99.5t-91 276.5zM279 12q21 -121 135 -121q116 0 137 121h-272z" />
<glyph unicode="&#x20a0;" horiz-adv-x="1603" d="M82 940q0 234 150 376t378 142q146 0 267 -47l-15 -221q-118 59 -244 59q-138 0 -218.5 -81t-80.5 -228t80.5 -228t218.5 -81q94 0 195 37v338h696v-205h-462v-185h428v-204h-428v-207h475v-205h-709v449q-99 -27 -203 -27q-228 0 -378 142t-150 376z" />
<glyph unicode="&#x20a1;" horiz-adv-x="1271" d="M92 717q0 294 164.5 492.5t445.5 238.5l43 166h144l-41 -158q50 0 100 -6l43 164h148l-49 -189q52 -15 92 -34l-21 -230q-59 38 -127 56l-266 -1024q58 -5 78 -5q185 0 323 93l21 -236q-149 -70 -352 -70q-53 0 -123 9l-33 -125h-147l38 153q-33 9 -92 37l-49 -190h-143 l69 266q-128 97 -197 249.5t-69 342.5zM338 717q0 -195 88 -328l215 821q-146 -53 -224.5 -183.5t-78.5 -309.5zM541 274q39 -31 88 -49l266 1018q-49 6 -102 0z" />
<glyph unicode="&#x20a2;" horiz-adv-x="1282" d="M92 717q0 215 90 383t258 263t389 95q213 0 353 -67l-21 -230q-133 84 -321 84q-234 0 -368 -146.5t-134 -381.5q0 -157 58 -274.5t165 -182.5v725h234v-86q93 111 241 111q93 0 146 -19l-25 -215q-56 33 -145 33q-152 0 -217 -168v-453h51q185 0 323 93l21 -236 q-149 -70 -352 -70q-224 0 -394 93.5t-261 261.5t-91 387z" />
<glyph unicode="&#x20a3;" horiz-adv-x="1118" d="M41 539v139h123v133h-123v139h123v484h913v-209h-671v-275h542v-139h-542v-133h542v-139h-542v-539h-242v539h-123z" />
<glyph unicode="&#x20a4;" horiz-adv-x="1136" d="M61 0v209h205v262h-168v139h168v135h-168v140h168v65q0 261 119.5 384.5t357.5 123.5q89 0 177.5 -17.5t148.5 -51.5l-18 -222q-119 78 -293 78q-87 0 -138 -25t-79.5 -93t-28.5 -189v-53h397v-140h-397v-135h399v-139h-399v-262h563v-209h-1014z" />
<glyph unicode="&#x20a6;" horiz-adv-x="1470" d="M41 510v139h123v135h-123v140h123v510h264l301 -510h344v510h234v-510h123v-140h-123v-135h123v-139h-123v-510h-263l-303 510h-344v-510h-233v510h-123zM397 649h260l-79 135h-181v-135zM397 924h97l-97 163v-163zM813 784l80 -135h180v135h-260zM975 510l98 -164v164 h-98z" />
<glyph unicode="&#x20a7;" horiz-adv-x="2205" d="M164 0v1434h260q221 0 367 -98.5t176 -274.5h100v317h233v-317h345q67 24 161 24q165 0 265 -69l-19 -207q-101 84 -244 84q-62 0 -94.5 -26t-32.5 -74q0 -52 36 -88t122 -68q150 -56 217.5 -131t67.5 -199q0 -157 -100.5 -244.5t-270.5 -87.5h-342q-166 0 -255 91 t-89 278v528h-104q-36 -168 -180.5 -262t-358.5 -94h-18v-516h-242zM406 725h14q155 0 231 62t76 190t-76 188t-231 60h-14v-500zM1300 324q0 -85 30.5 -122.5t99.5 -37.5h323q143 0 143 131q0 59 -32 95.5t-117 64.5q-293 98 -293 325q0 44 10 92h-164v-548z" />
<glyph unicode="&#x20a8;" horiz-adv-x="2023" d="M164 0v1434h418q232 0 382 -112.5t150 -315.5q0 -146 -80.5 -247t-218.5 -147l363 -612h-271l-329 578h-187v-578h-227zM391 786h172q305 0 305 220q0 113 -77 166t-228 53h-172v-439zM1153 84l16 231q70 -70 164 -108.5t183 -38.5q188 0 188 127q0 54 -45.5 89.5 t-165.5 68.5q-171 46 -252.5 126.5t-81.5 202.5q0 146 108 224.5t302 78.5q176 0 319 -67l-20 -217q-125 92 -301 92q-168 0 -168 -98q0 -53 42 -89t152 -67q193 -56 271 -136t78 -196q0 -160 -111 -246t-315 -86q-101 0 -197 28t-166 81z" />
<glyph unicode="&#x20a9;" horiz-adv-x="2060" d="M41 1434h256l154 -547h303l129 547h295l127 -547h305l153 547h256l-159 -547h155v-139h-196l-35 -119h231v-140h-272l-144 -489h-313l-115 489h-284l-113 -489h-313l-144 489h-274v140h233l-34 119h-199v139h158zM489 748l33 -119h172l27 119h-232zM561 489l55 -194 l46 194h-101zM920 629h221l-29 119h-164zM979 887h100l-49 217zM1337 748l29 -119h170l35 119h-234zM1399 489l45 -194l53 194h-98z" />
<glyph unicode="&#x20aa;" horiz-adv-x="1798" d="M164 0v1434h538q247 0 385 -148.5t138 -437.5v-332h-242v309q0 120 -18 199.5t-56 122.5t-86.5 59.5t-120.5 16.5h-296v-1223h-242zM573 586v332h242v-310q0 -97 12.5 -167t34.5 -114.5t58 -71t77.5 -36.5t98.5 -10h297v1225h241v-1434h-538q-247 0 -385 148.5 t-138 437.5z" />
<glyph unicode="&#x20ab;" horiz-adv-x="1245" d="M82 510q0 241 136.5 387.5t354.5 146.5q158 0 267 -88v207h-365v140h365v131h241v-131h144v-140h-144v-1163h-241v63q-109 -88 -267 -88q-218 0 -354.5 147t-136.5 388zM285 -162h759v-160h-759v160zM328 510q0 -156 77.5 -241t204.5 -85q67 0 127.5 26t102.5 71v458 q-42 45 -102.5 71t-127.5 26q-127 0 -204.5 -85t-77.5 -241z" />
<glyph unicode="&#x20ac;" horiz-adv-x="1269" d="M41 520v139h102q-3 59 0 115h-102v139h121q53 247 231.5 396t433.5 149q202 0 353 -65l-21 -232q-128 84 -323 84q-162 0 -272 -89t-152 -243h649l-39 -139h-633q-6 -58 0 -115h598l-43 -139h-532q43 -158 155 -245t277 -87q184 0 321 93l23 -236q-151 -70 -354 -70 q-261 0 -440 147t-232 398h-121z" />
<glyph unicode="&#x2105;" horiz-adv-x="2093" d="M61 995q0 210 131 336.5t336 126.5q147 0 273 -55l-21 -199q-104 72 -248 72q-109 0 -179 -75.5t-70 -205.5t70 -205t179 -75q145 0 248 71l21 -198q-128 -56 -273 -56q-205 0 -336 126.5t-131 336.5zM524 -31l807 1495h197l-805 -1495h-199zM1167 444q0 201 119 332 t313 131t313.5 -131t119.5 -332t-119.5 -331.5t-313.5 -130.5t-313 130.5t-119 331.5zM1389 444q0 -129 57.5 -204.5t152.5 -75.5t153 75.5t58 204.5t-58 205t-153 76t-152.5 -76t-57.5 -205z" />
<glyph unicode="&#x2109;" horiz-adv-x="1681" d="M20 1176q0 120 85 201t210 81q122 0 208.5 -81.5t86.5 -200.5t-86.5 -201t-208.5 -82q-125 0 -210 81.5t-85 201.5zM201 1176q0 -55 32 -87t82 -32q51 0 83 32.5t32 86.5t-32 86t-83 32t-82.5 -32t-31.5 -86zM727 0v1434h913v-209h-671v-379h622v-209h-622v-637h-242z " />
<glyph unicode="&#x2113;" horiz-adv-x="1040" d="M82 262q112 25 170 51q-84 221 -84 490q0 311 117 483t309 172q154 0 240 -126t86 -343q0 -146 -34 -276.5t-118 -257.5t-213 -222q43 -49 109 -49q39 0 68.5 34t51.5 116l174 -141q-83 -218 -290 -218q-181 0 -310 148q-101 -43 -196 -64zM414 817q0 -256 39 -387 q221 187 221 561q0 150 -23.5 202t-70.5 52q-74 0 -120 -114t-46 -314z" />
<glyph unicode="&#x2116;" horiz-adv-x="1949" d="M164 0v1434h276l301 -967v967h238v-1434h-279l-299 967v-967h-237zM1059 0v184h809v-184h-809zM1083 655q0 192 102 308t283 116q175 0 276 -116.5t101 -307.5t-101 -307.5t-276 -116.5q-181 0 -283 116t-102 308zM1313 655q0 -114 39 -172.5t112 -58.5t112.5 58.5 t39.5 172.5t-39.5 173t-112.5 59t-112 -59t-39 -173z" />
<glyph unicode="&#x2117;" horiz-adv-x="1699" d="M109 717q0 151 58.5 288.5t157.5 236.5t236.5 157.5t288.5 58.5t288.5 -58.5t236.5 -157.5t157.5 -236.5t58.5 -288.5q0 -202 -99 -372.5t-269.5 -270t-372.5 -99.5t-372.5 99.5t-269.5 270t-99 372.5zM223 717q0 -130 49.5 -248t133.5 -202.5t200 -134.5t244 -50t244 50 t200 134.5t133.5 202.5t49.5 248q0 129 -49.5 246.5t-133.5 202.5t-200.5 135.5t-243.5 50.5t-243.5 -50.5t-200.5 -135.5t-133.5 -202.5t-49.5 -246.5zM573 266v875h314q154 0 244 -80t90 -219t-90 -220t-244 -81h-123v-275h-191zM764 698h115q149 0 149 144 q0 70 -34 106.5t-115 36.5h-115v-287z" />
<glyph unicode="&#x2120;" horiz-adv-x="1415" d="M82 1251q0 89 63.5 140t188.5 51q123 0 205 -43l-11 -160q-75 59 -178 59q-88 0 -88 -38q0 -24 29.5 -45t99.5 -44q99 -31 138.5 -83t39.5 -134q0 -100 -67.5 -153t-200.5 -53q-123 0 -215 49l16 170q36 -35 88.5 -55.5t102.5 -20.5q96 0 96 59q0 28 -23 48t-92 42 q-107 34 -149.5 83.5t-42.5 127.5zM625 756v678h163l181 -301l180 301h164v-678h-176v379l-105 -181h-127l-104 181v-379h-176z" />
<glyph unicode="&#x2122;" horiz-adv-x="1411" d="M20 1290v144h545v-144h-184v-534h-176v534h-185zM621 756v678h163l181 -301l180 301h164v-678h-176v379l-105 -181h-127l-104 181v-379h-176z" />
<glyph unicode="&#x2126;" horiz-adv-x="1486" d="M92 756q0 202 76 360t225.5 250t349.5 92t349.5 -91.5t226 -250t76.5 -360.5q0 -170 -63 -310t-171 -237h215v-209h-538v197q311 212 311 559q0 224 -112.5 356.5t-293.5 132.5t-293 -132.5t-112 -356.5q0 -347 311 -559v-197h-538v209h215q-108 97 -171 237t-63 310z " />
<glyph unicode="&#x212e;" horiz-adv-x="1529" d="M92 717q0 153 46 287t131.5 235.5t216.5 160t292 58.5q123 0 229.5 -37.5t185 -105.5t134 -161.5t83.5 -206.5t28 -238v-66h-992v-410q61 -61 162 -92.5t226 -31.5q275 0 479 141l33 -150q-238 -125 -517 -125q-186 0 -328 55t-231 154.5t-133.5 233.5t-44.5 299z M446 778h648v432q-57 54 -141.5 83.5t-182.5 29.5t-182.5 -29.5t-141.5 -83.5v-432z" />
<glyph unicode="&#x2195;" horiz-adv-x="1761" d="M422 453l371 -117v786l-371 -116l459 530l458 -530l-370 116v-786l370 117l-458 -531z" />
<glyph unicode="&#x21a8;" horiz-adv-x="1761" d="M422 453l371 -117v786l-371 -116l459 530l458 -530l-370 116v-786l370 117l-399 -461h356v-172h-831v172h354z" />
<glyph unicode="&#x2202;" horiz-adv-x="1224" d="M82 379q0 117 47.5 230.5t125 199t183.5 138t217 52.5q162 0 246 -84q0 330 -260 330q-148 0 -264 -69l-19 215q125 67 304 67q224 0 352.5 -148t128.5 -415q0 -274 -85.5 -484t-237 -323t-345.5 -113q-179 0 -286 103.5t-107 300.5zM328 371q0 -102 35.5 -142.5 t113.5 -40.5q104 0 196 73t146.5 185.5t59.5 231.5q-62 108 -220 108q-85 0 -161.5 -57t-123 -153.5t-46.5 -204.5z" />
<glyph unicode="&#x2206;" horiz-adv-x="1359" d="M10 0l553 1434h234l553 -1434h-1340zM354 209h652l-326 897z" />
<glyph unicode="&#x220f;" horiz-adv-x="1429" d="M164 -227v1743h1102v-1743h-242v1534h-618v-1534h-242z" />
<glyph unicode="&#x2211;" horiz-adv-x="1259" d="M82 -14l428 694l-428 625v211h1116v-209h-846l404 -584v-88l-410 -653h852v-209h-1116v213z" />
<glyph unicode="&#x2212;" horiz-adv-x="1269" d="M123 580v200h1024v-200h-1024z" />
<glyph unicode="&#x2215;" horiz-adv-x="970" d="M0 -31l725 1495h246l-723 -1495h-248z" />
<glyph unicode="&#x2219;" horiz-adv-x="604" d="M156 680q0 145 145 145t145 -145t-145 -145t-145 145z" />
<glyph unicode="&#x221a;" horiz-adv-x="1468" d="M205 612v166h266l229 -565l285 1364h197l-326 -1577h-268l-250 612h-133z" />
<glyph unicode="&#x221f;" horiz-adv-x="1335" d="M205 0v1178h233v-990h856v-188h-1089z" />
<glyph unicode="&#x2229;" horiz-adv-x="1591" d="M205 0v553q0 158 35.5 286t106 224t184.5 148.5t264 52.5t264.5 -52.5t185 -148.5t106 -224t35.5 -286v-553h-233v545q0 263 -95 394.5t-263 131.5q-167 0 -262 -132t-95 -394v-545h-233z" />
<glyph unicode="&#x222b;" horiz-adv-x="1181" d="M164 -428l24 199q85 -29 136 -29q85 0 120 45t35 160v1218q0 381 367 381q65 0 172 -22l-25 -199q-85 29 -135 29q-86 0 -121 -45.5t-35 -159.5v-1219q0 -381 -366 -381q-60 0 -172 23z" />
<glyph unicode="&#x2248;" horiz-adv-x="1269" d="M123 297q0 362 303 362q126 0 236 -81q121 -89 174 -89q39 0 57 35t22 131h232q0 -362 -303 -362q-125 0 -236 82q-120 88 -174 88q-40 0 -58 -35t-22 -131h-231zM123 707q0 362 303 362q125 0 236 -82q120 -88 174 -88q39 0 57 35t22 131h232q0 -185 -78.5 -274 t-224.5 -89q-125 0 -236 82q-120 88 -174 88q-40 0 -58 -35t-22 -130h-231z" />
<glyph unicode="&#x2260;" horiz-adv-x="1269" d="M96 35l209 317h-182v201h315l168 254h-483v201h616l211 317h224l-211 -317h184v-201h-318l-167 -254h485v-201h-619l-209 -317h-223z" />
<glyph unicode="&#x2261;" horiz-adv-x="1269" d="M123 219v201h1024v-201h-1024zM123 580v200h1024v-200h-1024zM123 940v201h1024v-201h-1024z" />
<glyph unicode="&#x2264;" horiz-adv-x="1269" d="M123 53v201h1024v-201h-1024zM123 705v213l1024 399v-230l-739 -276l739 -276v-230z" />
<glyph unicode="&#x2265;" horiz-adv-x="1269" d="M123 53v201h1024v-201h-1024zM123 305v230l739 276l-739 276v230l1024 -399v-213z" />
<glyph unicode="&#x2302;" horiz-adv-x="1470" d="M205 0v672l530 596l531 -596v-672h-1061zM438 188h594v408l-297 338l-297 -338v-408z" />
<glyph unicode="&#x2310;" horiz-adv-x="1269" d="M133 326v596h1024v-177h-809v-419h-215z" />
<glyph unicode="&#x2320;" horiz-adv-x="1476" d="M631 0v342q0 391 51 692q75 424 365 424q91 0 145.5 -47t54.5 -121q0 -63 -37.5 -100t-103.5 -37q-69 0 -105 39t-36 102q0 9 4 21q-21 0 -36 -16.5t-26.5 -60.5t-18 -104.5t-10 -166.5t-5 -228t-1.5 -305v-434h-241z" />
<glyph unicode="&#x2321;" horiz-adv-x="1476" d="M256 756q0 63 37.5 100t103.5 37q69 0 105.5 -39t36.5 -102q0 -9 -4 -21q21 0 36 16t26 60.5t17.5 105t10.5 167t5 227.5t1 305v434h241v-342q0 -391 -51 -692q-75 -424 -364 -424q-91 0 -146 47t-55 121z" />
<glyph unicode="&#x25aa;" horiz-adv-x="937" d="M143 299v651h652v-651h-652z" />
<glyph unicode="&#x25ab;" horiz-adv-x="937" d="M143 299v651h652v-651h-652zM291 434h360v373h-360v-373z" />
<glyph unicode="&#x25ac;" horiz-adv-x="1875" d="M143 244v760h1590v-760h-1590z" />
<glyph unicode="&#x25ba;" horiz-adv-x="1288" d="M143 262v701l1104 -334z" />
<glyph unicode="&#x25c4;" horiz-adv-x="1288" d="M41 629l1104 334v-701z" />
<glyph unicode="&#x25ca;" horiz-adv-x="1163" d="M82 618l500 941l499 -941l-499 -940zM276 618l306 -583l305 583l-305 584z" />
<glyph unicode="&#x25e6;" horiz-adv-x="909" d="M102 614q0 146 103.5 249.5t249.5 103.5t249 -103.5t103 -249.5t-103 -249t-249 -103t-249.5 103t-103.5 249zM233 614q0 -92 65 -156.5t157 -64.5t156.5 64.5t64.5 156.5t-64.5 157t-156.5 65t-157 -65t-65 -157z" />
<glyph unicode="&#x25fc;" horiz-adv-x="1064" d="M0 0v1065h1065v-1065h-1065z" />
<glyph unicode="&#x2666;" horiz-adv-x="1310" d="M82 618l573 748l574 -748l-574 -745z" />
<glyph unicode="&#x266a;" horiz-adv-x="1214" d="M61 -86q0 73 55.5 139t139 104t168.5 38q64 0 113 -17l2 1399h71q0 -103 32.5 -187.5t80 -140.5t125.5 -123q64 -54 108 -101.5t81.5 -103.5t56 -119.5t18.5 -135.5q0 -133 -47 -253t-125 -247h-53q65 128 97 226t32 204q0 176 -107 299t-268 172v-954 q0 -153 -112.5 -252t-284.5 -99q-78 0 -130.5 40.5t-52.5 111.5z" />
<glyph unicode="&#xe00a;" horiz-adv-x="1335" d="M205 0v1178h233v-990h856v-188h-1089z" />
<glyph unicode="&#xf001;" horiz-adv-x="1275" d="M20 872v189h195v55q0 186 94 282.5t273 96.5q109 0 176 -20l-23 -195q-54 23 -125 23q-82 0 -121.5 -45.5t-39.5 -157.5v-39h276v-189h-276v-872h-234v872h-195zM866 1356q0 139 140 139q139 0 139 -139t-139 -139q-140 0 -140 139zM889 0v1061h233v-1061h-233z" />
<glyph unicode="&#xf002;" horiz-adv-x="1275" d="M20 872v189h195v55q0 186 94 282.5t273 96.5q109 0 176 -20l-23 -195q-54 23 -125 23q-82 0 -121.5 -45.5t-39.5 -157.5v-39h276v-189h-276v-872h-234v872h-195zM889 0v1495h233v-1495h-233z" />
<glyph unicode="&#xf506;" horiz-adv-x="1966" d="M98 1233l277 203h170v-955h-205v690l-139 -100zM391 -31l807 1495h197l-805 -1495h-199zM1237 776v176h635v-157l-342 -795h-225l337 776h-405z" />
<glyph unicode="&#xf507;" horiz-adv-x="1966" d="M72 481v154q160 132 299 289q121 139 121 245q0 48 -36.5 74.5t-97.5 26.5q-60 0 -127 -22.5t-116 -57.5l-13 190q120 70 271 70q150 0 238.5 -72.5t88.5 -210.5q0 -85 -36.5 -162.5t-124.5 -177.5q-60 -69 -177 -170h345v-176h-635zM469 -31l807 1495h197l-805 -1495 h-199zM1237 776v176h635v-157l-342 -795h-225l337 776h-405z" />
<glyph unicode="&#xf508;" horiz-adv-x="1966" d="M78 518l18 205q105 -78 246 -78q77 0 117.5 28.5t40.5 80.5q0 71 -76 103t-231 32v176q294 0 294 119q0 86 -137 86q-124 0 -237 -70l-19 189q113 61 273 61q154 0 241.5 -68t87.5 -186q0 -70 -37 -127t-110 -88q73 -30 116.5 -90t43.5 -137q0 -139 -97 -214t-264 -75 q-146 0 -270 53zM428 -31l807 1495h197l-805 -1495h-199zM1237 776v176h635v-157l-342 -795h-225l337 776h-405z" />
<glyph unicode="&#xf509;" horiz-adv-x="1966" d="M31 676v162l432 598h194v-584h109v-176h-109v-193h-204v193h-422zM250 852h203v281zM455 -31l807 1495h196l-805 -1495h-198zM1237 776v176h635v-157l-342 -795h-225l337 776h-405z" />
<glyph unicode="&#xf50a;" horiz-adv-x="1966" d="M98 520l17 199q100 -72 237 -72q84 0 130 41.5t46 112.5q0 69 -42.5 98t-141.5 29q-120 0 -213 -49v557h574v-176h-377v-164q36 8 82 8q145 0 235 -79t90 -228t-100 -239.5t-270 -90.5q-153 0 -267 53zM440 -31l807 1495h197l-805 -1495h-199zM1237 776v176h635v-157 l-342 -795h-225l337 776h-405z" />
<glyph unicode="&#xf50b;" horiz-adv-x="1966" d="M70 907q0 150 29.5 257.5t85.5 169.5t129.5 90t170.5 28q138 0 228 -55l-21 -197q-87 72 -203 72q-187 0 -202 -199q64 57 180 57q137 0 221 -91t84 -244q0 -148 -93.5 -238t-248.5 -90q-174 0 -267 113.5t-93 326.5zM283 829q0 -85 40 -133.5t107 -48.5q60 0 96.5 39 t36.5 105q0 77 -35 118t-96 41q-92 0 -145 -63q-4 -20 -4 -58zM457 -31l807 1495h196l-805 -1495h-198zM1237 776v176h635v-157l-342 -795h-225l337 776h-405z" />
<glyph unicode="&#xf50c;" horiz-adv-x="1966" d="M98 1233l277 203h170v-955h-205v690l-139 -100zM406 -31l806 1495h197l-805 -1495h-198zM1184 641q0 148 93.5 238t248.5 90q174 0 267 -114t93 -327q0 -150 -29.5 -257.5t-86 -169t-130 -89.5t-170.5 -28q-137 0 -227 55l21 197q87 -72 202 -72q188 0 203 198 q-64 -57 -180 -57q-137 0 -221 91.5t-84 244.5zM1393 645q0 -77 35 -118.5t96 -41.5q91 0 145 64q4 20 4 57q0 85 -40 133.5t-107 48.5q-60 0 -96.5 -38.5t-36.5 -104.5z" />
<glyph unicode="&#xf50d;" horiz-adv-x="1966" d="M72 481v154q160 132 299 289q121 139 121 245q0 48 -36.5 74.5t-97.5 26.5q-60 0 -127 -22.5t-116 -57.5l-13 190q120 70 271 70q150 0 238.5 -72.5t88.5 -210.5q0 -85 -36.5 -162.5t-124.5 -177.5q-60 -69 -177 -170h345v-176h-635zM463 -31l807 1495h196l-804 -1495 h-199zM1184 641q0 148 93.5 238t248.5 90q174 0 267 -114t93 -327q0 -150 -29.5 -257.5t-86 -169t-130 -89.5t-170.5 -28q-137 0 -227 55l21 197q87 -72 202 -72q188 0 203 198q-64 -57 -180 -57q-137 0 -221 91.5t-84 244.5zM1393 645q0 -77 35 -118.5t96 -41.5 q91 0 145 64q4 20 4 57q0 85 -40 133.5t-107 48.5q-60 0 -96.5 -38.5t-36.5 -104.5z" />
<glyph unicode="&#xf50e;" horiz-adv-x="1966" d="M78 518l18 205q105 -78 246 -78q77 0 117.5 28.5t40.5 80.5q0 71 -76 103t-231 32v176q294 0 294 119q0 86 -137 86q-124 0 -237 -70l-19 189q113 61 273 61q154 0 241.5 -68t87.5 -186q0 -70 -37 -127t-110 -88q73 -30 116.5 -90t43.5 -137q0 -139 -97 -214t-264 -75 q-146 0 -270 53zM446 -31l807 1495h197l-805 -1495h-199zM1184 641q0 148 93.5 238t248.5 90q174 0 267 -114t93 -327q0 -150 -29.5 -257.5t-86 -169t-130 -89.5t-170.5 -28q-137 0 -227 55l21 197q87 -72 202 -72q188 0 203 198q-64 -57 -180 -57q-137 0 -221 91.5 t-84 244.5zM1393 645q0 -77 35 -118.5t96 -41.5q91 0 145 64q4 20 4 57q0 85 -40 133.5t-107 48.5q-60 0 -96.5 -38.5t-36.5 -104.5z" />
<glyph unicode="&#xf50f;" horiz-adv-x="1966" d="M98 520l17 199q100 -72 237 -72q84 0 130 41.5t46 112.5q0 69 -42.5 98t-141.5 29q-120 0 -213 -49v557h574v-176h-377v-164q36 8 82 8q145 0 235 -79t90 -228t-100 -239.5t-270 -90.5q-153 0 -267 53zM455 -31l807 1495h196l-805 -1495h-198zM1184 641q0 148 93.5 238 t248.5 90q174 0 267 -114t93 -327q0 -150 -29.5 -257.5t-86 -169t-130 -89.5t-170.5 -28q-137 0 -227 55l21 197q87 -72 202 -72q188 0 203 198q-64 -57 -180 -57q-137 0 -221 91.5t-84 244.5zM1393 645q0 -77 35 -118.5t96 -41.5q91 0 145 64q4 20 4 57q0 85 -40 133.5 t-107 48.5q-60 0 -96.5 -38.5t-36.5 -104.5z" />
<glyph unicode="&#xf510;" horiz-adv-x="1966" d="M82 1260v176h635v-158l-342 -795h-225l337 777h-405zM352 -31l807 1495h197l-805 -1495h-199zM1184 641q0 148 93.5 238t248.5 90q174 0 267 -114t93 -327q0 -150 -29.5 -257.5t-86 -169t-130 -89.5t-170.5 -28q-137 0 -227 55l21 197q87 -72 202 -72q188 0 203 198 q-64 -57 -180 -57q-137 0 -221 91.5t-84 244.5zM1393 645q0 -77 35 -118.5t96 -41.5q91 0 145 64q4 20 4 57q0 85 -40 133.5t-107 48.5q-60 0 -96.5 -38.5t-36.5 -104.5z" />
<glyph unicode="&#xf511;" horiz-adv-x="1966" d="M66 752q0 70 38 134t109 101q-60 35 -92.5 88t-32.5 115q0 120 88 191t225 71q139 0 228.5 -72t89.5 -190q0 -62 -33 -114.5t-98 -86.5q166 -78 166 -237q0 -127 -95.5 -206t-248.5 -79q-154 0 -249 79t-95 206zM274 748q0 -42 37 -70.5t99 -28.5t99.5 28.5t37.5 70.5 q0 46 -41.5 85t-124.5 64q-107 -50 -107 -149zM295 1192q0 -77 121 -123q94 51 94 125q0 33 -29.5 55.5t-79.5 22.5q-49 0 -77.5 -23t-28.5 -57zM465 -31l807 1495h196l-804 -1495h-199zM1184 641q0 148 93.5 238t248.5 90q174 0 267 -114t93 -327q0 -150 -29.5 -257.5 t-86 -169t-130 -89.5t-170.5 -28q-137 0 -227 55l21 197q87 -72 202 -72q188 0 203 198q-64 -57 -180 -57q-137 0 -221 91.5t-84 244.5zM1393 645q0 -77 35 -118.5t96 -41.5q91 0 145 64q4 20 4 57q0 85 -40 133.5t-107 48.5q-60 0 -96.5 -38.5t-36.5 -104.5z" />
<glyph unicode="&#xf6c3;" d="M299 -207q0 123 129 123q69 0 101 -34t32 -111q0 -101 -48 -188.5t-138 -141.5l-64 98q79 57 82 133q-44 6 -69 38.5t-25 82.5z" />
<glyph unicode="&#xf800;" horiz-adv-x="1282" d="M102 717q0 219 59 384t182 261t298 96t298 -96t182 -261t59 -384t-59 -384t-182 -261.5t-298 -96.5t-298 96.5t-182 261.5t-59 384zM348 717q0 -261 75.5 -395t217.5 -134t217.5 134t75.5 395q0 260 -75.5 394t-217.5 134t-217.5 -134t-75.5 -394z" />
<glyph unicode="&#xf801;" horiz-adv-x="864" d="M10 1161l375 273h213v-1434h-242v1151l-219 -162z" />
<glyph unicode="&#xf802;" horiz-adv-x="1081" d="M51 0v197q303 261 459 434q100 111 152.5 213t52.5 207q0 95 -68.5 144.5t-183.5 49.5q-87 0 -178.5 -30t-165.5 -85l-17 232q68 43 171 69.5t206 26.5q216 0 349 -109.5t133 -308.5q0 -139 -56.5 -256t-183.5 -256q-122 -136 -326 -319h574v-209h-918z" />
<glyph unicode="&#xf803;" horiz-adv-x="1122" d="M102 41l21 240q148 -93 354 -93q287 0 287 199q0 128 -126 192t-353 64v209q222 0 340 57t118 162q0 174 -251 174q-198 0 -338 -90l-23 221q161 82 371 82q235 0 361 -98t126 -262q0 -261 -239 -350q119 -43 189.5 -139.5t70.5 -223.5q0 -188 -137 -299t-386 -111 q-226 0 -385 66z" />
<glyph unicode="&#xf804;" horiz-adv-x="1157" d="M51 295v211l660 928h245v-930h170v-209h-170v-295h-241v295h-664zM326 504h389v551z" />
<glyph unicode="&#xf805;" horiz-adv-x="1171" d="M154 43l20 244q146 -99 346 -99q146 0 224.5 75t78.5 206q0 118 -79.5 177t-219.5 59q-162 0 -317 -58v787h821v-209h-579v-324q61 14 133 14q220 0 353.5 -122.5t133.5 -343.5q0 -99 -35.5 -184.5t-101.5 -150.5t-169.5 -102t-232.5 -37q-234 0 -376 68z" />
<glyph unicode="&#xf806;" horiz-adv-x="1218" d="M102 698q0 195 43.5 342t124 237.5t189 135.5t243.5 45q191 0 332 -63l-20 -240q-129 90 -305 90q-331 0 -351 -391q131 94 308 94q93 0 176 -32.5t146.5 -92.5t100.5 -152t37 -204q0 -218 -135 -355t-346 -137q-256 0 -399.5 178t-143.5 545zM358 614q3 -424 287 -424 q106 0 171 73t65 200q0 129 -63.5 200.5t-178.5 71.5q-172 0 -281 -121z" />
<glyph unicode="&#xf807;" horiz-adv-x="989" d="M20 1225v209h918v-209l-520 -1225h-258l524 1225h-664z" />
<glyph unicode="&#xf808;" horiz-adv-x="1241" d="M102 385q0 120 68 216.5t192 158.5q-204 128 -204 315q0 163 122.5 273t342.5 110q209 0 334.5 -108.5t125.5 -268.5q0 -192 -225 -321q281 -148 281 -375q0 -188 -141 -299t-375 -111q-236 0 -378.5 111t-142.5 299zM348 379q0 -89 75.5 -140t199.5 -51q120 0 195 51 t75 140q0 78 -67.5 144t-225.5 130q-124 -45 -188 -118.5t-64 -155.5zM403 1090q0 -80 51.5 -134t180.5 -102q205 91 205 238q0 67 -60 110t-157 43q-101 0 -160.5 -43.5t-59.5 -111.5z" />
<glyph unicode="&#xf809;" horiz-adv-x="1218" d="M92 967q0 218 135 354.5t346 136.5q256 0 399.5 -178t143.5 -545q0 -195 -43.5 -342t-124 -237.5t-189 -135.5t-243.5 -45q-188 0 -332 64l21 240q130 -91 305 -91q330 0 350 392q-133 -95 -307 -95q-125 0 -228.5 55.5t-168 167t-64.5 259.5zM338 971q0 -129 63.5 -201 t178.5 -72q171 0 280 121q-1 215 -76.5 319.5t-210.5 104.5q-106 0 -170.5 -72.5t-64.5 -199.5z" />
<glyph unicode="&#xfb00;" horiz-adv-x="1431" d="M20 872v189h195v55q0 187 101 283t298 96q100 0 193 -27l-23 -192q-69 27 -155 27q-92 0 -136 -45t-44 -158v-39h460v55q0 186 94 282.5t273 96.5q109 0 176 -20l-22 -195q-54 23 -125 23q-82 0 -122 -45.5t-40 -157.5v-39h276v-189h-276v-872h-234v872h-460v-872h-234 v872h-195z" />
<glyph unicode="&#xfb01;" horiz-adv-x="1275" d="M20 872v189h195v55q0 186 94 282.5t273 96.5q109 0 176 -20l-23 -195q-54 23 -125 23q-82 0 -121.5 -45.5t-39.5 -157.5v-39h276v-189h-276v-872h-234v872h-195zM866 1356q0 139 140 139q139 0 139 -139t-139 -139q-140 0 -140 139zM889 0v1061h233v-1061h-233z" />
<glyph unicode="&#xfb02;" horiz-adv-x="1275" d="M20 872v189h195v55q0 186 94 282.5t273 96.5q109 0 176 -20l-23 -195q-54 23 -125 23q-82 0 -121.5 -45.5t-39.5 -157.5v-39h276v-189h-276v-872h-234v872h-195zM889 0v1495h233v-1495h-233z" />
<glyph unicode="&#xfb03;" horiz-adv-x="2000" d="M20 872v189h195v55q0 187 101 283t298 96q100 0 193 -27l-23 -192q-69 27 -155 27q-92 0 -136 -45t-44 -158v-39h460v55q0 186 94 282.5t273 96.5q109 0 176 -20l-22 -195q-54 23 -125 23q-82 0 -122 -45.5t-40 -157.5v-39h276v-189h-276v-872h-234v872h-460v-872h-234 v872h-195zM1591 1356q0 139 140 139q139 0 139 -139t-139 -139q-140 0 -140 139zM1614 0v1061h233v-1061h-233z" />
<glyph unicode="&#xfb04;" horiz-adv-x="2000" d="M20 872v189h195v55q0 187 101 283t298 96q100 0 193 -27l-23 -192q-69 27 -155 27q-92 0 -136 -45t-44 -158v-39h460v55q0 186 94 282.5t273 96.5q109 0 176 -20l-22 -195q-54 23 -125 23q-82 0 -122 -45.5t-40 -157.5v-39h276v-189h-276v-872h-234v872h-460v-872h-234 v872h-195zM1614 0v1495h233v-1495h-233z" />
<glyph horiz-adv-x="1024" d="M102 0v1536h820v-1536h-820zM246 133h532v1270h-532v-1270z" />
<glyph d="M53 1147l269 348h217l268 -348h-223l-154 172l-154 -172h-223z" />
<glyph d="M291 1321q0 139 139 139t139 -139t-139 -139t-139 139z" />
<glyph d="M53 1495h223l154 -172l154 172h223l-268 -348h-217z" />
<glyph d="M152 1444v51h254l253 -348h-223z" />
<glyph d="M88 1487h207q9 -164 135 -164t135 164h207q-3 -112 -50 -189t-121.5 -112t-170.5 -35t-170.5 35t-121.5 112t-50 189z" />
<glyph d="M299 -207q0 123 129 123q69 0 101 -34t32 -111q0 -101 -48 -188.5t-138 -141.5l-64 98q79 57 82 133q-44 6 -69 38.5t-25 82.5z" />
<glyph d="M94 1321q0 129 129 129t129 -129t-129 -129t-129 129zM508 1321q0 129 129 129t129 -129t-129 -129t-129 129z" />
<glyph d="M121 1227v190h618v-190h-618z" />
<glyph d="M221 -322q47 -20 125 -20q96 0 96 66q0 86 -204 86l100 190h213l-66 -119q67 -12 111.5 -58.5t44.5 -105.5q0 -101 -68 -152.5t-221 -51.5q-74 0 -131 14v151z" />
<glyph d="M201 1321q0 93 65.5 156t163.5 63t163.5 -63t65.5 -156t-65.5 -156t-163.5 -63t-163.5 63t-65.5 156zM358 1321q0 -34 21 -54t51 -20t51 20t21 54t-21 54t-51 20t-51 -20t-21 -54z" />
<glyph horiz-adv-x="1751" d="M41 1055q98 76 113 178q-103 18 -103 141q0 146 146 146q74 0 109.5 -37.5t35.5 -122.5q0 -136 -63 -240t-175 -162zM444 0v1434h263l647 -1088v1088h233v-1434h-262l-647 1087v-1087h-234z" />
<glyph d="M53 1495h223l154 -172l154 172h223l-268 -348h-217z" />
<glyph horiz-adv-x="1566" d="M164 0v1434h242v-637l546 637h291l-577 -672l669 -762h-313l-616 719v-719h-242zM1225 1118q0 137 63 240.5t174 161.5l64 -97q-98 -76 -113 -178q103 -18 103 -141q0 -146 -146 -146q-74 0 -109.5 37.5t-35.5 122.5z" />
<glyph d="M285 1135q0 136 63 239.5t174 161.5l64 -96q-98 -76 -113 -178q102 -18 102 -142q0 -145 -145 -145q-74 0 -109.5 37.5t-35.5 122.5z" />
<glyph horiz-adv-x="540" d="M131 1356q0 139 139 139q140 0 140 -139t-140 -139q-139 0 -139 139zM154 0v1061h233v-1061h-233z" />
<glyph d="M250 -248q0 71 36 137t93 111h225q-131 -120 -131 -209q0 -59 72 -59q53 0 88 18v-184q-59 -15 -139 -15q-119 0 -181.5 53.5t-62.5 147.5z" />
<glyph d="M88 1180q0 288 205 288q79 0 145 -55q62 -49 92 -49q20 0 28.5 20t8.5 80h203q0 -288 -205 -288q-79 0 -145 55q-62 49 -92 49q-20 0 -28.5 -20t-8.5 -80h-203z" />
<glyph d="M-33 1147l254 348h254v-51l-285 -297h-223zM324 1147l254 348h253v-51l-284 -297h-223z" />
<glyph d="M201 1147l254 348h254v-51l-285 -297h-223z" />
</font>
</defs>
</svg>
