<?xml version="1.0" standalone="no"?>
<!DOCTYPE svg PUBLIC "-//W3C//DTD SVG 1.1//EN" "http://www.w3.org/Graphics/SVG/1.1/DTD/svg11.dtd" >
<svg xmlns="http://www.w3.org/2000/svg">
<metadata></metadata>
<defs>
<font id="core_sans_n_37_cn_lightRg" horiz-adv-x="2048" >
<font-face units-per-em="2048" ascent="1638" descent="-410" />
<missing-glyph horiz-adv-x="456" />
<glyph unicode="ff" horiz-adv-x="1032" d="M18 958v103h166v104q0 172 64.5 251t218.5 79q80 0 133 -20l-10 -105q-47 21 -111 21q-96 0 -132 -47.5t-36 -182.5v-100h359v104q0 169 63.5 249.5t198.5 80.5q66 0 112 -16l-10 -105q-43 17 -90 17q-76 0 -111.5 -49t-35.5 -181v-100h225v-103h-225v-958h-127v958h-359 v-958h-127v958h-166z" />
<glyph unicode="fi" horiz-adv-x="921" d="M20 958v103h166v104q0 169 64 249.5t199 80.5q66 0 112 -16l-10 -105q-42 17 -90 17q-77 0 -112.5 -49t-35.5 -181v-100h226v-103h-226v-958h-127v958h-166zM655 1378q0 63 19 90t61 27t61 -27t19 -90t-19 -89.5t-61 -26.5t-61 26.5t-19 89.5zM672 0v1061h127v-1061h-127 z" />
<glyph unicode="fl" horiz-adv-x="921" d="M20 958v103h166v104q0 169 64 249.5t199 80.5q66 0 112 -16l-10 -105q-42 17 -90 17q-77 0 -112.5 -49t-35.5 -181v-100h226v-103h-226v-958h-127v958h-166zM672 0v1495h127v-1495h-127z" />
<glyph unicode="ffi" horiz-adv-x="1404" d="M18 958v103h166v104q0 172 64.5 251t218.5 79q80 0 133 -20l-10 -105q-47 21 -111 21q-96 0 -132 -47.5t-36 -182.5v-100h359v104q0 169 63.5 249.5t198.5 80.5q66 0 112 -16l-10 -105q-43 17 -90 17q-76 0 -111.5 -49t-35.5 -181v-100h225v-103h-225v-958h-127v958h-359 v-958h-127v958h-166zM1139 1378q0 63 19 90t61 27t60.5 -26.5t18.5 -90.5q0 -63 -18.5 -89.5t-60.5 -26.5t-61 26.5t-19 89.5zM1155 0v1061h127v-1061h-127z" />
<glyph unicode="ffl" horiz-adv-x="1404" d="M18 958v103h166v104q0 172 64.5 251t218.5 79q80 0 133 -20l-10 -105q-47 21 -111 21q-96 0 -132 -47.5t-36 -182.5v-100h359v104q0 169 63.5 249.5t198.5 80.5q66 0 112 -16l-10 -105q-43 17 -90 17q-76 0 -111.5 -49t-35.5 -181v-100h225v-103h-225v-958h-127v958h-359 v-958h-127v958h-166zM1155 0v1495h127v-1495h-127z" />
<glyph unicode="&#xd;" horiz-adv-x="268" />
<glyph unicode=" "  horiz-adv-x="456" />
<glyph unicode="&#x09;" horiz-adv-x="456" />
<glyph unicode="&#xa0;" horiz-adv-x="456" />
<glyph unicode="!" horiz-adv-x="466" d="M154 88q0 64 18.5 90.5t60.5 26.5t61 -27t19 -90t-19 -90t-61 -27t-60.5 26.5t-18.5 90.5zM166 1018v416h135v-416l-20 -660h-95z" />
<glyph unicode="&#x22;" horiz-adv-x="735" d="M174 1434h135v-113l-18 -455h-107zM424 1434h137v-113l-20 -455h-107z" />
<glyph unicode="#" horiz-adv-x="1056" d="M51 379v113h182l62 473h-182v112h196l47 357h123l-47 -357h283l47 357h123l-47 -357h168v-112h-183l-59 -473h180v-113h-194l-50 -379h-125l50 379h-281l-49 -379h-125l49 379h-168zM358 492h281l61 473h-282z" />
<glyph unicode="$" horiz-adv-x="843" d="M82 1102q0 141 79 234t218 116v139h98v-133q135 -3 232 -51l-9 -125q-89 58 -223 61v-557q155 -72 225 -171t70 -248q0 -157 -76.5 -256t-218.5 -125v-140h-98v129h-10q-157 0 -281 62l10 131q118 -78 273 -78h8v602q-156 67 -226.5 166t-70.5 244zM215 1104 q0 -92 38.5 -155.5t125.5 -114.5v497q-78 -23 -121 -82t-43 -145zM477 104q78 26 120 93t42 165q0 95 -38.5 162.5t-123.5 118.5v-539z" />
<glyph unicode="%" horiz-adv-x="1413" d="M143 1077q0 177 67 274t185 97t185 -97t67 -274t-67 -273.5t-185 -96.5t-185 96.5t-67 273.5zM266 1077q0 -266 129 -266t129 266t-129 266t-129 -266zM295 0l711 1434h110l-708 -1434h-113zM766 354q0 177 67 274t185 97t185 -97t67 -274t-67 -273.5t-185 -96.5 t-185 96.5t-67 273.5zM889 354q0 -266 129 -266t129 266q0 267 -129 267t-129 -267z" />
<glyph unicode="&#x26;" horiz-adv-x="1017" d="M61 352q0 254 240 420l-16 23q-76 96 -109 179.5t-33 170.5q0 148 78.5 230.5t208.5 82.5q129 0 206 -85t77 -240q0 -227 -238 -388l258 -333q36 141 41 358h125q-4 -297 -72 -483l222 -287h-154l-127 164q-120 -189 -352 -189q-158 0 -256.5 99t-98.5 278zM190 348 q0 -116 62 -188t166 -72q176 0 266 186l-313 408q-181 -128 -181 -334zM276 1143q0 -65 24.5 -131.5t86.5 -151.5l16 -22q99 67 138 141t39 160q0 101 -39 154t-113 53q-72 0 -112 -52.5t-40 -150.5z" />
<glyph unicode="'" horiz-adv-x="483" d="M174 1434h135v-113l-20 -455h-105z" />
<glyph unicode="(" horiz-adv-x="591" d="M184 635q0 242 69.5 475.5t192.5 425.5h105q-246 -415 -246 -901t246 -901h-105q-123 192 -192.5 425.5t-69.5 475.5z" />
<glyph unicode=")" horiz-adv-x="591" d="M41 -266q246 415 246 901t-246 901h104q123 -193 193 -426t70 -475t-70 -475t-193 -426h-104z" />
<glyph unicode="*" horiz-adv-x="1028" d="M102 516l304 164l-304 162l66 112l293 -182l-12 344h131l-13 -344l293 182l66 -112l-303 -162l303 -164l-66 -113l-293 183l13 -342h-131l12 342l-293 -183z" />
<glyph unicode="+" horiz-adv-x="1085" d="M82 623v114h395v437h131v-437h396v-114h-396v-437h-131v437h-395z" />
<glyph unicode="," horiz-adv-x="368" d="M80 -188q78 84 78 161q-29 11 -41.5 37t-12.5 78q0 63 19 90t61 27t61 -27.5t19 -95.5q0 -110 -33 -190.5t-108 -145.5z" />
<glyph unicode="-" horiz-adv-x="729" d="M102 618v123h525v-123h-525z" />
<glyph unicode="." horiz-adv-x="368" d="M104 90q0 63 19 89t61 26t61 -26t19 -89t-19 -89t-61 -26t-61 26t-19 89z" />
<glyph unicode="/" horiz-adv-x="724" d="M-20 -225l638 1757h127l-639 -1757h-126z" />
<glyph unicode="0" horiz-adv-x="921" d="M68 717q0 378 98.5 559.5t294.5 181.5t294.5 -181.5t98.5 -559.5t-98.5 -560t-294.5 -182t-294.5 182t-98.5 560zM201 717q0 -336 64 -481.5t196 -145.5t196 145.5t64 481.5q0 227 -30 367t-86.5 199.5t-143.5 59.5t-143.5 -59.5t-86.5 -199.5t-30 -367z" />
<glyph unicode="1" horiz-adv-x="921" d="M166 1147l287 287h116v-1434h-131v1266l-202 -203z" />
<glyph unicode="2" horiz-adv-x="921" d="M106 0v102q90 102 191 240.5t180 267.5q162 261 162 457q0 132 -67 204t-181 72q-138 0 -239 -69l-7 121q116 63 258 63q172 0 270.5 -99t98.5 -286q0 -125 -44.5 -249t-137.5 -275q-156 -247 -316 -436h502v-113h-670z" />
<glyph unicode="3" horiz-adv-x="921" d="M100 41l11 125q110 -76 260 -76q129 0 199.5 77t70.5 200q0 152 -102 235.5t-293 91.5v113q173 3 276 81t103 218q0 106 -60.5 171.5t-183.5 65.5q-139 0 -248 -67l-10 121q113 61 270 61q177 0 271 -92t94 -246q0 -149 -78 -242t-213 -128q147 -37 226 -135.5t79 -247.5 q0 -176 -105.5 -284t-295.5 -108q-71 0 -145 18t-126 48z" />
<glyph unicode="4" horiz-adv-x="921" d="M57 326v116l525 992h139v-996h137v-112h-137v-326h-131v326h-533zM184 438h406v768z" />
<glyph unicode="5" horiz-adv-x="921" d="M135 33l10 127q97 -70 238 -70q134 0 213.5 89t79.5 253q0 157 -71 243.5t-208 86.5q-120 0 -223 -53v725h602v-113h-471v-473q63 26 139 26q162 0 263.5 -116t101.5 -326q0 -212 -108.5 -334.5t-311.5 -122.5q-149 0 -254 58z" />
<glyph unicode="6" horiz-adv-x="921" d="M92 680q0 204 33 355t95.5 243t147.5 136t193 44q119 0 211 -37l-8 -123q-86 45 -203 45q-70 0 -125.5 -28t-101 -89.5t-73 -170.5t-34.5 -262q53 62 125 94.5t150 32.5q164 0 258 -123.5t94 -347.5t-98 -349t-262 -125q-193 0 -297.5 173.5t-104.5 531.5zM225 645 q2 -113 16 -208t44 -175.5t82.5 -126t124.5 -45.5q105 0 167 97.5t62 258.5q0 171 -60 265t-174 94q-159 0 -262 -160z" />
<glyph unicode="7" horiz-adv-x="921" d="M100 1321v113h693v-123l-404 -1311h-141l407 1321h-555z" />
<glyph unicode="8" horiz-adv-x="921" d="M76 367q0 253 262 387q-217 136 -217 352q0 160 92 256t246 96q155 0 248.5 -94.5t93.5 -253.5q0 -124 -61 -213.5t-165 -144.5q66 -38 111.5 -72.5t84 -80.5t57 -105t18.5 -132q0 -180 -107 -283.5t-278 -103.5q-172 0 -278.5 103.5t-106.5 288.5zM207 365 q0 -128 70.5 -201.5t183.5 -73.5q112 0 183 73.5t71 196.5q0 49 -14 91.5t-36 74.5t-59 63t-73.5 54t-88.5 51q-111 -48 -174 -133.5t-63 -195.5zM254 1110q0 -106 56 -173.5t161 -127.5q199 92 199 303q0 107 -57 169t-154 62q-92 0 -148.5 -63.5t-56.5 -169.5z" />
<glyph unicode="9" horiz-adv-x="921" d="M68 985q0 224 98 348.5t262 124.5q193 0 297 -173t104 -531q0 -204 -33 -355t-95.5 -243t-147.5 -136.5t-193 -44.5q-118 0 -210 37l8 123q86 -45 202 -45q70 0 125 27.5t100.5 89.5t73.5 170.5t35 261.5q-113 -125 -274 -125q-164 0 -258 123.5t-94 347.5zM201 987 q0 -171 59.5 -264.5t173.5 -93.5q160 0 262 159q-2 113 -16 208t-44 175.5t-82.5 126t-123.5 45.5q-105 0 -167 -97.5t-62 -258.5z" />
<glyph unicode=":" horiz-adv-x="368" d="M104 90q0 63 19 89t61 26t61 -26t19 -89t-19 -89t-61 -26t-61 26t-19 89zM104 971q0 63 19 88.5t61 25.5t61 -25.5t19 -88.5t-19 -89t-61 -26t-61 26t-19 89z" />
<glyph unicode=";" horiz-adv-x="368" d="M80 -188q78 84 78 161q-29 11 -41.5 37t-12.5 78q0 63 19 90t61 27t61 -27.5t19 -95.5q0 -110 -33 -190.5t-108 -145.5zM104 971q0 63 19 88.5t61 25.5t61 -25.5t19 -88.5t-19 -89t-61 -26t-61 26t-19 89z" />
<glyph unicode="&#x3c;" horiz-adv-x="1085" d="M82 623v114l922 457v-121l-799 -393l799 -393v-121z" />
<glyph unicode="=" horiz-adv-x="1085" d="M82 397v115h922v-115h-922zM82 848v115h922v-115h-922z" />
<glyph unicode="&#x3e;" horiz-adv-x="1085" d="M82 166v121l799 393l-799 393v121l922 -457v-114z" />
<glyph unicode="?" horiz-adv-x="835" d="M82 1391q114 67 264 67q174 0 270.5 -91.5t96.5 -252.5q0 -103 -46 -197.5t-147 -193.5q-60 -58 -82 -129t-22 -186v-50h-131v56q0 138 33 230t114 169q82 77 115 148.5t33 156.5q0 105 -63 165t-181 60q-141 0 -244 -77zM268 88q0 63 19 90t61 27t61 -27t19 -90t-19 -90 t-61 -27t-61 27t-19 90z" />
<glyph unicode="@" horiz-adv-x="1499" d="M72 561q0 273 86 477.5t237.5 312t347.5 107.5q305 0 494.5 -230.5t189.5 -623.5q0 -220 -81 -362t-216 -142q-68 0 -115.5 48.5t-62.5 132.5q-112 -168 -299 -168q-128 0 -202 95t-74 253q0 124 35.5 229.5t94.5 176t135 110t157 39.5q191 0 297 -185l-62 -440 q1 -89 29.5 -141.5t71.5 -52.5q82 0 131 117t49 290q0 340 -154.5 543t-417.5 203q-252 0 -405.5 -213t-153.5 -576q0 -357 161.5 -570.5t422.5 -213.5q230 0 377 119l39 -107q-164 -121 -416 -121q-206 0 -364 109.5t-245 313t-87 470.5zM498 469q0 -121 44 -186.5 t122 -65.5q157 0 256 186l51 410q-62 100 -174 100q-121 0 -210 -128t-89 -316z" />
<glyph unicode="A" horiz-adv-x="978" d="M10 0l398 1434h163l398 -1434h-138l-106 393h-471l-107 -393h-137zM283 506h413l-207 784z" />
<glyph unicode="B" horiz-adv-x="995" d="M143 0v1434h363q173 0 268.5 -100.5t95.5 -272.5q0 -109 -43.5 -188.5t-121.5 -118.5q105 -39 162 -132.5t57 -220.5q0 -196 -104.5 -298.5t-301.5 -102.5h-375zM274 113h234q140 0 211.5 74t71.5 212q0 155 -78 221t-236 66h-203v-573zM274 799h256q99 0 153 70t54 188 q0 124 -63 194t-178 70h-222v-522z" />
<glyph unicode="C" horiz-adv-x="940" d="M72 717q0 338 154 539.5t423 201.5q141 0 230 -47l-9 -119q-91 51 -215 51q-209 0 -329.5 -167t-120.5 -459q0 -293 121 -460t331 -167q137 0 222 49l10 -119q-91 -45 -234 -45q-271 0 -427 202t-156 540z" />
<glyph unicode="D" horiz-adv-x="1050" d="M143 0v1434h267q287 0 428 -175t141 -542q0 -369 -141 -543t-428 -174h-267zM274 113h136q231 0 333.5 144t102.5 460q0 315 -102.5 459.5t-333.5 144.5h-136v-1208z" />
<glyph unicode="E" horiz-adv-x="892" d="M143 0v1434h674v-113h-543v-526h506v-113h-506v-569h557v-113h-688z" />
<glyph unicode="F" horiz-adv-x="847" d="M143 0v1434h674v-113h-543v-520h506v-113h-506v-688h-131z" />
<glyph unicode="G" horiz-adv-x="1107" d="M72 717q0 343 158 542t425 199q191 0 306 -74l-9 -122q-117 81 -295 81q-208 0 -330 -167t-122 -459t123 -459.5t338 -167.5q128 0 192 37v524h-317v113h444v-713q-123 -76 -323 -76q-271 0 -430.5 197.5t-159.5 544.5z" />
<glyph unicode="H" horiz-adv-x="1105" d="M143 0v1434h131v-613h557v613h132v-1434h-132v709h-557v-709h-131z" />
<glyph unicode="I" horiz-adv-x="438" d="M154 0v1434h131v-1434h-131z" />
<glyph unicode="J" horiz-adv-x="696" d="M10 18l10 119q81 -47 187 -47q120 0 167.5 80.5t47.5 294.5v969h131v-973q0 -266 -76 -376t-264 -110q-118 0 -203 43z" />
<glyph unicode="K" horiz-adv-x="929" d="M143 0v1434h131v-652l461 652h148l-477 -670l544 -764h-155l-521 739v-739h-131z" />
<glyph unicode="L" horiz-adv-x="880" d="M143 0v1434h131v-1321h586v-113h-717z" />
<glyph unicode="M" horiz-adv-x="1323" d="M143 0v1434h199l320 -799l319 799h199v-1434h-127v1292l-316 -805h-151l-316 805v-1292h-127z" />
<glyph unicode="N" horiz-adv-x="1112" d="M143 0v1434h187l512 -1256v1256h127v-1434h-187l-512 1255v-1255h-127z" />
<glyph unicode="O" horiz-adv-x="1085" d="M72 717q0 355 120.5 548t350.5 193t350.5 -193t120.5 -548q0 -357 -120 -549.5t-351 -192.5t-351 192.5t-120 549.5zM205 717q0 -627 338 -627t338 627q0 626 -338 626t-338 -626z" />
<glyph unicode="P" horiz-adv-x="927" d="M143 0v1434h306q194 0 302.5 -112.5t108.5 -326.5q0 -213 -108.5 -325.5t-302.5 -112.5h-175v-557h-131zM274 670h170q283 0 283 325q0 326 -283 326h-170v-651z" />
<glyph unicode="Q" horiz-adv-x="1085" d="M72 717q0 355 120.5 548t350.5 193t350.5 -193t120.5 -548q0 -326 -101.5 -516t-296.5 -219q4 -92 57.5 -142.5t139.5 -50.5q78 0 141 29l13 -105q-70 -26 -158 -26q-130 0 -213 72t-100 218q-209 20 -316.5 211t-107.5 529zM205 717q0 -627 338 -627t338 627 q0 626 -338 626t-338 -626z" />
<glyph unicode="R" horiz-adv-x="960" d="M143 0v1434h342q188 0 296 -108.5t108 -301.5q0 -146 -63.5 -245.5t-178.5 -139.5l303 -639h-139l-289 614h-248v-614h-131zM274 727h207q134 0 204.5 77t70.5 220t-70.5 220t-204.5 77h-207v-594z" />
<glyph unicode="S" horiz-adv-x="843" d="M82 1102q0 163 102.5 259.5t278.5 96.5q144 0 246 -51l-9 -125q-89 61 -227 61q-122 0 -190 -64t-68 -175t58 -182t190 -129q162 -72 235.5 -173t73.5 -253q0 -185 -105 -288.5t-298 -103.5q-157 0 -281 62l10 131q118 -78 273 -78q129 0 198.5 72t69.5 200 q0 118 -59 194t-191 132q-161 67 -234 167t-73 247z" />
<glyph unicode="T" horiz-adv-x="827" d="M10 1321v113h807v-113h-338v-1321h-131v1321h-338z" />
<glyph unicode="U" horiz-adv-x="1126" d="M143 494v940h131v-940q0 -213 72 -308.5t217 -95.5t217 95.5t72 308.5v940h131v-940q0 -519 -420 -519t-420 519z" />
<glyph unicode="V" horiz-adv-x="1021" d="M31 1434h137l342 -1297l344 1297h137l-395 -1434h-170z" />
<glyph unicode="W" horiz-adv-x="1495" d="M31 1434h135l268 -1297l230 1297h167l230 -1297l268 1297h135l-309 -1434h-192l-215 1221l-216 -1221h-192z" />
<glyph unicode="X" horiz-adv-x="991" d="M20 0l404 725l-393 709h143l322 -580l321 580h144l-394 -709l404 -725h-144l-331 596l-332 -596h-144z" />
<glyph unicode="Y" horiz-adv-x="995" d="M31 1434h137l330 -727l329 727h138l-402 -865v-569h-131v569z" />
<glyph unicode="Z" horiz-adv-x="860" d="M51 0v117l594 1204h-571v113h719v-117l-594 -1204h610v-113h-758z" />
<glyph unicode="[" horiz-adv-x="684" d="M215 -266v1802h418v-113h-293v-1577h293v-112h-418z" />
<glyph unicode="\" horiz-adv-x="724" d="M-20 1532h126l639 -1757h-127z" />
<glyph unicode="]" horiz-adv-x="684" d="M51 -154h293v1577h-293v113h418v-1802h-418v112z" />
<glyph unicode="^" horiz-adv-x="1085" d="M70 756l393 678h160l393 -678h-142l-331 567l-332 -567h-141z" />
<glyph unicode="_" horiz-adv-x="788" d="M0 -227h788v-103h-788v103z" />
<glyph unicode="`" horiz-adv-x="655" d="M135 1466v29h135l207 -332h-119z" />
<glyph unicode="a" horiz-adv-x="827" d="M51 303q0 162 91.5 250t263.5 88h186v86q0 141 -46.5 197.5t-158.5 56.5q-131 0 -250 -66l-10 107q123 63 268 63q167 0 245.5 -83.5t78.5 -266.5v-735h-127v82q-85 -107 -250 -107q-129 0 -210 85t-81 243zM178 305q0 -112 51 -168.5t142 -56.5q141 0 221 121v338h-182 q-232 0 -232 -234z" />
<glyph unicode="b" horiz-adv-x="874" d="M113 0v1495h127v-516q89 106 223 106q169 0 259.5 -141t90.5 -414t-90.5 -414t-259.5 -141q-133 0 -223 107v-82h-127zM240 201q36 -56 87.5 -88.5t106.5 -32.5q250 0 250 450q0 451 -250 451q-55 0 -106.5 -32.5t-87.5 -88.5v-659z" />
<glyph unicode="c" horiz-adv-x="753" d="M61 530q0 265 116.5 410t320.5 145q108 0 196 -43l-10 -106q-77 45 -176 45q-151 0 -234 -114.5t-84 -336.5q1 -227 85.5 -338.5t242.5 -111.5q102 0 174 45l10 -107q-79 -43 -196 -43q-212 0 -328.5 144t-116.5 411z" />
<glyph unicode="d" horiz-adv-x="874" d="M61 530q0 273 91 414t260 141q134 0 223 -106v516h127v-1495h-127v82q-90 -107 -223 -107q-169 0 -260 141t-91 414zM190 530q0 -450 250 -450q55 0 107.5 32.5t87.5 88.5v659q-35 56 -87.5 88.5t-107.5 32.5q-250 0 -250 -451z" />
<glyph unicode="e" horiz-adv-x="827" d="M61 535q0 272 92.5 411t264.5 139q174 0 266 -138t92 -402q0 -26 -4 -62h-579q9 -403 305 -403q116 0 204 57l11 -108q-91 -54 -224 -54q-209 0 -318.5 144.5t-109.5 415.5zM190 586h455q-3 395 -227 395q-113 0 -169 -98t-59 -297z" />
<glyph unicode="f" horiz-adv-x="548" d="M20 958v103h166v104q0 169 64 249.5t199 80.5q66 0 112 -16l-10 -105q-42 17 -90 17q-77 0 -112.5 -49t-35.5 -181v-100h226v-103h-226v-958h-127v958h-166z" />
<glyph unicode="g" horiz-adv-x="874" d="M70 530q0 273 90.5 414t259.5 141q134 0 223 -106v82h127v-1024q0 -235 -91 -341t-288 -106q-125 0 -233 48l6 122q99 -57 223 -57q132 0 192.5 73.5t63.5 233.5v72q-90 -107 -223 -107q-169 0 -259.5 141t-90.5 414zM199 530q0 -450 250 -450q55 0 106.5 32.5t87.5 88.5 v659q-36 56 -87.5 88.5t-106.5 32.5q-250 0 -250 -451z" />
<glyph unicode="h" horiz-adv-x="884" d="M113 0v1495h127v-516q41 50 104 78t135 28q148 0 225.5 -102t77.5 -307v-676h-127v616q0 196 -46.5 280.5t-157.5 84.5q-139 0 -211 -121v-860h-127z" />
<glyph unicode="i" horiz-adv-x="372" d="M106 1378q0 63 19 90t61 27t61 -27t19 -90t-19 -89.5t-61 -26.5t-61 26.5t-19 89.5zM123 0v1061h127v-1061h-127z" />
<glyph unicode="j" horiz-adv-x="348" d="M-113 -391l9 106q36 -20 84 -20q64 0 96.5 38.5t32.5 127.5v1200h127v-1184q0 -150 -58.5 -218.5t-181.5 -68.5q-57 0 -109 19zM92 1378q0 63 19 90t61 27t61 -27t19 -90t-19 -89.5t-61 -26.5t-61 26.5t-19 89.5z" />
<glyph unicode="k" horiz-adv-x="774" d="M104 0v1495h127v-877l357 443h151l-379 -467l414 -594h-151l-392 567v-567h-127z" />
<glyph unicode="l" horiz-adv-x="372" d="M123 0v1495h127v-1495h-127z" />
<glyph unicode="m" horiz-adv-x="1339" d="M113 0v1061h127v-82q92 106 227 106q170 0 233 -145q108 145 265 145q272 0 272 -364v-721h-127v717q0 150 -43.5 207t-130.5 57q-58 0 -116.5 -37.5t-90.5 -97.5q10 -56 10 -125v-721h-127v717q0 150 -43.5 207t-130.5 57q-58 0 -111.5 -33t-86.5 -88v-860h-127z" />
<glyph unicode="n" horiz-adv-x="884" d="M113 0v1061h127v-82q41 50 104 78t135 28q148 0 225.5 -102t77.5 -307v-676h-127v616q0 196 -46.5 280.5t-157.5 84.5q-139 0 -211 -121v-860h-127z" />
<glyph unicode="o" horiz-adv-x="880" d="M61 530q0 275 101.5 415t277.5 140t277.5 -140t101.5 -415t-101.5 -415t-277.5 -140t-277.5 140t-101.5 415zM190 530q0 -229 66 -339.5t184 -110.5t184 110.5t66 339.5t-66.5 340t-183.5 111t-183.5 -111t-66.5 -340z" />
<glyph unicode="p" horiz-adv-x="874" d="M113 -395v1456h127v-82q89 106 223 106q169 0 259.5 -141t90.5 -414t-90.5 -414t-259.5 -141q-133 0 -223 107v-477h-127zM240 201q36 -56 87.5 -88.5t106.5 -32.5q250 0 250 450q0 451 -250 451q-55 0 -106.5 -32.5t-87.5 -88.5v-659z" />
<glyph unicode="q" horiz-adv-x="874" d="M61 530q0 273 91 414t260 141q134 0 223 -106v82h127v-1456h-127v477q-90 -107 -223 -107q-169 0 -260 141t-91 414zM190 530q0 -450 250 -450q55 0 107.5 32.5t87.5 88.5v659q-35 56 -87.5 88.5t-107.5 32.5q-250 0 -250 -451z" />
<glyph unicode="r" horiz-adv-x="565" d="M113 0v1061h127v-127q36 70 94.5 110.5t136.5 40.5q50 0 94 -14l-12 -108q-31 14 -76 14q-87 0 -144.5 -54t-92.5 -169v-754h-127z" />
<glyph unicode="s" horiz-adv-x="706" d="M72 37l8 115q106 -72 227 -72q99 0 149 49t50 137q0 85 -45.5 139t-157.5 101q-227 94 -227 299q0 136 81 208t224 72q118 0 211 -41l-10 -108q-80 45 -189 45q-93 0 -140.5 -45.5t-47.5 -124.5q0 -73 42.5 -124.5t155.5 -100.5q122 -53 177 -130t55 -184 q0 -145 -82.5 -221t-235.5 -76q-136 0 -245 62z" />
<glyph unicode="t" horiz-adv-x="593" d="M20 958v103h144v317h127v-317h252v-103h-252v-655q0 -122 32.5 -172.5t108.5 -50.5q51 0 94 16l13 -104q-55 -17 -119 -17q-132 0 -194 79.5t-62 254.5v649h-144z" />
<glyph unicode="u" horiz-adv-x="884" d="M102 385v676h127v-617q0 -195 46.5 -279.5t158.5 -84.5q139 0 211 121v860h127v-1061h-127v82q-50 -56 -105.5 -81.5t-133.5 -25.5q-148 0 -226 102.5t-78 307.5z" />
<glyph unicode="v" horiz-adv-x="798" d="M20 1061h134l245 -924l246 924h133l-293 -1061h-172z" />
<glyph unicode="w" horiz-adv-x="1212" d="M25 1061h129l196 -916l178 916h156l178 -916l197 916h129l-242 -1061h-166l-174 883l-174 -883h-166z" />
<glyph unicode="x" horiz-adv-x="761" d="M14 0l295 541l-280 520h139l213 -395l213 395h139l-280 -520l295 -541h-144l-223 416l-223 -416h-144z" />
<glyph unicode="y" horiz-adv-x="811" d="M25 1061h133l243 -862l252 862h133l-434 -1456h-133l119 395z" />
<glyph unicode="z" horiz-adv-x="722" d="M45 0v106l477 852h-456v103h596v-107l-478 -852h494v-102h-633z" />
<glyph unicode="{" horiz-adv-x="702" d="M143 580v110q64 11 97.5 52.5t33.5 129.5v447q0 109 52 163t145 54h180v-113h-174q-76 0 -76 -90v-485q0 -172 -139 -213q139 -41 139 -213v-485q0 -91 76 -91h174v-112h-180q-93 0 -145 54t-52 163v446q0 88 -33.5 130t-97.5 53z" />
<glyph unicode="|" horiz-adv-x="495" d="M195 -410v1985h106v-1985h-106z" />
<glyph unicode="}" horiz-adv-x="702" d="M51 -154h174q76 0 76 91v485q0 172 139 213q-139 41 -139 213v485q0 90 -76 90h-174v113h180q93 0 145 -54t52 -163v-447q0 -88 33.5 -129.5t97.5 -52.5v-110q-64 -11 -97.5 -53t-33.5 -130v-446q0 -109 -52 -163t-145 -54h-180v112z" />
<glyph unicode="~" horiz-adv-x="1085" d="M88 522q0 322 246 322q66 0 122 -24.5t115 -80.5q57 -54 98 -77t81 -23q57 0 86.5 46t29.5 155h131q0 -322 -245 -322q-127 0 -238 105q-57 54 -97.5 77t-80.5 23q-57 0 -87 -46t-30 -155h-131z" />
<glyph unicode="&#xa1;" horiz-adv-x="466" d="M154 969q0 63 18.5 89.5t60.5 26.5t61 -26.5t19 -89.5t-19 -90t-61 -27t-60.5 26.5t-18.5 90.5zM166 39l20 659h95l20 -659v-416h-135v416z" />
<glyph unicode="&#xa2;" horiz-adv-x="811" d="M82 530q0 232 95 374t261 173v189h101v-181q108 -3 192 -43l-10 -106q-77 45 -182 45v-901h12q106 0 178 45l10 -107q-79 -43 -200 -43v-180h-101v191q-168 31 -262 171.5t-94 372.5zM211 530q3 -362 227 -434v869q-106 -34 -166 -144.5t-61 -290.5z" />
<glyph unicode="&#xa3;" horiz-adv-x="897" d="M61 0v117q119 130 119 377v202h-119v88h119v267q0 202 89 304.5t259 102.5q152 0 260 -57l-8 -121q-97 63 -237 63q-114 0 -173 -69.5t-59 -222.5v-267h348v-88h-348v-192q0 -255 -110 -391h655v-113h-795z" />
<glyph unicode="&#xa4;" horiz-adv-x="1376" d="M143 256l179 178q-86 116 -86 262t86 262l-179 179l95 98l178 -182q123 92 272 92q150 0 273 -92l178 182l94 -98l-178 -179q86 -116 86 -262t-86 -262l178 -178l-94 -98l-178 182q-123 -92 -273 -92q-149 0 -272 92l-178 -182zM365 696q0 -140 92.5 -233.5t230.5 -93.5 t231 94t93 233q0 140 -93 234t-231 94t-230.5 -94t-92.5 -234z" />
<glyph unicode="&#xa5;" horiz-adv-x="901" d="M25 1434h133l293 -713l292 713h134l-324 -762h274v-88h-311v-150h311v-88h-311v-346h-131v346h-311v88h311v150h-311v88h274z" />
<glyph unicode="&#xa6;" horiz-adv-x="495" d="M195 -205v660h106v-660h-106zM195 748v661h106v-661h-106z" />
<glyph unicode="&#xa7;" horiz-adv-x="825" d="M123 -137l8 119q102 -80 236 -80q100 0 153 49t53 135q0 79 -47 133t-147 98q-252 112 -252 324q0 100 57.5 165t155.5 83q-112 70 -162.5 131.5t-50.5 157.5q0 135 84.5 207.5t228.5 72.5q129 0 219 -43l-10 -108q-78 47 -196 47q-94 0 -145.5 -46t-51.5 -124 q0 -72 48.5 -125.5t152.5 -97.5q130 -57 187.5 -136t57.5 -190q0 -96 -47.5 -162t-132.5 -96q95 -52 137.5 -122.5t42.5 -162.5q0 -143 -85.5 -219t-239.5 -76q-147 0 -254 66zM252 643q0 -132 156 -207q82 10 126 62t44 131q0 119 -105 190q-108 0 -164.5 -47t-56.5 -129z " />
<glyph unicode="&#xa8;" horiz-adv-x="655" d="M92 1329q0 61 16.5 85t55.5 24t55.5 -24t16.5 -85q0 -60 -16.5 -84t-55.5 -24t-55.5 24t-16.5 84zM420 1329q0 61 16.5 85t55.5 24t55 -24t16 -85t-16 -84.5t-55 -23.5t-55.5 24t-16.5 84z" />
<glyph unicode="&#xa9;" horiz-adv-x="1245" d="M72 717q0 219 66.5 386.5t192 261t292.5 93.5t292.5 -93.5t192 -261t66.5 -386.5t-66.5 -387t-192 -261.5t-292.5 -93.5t-292.5 93.5t-192 261.5t-66.5 387zM150 717q0 -301 128 -484.5t345 -183.5t345 183.5t128 484.5t-128 484t-345 183t-345 -183t-128 -484zM305 713 q0 215 98 329.5t254 114.5q115 0 195 -47l-8 -104q-73 53 -180 53q-118 0 -182 -92t-64 -254q0 -163 63.5 -254.5t182.5 -91.5q106 0 180 51l8 -105q-77 -45 -195 -45q-156 0 -254 114.5t-98 330.5z" />
<glyph unicode="&#xaa;" horiz-adv-x="671" d="M68 897q0 127 73 188.5t205 61.5h111q0 122 -33.5 168.5t-122.5 46.5q-92 0 -176 -49l-8 90q86 47 209 47q137 0 191 -71t54 -236v-475h-114v73q-55 -90 -178 -90q-88 0 -149.5 64t-61.5 182zM184 901q0 -76 34 -119t85 -43q49 0 89.5 30t64.5 87v205h-111 q-79 0 -120.5 -40.5t-41.5 -119.5z" />
<glyph unicode="&#xab;" horiz-adv-x="927" d="M123 598v82l389 389v-143l-293 -287l293 -287v-143zM436 598v82l389 389v-143l-293 -287l293 -287v-143z" />
<glyph unicode="&#xac;" horiz-adv-x="1085" d="M72 788v115h921v-573h-131v458h-790z" />
<glyph unicode="&#xad;" horiz-adv-x="729" d="M102 618v123h525v-123h-525z" />
<glyph unicode="&#xae;" horiz-adv-x="1245" d="M72 717q0 219 66.5 386.5t192 261t292.5 93.5t292.5 -93.5t192 -261t66.5 -386.5t-66.5 -387t-192 -261.5t-292.5 -93.5t-292.5 93.5t-192 261.5t-66.5 387zM150 717q0 -301 128 -484.5t345 -183.5t345 183.5t128 484.5t-128 484t-345 183t-345 -183t-128 -484zM389 289 v854h229q124 0 196.5 -67t72.5 -187q0 -82 -35.5 -140.5t-99.5 -86.5l172 -373h-119l-154 348q-16 -2 -47 -2h-104v-346h-111zM500 731h118q78 0 118 41t40 117q0 158 -158 158h-118v-316z" />
<glyph unicode="&#xaf;" horiz-adv-x="655" d="M90 1268v106h475v-106h-475z" />
<glyph unicode="&#xb0;" horiz-adv-x="655" d="M78 1202q0 102 73.5 174t176.5 72t176.5 -72t73.5 -174t-73.5 -174t-176.5 -72t-176.5 72t-73.5 174zM182 1202q0 -63 42 -106t104 -43q61 0 103 43t42 106t-42 106.5t-103 43.5t-103.5 -43.5t-42.5 -106.5z" />
<glyph unicode="&#xb1;" horiz-adv-x="1085" d="M82 96v115h922v-115h-922zM82 752v112h395v432h131v-432h396v-112h-396v-433h-131v433h-395z" />
<glyph unicode="&#xb2;" horiz-adv-x="645" d="M86 483v97q143 156 254 342q84 136 84 260q0 170 -141 170q-94 0 -172 -58l-7 109q36 21 88.5 34t96.5 13q125 0 188.5 -67t63.5 -197q0 -148 -107 -326q-109 -176 -207 -280h320v-97h-461z" />
<glyph unicode="&#xb3;" horiz-adv-x="645" d="M94 504l8 106q62 -45 160 -45q85 0 128.5 45.5t43.5 120.5q0 92 -60.5 145.5t-191.5 53.5v96q121 0 181.5 51t60.5 123q0 69 -40.5 110.5t-109.5 41.5q-91 0 -163 -43l-5 98q75 43 179 43q121 0 188.5 -64t67.5 -180q0 -77 -43 -136t-119 -89q172 -68 172 -246 q0 -124 -73.5 -196t-205.5 -72q-105 0 -178 37z" />
<glyph unicode="&#xb4;" horiz-adv-x="655" d="M156 1163l206 332h136v-29l-224 -303h-118z" />
<glyph unicode="&#xb5;" horiz-adv-x="909" d="M102 -395v1456h127v-856q80 -125 226 -125q69 0 128 32.5t97 92.5v856h127v-1061h-127v92q-37 -54 -97.5 -85.5t-127.5 -31.5q-68 0 -129.5 31.5t-96.5 85.5v-487h-127z" />
<glyph unicode="&#xb6;" horiz-adv-x="925" d="M41 1030q0 196 110 300t285 104h346v-1702h-114v1585h-74v-1585h-115v895h-43q-175 0 -285 103.5t-110 299.5z" />
<glyph unicode="&#xb7;" horiz-adv-x="368" d="M104 676q0 63 19 89t61 26t61 -26t19 -89t-19 -89t-61 -26t-61 26t-19 89z" />
<glyph unicode="&#xb8;" horiz-adv-x="655" d="M178 -377q35 -18 82 -18q44 0 73 24t29 66q0 113 -153 127l70 178h116l-53 -129q61 -21 97 -68t36 -112q0 -80 -54.5 -129t-146.5 -49q-50 0 -96 16v94z" />
<glyph unicode="&#xb9;" horiz-adv-x="645" d="M94 1253l213 183h96v-953h-114v793l-133 -111z" />
<glyph unicode="&#xba;" horiz-adv-x="675" d="M53 1051q0 185 79.5 292t205.5 107t205.5 -107t79.5 -292t-79.5 -292.5t-205.5 -107.5t-205.5 107.5t-79.5 292.5zM172 1051q0 -145 46 -222t120 -77t120 77t46 222t-46 222t-120 77t-120 -77t-46 -222z" />
<glyph unicode="&#xbb;" horiz-adv-x="927" d="M102 209v143l293 287l-293 287v143l390 -389v-82zM416 209v143l293 287l-293 287v143l389 -389v-82z" />
<glyph unicode="&#xbc;" horiz-adv-x="1505" d="M94 1253l213 183h96v-953h-114v793l-133 -111zM412 -31l598 1495h100l-598 -1495h-100zM913 209v96l344 645h111v-645h84v-96h-84v-209h-115v209h-340zM1020 305h233v438z" />
<glyph unicode="&#xbd;" horiz-adv-x="1505" d="M94 1253l213 183h96v-953h-114v793l-133 -111zM348 -31l598 1495h101l-598 -1495h-101zM963 0v96q143 156 254 342q83 134 83 260q0 170 -141 170q-95 0 -172 -57l-6 109q36 21 88 34t96 13q125 0 188.5 -67.5t63.5 -197.5q0 -149 -106 -325q-111 -179 -207 -281h319v-96 h-460z" />
<glyph unicode="&#xbe;" horiz-adv-x="1505" d="M94 504l8 106q62 -45 160 -45q85 0 128.5 45.5t43.5 120.5q0 92 -60.5 145.5t-191.5 53.5v96q121 0 181.5 51t60.5 123q0 69 -40.5 110.5t-109.5 41.5q-91 0 -163 -43l-5 98q75 43 179 43q121 0 188.5 -64t67.5 -180q0 -77 -43 -136t-119 -89q172 -68 172 -246 q0 -124 -73.5 -196t-205.5 -72q-105 0 -178 37zM457 -31l598 1495h100l-598 -1495h-100zM913 209v96l344 645h111v-645h84v-96h-84v-209h-115v209h-340zM1020 305h233v438z" />
<glyph unicode="&#xbf;" horiz-adv-x="835" d="M123 -57q0 104 46 198t146 193q60 58 82.5 129.5t22.5 185.5v49h131v-55q0 -138 -33.5 -230t-114.5 -169q-82 -77 -114.5 -148t-32.5 -157q0 -105 63 -165.5t181 -60.5q138 0 243 78l11 -125q-114 -67 -265 -67q-174 0 -270 91.5t-96 252.5zM408 969q0 63 18.5 89.5 t60.5 26.5t61 -26.5t19 -89.5t-19 -90t-61 -27t-60.5 26.5t-18.5 90.5z" />
<glyph unicode="&#xc0;" horiz-adv-x="978" d="M10 0l398 1434h163l398 -1434h-138l-106 393h-471l-107 -393h-137zM250 1864v28h135l207 -331h-119zM283 506h413l-207 784z" />
<glyph unicode="&#xc1;" horiz-adv-x="978" d="M10 0l398 1434h163l398 -1434h-138l-106 393h-471l-107 -393h-137zM283 506h413l-207 784zM387 1561l207 331h135v-28l-223 -303h-119z" />
<glyph unicode="&#xc2;" horiz-adv-x="978" d="M10 0l398 1434h163l398 -1434h-138l-106 393h-471l-107 -393h-137zM211 1552l205 340h147l205 -340h-123l-156 248l-155 -248h-123zM283 506h413l-207 784z" />
<glyph unicode="&#xc3;" horiz-adv-x="978" d="M10 0l398 1434h163l398 -1434h-138l-106 393h-471l-107 -393h-137zM223 1593q0 149 37 210t111 61q95 0 145 -88q17 -29 25 -41t21.5 -21.5t31.5 -9.5q30 0 42.5 32t12.5 124h107q0 -149 -38 -210t-112 -61q-54 0 -86.5 17t-58.5 59q-29 49 -44 66.5t-34 17.5 q-29 0 -41 -31.5t-12 -124.5h-107zM283 506h413l-207 784z" />
<glyph unicode="&#xc4;" horiz-adv-x="978" d="M10 0l398 1434h163l398 -1434h-138l-106 393h-471l-107 -393h-137zM254 1726q0 61 16.5 85t55.5 24t55 -24t16 -85t-16 -84.5t-55 -23.5t-55.5 24t-16.5 84zM283 506h413l-207 784zM582 1726q0 61 16 85t55 24t55.5 -24t16.5 -85q0 -60 -16.5 -84t-55.5 -24t-55 23.5 t-16 84.5z" />
<glyph unicode="&#xc5;" horiz-adv-x="978" d="M10 0l398 1434h163l398 -1434h-138l-106 393h-471l-107 -393h-137zM272 1726q0 93 60.5 152t156.5 59t157 -59t61 -152q0 -92 -60.5 -151t-157.5 -59q-96 0 -156.5 58.5t-60.5 151.5zM283 506h413l-207 784zM365 1726q0 -59 34.5 -91.5t89.5 -32.5t90 32.5t35 91.5 t-35 92t-90 33t-89.5 -32.5t-34.5 -92.5z" />
<glyph unicode="&#xc6;" horiz-adv-x="1296" d="M10 0l537 1434h676v-113h-457v-526h418v-113h-418v-569h469v-113h-600v371h-346l-135 -371h-144zM330 483h305v830z" />
<glyph unicode="&#xc7;" horiz-adv-x="940" d="M72 717q0 338 154 539.5t423 201.5q141 0 230 -47l-9 -119q-91 51 -215 51q-209 0 -329.5 -167t-120.5 -459q0 -293 121 -460t331 -167q137 0 222 49l10 -119q-88 -42 -221 -45l-43 -104q61 -21 97 -68t36 -112q0 -80 -54.5 -129t-146.5 -49q-50 0 -96 16v94 q34 -18 82 -18q44 0 73 24t29 66q0 113 -153 127l63 162q-227 37 -355 233t-128 500z" />
<glyph unicode="&#xc8;" horiz-adv-x="892" d="M143 0v1434h674v-113h-543v-526h506v-113h-506v-569h557v-113h-688zM250 1864v28h135l207 -331h-119z" />
<glyph unicode="&#xc9;" horiz-adv-x="892" d="M143 0v1434h674v-113h-543v-526h506v-113h-506v-569h557v-113h-688zM348 1561l207 331h135v-28l-223 -303h-119z" />
<glyph unicode="&#xca;" horiz-adv-x="892" d="M143 0v1434h674v-113h-543v-526h506v-113h-506v-569h557v-113h-688zM201 1552l205 340h147l205 -340h-123l-156 248l-155 -248h-123z" />
<glyph unicode="&#xcb;" horiz-adv-x="892" d="M143 0v1434h674v-113h-543v-526h506v-113h-506v-569h557v-113h-688zM233 1726q0 61 16.5 85t55.5 24t55.5 -24t16.5 -85q0 -60 -16.5 -84t-55.5 -24t-55.5 24t-16.5 84zM561 1726q0 61 16.5 85t55.5 24t55.5 -24t16.5 -85q0 -60 -16.5 -84t-55.5 -24t-55.5 24t-16.5 84z " />
<glyph unicode="&#xcc;" horiz-adv-x="438" d="M-37 1864v28h135l207 -331h-119zM154 0v1434h131v-1434h-131z" />
<glyph unicode="&#xcd;" horiz-adv-x="438" d="M133 1561l207 331h135v-28l-223 -303h-119zM154 0v1434h131v-1434h-131z" />
<glyph unicode="&#xce;" horiz-adv-x="438" d="M-59 1552l204 340h148l205 -340h-123l-156 248l-156 -248h-122zM154 0v1434h131v-1434h-131z" />
<glyph unicode="&#xcf;" horiz-adv-x="438" d="M-16 1726q0 61 16 85t55 24t55.5 -24t16.5 -85q0 -60 -16.5 -84t-55.5 -24t-55 23.5t-16 84.5zM154 0v1434h131v-1434h-131zM311 1726q0 61 16.5 85t55.5 24t55.5 -24t16.5 -85q0 -60 -16.5 -84t-55.5 -24t-55.5 24t-16.5 84z" />
<glyph unicode="&#xd0;" horiz-adv-x="1060" d="M14 668v102h119v664h277q291 0 435 -175t144 -542q0 -368 -143.5 -542.5t-435.5 -174.5h-277v668h-119zM264 113h146q235 0 340.5 144.5t105.5 459.5q0 314 -105.5 459t-340.5 145h-146v-551h266v-102h-266v-555z" />
<glyph unicode="&#xd1;" horiz-adv-x="1112" d="M143 0v1434h187l512 -1256v1256h127v-1434h-187l-512 1255v-1255h-127zM289 1593q0 150 37 210.5t110 60.5q96 0 146 -88q17 -30 24.5 -41t21 -21t31.5 -10q30 0 43 32t13 124h106q0 -149 -37.5 -210t-111.5 -61q-54 0 -87 17t-59 59q-30 50 -44 67t-33 17 q-29 0 -41.5 -31.5t-12.5 -124.5h-106z" />
<glyph unicode="&#xd2;" horiz-adv-x="1085" d="M72 717q0 355 120.5 548t350.5 193t350.5 -193t120.5 -548q0 -357 -120 -549.5t-351 -192.5t-351 192.5t-120 549.5zM205 717q0 -627 338 -627t338 627q0 626 -338 626t-338 -626zM330 1864v28h135l207 -331h-119z" />
<glyph unicode="&#xd3;" horiz-adv-x="1085" d="M72 717q0 355 120.5 548t350.5 193t350.5 -193t120.5 -548q0 -357 -120 -549.5t-351 -192.5t-351 192.5t-120 549.5zM205 717q0 -627 338 -627t338 627q0 626 -338 626t-338 -626zM414 1561l207 331h135v-28l-224 -303h-118z" />
<glyph unicode="&#xd4;" horiz-adv-x="1085" d="M72 717q0 355 120.5 548t350.5 193t350.5 -193t120.5 -548q0 -357 -120 -549.5t-351 -192.5t-351 192.5t-120 549.5zM205 717q0 -627 338 -627t338 627q0 626 -338 626t-338 -626zM264 1552l205 340h147l205 -340h-123l-155 248l-156 -248h-123z" />
<glyph unicode="&#xd5;" horiz-adv-x="1085" d="M72 717q0 355 120.5 548t350.5 193t350.5 -193t120.5 -548q0 -357 -120 -549.5t-351 -192.5t-351 192.5t-120 549.5zM205 717q0 -627 338 -627t338 627q0 626 -338 626t-338 -626zM276 1593q0 149 37 210t111 61q95 0 145 -88q17 -29 25 -41t21.5 -21.5t31.5 -9.5 q30 0 42.5 32t12.5 124h107q0 -149 -38 -210t-112 -61q-54 0 -86.5 17t-58.5 59q-29 49 -44 66.5t-34 17.5q-29 0 -41 -31.5t-12 -124.5h-107z" />
<glyph unicode="&#xd6;" horiz-adv-x="1085" d="M72 717q0 355 120.5 548t350.5 193t350.5 -193t120.5 -548q0 -357 -120 -549.5t-351 -192.5t-351 192.5t-120 549.5zM205 717q0 -627 338 -627t338 627q0 626 -338 626t-338 -626zM307 1726q0 61 16.5 85t55.5 24t55.5 -24t16.5 -85q0 -60 -16.5 -84t-55.5 -24t-55.5 24 t-16.5 84zM635 1726q0 61 16.5 85t55.5 24t55 -24t16 -85t-16 -84.5t-55 -23.5t-55.5 24t-16.5 84z" />
<glyph unicode="&#xd7;" horiz-adv-x="1085" d="M139 346l322 336l-322 338l84 84l320 -334l319 334l84 -84l-321 -338l321 -336l-84 -86l-319 336l-320 -336z" />
<glyph unicode="&#xd8;" horiz-adv-x="1085" d="M72 717q0 355 120.5 548t350.5 193q128 0 225 -63l104 243h121l-137 -321q158 -190 158 -600q0 -357 -120 -549.5t-351 -192.5q-132 0 -230 64l-102 -244h-119l135 322q-155 186 -155 600zM205 717q0 -308 80 -465l436 1030q-73 61 -178 61q-338 0 -338 -626zM362 152 q74 -62 181 -62q338 0 338 627q0 305 -82 463z" />
<glyph unicode="&#xd9;" horiz-adv-x="1126" d="M143 494v940h131v-940q0 -213 72 -308.5t217 -95.5t217 95.5t72 308.5v940h131v-940q0 -519 -420 -519t-420 519zM317 1864v28h136l206 -331h-118z" />
<glyph unicode="&#xda;" horiz-adv-x="1126" d="M143 494v940h131v-940q0 -213 72 -308.5t217 -95.5t217 95.5t72 308.5v940h131v-940q0 -519 -420 -519t-420 519zM463 1561l207 331h135v-28l-223 -303h-119z" />
<glyph unicode="&#xdb;" horiz-adv-x="1126" d="M143 494v940h131v-940q0 -213 72 -308.5t217 -95.5t217 95.5t72 308.5v940h131v-940q0 -519 -420 -519t-420 519zM285 1552l204 340h148l205 -340h-123l-156 248l-155 -248h-123z" />
<glyph unicode="&#xdc;" horiz-adv-x="1126" d="M143 494v940h131v-940q0 -213 72 -308.5t217 -95.5t217 95.5t72 308.5v940h131v-940q0 -519 -420 -519t-420 519zM328 1726q0 61 16 85t55 24t55.5 -24t16.5 -85q0 -60 -16.5 -84t-55.5 -24t-55 23.5t-16 84.5zM655 1726q0 61 16.5 85t55.5 24t55.5 -24t16.5 -85 q0 -60 -16.5 -84t-55.5 -24t-55.5 24t-16.5 84z" />
<glyph unicode="&#xdd;" horiz-adv-x="995" d="M31 1434h137l330 -727l329 727h138l-402 -865v-569h-131v569zM387 1561l207 331h135v-28l-223 -303h-119z" />
<glyph unicode="&#xde;" horiz-adv-x="927" d="M143 0v1434h131v-269h175q194 0 302.5 -112.5t108.5 -325.5t-108.5 -325.5t-302.5 -112.5h-175v-289h-131zM274 401h170q283 0 283 326t-283 326h-170v-652z" />
<glyph unicode="&#xdf;" horiz-adv-x="966" d="M143 0v1006q0 452 351 452q159 0 250.5 -102.5t91.5 -268.5q0 -131 -56.5 -215.5t-158.5 -119.5q122 -33 193 -132t71 -251q0 -188 -93.5 -291t-265.5 -103q-104 0 -186 37l10 117q74 -39 164 -39q117 0 177.5 75t60.5 204q0 155 -88.5 236.5t-249.5 86.5v113 q288 0 288 280q0 66 -21.5 122.5t-70.5 96t-118 39.5q-108 0 -163 -74.5t-55 -246.5v-1022h-131z" />
<glyph unicode="&#xe0;" horiz-adv-x="827" d="M51 303q0 162 91.5 250t263.5 88h186v86q0 141 -46.5 197.5t-158.5 56.5q-131 0 -250 -66l-10 107q123 63 268 63q167 0 245.5 -83.5t78.5 -266.5v-735h-127v82q-85 -107 -250 -107q-129 0 -210 85t-81 243zM178 305q0 -112 51 -168.5t142 -56.5q141 0 221 121v338h-182 q-232 0 -232 -234zM215 1507v29h135l207 -332h-119z" />
<glyph unicode="&#xe1;" horiz-adv-x="827" d="M51 303q0 162 91.5 250t263.5 88h186v86q0 141 -46.5 197.5t-158.5 56.5q-131 0 -250 -66l-10 107q123 63 268 63q167 0 245.5 -83.5t78.5 -266.5v-735h-127v82q-85 -107 -250 -107q-129 0 -210 85t-81 243zM178 305q0 -112 51 -168.5t142 -56.5q141 0 221 121v338h-182 q-232 0 -232 -234zM309 1204l207 332h135v-29l-223 -303h-119z" />
<glyph unicode="&#xe2;" horiz-adv-x="827" d="M51 303q0 162 91.5 250t263.5 88h186v86q0 141 -46.5 197.5t-158.5 56.5q-131 0 -250 -66l-10 107q123 63 268 63q167 0 245.5 -83.5t78.5 -266.5v-735h-127v82q-85 -107 -250 -107q-129 0 -210 85t-81 243zM125 1196l205 340h147l205 -340h-123l-156 248l-155 -248h-123 zM178 305q0 -112 51 -168.5t142 -56.5q141 0 221 121v338h-182q-232 0 -232 -234z" />
<glyph unicode="&#xe3;" horiz-adv-x="827" d="M51 303q0 162 91.5 250t263.5 88h186v86q0 141 -46.5 197.5t-158.5 56.5q-131 0 -250 -66l-10 107q123 63 268 63q167 0 245.5 -83.5t78.5 -266.5v-735h-127v82q-85 -107 -250 -107q-129 0 -210 85t-81 243zM133 1237q0 149 37 209.5t111 60.5q95 0 145 -88 q16 -29 24.5 -41t22 -21t31.5 -9q30 0 42.5 31.5t12.5 123.5h107q0 -149 -38 -209.5t-112 -60.5q-54 0 -86.5 17t-58.5 59q-29 49 -44 66.5t-34 17.5q-29 0 -41 -31.5t-12 -124.5h-107zM178 305q0 -112 51 -168.5t142 -56.5q141 0 221 121v338h-182q-232 0 -232 -234z" />
<glyph unicode="&#xe4;" horiz-adv-x="827" d="M51 303q0 162 91.5 250t263.5 88h186v86q0 141 -46.5 197.5t-158.5 56.5q-131 0 -250 -66l-10 107q123 63 268 63q167 0 245.5 -83.5t78.5 -266.5v-735h-127v82q-85 -107 -250 -107q-129 0 -210 85t-81 243zM168 1370q0 61 16.5 85t55.5 24t55 -24t16 -85t-16 -84.5 t-55 -23.5t-55.5 24t-16.5 84zM178 305q0 -112 51 -168.5t142 -56.5q141 0 221 121v338h-182q-232 0 -232 -234zM496 1370q0 61 16 85t55 24t55.5 -24t16.5 -85q0 -60 -16.5 -84t-55.5 -24t-55 23.5t-16 84.5z" />
<glyph unicode="&#xe5;" horiz-adv-x="827" d="M51 303q0 162 91.5 250t263.5 88h186v86q0 141 -46.5 197.5t-158.5 56.5q-131 0 -250 -66l-10 107q123 63 268 63q167 0 245.5 -83.5t78.5 -266.5v-735h-127v82q-85 -107 -250 -107q-129 0 -210 85t-81 243zM178 305q0 -112 51 -168.5t142 -56.5q141 0 221 121v338h-182 q-232 0 -232 -234zM188 1370q0 93 61 152t157 59t156.5 -59t60.5 -152t-60.5 -152t-156.5 -59t-157 59t-61 152zM281 1370q0 -59 35 -92t90 -33t89.5 32.5t34.5 92.5t-34.5 92.5t-89.5 32.5t-90 -33t-35 -92z" />
<glyph unicode="&#xe6;" horiz-adv-x="1320" d="M51 299q0 161 88 253.5t252 92.5h182q0 171 -51.5 253.5t-161.5 82.5q-119 0 -231 -63l-10 106q115 61 252 61q108 0 182 -62.5t96 -172.5q35 114 107.5 174.5t171.5 60.5q164 0 253 -142t89 -404q0 -38 -2 -58h-563q10 -199 85.5 -300t200.5 -101q117 0 203 72l14 -115 q-86 -62 -219 -62t-218.5 68.5t-125.5 189.5q-29 -131 -113.5 -194.5t-195.5 -63.5q-124 0 -204.5 84t-80.5 240zM178 303q0 -108 46.5 -165.5t115.5 -57.5q97 0 156 76t77 254v133h-176q-111 0 -165 -66t-54 -174zM705 584h438q-1 192 -59 295.5t-162 103.5 q-101 0 -157.5 -103t-59.5 -296z" />
<glyph unicode="&#xe7;" horiz-adv-x="753" d="M61 530q0 265 116.5 410t320.5 145q108 0 196 -43l-10 -106q-77 45 -176 45q-151 0 -234.5 -115t-83.5 -336q0 -228 84.5 -339t243.5 -111q102 0 174 45l10 -107q-65 -34 -155 -41l-43 -106q61 -21 97 -68t36 -112q0 -80 -54.5 -129t-146.5 -49q-50 0 -96 16v94 q34 -18 82 -18q44 0 73 24t29 66q0 113 -153 127l61 160q-178 23 -274.5 163.5t-96.5 384.5z" />
<glyph unicode="&#xe8;" horiz-adv-x="827" d="M61 535q0 272 92.5 411t264.5 139q174 0 266 -138t92 -402q0 -26 -4 -62h-579q9 -403 305 -403q116 0 204 57l11 -108q-91 -54 -224 -54q-209 0 -318.5 144.5t-109.5 415.5zM190 586h455q-3 395 -227 395q-113 0 -169 -98t-59 -297zM199 1507v29h135l207 -332h-119z" />
<glyph unicode="&#xe9;" horiz-adv-x="827" d="M61 535q0 272 92.5 411t264.5 139q174 0 266 -138t92 -402q0 -26 -4 -62h-579q9 -403 305 -403q116 0 204 57l11 -108q-91 -54 -224 -54q-209 0 -318.5 144.5t-109.5 415.5zM190 586h455q-3 395 -227 395q-113 0 -169 -98t-59 -297zM274 1204l207 332h135v-29l-223 -303 h-119z" />
<glyph unicode="&#xea;" horiz-adv-x="827" d="M61 535q0 272 92.5 411t264.5 139q174 0 266 -138t92 -402q0 -26 -4 -62h-579q9 -403 305 -403q116 0 204 57l11 -108q-91 -54 -224 -54q-209 0 -318.5 144.5t-109.5 415.5zM133 1196l205 340h147l205 -340h-123l-155 248l-156 -248h-123zM190 586h455q-3 395 -227 395 q-113 0 -169 -98t-59 -297z" />
<glyph unicode="&#xeb;" horiz-adv-x="827" d="M61 535q0 272 92.5 411t264.5 139q174 0 266 -138t92 -402q0 -26 -4 -62h-579q9 -403 305 -403q116 0 204 57l11 -108q-91 -54 -224 -54q-209 0 -318.5 144.5t-109.5 415.5zM176 1370q0 61 16.5 85t55.5 24t55 -24t16 -85t-16 -84.5t-55 -23.5t-55.5 24t-16.5 84z M190 586h455q-3 395 -227 395q-113 0 -169 -98t-59 -297zM504 1370q0 61 16 85t55 24t55.5 -24t16.5 -85q0 -60 -16.5 -84t-55.5 -24t-55 23.5t-16 84.5z" />
<glyph unicode="&#xec;" horiz-adv-x="372" d="M-72 1507v29h135l207 -332h-118zM123 0v1061h127v-1061h-127z" />
<glyph unicode="&#xed;" horiz-adv-x="372" d="M102 1204l207 332h135v-29l-223 -303h-119zM123 0v1061h127v-1061h-127z" />
<glyph unicode="&#xee;" horiz-adv-x="372" d="M-92 1196l205 340h147l205 -340h-123l-156 248l-155 -248h-123zM123 0v1061h127v-1061h-127z" />
<glyph unicode="&#xef;" horiz-adv-x="372" d="M-49 1370q0 61 16.5 85t55.5 24t55 -24t16 -85t-16 -84.5t-55 -23.5t-55.5 24t-16.5 84zM123 0v1061h127v-1061h-127zM279 1370q0 61 16 85t55 24t55.5 -24t16.5 -85q0 -60 -16.5 -84t-55.5 -24t-55 23.5t-16 84.5z" />
<glyph unicode="&#xf0;" horiz-adv-x="864" d="M61 496q0 251 97 381.5t250 130.5q150 0 237 -109q-29 174 -110 289l-338 -117l-25 88l295 103q-96 86 -234 118l11 119q224 -53 354 -192l184 63l25 -88l-150 -51q138 -212 138 -572q0 -682 -385 -682q-161 0 -255 129.5t-94 389.5zM190 496q0 -200 57 -308t163 -108 q256 0 256 579q0 49 -2 74q-36 76 -101.5 123t-136.5 47q-236 0 -236 -407z" />
<glyph unicode="&#xf1;" horiz-adv-x="884" d="M113 0v1061h127v-82q41 50 104 78t135 28q148 0 225.5 -102t77.5 -307v-676h-127v616q0 196 -46.5 280.5t-157.5 84.5q-139 0 -211 -121v-860h-127zM180 1237q0 149 37 209.5t111 60.5q95 0 145 -88q16 -29 24.5 -41t22 -21t31.5 -9q30 0 42.5 31.5t12.5 123.5h107 q0 -149 -38 -209.5t-112 -60.5q-54 0 -86.5 17t-58.5 59q-29 49 -44 66.5t-34 17.5q-29 0 -41 -31.5t-12 -124.5h-107z" />
<glyph unicode="&#xf2;" horiz-adv-x="880" d="M61 530q0 275 101.5 415t277.5 140t277.5 -140t101.5 -415t-101.5 -415t-277.5 -140t-277.5 140t-101.5 415zM190 530q0 -229 66 -339.5t184 -110.5t184 110.5t66 339.5t-66.5 340t-183.5 111t-183.5 -111t-66.5 -340zM219 1507v29h135l207 -332h-119z" />
<glyph unicode="&#xf3;" horiz-adv-x="880" d="M61 530q0 275 101.5 415t277.5 140t277.5 -140t101.5 -415t-101.5 -415t-277.5 -140t-277.5 140t-101.5 415zM190 530q0 -229 66 -339.5t184 -110.5t184 110.5t66 339.5t-66.5 340t-183.5 111t-183.5 -111t-66.5 -340zM319 1204l207 332h136v-29l-224 -303h-119z" />
<glyph unicode="&#xf4;" horiz-adv-x="880" d="M61 530q0 275 101.5 415t277.5 140t277.5 -140t101.5 -415t-101.5 -415t-277.5 -140t-277.5 140t-101.5 415zM162 1196l205 340h147l205 -340h-123l-156 248l-155 -248h-123zM190 530q0 -229 66 -339.5t184 -110.5t184 110.5t66 339.5t-66.5 340t-183.5 111t-183.5 -111 t-66.5 -340z" />
<glyph unicode="&#xf5;" horiz-adv-x="880" d="M61 530q0 275 101.5 415t277.5 140t277.5 -140t101.5 -415t-101.5 -415t-277.5 -140t-277.5 140t-101.5 415zM174 1237q0 149 37 209.5t111 60.5q95 0 145 -88q16 -29 24.5 -41t22 -21t31.5 -9q30 0 42.5 31.5t12.5 123.5h107q0 -149 -38 -209.5t-112 -60.5 q-54 0 -86.5 17t-58.5 59q-29 49 -44 66.5t-34 17.5q-29 0 -41 -31.5t-12 -124.5h-107zM190 530q0 -229 66 -339.5t184 -110.5t184 110.5t66 339.5t-66.5 340t-183.5 111t-183.5 -111t-66.5 -340z" />
<glyph unicode="&#xf6;" horiz-adv-x="880" d="M61 530q0 275 101.5 415t277.5 140t277.5 -140t101.5 -415t-101.5 -415t-277.5 -140t-277.5 140t-101.5 415zM190 530q0 -229 66 -339.5t184 -110.5t184 110.5t66 339.5t-66.5 340t-183.5 111t-183.5 -111t-66.5 -340zM205 1370q0 61 16 85t55 24t55.5 -24t16.5 -85 q0 -60 -16.5 -84t-55.5 -24t-55 23.5t-16 84.5zM532 1370q0 61 16.5 85t55.5 24t55.5 -24t16.5 -85q0 -60 -16.5 -84t-55.5 -24t-55.5 24t-16.5 84z" />
<glyph unicode="&#xf7;" horiz-adv-x="1085" d="M82 623v114h922v-114h-922zM463 268q0 63 19 89t61 26t61 -26t19 -89t-19 -88.5t-61 -25.5t-61 25.5t-19 88.5zM463 1092q0 63 19 88.5t61 25.5t61 -25.5t19 -88.5t-19 -89t-61 -26t-61 26t-19 89z" />
<glyph unicode="&#xf8;" horiz-adv-x="880" d="M61 -225l129 305q-129 142 -129 450q0 275 101.5 415t277.5 140q90 0 164 -38l103 239h112l-131 -305q131 -144 131 -451q0 -275 -101.5 -415t-277.5 -140q-91 0 -164 39l-102 -239h-113zM190 530q0 -206 56 -321l313 735q-52 37 -119 37q-117 0 -183.5 -111t-66.5 -340z M319 117q48 -37 121 -37q118 0 184 110.5t66 339.5q0 208 -57 322z" />
<glyph unicode="&#xf9;" horiz-adv-x="884" d="M102 385v676h127v-617q0 -195 46.5 -279.5t158.5 -84.5q139 0 211 121v860h127v-1061h-127v82q-50 -56 -105.5 -81.5t-133.5 -25.5q-148 0 -226 102.5t-78 307.5zM203 1507v29h135l207 -332h-119z" />
<glyph unicode="&#xfa;" horiz-adv-x="884" d="M102 385v676h127v-617q0 -195 46.5 -279.5t158.5 -84.5q139 0 211 121v860h127v-1061h-127v82q-50 -56 -105.5 -81.5t-133.5 -25.5q-148 0 -226 102.5t-78 307.5zM326 1204l206 332h136v-29l-224 -303h-118z" />
<glyph unicode="&#xfb;" horiz-adv-x="884" d="M102 385v676h127v-617q0 -195 46.5 -279.5t158.5 -84.5q139 0 211 121v860h127v-1061h-127v82q-50 -56 -105.5 -81.5t-133.5 -25.5q-148 0 -226 102.5t-78 307.5zM158 1196l204 340h148l205 -340h-123l-156 248l-155 -248h-123z" />
<glyph unicode="&#xfc;" horiz-adv-x="884" d="M102 385v676h127v-617q0 -195 46.5 -279.5t158.5 -84.5q139 0 211 121v860h127v-1061h-127v82q-50 -56 -105.5 -81.5t-133.5 -25.5q-148 0 -226 102.5t-78 307.5zM201 1370q0 61 16 85t55 24t55.5 -24t16.5 -85q0 -60 -16.5 -84t-55.5 -24t-55 23.5t-16 84.5zM528 1370 q0 61 16.5 85t55.5 24t55.5 -24t16.5 -85q0 -60 -16.5 -84t-55.5 -24t-55.5 24t-16.5 84z" />
<glyph unicode="&#xfd;" horiz-adv-x="811" d="M25 1061h133l243 -862l252 862h133l-434 -1456h-133l119 395zM295 1204l207 332h135v-29l-223 -303h-119z" />
<glyph unicode="&#xfe;" horiz-adv-x="890" d="M113 -395v1890h127v-516q95 106 231 106q166 0 262 -142.5t96 -412.5t-96 -412.5t-262 -142.5q-135 0 -231 107v-477h-127zM240 201q36 -56 89.5 -88.5t112.5 -32.5q123 0 190.5 112.5t67.5 337.5t-67.5 338t-190.5 113q-59 0 -112.5 -32.5t-89.5 -88.5v-659z" />
<glyph unicode="&#xff;" horiz-adv-x="811" d="M25 1061h133l243 -862l252 862h133l-434 -1456h-133l119 395zM170 1370q0 61 16.5 85t55.5 24t55 -24t16 -85t-16 -84.5t-55 -23.5t-55.5 24t-16.5 84zM498 1370q0 61 16 85t55 24t55.5 -24t16.5 -85q0 -60 -16.5 -84t-55.5 -24t-55 23.5t-16 84.5z" />
<glyph unicode="&#x100;" horiz-adv-x="978" d="M10 0l398 1434h163l398 -1434h-138l-106 393h-471l-107 -393h-137zM252 1671v107h475v-107h-475zM283 506h413l-207 784z" />
<glyph unicode="&#x101;" horiz-adv-x="827" d="M51 303q0 162 91.5 250t263.5 88h186v86q0 141 -46.5 197.5t-158.5 56.5q-131 0 -250 -66l-10 107q123 63 268 63q167 0 245.5 -83.5t78.5 -266.5v-735h-127v82q-85 -107 -250 -107q-129 0 -210 85t-81 243zM170 1317v106h475v-106h-475zM178 305q0 -112 51 -168.5 t142 -56.5q141 0 221 121v338h-182q-232 0 -232 -234z" />
<glyph unicode="&#x102;" horiz-adv-x="978" d="M10 0l398 1434h163l398 -1434h-138l-106 393h-471l-107 -393h-137zM223 1878h113q6 -227 153 -227q148 0 154 227h113q-4 -162 -75.5 -242t-191.5 -80t-191 80t-75 242zM283 506h413l-207 784z" />
<glyph unicode="&#x103;" horiz-adv-x="827" d="M51 303q0 162 91.5 250t263.5 88h186v86q0 141 -46.5 197.5t-158.5 56.5q-131 0 -250 -66l-10 107q123 63 268 63q167 0 245.5 -83.5t78.5 -266.5v-735h-127v82q-85 -107 -250 -107q-129 0 -210 85t-81 243zM135 1526h113q6 -228 153 -228q148 0 154 228h113 q-4 -162 -75.5 -242t-191.5 -80t-191 80t-75 242zM178 305q0 -112 51 -168.5t142 -56.5q141 0 221 121v338h-182q-232 0 -232 -234z" />
<glyph unicode="&#x104;" horiz-adv-x="978" d="M10 0l398 1434h163l398 -1434q-113 -136 -113 -266q0 -88 80 -88q41 0 68 16v-96q-38 -15 -97 -15q-84 0 -129 47.5t-45 129.5q0 133 115 272h-17l-106 393h-471l-107 -393h-137zM283 506h413l-207 784z" />
<glyph unicode="&#x105;" horiz-adv-x="827" d="M51 303q0 162 91.5 250t263.5 88h186v86q0 141 -46.5 197.5t-158.5 56.5q-131 0 -250 -66l-10 107q123 63 268 63q167 0 245.5 -83.5t78.5 -266.5v-735q-113 -136 -113 -266q0 -88 80 -88q41 0 68 16v-96q-38 -15 -97 -15q-84 0 -129 47.5t-45 129.5q0 133 115 272h-6v82 q-85 -107 -250 -107q-129 0 -210 85t-81 243zM178 305q0 -112 51 -168.5t142 -56.5q141 0 221 121v338h-182q-232 0 -232 -234z" />
<glyph unicode="&#x106;" horiz-adv-x="940" d="M72 717q0 338 154 539.5t423 201.5q141 0 230 -47l-9 -119q-91 51 -215 51q-209 0 -329.5 -167t-120.5 -459q0 -293 121 -460t331 -167q137 0 222 49l10 -119q-91 -45 -234 -45q-271 0 -427 202t-156 540zM451 1561l206 331h136v-28l-224 -303h-118z" />
<glyph unicode="&#x107;" horiz-adv-x="753" d="M61 530q0 265 116.5 410t320.5 145q108 0 196 -43l-10 -106q-77 45 -176 45q-151 0 -234 -114.5t-84 -336.5q1 -227 85.5 -338.5t242.5 -111.5q102 0 174 45l10 -107q-79 -43 -196 -43q-212 0 -328.5 144t-116.5 411zM313 1204l207 332h135v-29l-223 -303h-119z" />
<glyph unicode="&#x108;" horiz-adv-x="940" d="M72 717q0 338 154 539.5t423 201.5q141 0 230 -47l-9 -119q-91 51 -215 51q-209 0 -329.5 -167t-120.5 -459q0 -293 121 -460t331 -167q137 0 222 49l10 -119q-91 -45 -234 -45q-271 0 -427 202t-156 540zM274 1552l205 340h148l204 -340h-122l-156 248l-156 -248h-123z " />
<glyph unicode="&#x109;" horiz-adv-x="753" d="M61 530q0 265 116.5 410t320.5 145q108 0 196 -43l-10 -106q-77 45 -176 45q-151 0 -234 -114.5t-84 -336.5q1 -227 85.5 -338.5t242.5 -111.5q102 0 174 45l10 -107q-79 -43 -196 -43q-212 0 -328.5 144t-116.5 411zM150 1196l204 340h148l205 -340h-123l-156 248 l-156 -248h-122z" />
<glyph unicode="&#x10a;" horiz-adv-x="940" d="M72 717q0 338 154 539.5t423 201.5q141 0 230 -47l-9 -119q-91 51 -215 51q-209 0 -329.5 -167t-120.5 -459q0 -293 121 -460t331 -167q137 0 222 49l10 -119q-91 -45 -234 -45q-271 0 -427 202t-156 540zM475 1726q0 59 18 84t58 25t58 -25t18 -84t-18 -83.5t-58 -24.5 t-58 24.5t-18 83.5z" />
<glyph unicode="&#x10b;" horiz-adv-x="753" d="M61 530q0 265 116.5 410t320.5 145q108 0 196 -43l-10 -106q-77 45 -176 45q-151 0 -234 -114.5t-84 -336.5q1 -227 85.5 -338.5t242.5 -111.5q102 0 174 45l10 -107q-79 -43 -196 -43q-212 0 -328.5 144t-116.5 411zM352 1370q0 59 18 84t58 25t58 -25t18 -84t-18 -83.5 t-58 -24.5t-58 24.5t-18 83.5z" />
<glyph unicode="&#x10c;" horiz-adv-x="940" d="M72 717q0 338 154 539.5t423 201.5q141 0 230 -47l-9 -119q-91 51 -215 51q-209 0 -329.5 -167t-120.5 -459q0 -293 121 -460t331 -167q137 0 222 49l10 -119q-91 -45 -234 -45q-271 0 -427 202t-156 540zM274 1892h123l156 -247l156 247h122l-204 -340h-148z" />
<glyph unicode="&#x10d;" horiz-adv-x="753" d="M61 530q0 265 116.5 410t320.5 145q108 0 196 -43l-10 -106q-77 45 -176 45q-151 0 -234 -114.5t-84 -336.5q1 -227 85.5 -338.5t242.5 -111.5q102 0 174 45l10 -107q-79 -43 -196 -43q-212 0 -328.5 144t-116.5 411zM150 1536h122l156 -248l156 248h123l-205 -340h-148z " />
<glyph unicode="&#x10e;" horiz-adv-x="1050" d="M143 0v1434h267q287 0 428 -175t141 -542q0 -369 -141 -543t-428 -174h-267zM162 1892h123l155 -247l156 247h123l-205 -340h-147zM274 113h136q231 0 333.5 144t102.5 460q0 315 -102.5 459.5t-333.5 144.5h-136v-1208z" />
<glyph unicode="&#x10f;" horiz-adv-x="1034" d="M61 530q0 273 91 414t260 141q134 0 223 -106v516h127v-1495h-127v82q-90 -107 -223 -107q-169 0 -260 141t-91 414zM190 530q0 -450 250 -450q55 0 107.5 32.5t87.5 88.5v659q-35 56 -87.5 88.5t-107.5 32.5q-250 0 -250 -451zM817 1126q78 84 78 162q-29 10 -41 36 t-12 79q0 63 19 90t61 27t60.5 -27.5t18.5 -95.5q0 -110 -33 -190.5t-108 -145.5z" />
<glyph unicode="&#x110;" horiz-adv-x="1060" d="M14 668v102h119v664h277q291 0 435 -175t144 -542q0 -368 -143.5 -542.5t-435.5 -174.5h-277v668h-119zM264 113h146q235 0 340.5 144.5t105.5 459.5q0 314 -105.5 459t-340.5 145h-146v-551h266v-102h-266v-555z" />
<glyph unicode="&#x111;" horiz-adv-x="884" d="M61 530q0 273 91 414t260 141q134 0 223 -106v258h-283v92h283v166h127v-166h98v-92h-98v-1237h-127v82q-90 -107 -223 -107q-169 0 -260 141t-91 414zM190 530q0 -450 250 -450q55 0 107.5 32.5t87.5 88.5v659q-35 56 -87.5 88.5t-107.5 32.5q-250 0 -250 -451z" />
<glyph unicode="&#x112;" horiz-adv-x="892" d="M143 0v1434h674v-113h-543v-526h506v-113h-506v-569h557v-113h-688zM233 1671v107h476v-107h-476z" />
<glyph unicode="&#x113;" horiz-adv-x="827" d="M61 535q0 272 92.5 411t264.5 139q174 0 266 -138t92 -402q0 -26 -4 -62h-579q9 -403 305 -403q116 0 204 57l11 -108q-91 -54 -224 -54q-209 0 -318.5 144.5t-109.5 415.5zM174 1317v106h475v-106h-475zM190 586h455q-3 395 -227 395q-113 0 -169 -98t-59 -297z" />
<glyph unicode="&#x114;" horiz-adv-x="892" d="M143 0v1434h674v-113h-543v-526h506v-113h-506v-569h557v-113h-688zM203 1878h112q6 -227 154 -227t154 227h112q-4 -162 -75 -242t-191 -80t-191 80t-75 242z" />
<glyph unicode="&#x115;" horiz-adv-x="827" d="M61 535q0 272 92.5 411t264.5 139q174 0 266 -138t92 -402q0 -26 -4 -62h-579q9 -403 305 -403q116 0 204 57l11 -108q-91 -54 -224 -54q-209 0 -318.5 144.5t-109.5 415.5zM150 1526h112q6 -228 154 -228q147 0 153 228h113q-4 -162 -75 -242t-191 -80t-191 80t-75 242z M190 586h455q-3 395 -227 395q-113 0 -169 -98t-59 -297z" />
<glyph unicode="&#x116;" horiz-adv-x="892" d="M143 0v1434h674v-113h-543v-526h506v-113h-506v-569h557v-113h-688zM399 1726q0 59 18 84t58 25t58 -25t18 -84t-18 -83.5t-58 -24.5t-58 24.5t-18 83.5z" />
<glyph unicode="&#x117;" horiz-adv-x="827" d="M61 535q0 272 92.5 411t264.5 139q174 0 266 -138t92 -402q0 -26 -4 -62h-579q9 -403 305 -403q116 0 204 57l11 -108q-91 -54 -224 -54q-209 0 -318.5 144.5t-109.5 415.5zM190 586h455q-3 395 -227 395q-113 0 -169 -98t-59 -297zM332 1370q0 59 18 84t58 25t57.5 -25 t17.5 -84t-17.5 -83.5t-57.5 -24.5t-58 24.5t-18 83.5z" />
<glyph unicode="&#x118;" horiz-adv-x="892" d="M143 0v1434h674v-113h-543v-526h506v-113h-506v-569h557v-113h-92q-112 -135 -112 -266q0 -88 80 -88q40 0 67 16v-96q-38 -15 -96 -15q-84 0 -129 47.5t-45 129.5q0 134 114 272h-475z" />
<glyph unicode="&#x119;" horiz-adv-x="827" d="M61 535q0 272 92.5 411t264.5 139q174 0 266 -138t92 -402q0 -26 -4 -62h-579q9 -403 305 -403q116 0 204 57l11 -108q-55 -31 -123 -43q-98 -127 -98 -252q0 -88 79 -88q41 0 68 16v-96q-37 -15 -96 -15q-84 0 -129 47.5t-45 129.5q0 119 94 247q-196 9 -299 153 t-103 407zM190 586h455q-3 395 -227 395q-113 0 -169 -98t-59 -297z" />
<glyph unicode="&#x11a;" horiz-adv-x="892" d="M143 0v1434h674v-113h-543v-526h506v-113h-506v-569h557v-113h-688zM199 1892h123l155 -247l156 247h123l-205 -340h-148z" />
<glyph unicode="&#x11b;" horiz-adv-x="827" d="M61 535q0 272 92.5 411t264.5 139q174 0 266 -138t92 -402q0 -26 -4 -62h-579q9 -403 305 -403q116 0 204 57l11 -108q-91 -54 -224 -54q-209 0 -318.5 144.5t-109.5 415.5zM137 1536h123l156 -248l155 248h123l-205 -340h-147zM190 586h455q-3 395 -227 395 q-113 0 -169 -98t-59 -297z" />
<glyph unicode="&#x11c;" horiz-adv-x="1107" d="M72 717q0 343 158 542t425 199q191 0 306 -74l-9 -122q-117 81 -295 81q-208 0 -330 -167t-122 -459t123 -459.5t338 -167.5q128 0 192 37v524h-317v113h444v-713q-123 -76 -323 -76q-271 0 -430.5 197.5t-159.5 544.5zM313 1552l205 340h148l204 -340h-122l-156 248 l-156 -248h-123z" />
<glyph unicode="&#x11d;" horiz-adv-x="874" d="M70 530q0 273 90.5 414t259.5 141q134 0 223 -106v82h127v-1024q0 -235 -91 -341t-288 -106q-125 0 -233 48l6 122q99 -57 223 -57q132 0 192.5 73.5t63.5 233.5v72q-90 -107 -223 -107q-169 0 -259.5 141t-90.5 414zM168 1196l205 340h147l205 -340h-123l-156 248 l-155 -248h-123zM199 530q0 -450 250 -450q55 0 106.5 32.5t87.5 88.5v659q-36 56 -87.5 88.5t-106.5 32.5q-250 0 -250 -451z" />
<glyph unicode="&#x11e;" horiz-adv-x="1107" d="M72 717q0 343 158 542t425 199q191 0 306 -74l-9 -122q-117 81 -295 81q-208 0 -330 -167t-122 -459t123 -459.5t338 -167.5q128 0 192 37v524h-317v113h444v-713q-123 -76 -323 -76q-271 0 -430.5 197.5t-159.5 544.5zM326 1878h112q6 -227 154 -227q147 0 153 227h113 q-4 -162 -75 -242t-191 -80t-191 80t-75 242z" />
<glyph unicode="&#x11f;" horiz-adv-x="874" d="M70 530q0 273 90.5 414t259.5 141q134 0 223 -106v82h127v-1024q0 -235 -91 -341t-288 -106q-125 0 -233 48l6 122q99 -57 223 -57q132 0 192.5 73.5t63.5 233.5v72q-90 -107 -223 -107q-169 0 -259.5 141t-90.5 414zM180 1526h113q6 -228 153 -228q148 0 154 228h113 q-4 -162 -75.5 -242t-191.5 -80t-191 80t-75 242zM199 530q0 -450 250 -450q55 0 106.5 32.5t87.5 88.5v659q-36 56 -87.5 88.5t-106.5 32.5q-250 0 -250 -451z" />
<glyph unicode="&#x120;" horiz-adv-x="1107" d="M72 717q0 343 158 542t425 199q191 0 306 -74l-9 -122q-117 81 -295 81q-208 0 -330 -167t-122 -459t123 -459.5t338 -167.5q128 0 192 37v524h-317v113h444v-713q-123 -76 -323 -76q-271 0 -430.5 197.5t-159.5 544.5zM504 1726q0 59 18 84t58 25t57.5 -25t17.5 -84 t-17.5 -83.5t-57.5 -24.5t-58 24.5t-18 83.5z" />
<glyph unicode="&#x121;" horiz-adv-x="874" d="M70 530q0 273 90.5 414t259.5 141q134 0 223 -106v82h127v-1024q0 -235 -91 -341t-288 -106q-125 0 -233 48l6 122q99 -57 223 -57q132 0 192.5 73.5t63.5 233.5v72q-90 -107 -223 -107q-169 0 -259.5 141t-90.5 414zM199 530q0 -450 250 -450q55 0 106.5 32.5t87.5 88.5 v659q-36 56 -87.5 88.5t-106.5 32.5q-250 0 -250 -451zM365 1370q0 59 17.5 84t57.5 25t58 -25t18 -84t-18 -83.5t-58 -24.5t-57.5 24.5t-17.5 83.5z" />
<glyph unicode="&#x122;" horiz-adv-x="1107" d="M72 717q0 343 158 542t425 199q191 0 306 -74l-9 -122q-117 81 -295 81q-208 0 -330 -167t-122 -459t123 -459.5t338 -167.5q128 0 192 37v524h-317v113h444v-713q-123 -76 -323 -76q-271 0 -430.5 197.5t-159.5 544.5zM551 -467q68 76 74 160q-50 14 -50 102 q0 56 18 80.5t58 24.5t58 -24.5t18 -80.5q0 -101 -31 -171t-104 -134z" />
<glyph unicode="&#x123;" horiz-adv-x="874" d="M70 530q0 273 90.5 414t259.5 141q134 0 223 -106v82h127v-1024q0 -235 -91 -341t-288 -106q-125 0 -233 48l6 122q99 -57 223 -57q132 0 192.5 73.5t63.5 233.5v72q-90 -107 -223 -107q-169 0 -259.5 141t-90.5 414zM199 530q0 -450 250 -450q55 0 106.5 32.5t87.5 88.5 v659q-36 56 -87.5 88.5t-106.5 32.5q-250 0 -250 -451zM360 1300q0 101 31 171t105 135l41 -43q-68 -76 -74 -160q49 -14 49 -103q0 -56 -18 -80t-58 -24t-58 24t-18 80z" />
<glyph unicode="&#x124;" horiz-adv-x="1105" d="M143 0v1434h131v-613h557v613h132v-1434h-132v709h-557v-709h-131zM274 1552l205 340h148l204 -340h-122l-156 248l-156 -248h-123z" />
<glyph unicode="&#x125;" horiz-adv-x="884" d="M51 1552l205 340h147l205 -340h-123l-155 248l-156 -248h-123zM113 0v1495h127v-516q41 50 104 78t135 28q148 0 225.5 -102t77.5 -307v-676h-127v616q0 196 -46.5 280.5t-157.5 84.5q-139 0 -211 -121v-860h-127z" />
<glyph unicode="&#x126;" horiz-adv-x="1126" d="M45 1112v102h109v220h131v-220h557v220h131v-220h108v-102h-108v-1112h-131v709h-557v-709h-131v1112h-109zM285 821h557v291h-557v-291z" />
<glyph unicode="&#x127;" horiz-adv-x="894" d="M25 1237v92h98v166h127v-166h282v-92h-282v-258q41 50 104 78t135 28q148 0 226 -102.5t78 -306.5v-676h-127v616q0 195 -46.5 280t-158.5 85q-139 0 -211 -121v-860h-127v1237h-98z" />
<glyph unicode="&#x128;" horiz-adv-x="438" d="M-47 1593q0 150 37 210.5t110 60.5q96 0 146 -88q17 -29 25 -41t21.5 -21.5t31.5 -9.5q30 0 42.5 32t12.5 124h106q0 -149 -37.5 -210t-111.5 -61q-54 0 -87 17t-59 59q-30 50 -44 67t-33 17q-29 0 -41.5 -31.5t-12.5 -124.5h-106zM154 0v1434h131v-1434h-131z" />
<glyph unicode="&#x129;" horiz-adv-x="372" d="M-80 1237q0 149 37 209.5t111 60.5q95 0 145 -88q16 -29 24.5 -41t22 -21t31.5 -9q30 0 42.5 31.5t12.5 123.5h107q0 -149 -38 -209.5t-112 -60.5q-54 0 -86.5 17t-58.5 59q-29 49 -44 66.5t-34 17.5q-29 0 -41 -31.5t-12 -124.5h-107zM123 0v1061h127v-1061h-127z" />
<glyph unicode="&#x12a;" horiz-adv-x="438" d="M-18 1671v107h475v-107h-475zM154 0v1434h131v-1434h-131z" />
<glyph unicode="&#x12b;" horiz-adv-x="372" d="M-51 1317v106h475v-106h-475zM123 0v1061h127v-1061h-127z" />
<glyph unicode="&#x12c;" horiz-adv-x="438" d="M-47 1878h113q6 -227 153 -227q148 0 154 227h112q-4 -162 -75 -242t-191 -80t-191 80t-75 242zM154 0v1434h131v-1434h-131z" />
<glyph unicode="&#x12d;" horiz-adv-x="372" d="M-80 1526h113q6 -228 153 -228q148 0 154 228h113q-4 -162 -75.5 -242t-191.5 -80t-191 80t-75 242zM123 0v1061h127v-1061h-127z" />
<glyph unicode="&#x12e;" horiz-adv-x="438" d="M49 -272q0 133 115 272h-10v1434h131v-1434q-113 -136 -113 -266q0 -88 80 -88q40 0 67 16v-96q-37 -15 -96 -15q-84 0 -129 47.5t-45 129.5z" />
<glyph unicode="&#x12f;" horiz-adv-x="372" d="M14 -272q0 133 115 272h-6v1061h127v-1061q-113 -136 -113 -266q0 -88 80 -88q41 0 68 16v-96q-37 -15 -97 -15q-84 0 -129 47.5t-45 129.5zM106 1378q0 63 19 90t61 27t61 -27t19 -90t-19 -89.5t-61 -26.5t-61 26.5t-19 89.5z" />
<glyph unicode="&#x130;" horiz-adv-x="438" d="M143 1726q0 59 18 84t58 25t58 -25t18 -84t-18 -83.5t-58 -24.5t-58 24.5t-18 83.5zM154 0v1434h131v-1434h-131z" />
<glyph unicode="&#x131;" horiz-adv-x="372" d="M123 0v1061h127v-1061h-127z" />
<glyph unicode="&#x132;" horiz-adv-x="1036" d="M143 0v1434h131v-1434h-131zM350 18l10 119q81 -47 187 -47q120 0 167.5 80.5t47.5 294.5v969h131v-973q0 -266 -76 -376t-264 -110q-118 0 -203 43z" />
<glyph unicode="&#x133;" horiz-adv-x="679" d="M96 1378q0 63 19 90t61 27t61 -27t19 -90t-19 -89.5t-61 -26.5t-61 26.5t-19 89.5zM113 0v1061h127v-1061h-127zM219 -391l8 106q36 -20 84 -20q64 0 96.5 38.5t32.5 127.5v1200h127v-1184q0 -151 -58 -219t-181 -68q-57 0 -109 19zM424 1378q0 63 19 90t61 27t61 -27 t19 -90t-19 -89.5t-61 -26.5t-61 26.5t-19 89.5z" />
<glyph unicode="&#x134;" horiz-adv-x="696" d="M10 18l10 119q81 -47 187 -47q120 0 167.5 80.5t47.5 294.5v969h131v-973q0 -266 -76 -376t-264 -110q-118 0 -203 43zM209 1552l205 340h147l205 -340h-123l-156 248l-155 -248h-123z" />
<glyph unicode="&#x135;" horiz-adv-x="348" d="M-113 -391l9 106q36 -20 84 -20q64 0 96.5 38.5t32.5 127.5v1200h127v-1184q0 -150 -58.5 -218.5t-181.5 -68.5q-57 0 -109 19zM-98 1192l204 340h148l205 -340h-123l-156 248l-155 -248h-123z" />
<glyph unicode="&#x136;" horiz-adv-x="929" d="M143 0v1434h131v-652l461 652h148l-477 -670l544 -764h-155l-521 739v-739h-131zM410 -467q67 75 73 160q-49 14 -49 102q0 56 18 80.5t58 24.5t58 -24.5t18 -80.5q0 -101 -31 -171t-104 -134z" />
<glyph unicode="&#x137;" horiz-adv-x="774" d="M104 0v1495h127v-877l357 443h151l-379 -467l414 -594h-151l-392 567v-567h-127zM301 -467q68 76 74 160q-49 14 -49 102q0 57 17.5 81t57.5 24t58 -24.5t18 -80.5q0 -101 -31 -171t-104 -134z" />
<glyph unicode="&#x138;" horiz-adv-x="774" d="M104 0v1061h127v-486l357 486h151l-383 -510l418 -551h-151l-392 524v-524h-127z" />
<glyph unicode="&#x139;" horiz-adv-x="880" d="M123 1561l207 331h135v-28l-223 -303h-119zM143 0v1434h131v-1321h586v-113h-717z" />
<glyph unicode="&#x13a;" horiz-adv-x="372" d="M102 1561l207 331h135v-28l-223 -303h-119zM123 0v1495h127v-1495h-127z" />
<glyph unicode="&#x13b;" horiz-adv-x="880" d="M143 0v1434h131v-1321h586v-113h-717zM424 -467q68 76 74 160q-49 14 -49 102q0 57 17.5 81t57.5 24t58 -24.5t18 -80.5q0 -101 -31 -171t-104 -134z" />
<glyph unicode="&#x13c;" horiz-adv-x="372" d="M86 -467q68 76 74 160q-49 14 -49 102q0 57 17.5 81t57.5 24t58 -24.5t18 -80.5q0 -101 -31 -171t-104 -134zM123 0v1495h127v-1495h-127z" />
<glyph unicode="&#x13d;" horiz-adv-x="880" d="M143 0v1434h131v-1321h586v-113h-717zM582 1126q77 83 77 162q-29 10 -41 36t-12 79q0 63 19 90t61 27t61 -27.5t19 -95.5q0 -110 -33 -190.5t-108 -145.5z" />
<glyph unicode="&#x13e;" horiz-adv-x="522" d="M123 0v1495h127v-1495h-127zM305 1126q78 84 78 162q-29 10 -41 36t-12 79q0 63 19 90t61 27t60.5 -27.5t18.5 -95.5q0 -110 -33 -190.5t-108 -145.5z" />
<glyph unicode="&#x13f;" horiz-adv-x="880" d="M143 0v1434h131v-1321h586v-113h-717zM559 776q0 59 18 84t58 25t58 -25t18 -84t-18 -83.5t-58 -24.5t-58 24.5t-18 83.5z" />
<glyph unicode="&#x140;" horiz-adv-x="612" d="M123 0v1495h127v-1495h-127zM430 776q0 59 18 84t58 25t58 -25t18 -84t-18 -83.5t-58 -24.5t-58 24.5t-18 83.5z" />
<glyph unicode="&#x141;" horiz-adv-x="911" d="M-27 584l201 143v707h131v-613l422 305l66 -94l-488 -352v-567h586v-113h-717v584l-137 -99z" />
<glyph unicode="&#x142;" horiz-adv-x="618" d="M-25 627l265 192v676h127v-584l208 152l68 -92l-276 -203v-768h-127v676l-199 -144z" />
<glyph unicode="&#x143;" horiz-adv-x="1112" d="M143 0v1434h187l512 -1256v1256h127v-1434h-187l-512 1255v-1255h-127zM420 1561l207 331h135v-28l-223 -303h-119z" />
<glyph unicode="&#x144;" horiz-adv-x="884" d="M113 0v1061h127v-82q41 50 104 78t135 28q148 0 225.5 -102t77.5 -307v-676h-127v616q0 196 -46.5 280.5t-157.5 84.5q-139 0 -211 -121v-860h-127zM299 1204l207 332h135v-29l-223 -303h-119z" />
<glyph unicode="&#x145;" horiz-adv-x="1112" d="M143 0v1434h187l512 -1256v1256h127v-1434h-187l-512 1255v-1255h-127zM467 -467q68 76 74 160q-49 14 -49 102q0 57 17.5 81t57.5 24t58 -24.5t18 -80.5q0 -101 -31 -171t-104 -134z" />
<glyph unicode="&#x146;" horiz-adv-x="884" d="M113 0v1061h127v-82q41 50 104 78t135 28q148 0 225.5 -102t77.5 -307v-676h-127v616q0 196 -46.5 280.5t-157.5 84.5q-139 0 -211 -121v-860h-127zM352 -467q68 76 74 160q-49 14 -49 102q0 56 18 80.5t58 24.5t57.5 -24t17.5 -81q0 -101 -31 -171t-104 -134z" />
<glyph unicode="&#x147;" horiz-adv-x="1112" d="M143 0v1434h187l512 -1256v1256h127v-1434h-187l-512 1255v-1255h-127zM276 1892h123l156 -247l156 247h123l-205 -340h-148z" />
<glyph unicode="&#x148;" horiz-adv-x="884" d="M113 0v1061h127v-82q41 50 104 78t135 28q148 0 225.5 -102t77.5 -307v-676h-127v616q0 196 -46.5 280.5t-157.5 84.5q-139 0 -211 -121v-860h-127zM168 1536h123l155 -248l156 248h123l-205 -340h-147z" />
<glyph unicode="&#x149;" horiz-adv-x="1011" d="M33 1126q78 84 78 162q-29 11 -41.5 37t-12.5 78q0 63 19 90t61 27t61 -27.5t19 -95.5q0 -110 -33 -190.5t-108 -145.5zM240 0v1061h127v-82q41 50 104 78t135 28q148 0 225.5 -102t77.5 -307v-676h-127v616q0 196 -46.5 280.5t-157.5 84.5q-139 0 -211 -121v-860h-127z " />
<glyph unicode="&#x14a;" horiz-adv-x="1112" d="M143 0v1434h181l518 -1162v1162h127v-1493q0 -189 -52.5 -270t-177.5 -81q-69 0 -123 21l11 117q41 -23 98 -23q62 0 89.5 50t27.5 182v45l-572 1265v-1247h-127z" />
<glyph unicode="&#x14b;" horiz-adv-x="884" d="M113 0v1061h127v-82q41 50 104 78t135 28q148 0 225.5 -102t77.5 -307v-735q0 -189 -52 -270t-177 -81q-67 0 -121 21l8 106q37 -22 99 -22t89 53.5t27 188.5v679q0 196 -46.5 280.5t-157.5 84.5q-139 0 -211 -121v-860h-127z" />
<glyph unicode="&#x14c;" horiz-adv-x="1085" d="M72 717q0 355 120.5 548t350.5 193t350.5 -193t120.5 -548q0 -357 -120 -549.5t-351 -192.5t-351 192.5t-120 549.5zM205 717q0 -627 338 -627t338 627q0 626 -338 626t-338 -626zM305 1671v107h475v-107h-475z" />
<glyph unicode="&#x14d;" horiz-adv-x="880" d="M61 530q0 275 101.5 415t277.5 140t277.5 -140t101.5 -415t-101.5 -415t-277.5 -140t-277.5 140t-101.5 415zM190 530q0 -229 66 -339.5t184 -110.5t184 110.5t66 339.5t-66.5 340t-183.5 111t-183.5 -111t-66.5 -340zM203 1317v106h475v-106h-475z" />
<glyph unicode="&#x14e;" horiz-adv-x="1085" d="M72 717q0 355 120.5 548t350.5 193t350.5 -193t120.5 -548q0 -357 -120 -549.5t-351 -192.5t-351 192.5t-120 549.5zM205 717q0 -627 338 -627t338 627q0 626 -338 626t-338 -626zM274 1878h113q6 -227 154 -227q147 0 153 227h113q-4 -162 -75 -242t-191 -80t-191.5 80 t-75.5 242z" />
<glyph unicode="&#x14f;" horiz-adv-x="880" d="M61 530q0 275 101.5 415t277.5 140t277.5 -140t101.5 -415t-101.5 -415t-277.5 -140t-277.5 140t-101.5 415zM174 1526h113q6 -228 153 -228q148 0 154 228h113q-4 -162 -75.5 -242t-191.5 -80t-191 80t-75 242zM190 530q0 -229 66 -339.5t184 -110.5t184 110.5t66 339.5 t-66.5 340t-183.5 111t-183.5 -111t-66.5 -340z" />
<glyph unicode="&#x150;" horiz-adv-x="1085" d="M72 717q0 355 120.5 548t350.5 193t350.5 -193t120.5 -548q0 -357 -120 -549.5t-351 -192.5t-351 192.5t-120 549.5zM205 717q0 -627 338 -627t338 627q0 626 -338 626t-338 -626zM307 1561l207 331h135v-28l-223 -303h-119zM573 1561l207 331h135v-28l-223 -303h-119z " />
<glyph unicode="&#x151;" horiz-adv-x="880" d="M61 530q0 275 101.5 415t277.5 140t277.5 -140t101.5 -415t-101.5 -415t-277.5 -140t-277.5 140t-101.5 415zM190 530q0 -229 66 -339.5t184 -110.5t184 110.5t66 339.5t-66.5 340t-183.5 111t-183.5 -111t-66.5 -340zM225 1204l207 332h135v-29l-223 -303h-119z M492 1204l206 332h136v-29l-224 -303h-118z" />
<glyph unicode="&#x152;" horiz-adv-x="1294" d="M72 717q0 342 155 529.5t420 187.5h572v-113h-455v-526h418v-113h-418v-569h469v-113h-586q-266 0 -420.5 187t-154.5 530zM205 717q0 -558 428 -604l-2 1206q-205 -18 -315.5 -166.5t-110.5 -435.5z" />
<glyph unicode="&#x153;" horiz-adv-x="1398" d="M61 530q0 271 94 413t265 142q104 0 184.5 -68.5t116.5 -193.5q32 127 106.5 194.5t178.5 67.5q164 0 253 -142t89 -404q0 -38 -2 -58h-564q10 -199 86 -300t201 -101q117 0 203 72l14 -115q-86 -62 -219 -62q-134 0 -220.5 71.5t-125.5 197.5q-34 -129 -111.5 -199 t-189.5 -70q-171 0 -265 141.5t-94 413.5zM188 530q0 -226 61 -338t171 -112q111 0 171 114t60 336t-60.5 336.5t-170.5 114.5t-171 -112.5t-61 -338.5zM782 584h439q-1 192 -59 295.5t-163 103.5q-101 0 -157.5 -103t-59.5 -296z" />
<glyph unicode="&#x154;" horiz-adv-x="960" d="M143 0v1434h342q188 0 296 -108.5t108 -301.5q0 -146 -63.5 -245.5t-178.5 -139.5l303 -639h-139l-289 614h-248v-614h-131zM274 727h207q134 0 204.5 77t70.5 220t-70.5 220t-204.5 77h-207v-594zM330 1561l207 331h135v-28l-223 -303h-119z" />
<glyph unicode="&#x155;" horiz-adv-x="565" d="M113 0v1061h127v-127q36 70 94.5 110.5t136.5 40.5q50 0 94 -14l-12 -108q-31 14 -76 14q-87 0 -144.5 -54t-92.5 -169v-754h-127zM186 1204l207 332h135v-29l-223 -303h-119z" />
<glyph unicode="&#x156;" horiz-adv-x="960" d="M143 0v1434h342q188 0 296 -108.5t108 -301.5q0 -146 -63.5 -245.5t-178.5 -139.5l303 -639h-139l-289 614h-248v-614h-131zM274 727h207q134 0 204.5 77t70.5 220t-70.5 220t-204.5 77h-207v-594zM418 -467q68 76 74 160q-50 14 -50 102q0 56 18 80.5t58 24.5t58 -24.5 t18 -80.5q0 -101 -31 -171t-104 -134z" />
<glyph unicode="&#x157;" horiz-adv-x="565" d="M78 -467q68 76 74 160q-50 14 -50 102q0 56 18 80.5t58 24.5t58 -24.5t18 -80.5q0 -101 -31 -171t-104 -134zM113 0v1061h127v-127q36 70 94.5 110.5t136.5 40.5q50 0 94 -14l-12 -108q-31 14 -76 14q-87 0 -144.5 -54t-92.5 -169v-754h-127z" />
<glyph unicode="&#x158;" horiz-adv-x="960" d="M143 0v1434h342q188 0 296 -108.5t108 -301.5q0 -146 -63.5 -245.5t-178.5 -139.5l303 -639h-139l-289 614h-248v-614h-131zM168 1892h123l155 -247l156 247h123l-205 -340h-147zM274 727h207q134 0 204.5 77t70.5 220t-70.5 220t-204.5 77h-207v-594z" />
<glyph unicode="&#x159;" horiz-adv-x="565" d="M43 1536h123l156 -248l155 248h123l-205 -340h-147zM113 0v1061h127v-127q36 70 94.5 110.5t136.5 40.5q50 0 94 -14l-12 -108q-31 14 -76 14q-87 0 -144.5 -54t-92.5 -169v-754h-127z" />
<glyph unicode="&#x15a;" horiz-adv-x="843" d="M82 1102q0 163 102.5 259.5t278.5 96.5q144 0 246 -51l-9 -125q-89 61 -227 61q-122 0 -190 -64t-68 -175t58 -182t190 -129q162 -72 235.5 -173t73.5 -253q0 -185 -105 -288.5t-298 -103.5q-157 0 -281 62l10 131q118 -78 273 -78q129 0 198.5 72t69.5 200 q0 118 -59 194t-191 132q-161 67 -234 167t-73 247zM301 1561l207 331h135v-28l-223 -303h-119z" />
<glyph unicode="&#x15b;" horiz-adv-x="706" d="M72 37l8 115q106 -72 227 -72q99 0 149 49t50 137q0 85 -45.5 139t-157.5 101q-227 94 -227 299q0 136 81 208t224 72q118 0 211 -41l-10 -108q-80 45 -189 45q-93 0 -140.5 -45.5t-47.5 -124.5q0 -73 42.5 -124.5t155.5 -100.5q122 -53 177 -130t55 -184 q0 -145 -82.5 -221t-235.5 -76q-136 0 -245 62zM229 1204l207 332h135v-29l-223 -303h-119z" />
<glyph unicode="&#x15c;" horiz-adv-x="843" d="M82 1102q0 163 102.5 259.5t278.5 96.5q144 0 246 -51l-9 -125q-89 61 -227 61q-122 0 -190 -64t-68 -175t58 -182t190 -129q162 -72 235.5 -173t73.5 -253q0 -185 -105 -288.5t-298 -103.5q-157 0 -281 62l10 131q118 -78 273 -78q129 0 198.5 72t69.5 200 q0 118 -59 194t-191 132q-161 67 -234 167t-73 247zM133 1552l205 340h147l205 -340h-123l-155 248l-156 -248h-123z" />
<glyph unicode="&#x15d;" horiz-adv-x="706" d="M72 37l8 115q106 -72 227 -72q99 0 149 49t50 137q0 85 -45.5 139t-157.5 101q-227 94 -227 299q0 136 81 208t224 72q118 0 211 -41l-10 -108q-80 45 -189 45q-93 0 -140.5 -45.5t-47.5 -124.5q0 -73 42.5 -124.5t155.5 -100.5q122 -53 177 -130t55 -184 q0 -145 -82.5 -221t-235.5 -76q-136 0 -245 62zM76 1196l205 340h147l205 -340h-123l-156 248l-155 -248h-123z" />
<glyph unicode="&#x15e;" horiz-adv-x="843" d="M82 1102q0 163 102.5 259.5t278.5 96.5q144 0 246 -51l-9 -125q-89 61 -227 61q-122 0 -190 -64t-68 -175t58 -182t190 -129q162 -72 235.5 -173t73.5 -253q0 -153 -74 -251.5t-211 -127.5l-47 -117q61 -21 97 -68t36 -112q0 -80 -54 -129t-146 -49q-51 0 -97 16v94 q34 -18 82 -18q44 0 73.5 24t29.5 66q0 113 -154 127l60 153q-155 0 -279 62l10 131q118 -78 273 -78q129 0 198.5 72t69.5 200q0 118 -59 194t-191 132q-161 67 -234 167t-73 247z" />
<glyph unicode="&#x15f;" horiz-adv-x="706" d="M72 37l8 115q106 -72 227 -72q99 0 149 49t50 137q0 85 -45.5 139t-157.5 101q-227 94 -227 299q0 136 81 208t224 72q118 0 211 -41l-10 -108q-80 45 -189 45q-93 0 -140.5 -45.5t-47.5 -124.5q0 -73 42.5 -124.5t155.5 -100.5q122 -53 177 -130t55 -184 q0 -119 -56 -191.5t-161 -94.5l-47 -115q61 -21 97 -68t36 -112q0 -80 -54.5 -129t-146.5 -49q-50 0 -96 16v94q35 -18 82 -18q44 0 73 24t29 66q0 113 -153 127l59 153q-125 6 -225 62z" />
<glyph unicode="&#x160;" horiz-adv-x="843" d="M82 1102q0 163 102.5 259.5t278.5 96.5q144 0 246 -51l-9 -125q-89 61 -227 61q-122 0 -190 -64t-68 -175t58 -182t190 -129q162 -72 235.5 -173t73.5 -253q0 -185 -105 -288.5t-298 -103.5q-157 0 -281 62l10 131q118 -78 273 -78q129 0 198.5 72t69.5 200 q0 118 -59 194t-191 132q-161 67 -234 167t-73 247zM133 1892h123l156 -247l155 247h123l-205 -340h-147z" />
<glyph unicode="&#x161;" horiz-adv-x="706" d="M72 37l8 115q106 -72 227 -72q99 0 149 49t50 137q0 85 -45.5 139t-157.5 101q-227 94 -227 299q0 136 81 208t224 72q118 0 211 -41l-10 -108q-80 45 -189 45q-93 0 -140.5 -45.5t-47.5 -124.5q0 -73 42.5 -124.5t155.5 -100.5q122 -53 177 -130t55 -184 q0 -145 -82.5 -221t-235.5 -76q-136 0 -245 62zM76 1536h123l155 -248l156 248h123l-205 -340h-147z" />
<glyph unicode="&#x162;" horiz-adv-x="827" d="M10 1321v113h807v-113h-338v-1321l-53 -129q61 -21 97 -68t36 -112q0 -80 -54.5 -129t-146.5 -49q-50 0 -96 16v94q34 -18 82 -18q44 0 73 24t29 66q0 113 -153 127l69 178h-14v1321h-338z" />
<glyph unicode="&#x163;" horiz-adv-x="604" d="M31 958v103h143v317h127v-317h252v-103h-252v-655q0 -122 32.5 -172.5t108.5 -50.5q52 0 95 16l12 -104q-49 -14 -103 -17l-43 -104q61 -21 97.5 -68t36.5 -112q0 -80 -54.5 -129t-146.5 -49q-50 0 -96 16v94q34 -18 82 -18q44 0 73 24t29 66q0 113 -154 127l64 166 q-82 25 -121 102.5t-39 218.5v649h-143z" />
<glyph unicode="&#x164;" horiz-adv-x="827" d="M10 1321v113h807v-113h-338v-1321h-131v1321h-338zM135 1892h123l156 -247l155 247h123l-205 -340h-147z" />
<glyph unicode="&#x165;" horiz-adv-x="733" d="M20 958v103h144v317h127v-317h252v-103h-252v-655q0 -122 32.5 -172.5t108.5 -50.5q51 0 94 16l13 -104q-55 -17 -119 -17q-132 0 -194 79.5t-62 254.5v649h-144zM516 1126q78 84 78 162q-29 10 -41 36t-12 79q0 63 19 90t61 27t60.5 -27.5t18.5 -95.5q0 -110 -33 -190.5 t-108 -145.5z" />
<glyph unicode="&#x166;" horiz-adv-x="827" d="M10 1321v113h807v-113h-338v-549h228v-102h-228v-670h-131v670h-227v102h227v549h-338z" />
<glyph unicode="&#x167;" horiz-adv-x="593" d="M20 958v103h144v317h127v-317h252v-103h-252v-305h219v-92h-219v-258q0 -122 32.5 -172.5t108.5 -50.5q51 0 94 16l13 -104q-55 -17 -119 -17q-132 0 -194 79.5t-62 254.5v252h-109v92h109v305h-144z" />
<glyph unicode="&#x168;" horiz-adv-x="1126" d="M143 494v940h131v-940q0 -213 72 -308.5t217 -95.5t217 95.5t72 308.5v940h131v-940q0 -519 -420 -519t-420 519zM297 1593q0 150 37 210.5t110 60.5q96 0 146 -88q17 -29 25 -41t21.5 -21.5t31.5 -9.5q30 0 42.5 32t12.5 124h106q0 -149 -37.5 -210t-111.5 -61 q-54 0 -86.5 17t-58.5 59q-29 49 -44 66.5t-34 17.5q-29 0 -41.5 -31.5t-12.5 -124.5h-106z" />
<glyph unicode="&#x169;" horiz-adv-x="884" d="M102 385v676h127v-617q0 -195 46.5 -279.5t158.5 -84.5q139 0 211 121v860h127v-1061h-127v82q-50 -56 -105.5 -81.5t-133.5 -25.5q-148 0 -226 102.5t-78 307.5zM172 1237q0 149 37 209.5t110 60.5q96 0 146 -88q16 -29 24.5 -41t22 -21t31.5 -9q30 0 42.5 31.5 t12.5 123.5h107q0 -149 -38 -209.5t-112 -60.5q-54 0 -86.5 17t-58.5 59q-29 49 -44 66.5t-34 17.5q-29 0 -41 -31.5t-12 -124.5h-107z" />
<glyph unicode="&#x16a;" horiz-adv-x="1126" d="M143 494v940h131v-940q0 -213 72 -308.5t217 -95.5t217 95.5t72 308.5v940h131v-940q0 -519 -420 -519t-420 519zM326 1671v107h475v-107h-475z" />
<glyph unicode="&#x16b;" horiz-adv-x="884" d="M102 385v676h127v-617q0 -195 46.5 -279.5t158.5 -84.5q139 0 211 121v860h127v-1061h-127v82q-50 -56 -105.5 -81.5t-133.5 -25.5q-148 0 -226 102.5t-78 307.5zM201 1317v106h475v-106h-475z" />
<glyph unicode="&#x16c;" horiz-adv-x="1126" d="M143 494v940h131v-940q0 -213 72 -308.5t217 -95.5t217 95.5t72 308.5v940h131v-940q0 -519 -420 -519t-420 519zM297 1878h113q6 -227 153 -227q148 0 154 227h112q-4 -162 -75 -242t-191 -80t-191 80t-75 242z" />
<glyph unicode="&#x16d;" horiz-adv-x="884" d="M102 385v676h127v-617q0 -195 46.5 -279.5t158.5 -84.5q139 0 211 121v860h127v-1061h-127v82q-50 -56 -105.5 -81.5t-133.5 -25.5q-148 0 -226 102.5t-78 307.5zM170 1526h113q6 -228 153 -228q148 0 154 228h112q-4 -162 -75 -242t-191 -80t-191 80t-75 242z" />
<glyph unicode="&#x16e;" horiz-adv-x="1126" d="M143 494v940h131v-940q0 -213 72 -308.5t217 -95.5t217 95.5t72 308.5v940h131v-940q0 -519 -420 -519t-420 519zM346 1726q0 93 60.5 152t156.5 59t156.5 -59t60.5 -152t-60.5 -151.5t-156.5 -58.5t-156.5 58.5t-60.5 151.5zM438 1726q0 -59 35 -91.5t90 -32.5t90 32.5 t35 91.5t-35 92t-90 33t-90 -33t-35 -92z" />
<glyph unicode="&#x16f;" horiz-adv-x="884" d="M102 385v676h127v-617q0 -195 46.5 -279.5t158.5 -84.5q139 0 211 121v860h127v-1061h-127v82q-50 -56 -105.5 -81.5t-133.5 -25.5q-148 0 -226 102.5t-78 307.5zM219 1370q0 93 60.5 152t156.5 59t156.5 -59t60.5 -152t-60.5 -152t-156.5 -59t-156.5 59t-60.5 152z M311 1370q0 -59 35 -92t90 -33t90 33t35 92t-35 92t-90 33t-90 -33t-35 -92z" />
<glyph unicode="&#x170;" horiz-adv-x="1126" d="M143 494v940h131v-940q0 -213 72 -308.5t217 -95.5t217 95.5t72 308.5v940h131v-940q0 -519 -420 -519t-420 519zM328 1561l207 331h135v-28l-224 -303h-118zM594 1561l207 331h135v-28l-223 -303h-119z" />
<glyph unicode="&#x171;" horiz-adv-x="884" d="M102 385v676h127v-617q0 -195 46.5 -279.5t158.5 -84.5q139 0 211 121v860h127v-1061h-127v82q-50 -56 -105.5 -81.5t-133.5 -25.5q-148 0 -226 102.5t-78 307.5zM211 1204l207 332h135v-29l-223 -303h-119zM477 1204l207 332h135v-29l-223 -303h-119z" />
<glyph unicode="&#x172;" horiz-adv-x="1126" d="M143 494v940h131v-940q0 -213 72 -308.5t217 -95.5t217 95.5t72 308.5v940h131v-940q0 -455 -321 -510q-99 -125 -99 -250q0 -88 80 -88q41 0 68 16v-96q-37 -15 -97 -15q-84 0 -129 47.5t-45 129.5q0 118 95 247q-392 16 -392 519z" />
<glyph unicode="&#x173;" horiz-adv-x="884" d="M102 385v676h127v-617q0 -195 46.5 -279.5t158.5 -84.5q139 0 211 121v860h127v-1061q-113 -136 -113 -266q0 -88 80 -88q41 0 68 16v-96q-38 -15 -96 -15q-84 0 -129 47.5t-45 129.5q0 134 114 272h-6v82q-50 -56 -105.5 -81.5t-133.5 -25.5q-148 0 -226 102.5 t-78 307.5z" />
<glyph unicode="&#x174;" horiz-adv-x="1495" d="M31 1434h135l268 -1297l230 1297h167l230 -1297l268 1297h135l-309 -1434h-192l-215 1221l-216 -1221h-192zM469 1552l205 340h147l205 -340h-123l-155 248l-156 -248h-123z" />
<glyph unicode="&#x175;" horiz-adv-x="1212" d="M25 1061h129l196 -916l178 916h156l178 -916l197 916h129l-242 -1061h-166l-174 883l-174 -883h-166zM328 1196l204 340h148l205 -340h-123l-156 248l-155 -248h-123z" />
<glyph unicode="&#x176;" horiz-adv-x="995" d="M31 1434h137l330 -727l329 727h138l-402 -865v-569h-131v569zM219 1552l205 340h147l205 -340h-123l-155 248l-156 -248h-123z" />
<glyph unicode="&#x177;" horiz-adv-x="811" d="M25 1061h133l243 -862l252 862h133l-434 -1456h-133l119 395zM127 1196l205 340h147l205 -340h-123l-155 248l-156 -248h-123z" />
<glyph unicode="&#x178;" horiz-adv-x="995" d="M31 1434h137l330 -727l329 727h138l-402 -865v-569h-131v569zM262 1726q0 61 16.5 85t55.5 24t55.5 -24t16.5 -85q0 -60 -16.5 -84t-55.5 -24t-55.5 24t-16.5 84zM590 1726q0 61 16.5 85t55.5 24t55 -24t16 -85t-16 -84.5t-55 -23.5t-55.5 24t-16.5 84z" />
<glyph unicode="&#x179;" horiz-adv-x="860" d="M51 0v117l594 1204h-571v113h719v-117l-594 -1204h610v-113h-758zM313 1561l207 331h135v-28l-223 -303h-119z" />
<glyph unicode="&#x17a;" horiz-adv-x="722" d="M45 0v106l477 852h-456v103h596v-107l-478 -852h494v-102h-633zM260 1204l207 332h135v-29l-223 -303h-119z" />
<glyph unicode="&#x17b;" horiz-adv-x="860" d="M51 0v117l594 1204h-571v113h719v-117l-594 -1204h610v-113h-758zM340 1726q0 59 18 84t58 25t58 -25t18 -84t-18 -83.5t-58 -24.5t-58 24.5t-18 83.5z" />
<glyph unicode="&#x17c;" horiz-adv-x="722" d="M45 0v106l477 852h-456v103h596v-107l-478 -852h494v-102h-633zM276 1370q0 59 18 84t58 25t58 -25t18 -84t-18 -83.5t-58 -24.5t-58 24.5t-18 83.5z" />
<glyph unicode="&#x17d;" horiz-adv-x="860" d="M51 0v117l594 1204h-571v113h719v-117l-594 -1204h610v-113h-758zM152 1892h122l156 -247l156 247h123l-205 -340h-148z" />
<glyph unicode="&#x17e;" horiz-adv-x="722" d="M45 0v106l477 852h-456v103h596v-107l-478 -852h494v-102h-633zM82 1536h123l155 -248l156 248h123l-205 -340h-147z" />
<glyph unicode="&#x17f;" horiz-adv-x="548" d="M20 958v103h166v104q0 169 64 249.5t199 80.5q66 0 112 -16l-10 -105q-42 17 -90 17q-77 0 -112.5 -49t-35.5 -181v-1161h-127v958h-166z" />
<glyph unicode="&#x191;" horiz-adv-x="847" d="M-96 -391l12 119q44 -21 92 -21q69 0 102 50t33 167v1510h674v-113h-543v-520h506v-113h-506v-774q0 -168 -63 -246t-193 -78q-62 0 -114 19z" />
<glyph unicode="&#x192;" horiz-adv-x="548" d="M-61 -393l8 106q34 -18 92 -18q77 0 112 48.5t35 180.5v1034h-166v103h166v104q0 169 64 249.5t199 80.5q66 0 112 -16l-10 -105q-42 17 -90 17q-77 0 -112.5 -49t-35.5 -181v-100h226v-103h-226v-1038q0 -169 -63.5 -249.5t-198.5 -80.5q-63 0 -112 17z" />
<glyph unicode="&#x1fa;" horiz-adv-x="978" d="M10 0l369 1333q-48 28 -77.5 77t-29.5 106q0 88 62.5 149t154.5 61t155 -61t63 -149q0 -58 -29.5 -106.5t-79.5 -76.5l371 -1333h-138l-106 393h-471l-107 -393h-137zM283 506h413l-207 784zM365 1516q0 -54 35.5 -89.5t88.5 -35.5t89 35.5t36 89.5t-36 89t-89 35 t-88.5 -35t-35.5 -89zM412 1782l145 225h127v-22l-162 -203h-110z" />
<glyph unicode="&#x1fb;" horiz-adv-x="827" d="M51 303q0 162 91.5 250t263.5 88h186v86q0 141 -46.5 197.5t-158.5 56.5q-131 0 -250 -66l-10 107q123 63 268 63q167 0 245.5 -83.5t78.5 -266.5v-735h-127v82q-85 -107 -250 -107q-129 0 -210 85t-81 243zM178 305q0 -112 51 -168.5t142 -56.5q141 0 221 121v338h-182 q-232 0 -232 -234zM188 1370q0 93 61 152t157 59t156.5 -59t60.5 -152t-60.5 -152t-156.5 -59t-157 59t-61 152zM281 1370q0 -59 35 -92t90 -33t89.5 32.5t34.5 92.5t-34.5 92.5t-89.5 32.5t-90 -33t-35 -92zM328 1634l145 226h127v-23l-162 -203h-110z" />
<glyph unicode="&#x1fc;" horiz-adv-x="1296" d="M10 0l537 1434h676v-113h-457v-526h418v-113h-418v-569h469v-113h-600v371h-346l-135 -371h-144zM330 483h305v830zM752 1561l206 331h136v-28l-224 -303h-118z" />
<glyph unicode="&#x1fd;" horiz-adv-x="1320" d="M51 299q0 161 88 253.5t252 92.5h182q0 171 -51.5 253.5t-161.5 82.5q-119 0 -231 -63l-10 106q115 61 252 61q108 0 182 -62.5t96 -172.5q35 114 107.5 174.5t171.5 60.5q164 0 253 -142t89 -404q0 -38 -2 -58h-563q10 -199 85.5 -300t200.5 -101q117 0 203 72l14 -115 q-86 -62 -219 -62t-218.5 68.5t-125.5 189.5q-29 -131 -113.5 -194.5t-195.5 -63.5q-124 0 -204.5 84t-80.5 240zM178 303q0 -108 46.5 -165.5t115.5 -57.5q97 0 156 76t77 254v133h-176q-111 0 -165 -66t-54 -174zM532 1204l207 332h135v-29l-223 -303h-119zM705 584h438 q-1 192 -59 295.5t-162 103.5q-101 0 -157.5 -103t-59.5 -296z" />
<glyph unicode="&#x1fe;" horiz-adv-x="1085" d="M72 717q0 355 120.5 548t350.5 193q128 0 225 -63l104 243h121l-137 -321q158 -190 158 -600q0 -357 -120 -549.5t-351 -192.5q-132 0 -230 64l-102 -244h-119l135 322q-155 186 -155 600zM205 717q0 -308 80 -465l436 1030q-73 61 -178 61q-338 0 -338 -626zM362 152 q74 -62 181 -62q338 0 338 627q0 305 -82 463zM422 1561l207 331h135v-28l-223 -303h-119z" />
<glyph unicode="&#x1ff;" horiz-adv-x="880" d="M61 -225l129 305q-129 142 -129 450q0 275 101.5 415t277.5 140q90 0 164 -38l103 239h112l-131 -305q131 -144 131 -451q0 -275 -101.5 -415t-277.5 -140q-91 0 -164 39l-102 -239h-113zM190 530q0 -206 56 -321l313 735q-52 37 -119 37q-117 0 -183.5 -111t-66.5 -340z M319 117q48 -37 121 -37q118 0 184 110.5t66 339.5q0 208 -57 322zM324 1204l206 332h136v-29l-224 -303h-118z" />
<glyph unicode="&#x218;" horiz-adv-x="843" d="M82 1102q0 163 102.5 259.5t278.5 96.5q144 0 246 -51l-9 -125q-89 61 -227 61q-122 0 -190 -64t-68 -175t58 -182t190 -129q162 -72 235.5 -173t73.5 -253q0 -185 -105 -288.5t-298 -103.5q-157 0 -281 62l10 131q118 -78 273 -78q129 0 198.5 72t69.5 200 q0 118 -59 194t-191 132q-161 67 -234 167t-73 247zM344 -467q68 76 74 160q-49 14 -49 102q0 57 17.5 81t57.5 24t58 -24.5t18 -80.5q0 -101 -31 -171t-104 -134z" />
<glyph unicode="&#x219;" horiz-adv-x="706" d="M72 37l8 115q106 -72 227 -72q99 0 149 49t50 137q0 85 -45.5 139t-157.5 101q-227 94 -227 299q0 136 81 208t224 72q118 0 211 -41l-10 -108q-80 45 -189 45q-93 0 -140.5 -45.5t-47.5 -124.5q0 -73 42.5 -124.5t155.5 -100.5q122 -53 177 -130t55 -184 q0 -145 -82.5 -221t-235.5 -76q-136 0 -245 62zM272 -467q68 76 74 160q-49 14 -49 102q0 56 18 80.5t58 24.5t58 -24.5t18 -80.5q0 -101 -31 -170.5t-105 -134.5z" />
<glyph unicode="&#x21a;" horiz-adv-x="827" d="M10 1321v113h807v-113h-338v-1321h-131v1321h-338zM311 -467q68 76 74 160q-49 14 -49 102q0 56 18 80.5t58 24.5t57.5 -24t17.5 -81q0 -101 -31 -171t-104 -134z" />
<glyph unicode="&#x21b;" horiz-adv-x="604" d="M31 958v103h143v317h127v-317h252v-103h-252v-655q0 -122 32.5 -172.5t108.5 -50.5q52 0 95 16l12 -104q-55 -17 -119 -17q-132 0 -194 79.5t-62 254.5v649h-143zM250 -467q68 76 74 160q-50 14 -50 102q0 56 18 80.5t58 24.5t58 -24.5t18 -80.5q0 -101 -31 -171 t-104 -134z" />
<glyph unicode="&#x237;" horiz-adv-x="348" d="M-113 -391l9 106q36 -20 84 -20q64 0 96.5 38.5t32.5 127.5v1200h127v-1184q0 -150 -58.5 -218.5t-181.5 -68.5q-57 0 -109 19z" />
<glyph unicode="&#x2bc;" horiz-adv-x="655" d="M223 1126q78 84 78 162q-29 10 -41 36t-12 79q0 63 19 90t61 27t61 -27.5t19 -95.5q0 -109 -33.5 -190t-108.5 -146z" />
<glyph unicode="&#x2c6;" horiz-adv-x="655" d="M49 1155l205 340h147l205 -340h-123l-155 248l-156 -248h-123z" />
<glyph unicode="&#x2c7;" horiz-adv-x="655" d="M49 1495h123l156 -248l155 248h123l-205 -340h-147z" />
<glyph unicode="&#x2c9;" horiz-adv-x="655" d="M90 1268v106h475v-106h-475z" />
<glyph unicode="&#x2d8;" horiz-adv-x="655" d="M61 1485h113q6 -228 154 -228q147 0 153 228h113q-4 -162 -75 -242t-191 -80t-191.5 80t-75.5 242z" />
<glyph unicode="&#x2d9;" horiz-adv-x="655" d="M252 1329q0 59 18 84t58 25t57.5 -25t17.5 -84t-17.5 -83.5t-57.5 -24.5t-58 24.5t-18 83.5z" />
<glyph unicode="&#x2da;" horiz-adv-x="655" d="M111 1327q0 93 60.5 152t156.5 59t156.5 -59t60.5 -152t-60.5 -152t-156.5 -59t-156.5 59t-60.5 152zM203 1327q0 -59 35 -92t90 -33t90 33t35 92t-35 92t-90 33t-90 -33t-35 -92z" />
<glyph unicode="&#x2db;" horiz-adv-x="655" d="M201 -272q0 134 114 272h121q-112 -135 -112 -266q0 -88 79 -88q41 0 68 16v-96q-38 -15 -96 -15q-84 0 -129 47.5t-45 129.5z" />
<glyph unicode="&#x2dc;" horiz-adv-x="655" d="M61 1198q0 149 37 209.5t111 60.5q95 0 145 -88q16 -29 24.5 -41t22 -21t31.5 -9q30 0 42.5 31.5t12.5 123.5h107q0 -149 -38 -209.5t-112 -60.5q-54 0 -86.5 17t-58.5 59q-29 49 -44 66.5t-34 17.5q-29 0 -41 -31.5t-12 -124.5h-107z" />
<glyph unicode="&#x2dd;" horiz-adv-x="655" d="M20 1163l207 332h135v-29l-223 -303h-119zM287 1163l207 332h135v-29l-223 -303h-119z" />
<glyph unicode="&#x300;" horiz-adv-x="0" d="M-692 1466v29h135l207 -332h-119z" />
<glyph unicode="&#x301;" horiz-adv-x="0" d="M-557 1163l207 332h135v-29l-223 -303h-119z" />
<glyph unicode="&#x302;" horiz-adv-x="0" d="M-737 1155l205 340h147l205 -340h-123l-156 248l-155 -248h-123z" />
<glyph unicode="&#x303;" horiz-adv-x="0" d="M-725 1198q0 149 37 209.5t110 60.5q96 0 146 -88q16 -29 24.5 -41t22 -21t31.5 -9q30 0 42.5 31.5t12.5 123.5h106q0 -149 -37.5 -209.5t-111.5 -60.5q-54 0 -86.5 17t-58.5 59q-29 49 -44 66.5t-34 17.5q-29 0 -41 -31.5t-12 -124.5h-107z" />
<glyph unicode="&#x304;" horiz-adv-x="0" d="M-696 1268v106h475v-106h-475z" />
<glyph unicode="&#x306;" horiz-adv-x="0" d="M-725 1485h113q6 -228 153 -228q148 0 154 228h112q-4 -162 -75 -242t-191 -80t-191 80t-75 242z" />
<glyph unicode="&#x307;" horiz-adv-x="0" d="M-535 1329q0 59 18 84t58 25t58 -25t18 -84t-18 -83.5t-58 -24.5t-58 24.5t-18 83.5z" />
<glyph unicode="&#x308;" horiz-adv-x="0" d="M-694 1329q0 61 16 85t55 24t55.5 -24t16.5 -85q0 -60 -16.5 -84t-55.5 -24t-55 23.5t-16 84.5zM-367 1329q0 61 16.5 85t55.5 24t55.5 -24t16.5 -85q0 -60 -16.5 -84t-55.5 -24t-55.5 24t-16.5 84z" />
<glyph unicode="&#x30a;" horiz-adv-x="0" d="M-676 1329q0 93 60.5 152t156.5 59t156.5 -59t60.5 -152t-60.5 -152t-156.5 -59t-156.5 59t-60.5 152zM-584 1329q0 -59 35 -92t90 -33t90 33t35 92t-35 92t-90 33t-90 -33t-35 -92z" />
<glyph unicode="&#x30c;" horiz-adv-x="0" d="M-737 1495h123l155 -248l156 248h123l-205 -340h-147z" />
<glyph unicode="&#x327;" horiz-adv-x="0" d="M-600 -377q35 -18 82 -18q44 0 73 24t29 66q0 113 -153 127l69 178h117l-53 -129q61 -21 97 -68t36 -112q0 -80 -54.5 -129t-146.5 -49q-50 0 -96 16v94z" />
<glyph unicode="&#x384;" horiz-adv-x="655" d="M205 1130l119 365h131v-37l-138 -328h-112z" />
<glyph unicode="&#x385;" horiz-adv-x="655" d="M90 1122q0 61 16.5 85t55.5 24t55 -24t16 -85t-16 -84.5t-55 -23.5t-55.5 24t-16.5 84zM250 1274l180 287h133v-23l-196 -264h-117zM418 1122q0 61 16 85t55 24t55.5 -24t16.5 -85q0 -60 -16.5 -84t-55.5 -24t-55 23.5t-16 84.5z" />
<glyph unicode="&#x386;" horiz-adv-x="978" d="M10 0l398 1434h163l398 -1434h-138l-106 393h-471l-107 -393h-137zM61 1069l119 365h131v-37l-137 -328h-113zM283 506h413l-207 784z" />
<glyph unicode="&#x387;" horiz-adv-x="368" d="M104 676q0 63 19 89t61 26t61 -26t19 -89t-19 -89t-61 -26t-61 26t-19 89z" />
<glyph unicode="&#x388;" horiz-adv-x="1021" d="M-41 1069l119 365h131v-37l-137 -328h-113zM272 0v1434h674v-113h-543v-526h506v-113h-506v-569h558v-113h-689z" />
<glyph unicode="&#x389;" horiz-adv-x="1234" d="M-41 1069l119 365h131v-37l-137 -328h-113zM272 0v1434h131v-613h558v613h131v-1434h-131v709h-558v-709h-131z" />
<glyph unicode="&#x38a;" horiz-adv-x="557" d="M-41 1069l119 365h131v-37l-137 -328h-113zM272 0v1434h131v-1434h-131z" />
<glyph unicode="&#x38c;" horiz-adv-x="1163" d="M-41 1069l119 365h131v-37l-137 -328h-113zM150 717q0 355 120.5 548t350.5 193t350.5 -193t120.5 -548q0 -357 -120 -549.5t-351 -192.5t-351 192.5t-120 549.5zM283 717q0 -627 338 -627q337 0 337 627q0 626 -337 626q-338 0 -338 -626z" />
<glyph unicode="&#x38e;" horiz-adv-x="1239" d="M-41 1069l119 365h131v-37l-137 -328h-113zM262 1434h137l330 -727l330 727h137l-401 -865v-569h-131v569z" />
<glyph unicode="&#x38f;" horiz-adv-x="1179" d="M-41 1069l119 365h131v-37l-137 -328h-113zM145 766q0 320 128 506t354 186t353.5 -186t127.5 -506q0 -201 -74.5 -370t-195.5 -283h254v-113h-396v125q137 125 208 280.5t71 360.5q0 272 -93 424.5t-255 152.5q-163 0 -255.5 -152t-92.5 -425q0 -206 69.5 -361.5 t206.5 -279.5v-125h-393v113h254q-122 114 -196.5 282.5t-74.5 370.5z" />
<glyph unicode="&#x390;" horiz-adv-x="505" d="M-59 1268q0 61 16 84.5t55 23.5t55.5 -24t16.5 -84q0 -61 -16.5 -85t-55.5 -24t-55 24t-16 85zM100 1419l181 287h133v-23l-197 -264h-117zM113 309v752h127v-758q0 -122 32.5 -172.5t108.5 -50.5q51 0 94 16l12 -104q-55 -17 -118 -17q-132 0 -194 79.5t-62 254.5z M268 1268q0 60 16.5 84t55.5 24t55.5 -24t16.5 -84q0 -61 -16.5 -85t-55.5 -24t-55.5 24t-16.5 85z" />
<glyph unicode="&#x391;" horiz-adv-x="978" d="M10 0l398 1434h163l398 -1434h-138l-106 393h-471l-107 -393h-137zM283 506h413l-207 784z" />
<glyph unicode="&#x392;" horiz-adv-x="995" d="M143 0v1434h363q173 0 268.5 -100.5t95.5 -272.5q0 -109 -43.5 -188.5t-121.5 -118.5q105 -39 162 -132.5t57 -220.5q0 -196 -104.5 -298.5t-301.5 -102.5h-375zM274 113h234q140 0 211.5 74t71.5 212q0 155 -78 221t-236 66h-203v-573zM274 799h256q99 0 153 70t54 188 q0 124 -63 194t-178 70h-222v-522z" />
<glyph unicode="&#x393;" horiz-adv-x="831" d="M143 0v1434h678v-113h-547v-1321h-131z" />
<glyph unicode="&#x394;" horiz-adv-x="1007" d="M10 0l406 1434h176l405 -1434h-987zM182 113h643l-321 1167z" />
<glyph unicode="&#x395;" horiz-adv-x="892" d="M143 0v1434h674v-113h-543v-526h506v-113h-506v-569h557v-113h-688z" />
<glyph unicode="&#x396;" horiz-adv-x="860" d="M51 0v117l594 1204h-571v113h719v-117l-594 -1204h610v-113h-758z" />
<glyph unicode="&#x397;" horiz-adv-x="1105" d="M143 0v1434h131v-613h557v613h132v-1434h-132v709h-557v-709h-131z" />
<glyph unicode="&#x398;" horiz-adv-x="1085" d="M72 723q0 355 120.5 548t350.5 193t350.5 -193t120.5 -548q0 -357 -120 -549t-351 -192t-351 192t-120 549zM205 723q0 -627 338 -627t338 627t-338 627t-338 -627zM340 659v113h405v-113h-405z" />
<glyph unicode="&#x399;" horiz-adv-x="438" d="M154 0v1434h131v-1434h-131z" />
<glyph unicode="&#x39a;" horiz-adv-x="929" d="M143 0v1434h131v-652l461 652h148l-477 -670l544 -764h-155l-521 739v-739h-131z" />
<glyph unicode="&#x39b;" horiz-adv-x="980" d="M10 0l398 1434h165l398 -1434h-137l-345 1290l-342 -1290h-137z" />
<glyph unicode="&#x39c;" horiz-adv-x="1323" d="M143 0v1434h199l320 -799l319 799h199v-1434h-127v1292l-316 -805h-151l-316 805v-1292h-127z" />
<glyph unicode="&#x39d;" horiz-adv-x="1112" d="M143 0v1434h187l512 -1256v1256h127v-1434h-187l-512 1255v-1255h-127z" />
<glyph unicode="&#x39e;" horiz-adv-x="833" d="M41 0v113h752v-113h-752zM41 1321v113h752v-113h-752zM117 666v112h600v-112h-600z" />
<glyph unicode="&#x39f;" horiz-adv-x="1085" d="M72 717q0 355 120.5 548t350.5 193t350.5 -193t120.5 -548q0 -357 -120 -549.5t-351 -192.5t-351 192.5t-120 549.5zM205 717q0 -627 338 -627t338 627q0 626 -338 626t-338 -626z" />
<glyph unicode="&#x3a0;" horiz-adv-x="1120" d="M143 0v1434h834v-1434h-131v1321h-572v-1321h-131z" />
<glyph unicode="&#x3a1;" horiz-adv-x="927" d="M143 0v1434h306q194 0 302.5 -112.5t108.5 -326.5q0 -213 -108.5 -325.5t-302.5 -112.5h-175v-557h-131zM274 670h170q283 0 283 325q0 326 -283 326h-170v-651z" />
<glyph unicode="&#x3a3;" horiz-adv-x="811" d="M41 0v123l309 637l-309 553v121h750v-113h-607l293 -537v-51l-293 -620h607v-113h-750z" />
<glyph unicode="&#x3a4;" horiz-adv-x="827" d="M10 1321v113h807v-113h-338v-1321h-131v1321h-338z" />
<glyph unicode="&#x3a5;" horiz-adv-x="995" d="M31 1434h137l330 -727l329 727h138l-402 -865v-569h-131v569z" />
<glyph unicode="&#x3a6;" horiz-adv-x="1122" d="M66 717q0 216 119 350.5t311 153.5v213h131v-213q192 -19 311 -153.5t119 -350.5q0 -217 -118.5 -351t-311.5 -155v-211h-131v211q-193 21 -311.5 155t-118.5 351zM199 717q0 -169 81.5 -269t215.5 -118v774q-134 -20 -215.5 -119.5t-81.5 -267.5zM627 330 q134 18 215.5 118t81.5 269q0 168 -81.5 267.5t-215.5 119.5v-774z" />
<glyph unicode="&#x3a7;" horiz-adv-x="991" d="M20 0l404 725l-393 709h143l322 -580l321 580h144l-394 -709l404 -725h-144l-331 596l-332 -596h-144z" />
<glyph unicode="&#x3a8;" horiz-adv-x="1126" d="M123 825v609h129v-609q0 -187 63 -282t183 -113v1004h131v-1004q120 18 182.5 112.5t62.5 282.5v609h130v-609q0 -244 -99 -370t-276 -144v-311h-131v311q-177 18 -276 144t-99 370z" />
<glyph unicode="&#x3a9;" horiz-adv-x="1105" d="M72 766q0 320 127.5 506t353.5 186t353.5 -186t127.5 -506q0 -201 -74.5 -370t-195.5 -283h254v-113h-395v125q137 125 207.5 280.5t70.5 360.5q0 272 -93 424.5t-255 152.5q-163 0 -255.5 -152t-92.5 -425q0 -206 69.5 -361.5t206.5 -279.5v-125h-393v113h254 q-122 113 -196 282t-74 371z" />
<glyph unicode="&#x3aa;" horiz-adv-x="438" d="M-16 1726q0 61 16 85t55 24t55.5 -24t16.5 -85q0 -60 -16.5 -84t-55.5 -24t-55 23.5t-16 84.5zM154 0v1434h131v-1434h-131zM311 1726q0 61 16.5 85t55.5 24t55.5 -24t16.5 -85q0 -60 -16.5 -84t-55.5 -24t-55.5 24t-16.5 84z" />
<glyph unicode="&#x3ab;" horiz-adv-x="995" d="M31 1434h137l330 -727l329 727h138l-402 -865v-569h-131v569zM262 1726q0 61 16.5 85t55.5 24t55.5 -24t16.5 -85q0 -60 -16.5 -84t-55.5 -24t-55.5 24t-16.5 84zM590 1726q0 61 16.5 85t55.5 24t55 -24t16 -85t-16 -84.5t-55 -23.5t-55.5 24t-16.5 84z" />
<glyph unicode="&#x3ac;" horiz-adv-x="929" d="M55 530q0 273 89 414t233 141q113 0 180 -80t121 -280l88 336h117l-154 -557q31 -169 52.5 -254t40 -116.5t44.5 -31.5h41v-102h-61q-68 0 -103.5 64.5t-68.5 238.5q-51 -177 -122 -252.5t-185 -75.5q-67 0 -121.5 29.5t-98.5 92.5t-68 173t-24 260zM182 530 q0 -235 50.5 -342.5t138.5 -107.5q147 0 239 381l19 71q-56 259 -108 354t-140 95q-92 0 -145.5 -115t-53.5 -336zM356 1204l207 332h135v-29l-223 -303h-119z" />
<glyph unicode="&#x3ad;" horiz-adv-x="706" d="M61 272q0 102 62.5 176t169.5 107q-102 24 -162.5 90t-60.5 164q0 134 89 205t259 71q149 0 252 -47l-11 -106q-98 49 -229 49q-227 0 -227 -172q0 -199 348 -199v-102q-178 0 -267 -63t-89 -169q0 -93 64 -144.5t190 -51.5q129 0 229 53l10 -110q-111 -48 -258 -48 q-176 0 -272.5 75.5t-96.5 221.5zM258 1204l207 332h135v-29l-223 -303h-119z" />
<glyph unicode="&#x3ae;" horiz-adv-x="901" d="M113 0v1061h127v-82q49 55 108 80.5t139 25.5q149 0 230.5 -103t81.5 -306v-1071h-127v1011q0 193 -50 279t-163 86q-69 0 -127 -32t-92 -89v-860h-127zM307 1204l207 332h135v-29l-223 -303h-119z" />
<glyph unicode="&#x3af;" horiz-adv-x="505" d="M92 1204l207 332h135v-29l-223 -303h-119zM113 309v752h127v-758q0 -122 32.5 -172.5t108.5 -50.5q51 0 94 16l12 -104q-55 -17 -118 -17q-132 0 -194 79.5t-62 254.5z" />
<glyph unicode="&#x3b0;" horiz-adv-x="860" d="M20 1059q40 16 80 16q82 0 120 -55t38 -178v-391q0 -195 50.5 -283t152.5 -88q105 0 157 94.5t52 292.5q0 312 -105 594h131q103 -288 103 -594q0 -238 -85 -365t-253 -127q-163 0 -245.5 118t-82.5 343v393q0 78 -11.5 106t-41.5 28q-28 0 -51 -13zM150 1270 q0 61 16 84.5t55 23.5t55.5 -24t16.5 -84q0 -61 -16.5 -85t-55.5 -24t-55 24t-16 85zM309 1421l180 287h134v-22l-197 -265h-117zM477 1270q0 60 16.5 84t55.5 24t55.5 -24t16.5 -84q0 -61 -16.5 -85t-55.5 -24t-55.5 24t-16.5 85z" />
<glyph unicode="&#x3b1;" horiz-adv-x="929" d="M55 530q0 273 89 414t233 141q113 0 180 -80t121 -280l88 336h117l-154 -557q31 -169 52.5 -254t40 -116.5t44.5 -31.5h41v-102h-61q-68 0 -103.5 64.5t-68.5 238.5q-51 -177 -122 -252.5t-185 -75.5q-67 0 -121.5 29.5t-98.5 92.5t-68 173t-24 260zM182 530 q0 -235 50.5 -342.5t138.5 -107.5q147 0 239 381l19 71q-56 259 -108 354t-140 95q-92 0 -145.5 -115t-53.5 -336z" />
<glyph unicode="&#x3b2;" horiz-adv-x="870" d="M113 -395v1480q0 223 80 329t247 106q147 0 234.5 -104t87.5 -283q0 -135 -56.5 -224.5t-160.5 -128.5q123 -43 193.5 -151t70.5 -260q0 -186 -89.5 -290t-250.5 -104q-91 0 -180 35l10 107q67 -37 158 -37q105 0 164 78t59 211q0 162 -92 260t-242 98v100 q148 0 217.5 84.5t69.5 216.5q0 45 -10.5 92t-32 92.5t-60.5 74t-90 28.5q-96 0 -148 -70.5t-52 -244.5v-1495h-127z" />
<glyph unicode="&#x3b3;" horiz-adv-x="854" d="M20 1061h132l274 -674l274 674h131l-333 -782q81 -186 109 -278.5t28 -172.5q0 -114 -56 -175t-153 -61t-153 61t-56 175q0 80 28 172.5t109 278.5zM336 -174q0 -60 23.5 -94.5t66.5 -34.5t66.5 34.5t23.5 94.5q0 61 -19.5 133t-70.5 191q-51 -119 -70.5 -191t-19.5 -133 z" />
<glyph unicode="&#x3b4;" horiz-adv-x="899" d="M61 530q0 269 101.5 409.5t273.5 145.5l-303 297v113h606v-102h-452l395 -394q154 -154 154 -469q0 -274 -105 -414.5t-282 -140.5t-282.5 140.5t-105.5 414.5zM190 530q0 -228 70 -339t189 -111t188.5 111t69.5 339t-69.5 339.5t-188.5 111.5t-189 -111.5t-70 -339.5z " />
<glyph unicode="&#x3b5;" horiz-adv-x="706" d="M61 272q0 102 62.5 176t169.5 107q-102 24 -162.5 90t-60.5 164q0 134 89 205t259 71q149 0 252 -47l-11 -106q-98 49 -229 49q-227 0 -227 -172q0 -199 348 -199v-102q-178 0 -267 -63t-89 -169q0 -93 64 -144.5t190 -51.5q129 0 229 53l10 -110q-111 -48 -258 -48 q-176 0 -272.5 75.5t-96.5 221.5z" />
<glyph unicode="&#x3b6;" horiz-adv-x="651" d="M61 461q0 248 117.5 490.5t329.5 441.5h-367v102h510v-102q-222 -194 -346.5 -439t-124.5 -491q0 -76 24 -137t59.5 -99.5t89.5 -68.5t100.5 -45t105.5 -29q48 -11 70 -32t22 -62q0 -39 -16 -76l-125 -309h-131l133 323q8 20 8 31t-14 14q-101 24 -177.5 60t-139 92.5 t-95.5 141t-33 194.5z" />
<glyph unicode="&#x3b7;" horiz-adv-x="901" d="M113 0v1061h127v-82q49 55 108 80.5t139 25.5q149 0 230.5 -103t81.5 -306v-1071h-127v1011q0 193 -50 279t-163 86q-69 0 -127 -32t-92 -89v-860h-127z" />
<glyph unicode="&#x3b8;" horiz-adv-x="909" d="M61 748q0 396 98 584t296 188t295.5 -188t97.5 -584t-97.5 -584.5t-295.5 -188.5t-296 188.5t-98 584.5zM190 696q4 -327 71 -471.5t194 -144.5t193.5 144t70.5 472h-529zM190 799h529q-4 222 -36.5 360t-88.5 197t-139 59q-127 0 -194 -144.5t-71 -471.5z" />
<glyph unicode="&#x3b9;" horiz-adv-x="505" d="M113 309v752h127v-758q0 -122 32.5 -172.5t108.5 -50.5q51 0 94 16l12 -104q-55 -17 -118 -17q-132 0 -194 79.5t-62 254.5z" />
<glyph unicode="&#x3ba;" horiz-adv-x="782" d="M113 0v1061h127v-483l229 331q64 90 106 127t91 37q54 0 84 -18l-11 -109q-26 15 -49 15q-30 0 -57 -37l-273 -373l422 -551h-151l-391 524v-524h-127z" />
<glyph unicode="&#x3bb;" horiz-adv-x="798" d="M10 0l328 983l-164 512h131l483 -1495h-135l-254 778l-256 -778h-133z" />
<glyph unicode="&#x3bc;" horiz-adv-x="940" d="M113 -395v1456h127v-854q39 -61 97 -94t128 -33q69 0 128 33.5t97 93.5v854h127v-854q0 -66 12 -91.5t39 -25.5q23 0 41 12l11 -106q-47 -21 -101 -21q-118 0 -129 111q-34 -53 -96 -82t-131 -29t-129 28t-94 81v-479h-127z" />
<glyph unicode="&#x3bd;" horiz-adv-x="829" d="M20 1061h134l258 -879q109 175 170.5 400.5t68.5 478.5h127q-12 -300 -93.5 -572t-225.5 -489h-123z" />
<glyph unicode="&#x3be;" horiz-adv-x="649" d="M61 446q0 133 65.5 240.5t180.5 153.5q-98 37 -153.5 119.5t-55.5 197.5q0 155 88.5 246.5t259.5 91.5h103v-102h-98q-114 0 -169 -62.5t-55 -173.5q0 -104 61.5 -178t166.5 -74h86v-102h-47q-133 0 -218.5 -102t-85.5 -255q0 -173 115 -276q39 -39 103 -66t114.5 -39 t88.5 -38t38 -68q0 -32 -14 -65l-123 -289h-131l129 289q8 16 8 28q0 15 -18 21q-144 49 -217 96q-222 132 -222 407z" />
<glyph unicode="&#x3bf;" horiz-adv-x="880" d="M61 530q0 275 101.5 415t277.5 140t277.5 -140t101.5 -415t-101.5 -415t-277.5 -140t-277.5 140t-101.5 415zM190 530q0 -229 66 -339.5t184 -110.5t184 110.5t66 339.5t-66.5 340t-183.5 111t-183.5 -111t-66.5 -340z" />
<glyph unicode="&#x3c0;" horiz-adv-x="933" d="M18 958v103h875v-103h-213v-655q0 -121 31 -172t98 -51q49 0 86 18l12 -106q-60 -17 -114 -17q-124 0 -182 79t-58 255v649h-201q-3 -303 -34 -550.5t-109 -440.5l-123 47q77 198 107 429t32 515h-207z" />
<glyph unicode="&#x3c1;" horiz-adv-x="890" d="M113 -395v1034q0 227 92 336.5t254 109.5q171 0 270.5 -143.5t99.5 -411.5q0 -271 -95 -413t-263 -142q-67 0 -131 29.5t-100 81.5v-481h-127zM240 201q34 -58 89.5 -89.5t112.5 -31.5q123 0 190.5 113.5t67.5 341.5q0 221 -62.5 333.5t-184.5 112.5q-103 0 -158 -81 t-55 -247v-452z" />
<glyph unicode="&#x3c2;" horiz-adv-x="731" d="M61 530q0 265 116.5 410t320.5 145q108 0 196 -43l-10 -106q-77 45 -176 45q-149 0 -233.5 -115.5t-84.5 -335.5q0 -221 76.5 -327.5t220.5 -124.5q106 -14 159.5 -66.5t53.5 -152.5q0 -102 -75 -164t-211 -62v103q84 0 122.5 30t38.5 95q0 55 -32.5 84t-100.5 35 q-183 19 -282 157t-99 393z" />
<glyph unicode="&#x3c3;" horiz-adv-x="880" d="M61 518q0 272 102.5 407.5t278.5 135.5h426v-103h-188q76 -61 117 -173t41 -267q0 -267 -105.5 -405t-283.5 -138q-177 0 -282.5 138t-105.5 405zM190 518q0 -220 70.5 -329t188.5 -109q120 0 190 109t70 329q0 227 -69.5 332.5t-190.5 105.5q-120 0 -189.5 -105.5 t-69.5 -332.5z" />
<glyph unicode="&#x3c4;" horiz-adv-x="665" d="M10 958v103h629v-103h-260v-655q0 -121 31 -172t98 -51q48 0 86 18l12 -106q-60 -17 -114 -17q-124 0 -182 79t-58 255v649h-242z" />
<glyph unicode="&#x3c5;" horiz-adv-x="860" d="M20 1059q40 16 80 16q82 0 120 -55t38 -178v-391q0 -195 50.5 -283t152.5 -88q105 0 157 94.5t52 292.5q0 312 -105 594h131q103 -288 103 -594q0 -238 -85 -365t-253 -127q-163 0 -245.5 118t-82.5 343v393q0 78 -11.5 106t-41.5 28q-28 0 -51 -13z" />
<glyph unicode="&#x3c6;" horiz-adv-x="1013" d="M61 524q0 297 164 568l107 -62q-142 -245 -142 -512q0 -188 62 -301.5t186 -136.5v651q0 193 56.5 273.5t167.5 80.5q136 0 213 -137t77 -411q0 -243 -100 -394t-287 -174v-364h-127v364q-181 23 -279 171t-98 384zM565 78q127 24 192.5 143t65.5 314q0 220 -43 333 t-114 113q-54 0 -77.5 -63.5t-23.5 -208.5v-631z" />
<glyph unicode="&#x3c7;" horiz-adv-x="802" d="M14 -395l310 745l-291 711h133l235 -569l236 569h133l-291 -711l309 -745h-137l-250 602l-249 -602h-138z" />
<glyph unicode="&#x3c8;" horiz-adv-x="1071" d="M113 494v567h127v-576q0 -195 56 -288t175 -111v975h129v-975q119 18 175 111t56 288v576h127v-567q0 -251 -91 -375t-267 -139v-375h-129v375q-176 15 -267 139t-91 375z" />
<glyph unicode="&#x3c9;" horiz-adv-x="1167" d="M61 588q0 234 52 489l127 -14q-52 -226 -52 -471q0 -267 42.5 -390.5t115.5 -123.5q37 0 66.5 32t54.5 102.5t39 199t14 307.5v162h127v-162q0 -179 14 -307.5t39 -199t54.5 -102.5t66.5 -32q73 0 115.5 123.5t42.5 390.5q0 250 -51 471l127 14q51 -250 51 -489 q0 -613 -283 -613q-190 0 -239 328q-49 -328 -240 -328q-283 0 -283 613z" />
<glyph unicode="&#x3ca;" horiz-adv-x="505" d="M-59 1370q0 61 16 85t55 24t55.5 -24t16.5 -85q0 -60 -16.5 -84t-55.5 -24t-55 23.5t-16 84.5zM113 309v752h127v-758q0 -122 32.5 -172.5t108.5 -50.5q51 0 94 16l12 -104q-55 -17 -118 -17q-132 0 -194 79.5t-62 254.5zM268 1370q0 61 16.5 85t55.5 24t55.5 -24 t16.5 -85q0 -60 -16.5 -84t-55.5 -24t-55.5 24t-16.5 84z" />
<glyph unicode="&#x3cb;" horiz-adv-x="860" d="M20 1059q40 16 80 16q82 0 120 -55t38 -178v-391q0 -195 50.5 -283t152.5 -88q105 0 157 94.5t52 292.5q0 312 -105 594h131q103 -288 103 -594q0 -238 -85 -365t-253 -127q-163 0 -245.5 118t-82.5 343v393q0 78 -11.5 106t-41.5 28q-28 0 -51 -13zM150 1370q0 61 16 85 t55 24t55.5 -24t16.5 -85q0 -60 -16.5 -84t-55.5 -24t-55 23.5t-16 84.5zM477 1370q0 61 16.5 85t55.5 24t55.5 -24t16.5 -85q0 -60 -16.5 -84t-55.5 -24t-55.5 24t-16.5 84z" />
<glyph unicode="&#x3cc;" horiz-adv-x="880" d="M61 530q0 275 101.5 415t277.5 140t277.5 -140t101.5 -415t-101.5 -415t-277.5 -140t-277.5 140t-101.5 415zM190 530q0 -229 66 -339.5t184 -110.5t184 110.5t66 339.5t-66.5 340t-183.5 111t-183.5 -111t-66.5 -340zM319 1204l207 332h136v-29l-224 -303h-119z" />
<glyph unicode="&#x3cd;" horiz-adv-x="860" d="M20 1059q40 16 80 16q82 0 120 -55t38 -178v-391q0 -195 50.5 -283t152.5 -88q105 0 157 94.5t52 292.5q0 312 -105 594h131q103 -288 103 -594q0 -238 -85 -365t-253 -127q-163 0 -245.5 118t-82.5 343v393q0 78 -11.5 106t-41.5 28q-28 0 -51 -13zM283 1204l206 332 h136v-29l-224 -303h-118z" />
<glyph unicode="&#x3ce;" horiz-adv-x="1169" d="M61 588q0 234 52 489l127 -14q-52 -226 -52 -471q0 -267 42.5 -390.5t115.5 -123.5q37 0 66.5 32t54.5 102.5t39 199t14 307.5v162h127v-162q0 -179 14 -307.5t39 -199t54.5 -102.5t66.5 -32q73 0 115.5 123.5t42.5 390.5q0 250 -51 471l127 14q51 -250 51 -489 q0 -613 -283 -613q-190 0 -239 328q-49 -328 -240 -328q-283 0 -283 613zM459 1204l207 332h135v-29l-223 -303h-119z" />
<glyph unicode="&#x400;" horiz-adv-x="892" d="M143 0v1434h674v-113h-543v-526h506v-113h-506v-569h557v-113h-688zM250 1864v28h135l207 -331h-119z" />
<glyph unicode="&#x401;" horiz-adv-x="892" d="M143 0v1434h674v-113h-543v-526h506v-113h-506v-569h557v-113h-688zM233 1726q0 61 16.5 85t55.5 24t55.5 -24t16.5 -85q0 -60 -16.5 -84t-55.5 -24t-55.5 24t-16.5 84zM561 1726q0 61 16.5 85t55.5 24t55.5 -24t16.5 -85q0 -60 -16.5 -84t-55.5 -24t-55.5 24t-16.5 84z " />
<glyph unicode="&#x402;" horiz-adv-x="1085" d="M10 1321v113h805v-113h-338v-490h174q180 0 276.5 -107.5t96.5 -322.5q0 -205 -80 -315.5t-239 -110.5q-76 0 -136 25v121q53 -31 125 -31q97 0 147 79t50 232q0 162 -58 240t-178 78h-178v-719h-131v1321h-336z" />
<glyph unicode="&#x403;" horiz-adv-x="831" d="M143 0v1434h678v-113h-547v-1321h-131zM350 1561l207 331h135v-28l-223 -303h-119z" />
<glyph unicode="&#x404;" horiz-adv-x="940" d="M72 717q0 338 154 539.5t423 201.5q141 0 230 -47l-9 -119q-91 51 -215 51q-195 0 -316.5 -148t-133.5 -423h596v-113h-596q12 -275 134 -422t318 -147q137 0 222 49l10 -119q-91 -45 -234 -45q-271 0 -427 202t-156 540z" />
<glyph unicode="&#x405;" horiz-adv-x="843" d="M82 1102q0 163 102.5 259.5t278.5 96.5q144 0 246 -51l-9 -125q-89 61 -227 61q-122 0 -190 -64t-68 -175t58 -182t190 -129q162 -72 235.5 -173t73.5 -253q0 -185 -105 -288.5t-298 -103.5q-157 0 -281 62l10 131q118 -78 273 -78q129 0 198.5 72t69.5 200 q0 118 -59 194t-191 132q-161 67 -234 167t-73 247z" />
<glyph unicode="&#x406;" horiz-adv-x="438" d="M154 0v1434h131v-1434h-131z" />
<glyph unicode="&#x407;" horiz-adv-x="438" d="M-16 1726q0 61 16 85t55 24t55.5 -24t16.5 -85q0 -60 -16.5 -84t-55.5 -24t-55 23.5t-16 84.5zM154 0v1434h131v-1434h-131zM311 1726q0 61 16.5 85t55.5 24t55.5 -24t16.5 -85q0 -60 -16.5 -84t-55.5 -24t-55.5 24t-16.5 84z" />
<glyph unicode="&#x408;" horiz-adv-x="696" d="M10 18l10 119q81 -47 187 -47q120 0 167.5 80.5t47.5 294.5v969h131v-973q0 -266 -76 -376t-264 -110q-118 0 -203 43z" />
<glyph unicode="&#x409;" horiz-adv-x="1462" d="M20 -6l9 117q54 -21 92 -21q43 0 73 23t44.5 63t20 78.5t5.5 83.5v1096h590v-605h176q170 0 270.5 -110.5t100.5 -304.5q0 -193 -100.5 -303.5t-270.5 -110.5h-307v1321h-328v-1002q0 -181 -62.5 -262.5t-199.5 -81.5q-58 0 -113 19zM854 113h166q120 0 184 79t64 222 t-64 223t-184 80h-166v-604z" />
<glyph unicode="&#x40a;" horiz-adv-x="1533" d="M143 0v1434h131v-609h519v609h131v-605h178q170 0 270.5 -110.5t100.5 -304.5q0 -193 -100.5 -303.5t-270.5 -110.5h-309v713h-519v-713h-131zM924 113h168q120 0 183.5 79t63.5 222t-63.5 223t-183.5 80h-168v-604z" />
<glyph unicode="&#x40b;" horiz-adv-x="1198" d="M10 1321v113h807v-113h-340v-477q50 49 121.5 76.5t144.5 27.5q171 0 262 -121t91 -354v-473h-131v473q0 365 -242 365q-139 0 -246 -113v-725h-131v1321h-336z" />
<glyph unicode="&#x40c;" horiz-adv-x="929" d="M143 0v1434h131v-652l461 652h148l-477 -670l544 -764h-155l-521 739v-739h-131zM369 1561l206 331h136v-28l-224 -303h-118z" />
<glyph unicode="&#x40d;" horiz-adv-x="1132" d="M143 0v1434h127v-1256l533 1256h186v-1434h-127v1255l-532 -1255h-187zM332 1864v28h135l207 -331h-119z" />
<glyph unicode="&#x40e;" horiz-adv-x="921" d="M31 1434h135l303 -801l287 801h135l-510 -1434h-135l162 457zM205 1878h112q6 -227 154 -227t154 227h112q-4 -162 -75 -242t-191 -80t-191 80t-75 242z" />
<glyph unicode="&#x40f;" horiz-adv-x="1120" d="M143 0v1434h131v-1321h572v1321h131v-1434h-354v-336h-131v336h-349z" />
<glyph unicode="&#x410;" horiz-adv-x="978" d="M10 0l398 1434h163l398 -1434h-138l-106 393h-471l-107 -393h-137zM283 506h413l-207 784z" />
<glyph unicode="&#x411;" horiz-adv-x="905" d="M143 0v1434h631v-113h-500v-422h199q172 0 271.5 -122.5t99.5 -327.5q0 -204 -99.5 -326.5t-271.5 -122.5h-330zM274 113h187q121 0 185.5 91.5t64.5 244.5q0 154 -64.5 245.5t-185.5 91.5h-187v-673z" />
<glyph unicode="&#x412;" horiz-adv-x="995" d="M143 0v1434h363q173 0 268.5 -100.5t95.5 -272.5q0 -109 -43.5 -188.5t-121.5 -118.5q105 -39 162 -132.5t57 -220.5q0 -196 -104.5 -298.5t-301.5 -102.5h-375zM274 113h234q140 0 211.5 74t71.5 212q0 155 -78 221t-236 66h-203v-573zM274 799h256q99 0 153 70t54 188 q0 124 -63 194t-178 70h-222v-522z" />
<glyph unicode="&#x413;" horiz-adv-x="831" d="M143 0v1434h678v-113h-547v-1321h-131z" />
<glyph unicode="&#x414;" horiz-adv-x="970" d="M31 113h75q118 277 184.5 632.5t71.5 688.5h463v-1321h115v-318h-131v205h-647v-205h-131v318zM252 113h442v1208h-207q-13 -293 -73.5 -616.5t-161.5 -591.5z" />
<glyph unicode="&#x415;" horiz-adv-x="892" d="M143 0v1434h674v-113h-543v-526h506v-113h-506v-569h557v-113h-688z" />
<glyph unicode="&#x416;" horiz-adv-x="1288" d="M-6 0l452 764l-385 670h146l371 -650v650h133v-650l370 650h146l-385 -670l452 -764h-151l-432 737v-737h-133v737l-433 -737h-151z" />
<glyph unicode="&#x417;" horiz-adv-x="823" d="M51 37l10 127q112 -74 273 -74q139 0 218 74.5t79 202.5q0 151 -113.5 235t-312.5 92v113q176 3 292.5 82.5t116.5 216.5q0 108 -68 172.5t-198 64.5q-148 0 -266 -73l-8 121q131 67 291 67q180 0 281.5 -92.5t101.5 -245.5q0 -147 -83.5 -239.5t-222.5 -130.5 q149 -37 234.5 -136.5t85.5 -246.5q0 -178 -112.5 -285t-311.5 -107q-163 0 -287 62z" />
<glyph unicode="&#x418;" horiz-adv-x="1132" d="M143 0v1434h127v-1256l533 1256h186v-1434h-127v1255l-532 -1255h-187z" />
<glyph unicode="&#x419;" horiz-adv-x="1132" d="M143 0v1434h127v-1256l533 1256h186v-1434h-127v1255l-532 -1255h-187zM299 1878h113q6 -227 153 -227q148 0 154 227h112q-4 -162 -75 -242t-191 -80t-191 80t-75 242z" />
<glyph unicode="&#x41a;" horiz-adv-x="929" d="M143 0v1434h131v-652l461 652h148l-477 -670l544 -764h-155l-521 739v-739h-131z" />
<glyph unicode="&#x41b;" horiz-adv-x="1097" d="M20 -6l9 117q54 -21 92 -21q74 0 108.5 57t34.5 191v1096h690v-1434h-131v1321h-428v-1002q0 -344 -262 -344q-58 0 -113 19z" />
<glyph unicode="&#x41c;" horiz-adv-x="1323" d="M143 0v1434h199l320 -799l319 799h199v-1434h-127v1292l-316 -805h-151l-316 805v-1292h-127z" />
<glyph unicode="&#x41d;" horiz-adv-x="1105" d="M143 0v1434h131v-613h557v613h132v-1434h-132v709h-557v-709h-131z" />
<glyph unicode="&#x41e;" horiz-adv-x="1085" d="M72 717q0 355 120.5 548t350.5 193t350.5 -193t120.5 -548q0 -357 -120 -549.5t-351 -192.5t-351 192.5t-120 549.5zM205 717q0 -627 338 -627t338 627q0 626 -338 626t-338 -626z" />
<glyph unicode="&#x41f;" horiz-adv-x="1120" d="M143 0v1434h834v-1434h-131v1321h-572v-1321h-131z" />
<glyph unicode="&#x420;" horiz-adv-x="927" d="M143 0v1434h306q194 0 302.5 -112.5t108.5 -326.5q0 -213 -108.5 -325.5t-302.5 -112.5h-175v-557h-131zM274 670h170q283 0 283 325q0 326 -283 326h-170v-651z" />
<glyph unicode="&#x421;" horiz-adv-x="940" d="M72 717q0 338 154 539.5t423 201.5q141 0 230 -47l-9 -119q-91 51 -215 51q-209 0 -329.5 -167t-120.5 -459q0 -293 121 -460t331 -167q137 0 222 49l10 -119q-91 -45 -234 -45q-271 0 -427 202t-156 540z" />
<glyph unicode="&#x422;" horiz-adv-x="827" d="M10 1321v113h807v-113h-338v-1321h-131v1321h-338z" />
<glyph unicode="&#x423;" horiz-adv-x="921" d="M31 1434h135l303 -801l287 801h135l-510 -1434h-135l162 457z" />
<glyph unicode="&#x424;" horiz-adv-x="1122" d="M66 717q0 216 119 350.5t311 153.5v213h131v-213q192 -19 311 -153.5t119 -350.5q0 -217 -118.5 -351t-311.5 -155v-211h-131v211q-193 21 -311.5 155t-118.5 351zM199 717q0 -169 81.5 -269t215.5 -118v774q-134 -20 -215.5 -119.5t-81.5 -267.5zM627 330 q134 18 215.5 118t81.5 269q0 168 -81.5 267.5t-215.5 119.5v-774z" />
<glyph unicode="&#x425;" horiz-adv-x="991" d="M20 0l404 725l-393 709h143l322 -580l321 580h144l-394 -709l404 -725h-144l-331 596l-332 -596h-144z" />
<glyph unicode="&#x426;" horiz-adv-x="1091" d="M143 0v1434h131v-1321h572v1321h131v-1321h84v-342h-131v229h-787z" />
<glyph unicode="&#x427;" horiz-adv-x="1056" d="M133 891v543h131v-545q0 -375 246 -375q78 0 150 30.5t122 86.5v803h131v-1434h-131v512q-52 -51 -128.5 -81t-159.5 -30q-170 0 -265.5 124.5t-95.5 365.5z" />
<glyph unicode="&#x428;" horiz-adv-x="1320" d="M143 0v1434h131v-1321h320v1321h131v-1321h322v1321h131v-1434h-1035z" />
<glyph unicode="&#x429;" horiz-adv-x="1310" d="M143 0v1434h131v-1321h320v1321h131v-1321h322v1321h131v-1321h102v-342h-131v229h-1006z" />
<glyph unicode="&#x42a;" horiz-adv-x="1011" d="M10 1321v113h371v-535h199q174 0 272 -119t98 -331q0 -211 -98.5 -330t-271.5 -119h-330v1321h-240zM381 113h186q121 0 185.5 88.5t64.5 247.5q0 160 -64 248.5t-186 88.5h-186v-673z" />
<glyph unicode="&#x42b;" horiz-adv-x="1245" d="M143 0v1434h131v-535h199q174 0 272.5 -119t98.5 -331q0 -210 -99 -329.5t-272 -119.5h-330zM274 113h187q121 0 185.5 88.5t64.5 247.5q0 160 -64 248.5t-186 88.5h-187v-673zM971 0v1434h131v-1434h-131z" />
<glyph unicode="&#x42c;" horiz-adv-x="905" d="M143 0v1434h131v-535h199q174 0 272.5 -119t98.5 -331q0 -210 -99 -329.5t-272 -119.5h-330zM274 113h187q121 0 185.5 88.5t64.5 247.5q0 160 -64 248.5t-186 88.5h-187v-673z" />
<glyph unicode="&#x42d;" horiz-adv-x="940" d="M51 20l10 119q85 -49 222 -49q195 0 316.5 147t133.5 422h-594v113h594q-12 275 -132.5 423t-315.5 148q-124 0 -215 -51l-9 119q89 47 230 47q269 0 423 -201.5t154 -539.5t-156 -540t-427 -202q-143 0 -234 45z" />
<glyph unicode="&#x42e;" horiz-adv-x="1310" d="M143 0v1434h131v-662h179q6 349 104.5 517.5t288.5 168.5q196 0 294.5 -181.5t98.5 -559.5t-98.5 -560t-294.5 -182q-188 0 -287 167.5t-106 516.5h-179v-659h-131zM586 717q0 -336 64 -481.5t196 -145.5t196 145.5t64 481.5q0 227 -30 367t-86.5 199.5t-143.5 59.5 t-143.5 -59.5t-86.5 -199.5t-30 -367z" />
<glyph unicode="&#x42f;" horiz-adv-x="960" d="M10 0l303 639q-116 40 -178.5 139t-62.5 246q0 193 107.5 301.5t295.5 108.5h342v-1434h-131v614h-248l-288 -614h-140zM205 1024q0 -143 70 -220t204 -77h207v594h-207q-134 0 -204 -77t-70 -220z" />
<glyph unicode="&#x430;" horiz-adv-x="827" d="M51 303q0 162 91.5 250t263.5 88h186v86q0 141 -46.5 197.5t-158.5 56.5q-131 0 -250 -66l-10 107q123 63 268 63q167 0 245.5 -83.5t78.5 -266.5v-735h-127v82q-85 -107 -250 -107q-129 0 -210 85t-81 243zM178 305q0 -112 51 -168.5t142 -56.5q141 0 221 121v338h-182 q-232 0 -232 -234z" />
<glyph unicode="&#x431;" horiz-adv-x="856" d="M61 659q0 402 171 600.5t534 235.5l8 -121q-59 -6 -108 -14.5t-102 -25t-96 -40t-84.5 -58.5t-73 -80.5t-57 -108t-40.5 -138.5q44 52 109.5 79.5t126.5 27.5q163 0 254.5 -131.5t91.5 -388.5q0 -260 -94 -389.5t-255 -129.5q-385 0 -385 682zM190 659q0 -579 256 -579 q106 0 163 108t57 308q0 415 -236 415q-71 0 -136 -47t-101 -121q-3 -41 -3 -84z" />
<glyph unicode="&#x432;" horiz-adv-x="813" d="M113 0v1061h262q161 0 248.5 -72.5t87.5 -200.5q0 -79 -40.5 -140t-111.5 -89q87 -25 140 -95.5t53 -164.5q0 -140 -95 -219.5t-274 -79.5h-270zM240 102h135q124 0 186 51t62 146q0 90 -59 145.5t-181 55.5h-143v-398zM240 602h100q128 0 185 42.5t57 135.5t-59.5 135.5 t-188.5 42.5h-94v-356z" />
<glyph unicode="&#x433;" horiz-adv-x="679" d="M113 0v1061h557v-103h-432v-958h-125z" />
<glyph unicode="&#x434;" horiz-adv-x="858" d="M20 102h72q196 448 211 959h420v-959h115v-307h-127v205h-564v-205h-127v307zM229 102h367v856h-172q-15 -206 -66.5 -435t-128.5 -421z" />
<glyph unicode="&#x435;" horiz-adv-x="827" d="M61 535q0 272 92.5 411t264.5 139q174 0 266 -138t92 -402q0 -26 -4 -62h-579q9 -403 305 -403q116 0 204 57l11 -108q-91 -54 -224 -54q-209 0 -318.5 144.5t-109.5 415.5zM190 586h455q-3 395 -227 395q-113 0 -169 -98t-59 -297z" />
<glyph unicode="&#x436;" horiz-adv-x="1093" d="M0 0l362 549l-333 512h145l309 -483v483h127v-483l310 483h145l-334 -512l363 -549h-146l-338 520v-520h-127v520l-338 -520h-145z" />
<glyph unicode="&#x437;" horiz-adv-x="706" d="M18 23l11 112q102 -55 229 -55q126 0 190 51.5t64 144.5q0 106 -89 169t-267 63v102q173 0 261.5 51.5t88.5 147.5q0 84 -58.5 128t-171.5 44q-135 0 -229 -49l-10 106q109 47 252 47q170 0 260 -71.5t90 -204.5q0 -95 -60.5 -162.5t-160.5 -91.5q103 -33 165 -107.5 t62 -177.5q0 -146 -96.5 -220.5t-272.5 -74.5q-150 0 -258 48z" />
<glyph unicode="&#x438;" horiz-adv-x="940" d="M113 0v1061h127v-834l448 834h139v-1061h-127v834l-448 -834h-139z" />
<glyph unicode="&#x439;" horiz-adv-x="940" d="M113 0v1061h127v-834l448 834h139v-1061h-127v834l-448 -834h-139zM205 1526h112q6 -228 154 -228t154 228h112q-4 -162 -75 -242t-191 -80t-191 80t-75 242z" />
<glyph unicode="&#x43a;" horiz-adv-x="782" d="M113 0v1061h127v-486l356 486h152l-383 -510l417 -551h-151l-391 524v-524h-127z" />
<glyph unicode="&#x43b;" horiz-adv-x="907" d="M10 -6l10 104q48 -20 101 -20q131 0 131 260v723h543v-1061h-127v956h-289v-587q0 -213 -58.5 -303.5t-195.5 -90.5q-60 0 -115 19z" />
<glyph unicode="&#x43c;" horiz-adv-x="1085" d="M113 0v1061h137l293 -569l293 569h137v-1061h-127v850l-258 -500h-90l-258 500v-850h-127z" />
<glyph unicode="&#x43d;" horiz-adv-x="911" d="M113 0v1061h127v-434h432v434h127v-1061h-127v524h-432v-524h-127z" />
<glyph unicode="&#x43e;" horiz-adv-x="880" d="M61 530q0 275 101.5 415t277.5 140t277.5 -140t101.5 -415t-101.5 -415t-277.5 -140t-277.5 140t-101.5 415zM190 530q0 -229 66 -339.5t184 -110.5t184 110.5t66 339.5t-66.5 340t-183.5 111t-183.5 -111t-66.5 -340z" />
<glyph unicode="&#x43f;" horiz-adv-x="886" d="M113 0v1061h661v-1061h-127v958h-407v-958h-127z" />
<glyph unicode="&#x440;" horiz-adv-x="874" d="M113 -395v1456h127v-82q89 106 223 106q169 0 259.5 -141t90.5 -414t-90.5 -414t-259.5 -141q-133 0 -223 107v-477h-127zM240 201q36 -56 87.5 -88.5t106.5 -32.5q250 0 250 450q0 451 -250 451q-55 0 -106.5 -32.5t-87.5 -88.5v-659z" />
<glyph unicode="&#x441;" horiz-adv-x="753" d="M61 530q0 265 116.5 410t320.5 145q108 0 196 -43l-10 -106q-77 45 -176 45q-151 0 -234 -114.5t-84 -336.5q1 -227 85.5 -338.5t242.5 -111.5q102 0 174 45l10 -107q-79 -43 -196 -43q-212 0 -328.5 144t-116.5 411z" />
<glyph unicode="&#x442;" horiz-adv-x="735" d="M10 958v103h715v-103h-295v-958h-127v958h-293z" />
<glyph unicode="&#x443;" horiz-adv-x="811" d="M25 1061h133l243 -862l252 862h133l-434 -1456h-133l119 395z" />
<glyph unicode="&#x444;" horiz-adv-x="1388" d="M61 530q0 274 94.5 414.5t252.5 140.5q70 0 129.5 -32.5t93.5 -87.5v530h127v-530q34 55 93.5 87.5t129.5 32.5q158 0 252 -140.5t94 -414.5q0 -275 -93.5 -415t-252.5 -140q-69 0 -128.5 32.5t-94.5 86.5v-489h-127v489q-35 -54 -94.5 -86.5t-128.5 -32.5 q-159 0 -253 140t-94 415zM190 530q0 -228 65.5 -339t178.5 -111q61 0 112.5 32t84.5 91v653q-34 60 -85.5 92.5t-111.5 32.5q-113 0 -178.5 -111.5t-65.5 -339.5zM758 203q34 -60 85 -91.5t111 -31.5q113 0 178.5 111t65.5 339t-65.5 339.5t-178.5 111.5q-60 0 -111 -32.5 t-85 -92.5v-653z" />
<glyph unicode="&#x445;" horiz-adv-x="761" d="M14 0l295 541l-280 520h139l213 -395l213 395h139l-280 -520l295 -541h-144l-223 416l-223 -416h-144z" />
<glyph unicode="&#x446;" horiz-adv-x="903" d="M113 0v1061h127v-959h407v959h127v-959h98v-315h-127v213h-632z" />
<glyph unicode="&#x447;" horiz-adv-x="854" d="M92 788v273h127v-313q0 -150 49 -218.5t146 -68.5q123 0 200 86v514h127v-1061h-127v438q-42 -37 -101 -59.5t-120 -22.5q-155 0 -228 105.5t-73 326.5z" />
<glyph unicode="&#x448;" horiz-adv-x="1097" d="M113 0v1061h127v-959h245v959h127v-959h246v959h127v-1061h-872z" />
<glyph unicode="&#x449;" horiz-adv-x="1116" d="M113 0v1061h127v-959h245v959h127v-959h246v959h127v-959h100v-315h-127v213h-845z" />
<glyph unicode="&#x44a;" horiz-adv-x="958" d="M10 958v103h344v-369h148q199 0 302 -89t103 -257t-103 -257t-302 -89h-275v958h-217zM354 102h150q140 0 207 60t67 184t-67 184t-207 60h-150v-488z" />
<glyph unicode="&#x44b;" horiz-adv-x="1136" d="M113 0v1061h127v-369h147q198 0 301 -89t103 -257t-103 -257t-301 -89h-274zM240 102h147q140 0 207.5 60t67.5 184t-67.5 184t-207.5 60h-147v-488zM897 0v1061h127v-1061h-127z" />
<glyph unicode="&#x44c;" horiz-adv-x="841" d="M113 0v1061h127v-369h147q198 0 301 -89t103 -257t-103 -257t-301 -89h-274zM240 102h147q140 0 207.5 60t67.5 184t-67.5 184t-207.5 60h-147v-488z" />
<glyph unicode="&#x44d;" horiz-adv-x="770" d="M51 18l10 107q72 -45 179 -45q144 0 233.5 97.5t99.5 301.5h-454v103h454q-10 200 -98 299.5t-225 99.5q-103 0 -180 -45l-11 106q88 43 201 43q205 0 327 -145.5t122 -409.5q0 -265 -122 -410t-335 -145q-122 0 -201 43z" />
<glyph unicode="&#x44e;" horiz-adv-x="1105" d="M113 0v1061h127v-479h112q9 250 100 376.5t246 126.5q163 0 254.5 -139t91.5 -416t-91.5 -416t-254.5 -139q-155 0 -246 126t-100 378h-112v-479h-127zM481 530q0 -226 57.5 -338t159.5 -112t159.5 112t57.5 338t-57.5 338.5t-159.5 112.5t-159.5 -112.5t-57.5 -338.5z " />
<glyph unicode="&#x44f;" horiz-adv-x="831" d="M10 0l230 459q-80 37 -123 110t-43 174q0 147 88 232.5t244 85.5h313v-1061h-127v426h-186q-30 0 -44 2l-215 -428h-137zM203 743q0 -99 53.5 -157t153.5 -58h182v430h-182q-100 0 -153.5 -58t-53.5 -157z" />
<glyph unicode="&#x450;" horiz-adv-x="827" d="M61 535q0 272 92.5 411t264.5 139q174 0 266 -138t92 -402q0 -26 -4 -62h-579q9 -403 305 -403q116 0 204 57l11 -108q-91 -54 -224 -54q-209 0 -318.5 144.5t-109.5 415.5zM190 586h455q-3 395 -227 395q-113 0 -169 -98t-59 -297zM197 1507v29h135l207 -332h-119z" />
<glyph unicode="&#x451;" horiz-adv-x="827" d="M61 535q0 272 92.5 411t264.5 139q174 0 266 -138t92 -402q0 -26 -4 -62h-579q9 -403 305 -403q116 0 204 57l11 -108q-91 -54 -224 -54q-209 0 -318.5 144.5t-109.5 415.5zM176 1370q0 61 16.5 85t55.5 24t55 -24t16 -85t-16 -84.5t-55 -23.5t-55.5 24t-16.5 84z M190 586h455q-3 395 -227 395q-113 0 -169 -98t-59 -297zM504 1370q0 61 16 85t55 24t55.5 -24t16.5 -85q0 -60 -16.5 -84t-55.5 -24t-55 23.5t-16 84.5z" />
<glyph unicode="&#x452;" horiz-adv-x="894" d="M25 1237v92h98v166h127v-166h282v-92h-282v-258q41 50 104 78t135 28q148 0 226 -102.5t78 -306.5v-735q0 -189 -52.5 -270t-177.5 -81q-65 0 -123 21l13 106q46 -22 96 -22q62 0 89.5 54t27.5 188v679q0 195 -46.5 280t-158.5 85q-139 0 -211 -121v-860h-127v1237h-98z " />
<glyph unicode="&#x453;" horiz-adv-x="679" d="M113 0v1061h557v-103h-432v-958h-125zM254 1204l207 332h135v-29l-223 -303h-119z" />
<glyph unicode="&#x454;" horiz-adv-x="770" d="M61 530q0 264 122 409.5t327 145.5q113 0 201 -43l-11 -106q-77 45 -180 45q-137 0 -226 -99.5t-99 -299.5h456v-103h-456q10 -204 100.5 -301.5t234.5 -97.5q107 0 179 45l10 -107q-79 -43 -201 -43q-213 0 -335 145t-122 410z" />
<glyph unicode="&#x455;" horiz-adv-x="706" d="M72 37l8 115q106 -72 227 -72q99 0 149 49t50 137q0 85 -45.5 139t-157.5 101q-227 94 -227 299q0 136 81 208t224 72q118 0 211 -41l-10 -108q-80 45 -189 45q-93 0 -140.5 -45.5t-47.5 -124.5q0 -73 42.5 -124.5t155.5 -100.5q122 -53 177 -130t55 -184 q0 -145 -82.5 -221t-235.5 -76q-136 0 -245 62z" />
<glyph unicode="&#x456;" horiz-adv-x="372" d="M106 1378q0 63 19 90t61 27t61 -27t19 -90t-19 -89.5t-61 -26.5t-61 26.5t-19 89.5zM123 0v1061h127v-1061h-127z" />
<glyph unicode="&#x457;" horiz-adv-x="372" d="M-49 1370q0 61 16.5 85t55.5 24t55 -24t16 -85t-16 -84.5t-55 -23.5t-55.5 24t-16.5 84zM123 0v1061h127v-1061h-127zM279 1370q0 61 16 85t55 24t55.5 -24t16.5 -85q0 -60 -16.5 -84t-55.5 -24t-55 23.5t-16 84.5z" />
<glyph unicode="&#x458;" horiz-adv-x="348" d="M-113 -391l9 106q36 -20 84 -20q64 0 96.5 38.5t32.5 127.5v1200h127v-1184q0 -150 -58.5 -218.5t-181.5 -68.5q-57 0 -109 19zM92 1378q0 63 19 90t61 27t61 -27t19 -90t-19 -89.5t-61 -26.5t-61 26.5t-19 89.5z" />
<glyph unicode="&#x459;" horiz-adv-x="1261" d="M10 -6l10 104q48 -20 101 -20q131 0 131 260v723h500v-395q234 0 346 -78t112 -256q0 -332 -397 -332h-188v956h-246v-637q0 -344 -250 -344q-67 0 -119 19zM752 102h67q139 0 200.5 56.5t61.5 173.5q0 118 -61 174.5t-201 56.5h-67v-461z" />
<glyph unicode="&#x45a;" horiz-adv-x="1230" d="M113 0v1061h127v-416h354v416h127v-395q234 0 346.5 -78t112.5 -256q0 -332 -398 -332h-188v543h-354v-543h-127zM721 102h67q139 0 201 56.5t62 173.5q0 118 -61.5 174.5t-201.5 56.5h-67v-461z" />
<glyph unicode="&#x45b;" horiz-adv-x="894" d="M25 1237v92h98v166h127v-166h282v-92h-282v-258q41 50 104 78t135 28q148 0 226 -102.5t78 -306.5v-676h-127v616q0 195 -46.5 280t-158.5 85q-139 0 -211 -121v-860h-127v1237h-98z" />
<glyph unicode="&#x45c;" horiz-adv-x="782" d="M113 0v1061h127v-486l356 486h152l-383 -510l417 -551h-151l-391 524v-524h-127zM295 1204l207 332h135v-29l-223 -303h-119z" />
<glyph unicode="&#x45d;" horiz-adv-x="940" d="M113 0v1061h127v-834l448 834h139v-1061h-127v834l-448 -834h-139zM244 1507v29h135l207 -332h-119z" />
<glyph unicode="&#x45e;" horiz-adv-x="811" d="M25 1061h133l243 -862l252 862h133l-434 -1456h-133l119 395zM139 1526h113q6 -228 154 -228q147 0 153 228h113q-4 -162 -75 -242t-191 -80t-191.5 80t-75.5 242z" />
<glyph unicode="&#x45f;" horiz-adv-x="886" d="M113 0v1061h127v-959h407v959h127v-1061h-268v-213h-127v213h-266z" />
<glyph unicode="&#x490;" horiz-adv-x="831" d="M143 0v1434h547v252h131v-365h-547v-1321h-131z" />
<glyph unicode="&#x491;" horiz-adv-x="679" d="M113 0v1061h430v270h127v-373h-430v-958h-127z" />
<glyph unicode="&#x1e80;" horiz-adv-x="1495" d="M31 1434h135l268 -1297l230 1297h167l230 -1297l268 1297h135l-309 -1434h-192l-215 1221l-216 -1221h-192zM492 1864v28h135l207 -331h-119z" />
<glyph unicode="&#x1e81;" horiz-adv-x="1212" d="M25 1061h129l196 -916l178 916h156l178 -916l197 916h129l-242 -1061h-166l-174 883l-174 -883h-166zM350 1507v29h135l207 -332h-119z" />
<glyph unicode="&#x1e82;" horiz-adv-x="1495" d="M31 1434h135l268 -1297l230 1297h167l230 -1297l268 1297h135l-309 -1434h-192l-215 1221l-216 -1221h-192zM659 1561l207 331h135v-28l-223 -303h-119z" />
<glyph unicode="&#x1e83;" horiz-adv-x="1212" d="M25 1061h129l196 -916l178 916h156l178 -916l197 916h129l-242 -1061h-166l-174 883l-174 -883h-166zM512 1204l207 332h135v-29l-223 -303h-119z" />
<glyph unicode="&#x1e84;" horiz-adv-x="1495" d="M31 1434h135l268 -1297l230 1297h167l230 -1297l268 1297h135l-309 -1434h-192l-215 1221l-216 -1221h-192zM512 1726q0 61 16.5 85t55.5 24t55 -24t16 -85t-16 -84.5t-55 -23.5t-55.5 24t-16.5 84zM840 1726q0 61 16 85t55 24t55.5 -24t16.5 -85q0 -60 -16.5 -84 t-55.5 -24t-55 23.5t-16 84.5z" />
<glyph unicode="&#x1e85;" horiz-adv-x="1212" d="M25 1061h129l196 -916l178 916h156l178 -916l197 916h129l-242 -1061h-166l-174 883l-174 -883h-166zM371 1370q0 61 16 85t55 24t55.5 -24t16.5 -85q0 -60 -16.5 -84t-55.5 -24t-55 23.5t-16 84.5zM698 1370q0 61 16.5 85t55.5 24t55.5 -24t16.5 -85q0 -60 -16.5 -84 t-55.5 -24t-55.5 24t-16.5 84z" />
<glyph unicode="&#x1ef2;" horiz-adv-x="995" d="M31 1434h137l330 -727l329 727h138l-402 -865v-569h-131v569zM256 1864v28h135l207 -331h-119z" />
<glyph unicode="&#x1ef3;" horiz-adv-x="811" d="M25 1061h133l243 -862l252 862h133l-434 -1456h-133l119 395zM162 1507v29h135l207 -332h-119z" />
<glyph unicode="&#x2000;" horiz-adv-x="1023" />
<glyph unicode="&#x2001;" horiz-adv-x="2046" />
<glyph unicode="&#x2002;" horiz-adv-x="1023" />
<glyph unicode="&#x2003;" horiz-adv-x="2046" />
<glyph unicode="&#x2004;" horiz-adv-x="682" />
<glyph unicode="&#x2005;" horiz-adv-x="511" />
<glyph unicode="&#x2006;" horiz-adv-x="341" />
<glyph unicode="&#x2007;" horiz-adv-x="341" />
<glyph unicode="&#x2008;" horiz-adv-x="255" />
<glyph unicode="&#x2009;" horiz-adv-x="409" />
<glyph unicode="&#x200a;" horiz-adv-x="113" />
<glyph unicode="&#x2010;" horiz-adv-x="729" d="M102 618v123h525v-123h-525z" />
<glyph unicode="&#x2011;" horiz-adv-x="729" d="M102 618v123h525v-123h-525z" />
<glyph unicode="&#x2012;" horiz-adv-x="921" d="M82 623v114h758v-114h-758z" />
<glyph unicode="&#x2013;" horiz-adv-x="1024" d="M0 623v114h1024v-114h-1024z" />
<glyph unicode="&#x2014;" d="M0 623v114h2048v-114h-2048z" />
<glyph unicode="&#x2015;" d="M205 623v114h1638v-114h-1638z" />
<glyph unicode="&#x2016;" horiz-adv-x="739" d="M184 -266v1800h115v-1800h-115zM442 -266v1800h113v-1800h-113z" />
<glyph unicode="&#x2017;" horiz-adv-x="1017" d="M82 -86h854v-92h-854v92zM82 -303h854v-92h-854v92z" />
<glyph unicode="&#x2018;" horiz-adv-x="368" d="M104 1235q0 109 33.5 190t108.5 146l43 -66q-78 -84 -78 -162q29 -11 41 -36.5t12 -77.5q0 -63 -19 -90t-61 -27t-61 27.5t-19 95.5z" />
<glyph unicode="&#x2019;" horiz-adv-x="368" d="M80 1178q78 84 78 161q-29 11 -41.5 37t-12.5 78q0 63 19 90t61 27t61 -27.5t19 -95.5q0 -110 -33 -190.5t-108 -145.5z" />
<glyph unicode="&#x201a;" horiz-adv-x="368" d="M80 -188q78 84 78 161q-29 11 -41.5 37t-12.5 78q0 63 19 90t61 27t61 -27.5t19 -95.5q0 -110 -33 -190.5t-108 -145.5z" />
<glyph unicode="&#x201b;" horiz-adv-x="368" d="M104 1448q0 68 19 95.5t61 27.5t61 -27t19 -90q0 -53 -12 -79t-41 -36q0 -77 78 -161l-43 -66q-75 65 -108.5 146t-33.5 190z" />
<glyph unicode="&#x201c;" horiz-adv-x="604" d="M104 1235q0 109 33.5 190t108.5 146l43 -66q-78 -84 -78 -162q29 -11 41 -36.5t12 -77.5q0 -63 -19 -90t-61 -27t-61 27.5t-19 95.5zM340 1235q0 110 33 190.5t108 145.5l43 -66q-78 -84 -78 -162q29 -11 41.5 -36.5t12.5 -77.5q0 -63 -19 -90t-61 -27t-61 27.5t-19 95.5 z" />
<glyph unicode="&#x201d;" horiz-adv-x="604" d="M80 1178q78 84 78 161q-29 11 -41.5 37t-12.5 78q0 63 19 90t61 27t61 -27.5t19 -95.5q0 -110 -33 -190.5t-108 -145.5zM315 1178q78 84 78 161q-29 10 -41 36t-12 79q0 63 19 90t61 27t61 -27.5t19 -95.5q0 -109 -33.5 -190t-108.5 -146z" />
<glyph unicode="&#x201e;" horiz-adv-x="604" d="M80 -190q78 84 78 161q-29 11 -41.5 37t-12.5 78q0 63 19 90t61 27t61 -27.5t19 -95.5q0 -110 -33 -190.5t-108 -145.5zM315 -190q78 84 78 161q-29 10 -41 36t-12 79q0 63 19 90t61 27t61 -27.5t19 -95.5q0 -109 -33.5 -190t-108.5 -146z" />
<glyph unicode="&#x201f;" horiz-adv-x="604" d="M104 1448q0 68 19 95.5t61 27.5t61 -27t19 -90q0 -53 -12 -79t-41 -36q0 -77 78 -161l-43 -66q-75 65 -108.5 146t-33.5 190zM340 1448q0 68 19 95.5t61 27.5t61 -27t19 -90q0 -52 -12.5 -78t-41.5 -37q0 -77 78 -161l-43 -66q-75 65 -108 145.5t-33 190.5z" />
<glyph unicode="&#x2020;" horiz-adv-x="950" d="M143 1059v102h269v371h127v-371h268v-102h-268v-1327h-127v1327h-269z" />
<glyph unicode="&#x2021;" horiz-adv-x="950" d="M143 102v103h269v854h-269v102h269v371h127v-371h268v-102h-268v-854h268v-103h-268v-370h-127v370h-269z" />
<glyph unicode="&#x2022;" horiz-adv-x="552" d="M100 680q0 201 176 201q177 0 177 -201q0 -203 -177 -203q-90 0 -133 50.5t-43 152.5z" />
<glyph unicode="&#x2024;" horiz-adv-x="368" d="M104 90q0 63 19 89t61 26t61 -26t19 -89t-19 -89t-61 -26t-61 26t-19 89z" />
<glyph unicode="&#x2025;" horiz-adv-x="737" d="M104 90q0 63 19 89t61 26t61 -26t19 -89t-19 -89t-61 -26t-61 26t-19 89zM473 90q0 63 19 89t61 26t61 -26t19 -89t-19 -89t-61 -26t-61 26t-19 89z" />
<glyph unicode="&#x2026;" horiz-adv-x="1105" d="M104 90q0 63 19 89t61 26t61 -26t19 -89t-19 -89t-61 -26t-61 26t-19 89zM473 90q0 63 19 89t61 26t61 -26t19 -89t-19 -89t-61 -26t-61 26t-19 89zM842 90q0 63 19 89t61 26t60.5 -26t18.5 -89t-18.5 -89t-60.5 -26t-61 26t-19 89z" />
<glyph unicode="&#x202f;" horiz-adv-x="409" />
<glyph unicode="&#x2030;" horiz-adv-x="1849" d="M143 1077q0 176 64 273.5t178 97.5t178 -97.5t64 -273.5t-64 -273t-178 -97t-178 97t-64 273zM246 0l708 1434h113l-709 -1434h-112zM266 1077q0 -266 119 -266t119 266t-119 266t-119 -266zM690 354q0 176 64 273.5t178 97.5t178 -97.5t64 -273.5t-64 -273t-178 -97 t-178 97t-64 273zM813 354q0 -266 119 -266t119 266q0 267 -119 267t-119 -267zM1223 354q0 177 63.5 274t177.5 97t178 -97.5t64 -273.5t-64 -273t-178 -97t-177.5 96.5t-63.5 273.5zM1346 354q0 -266 118 -266q119 0 119 266q0 267 -119 267q-118 0 -118 -267z" />
<glyph unicode="&#x2032;" horiz-adv-x="512" d="M141 874l99 560h139v-52l-139 -508h-99z" />
<glyph unicode="&#x2033;" horiz-adv-x="774" d="M141 874l99 560h139v-52l-139 -508h-99zM403 874l99 560h139v-52l-139 -508h-99z" />
<glyph unicode="&#x2039;" horiz-adv-x="614" d="M123 598v82l389 389v-143l-293 -287l293 -287v-143z" />
<glyph unicode="&#x203a;" horiz-adv-x="614" d="M102 209v143l293 287l-293 287v143l390 -389v-82z" />
<glyph unicode="&#x203c;" horiz-adv-x="720" d="M154 88q0 64 18.5 90.5t60.5 26.5t61 -27t19 -90t-19 -90t-61 -27t-60.5 26.5t-18.5 90.5zM166 1018v416h135v-416l-20 -660h-95zM408 88q0 64 18.5 90.5t60.5 26.5t61 -27t19 -90t-19 -90t-61 -27t-60.5 26.5t-18.5 90.5zM420 1018v416h135v-416l-20 -660h-95z" />
<glyph unicode="&#x203e;" horiz-adv-x="655" d="M90 1268v106h475v-106h-475z" />
<glyph unicode="&#x2044;" horiz-adv-x="657" d="M-20 -31l598 1495h100l-598 -1495h-100z" />
<glyph unicode="&#x205f;" horiz-adv-x="511" />
<glyph unicode="&#x2070;" horiz-adv-x="645" d="M49 961q0 489 275 489q274 0 274 -489q0 -490 -274 -490q-275 0 -275 490zM164 961q0 -392 160 -392q159 0 159 392q0 391 -159 391q-160 0 -160 -391z" />
<glyph unicode="&#x2071;" horiz-adv-x="645" d="M262 1341q0 57 14.5 80t47.5 23t47 -23t14 -80t-14 -79.5t-47 -22.5t-47.5 22.5t-14.5 79.5zM268 483v668h113v-668h-113z" />
<glyph unicode="&#x2074;" horiz-adv-x="645" d="M53 692v96l344 646h111v-646h84v-96h-84v-209h-115v209h-340zM160 788h233v439z" />
<glyph unicode="&#x2075;" horiz-adv-x="645" d="M96 504l8 104q67 -43 148 -43q87 0 136.5 56t49.5 161q0 99 -45.5 153t-132.5 54q-82 0 -141 -41v486h416v-97h-306v-266q38 14 88 14q104 0 172 -80.5t68 -224.5q0 -146 -77 -229.5t-212 -83.5q-102 0 -172 37z" />
<glyph unicode="&#x2076;" horiz-adv-x="645" d="M66 920q0 278 78.5 404t232.5 126q81 0 151 -31l-8 -100q-56 33 -137 33q-85 0 -135.5 -70.5t-61.5 -245.5q70 66 158 66q111 0 174.5 -85t63.5 -235q0 -147 -66 -231t-180 -84q-126 0 -198 112t-72 341zM182 920q0 -355 152 -355q60 0 95.5 54.5t35.5 160.5 q0 224 -141 224q-40 0 -79.5 -22.5t-62.5 -57.5v-4z" />
<glyph unicode="&#x2077;" horiz-adv-x="645" d="M86 1337v97h465v-101l-262 -850h-123l264 854h-344z" />
<glyph unicode="&#x2078;" horiz-adv-x="645" d="M66 731q0 85 42 152t115 104q-64 36 -99.5 96.5t-35.5 128.5q0 111 63.5 174.5t167.5 63.5t167 -64.5t63 -173.5q0 -68 -36.5 -128.5t-100.5 -98.5q77 -41 120 -108t43 -144q0 -123 -67 -194.5t-184 -71.5q-116 0 -187 70.5t-71 193.5zM182 731q0 -78 39.5 -122 t102.5 -44q61 0 98 44t37 120q0 67 -38.5 121t-113.5 86q-125 -67 -125 -205zM205 1210q0 -123 121 -178q51 29 78.5 76t27.5 102q0 65 -30.5 103.5t-82.5 38.5q-55 0 -84.5 -39t-29.5 -103z" />
<glyph unicode="&#x2079;" horiz-adv-x="645" d="M59 1135q0 147 66 231t180 84q126 0 198 -112t72 -341q0 -278 -78.5 -404t-232.5 -126q-81 0 -151 31l8 100q56 -33 137 -33q84 0 134 70t63 244q-68 -64 -158 -64q-111 0 -174.5 85t-63.5 235zM176 1137q0 -224 141 -224q39 0 78 22t64 58v4q0 355 -152 355 q-60 0 -95.5 -54.5t-35.5 -160.5z" />
<glyph unicode="&#x207a;" horiz-adv-x="645" d="M23 915v97h241v280h115v-280h242v-97h-242v-278h-115v278h-241z" />
<glyph unicode="&#x207b;" horiz-adv-x="645" d="M23 915v97h598v-97h-598z" />
<glyph unicode="&#x207c;" horiz-adv-x="645" d="M23 784v97h598v-97h-598zM23 1047v96h598v-96h-598z" />
<glyph unicode="&#x207d;" horiz-adv-x="645" d="M213 961q0 308 164 593h94q-154 -288 -154 -593q0 -311 154 -599h-94q-164 285 -164 599z" />
<glyph unicode="&#x207e;" horiz-adv-x="645" d="M174 362q154 288 154 599q0 305 -154 593h94q164 -285 164 -593q0 -314 -164 -599h-94z" />
<glyph unicode="&#x207f;" horiz-adv-x="645" d="M80 483v688h115v-55q27 31 70.5 51.5t86.5 20.5q100 0 155.5 -70.5t55.5 -212.5v-422h-114v402q0 114 -32 160.5t-91 46.5q-80 0 -131 -74v-535h-115z" />
<glyph unicode="&#x2080;" horiz-adv-x="645" d="M47 217q0 490 275 490q274 0 274 -490q0 -489 -274 -489q-275 0 -275 489zM162 217q0 -391 160 -391q159 0 159 391t-159 391q-160 0 -160 -391z" />
<glyph unicode="&#x2081;" horiz-adv-x="645" d="M94 510l213 182h96v-952h-114v792l-133 -110z" />
<glyph unicode="&#x2082;" horiz-adv-x="645" d="M86 -164q143 156 254 342q84 136 84 260q0 170 -141 170q-95 0 -172 -57l-7 108q36 21 88.5 34.5t96.5 13.5q125 0 188.5 -67.5t63.5 -197.5q0 -147 -107 -325q-111 -179 -207 -281h320v-96h-461v96z" />
<glyph unicode="&#x2083;" horiz-adv-x="645" d="M94 -240l8 107q62 -45 160 -45q85 0 128.5 45.5t43.5 120.5q0 92 -60.5 145t-191.5 53v97q121 0 181.5 51t60.5 123q0 69 -40.5 110t-109.5 41q-91 0 -163 -43l-5 99q75 43 179 43q121 0 188.5 -64t67.5 -180q0 -77 -43 -136t-119 -89q172 -68 172 -246 q0 -124 -73.5 -196t-205.5 -72q-107 0 -178 36z" />
<glyph unicode="&#x2084;" horiz-adv-x="645" d="M53 45l344 645h111v-645h84v-96h-84v-209h-115v209h-340v96zM160 45h233v438z" />
<glyph unicode="&#x2085;" horiz-adv-x="645" d="M96 -240l8 105q67 -43 148 -43q87 0 136.5 56t49.5 161q0 99 -45.5 153t-132.5 54q-82 0 -141 -41v485h416v-96h-306v-266q38 14 88 14q104 0 172 -80.5t68 -224.5q0 -146 -77 -229.5t-212 -83.5q-104 0 -172 36z" />
<glyph unicode="&#x2086;" horiz-adv-x="645" d="M66 176q0 278 78.5 404.5t232.5 126.5q81 0 151 -31l-8 -101q-56 33 -137 33q-85 0 -135.5 -70t-61.5 -245q69 65 158 65q111 0 174.5 -84.5t63.5 -234.5q0 -147 -66 -231t-180 -84q-127 0 -198.5 112t-71.5 340zM182 176q0 -354 152 -354q60 0 95.5 54.5t35.5 160.5 q0 223 -141 223q-40 0 -79.5 -22.5t-62.5 -57.5v-4z" />
<glyph unicode="&#x2087;" horiz-adv-x="645" d="M86 594v96h465v-100l-262 -850h-123l264 854h-344z" />
<glyph unicode="&#x2088;" horiz-adv-x="645" d="M66 -12q0 85 42 152t115 104q-64 36 -99.5 96.5t-35.5 128.5q0 111 63.5 174.5t167.5 63.5t167 -64.5t63 -173.5q0 -68 -36.5 -128.5t-100.5 -98.5q77 -41 120 -108t43 -144q0 -123 -67 -194.5t-184 -71.5q-116 0 -187 70.5t-71 193.5zM182 -12q0 -78 39.5 -122 t102.5 -44q61 0 98 44t37 120q0 67 -38.5 121t-113.5 86q-125 -67 -125 -205zM205 467q0 -123 121 -178q51 29 78.5 76t27.5 102q0 65 -30.5 103t-82.5 38q-55 0 -84.5 -38.5t-29.5 -102.5z" />
<glyph unicode="&#x2089;" horiz-adv-x="645" d="M59 391q0 147 66 231.5t180 84.5q126 0 198 -112t72 -341q0 -278 -78.5 -404t-232.5 -126q-83 0 -151 30l8 101q56 -33 137 -33q84 0 134 70t63 243q-67 -63 -158 -63q-111 0 -174.5 84.5t-63.5 234.5zM176 393q0 -223 141 -223q39 0 78 22t64 58v4q0 354 -152 354 q-60 0 -95.5 -54.5t-35.5 -160.5z" />
<glyph unicode="&#x208a;" horiz-adv-x="645" d="M23 172v96h241v281h115v-281h242v-96h-242v-278h-115v278h-241z" />
<glyph unicode="&#x208b;" horiz-adv-x="645" d="M23 172v96h598v-96h-598z" />
<glyph unicode="&#x208c;" horiz-adv-x="645" d="M23 41v96h598v-96h-598zM23 303v96h598v-96h-598z" />
<glyph unicode="&#x208d;" horiz-adv-x="645" d="M213 217q0 309 164 594h94q-154 -288 -154 -594q0 -310 154 -598h-94q-164 285 -164 598z" />
<glyph unicode="&#x208e;" horiz-adv-x="645" d="M174 -381q154 288 154 598q0 306 -154 594h94q164 -285 164 -594q0 -313 -164 -598h-94z" />
<glyph unicode="&#x2090;" horiz-adv-x="645" d="M76 -51q0 110 71 173.5t199 63.5h100v39q0 77 -30 111.5t-97 34.5q-103 0 -184 -47l-8 98q82 45 199 45q120 0 177.5 -60t57.5 -180v-485h-115v59q-51 -73 -172 -73q-83 0 -140.5 58.5t-57.5 162.5zM193 -51q0 -58 30 -91.5t84 -33.5q94 0 139 88v180h-98 q-155 0 -155 -143z" />
<glyph unicode="&#x2091;" horiz-adv-x="645" d="M70 102q0 183 70.5 275t181.5 92q118 0 184.5 -92t66.5 -273v-53q-258 0 -389 2q5 -109 52 -168t139 -59q88 0 147 39l8 -101q-59 -36 -161 -36q-144 0 -221.5 100.5t-77.5 273.5zM184 145h275q0 114 -36.5 170t-100.5 56q-62 0 -99.5 -55t-38.5 -171z" />
<glyph unicode="&#x2092;" horiz-adv-x="645" d="M51 96q0 177 70.5 274t200.5 97t200 -96.5t70 -274.5q0 -177 -70 -273.5t-200 -96.5t-200.5 96.5t-70.5 273.5zM168 96q0 -140 41.5 -207t112.5 -67t112 67t41 207t-41 207.5t-112 67.5t-112.5 -67.5t-41.5 -207.5z" />
<glyph unicode="&#x2093;" horiz-adv-x="645" d="M41 -256l215 365l-199 342h125l140 -242l141 242h125l-199 -342l215 -365h-129l-153 262l-152 -262h-129z" />
<glyph unicode="&#x2094;" horiz-adv-x="645" d="M70 92v51h389q-5 109 -52.5 168.5t-138.5 59.5q-88 0 -147 -39l-8 100q61 37 161 37q144 0 221.5 -100.5t77.5 -274.5q0 -183 -70 -274.5t-181 -91.5q-118 0 -185 91.5t-67 272.5zM184 51q0 -114 37 -169.5t101 -55.5q62 0 99 54.5t38 170.5h-275z" />
<glyph unicode="&#x20a0;" horiz-adv-x="1187" d="M61 940q0 241 108 379.5t296 138.5q114 0 190 -39l-6 -119q-74 43 -178 43q-128 0 -202 -102t-74 -301q0 -198 75.5 -300.5t204.5 -102.5q69 0 123 22v445h520v-113h-389v-322h363v-112h-363v-344h397v-113h-528v442q-56 -20 -127 -20q-190 0 -300 138.5t-110 379.5z" />
<glyph unicode="&#x20a1;" horiz-adv-x="940" d="M72 717q0 314 134 511.5t372 225.5l32 160h66l-31 -156q49 0 90 -6l33 162h66l-35 -174q33 -6 80 -29l-9 -119q-44 25 -92 35l-239 -1223q52 -14 118 -14q137 0 222 49l10 -119q-91 -45 -234 -45q-66 0 -139 17l-24 -133h-66l29 149q-37 11 -84 41l-37 -190h-66l45 231 q-117 94 -179 255t-62 372zM205 717q0 -314 137 -479l213 1093q-165 -38 -257.5 -199t-92.5 -415zM395 182q38 -38 84 -57l236 1214q-52 7 -92 2z" />
<glyph unicode="&#x20a2;" horiz-adv-x="960" d="M72 717q0 338 154 539.5t423 201.5q141 0 230 -47l-9 -119q-91 51 -215 51q-209 0 -329.5 -167t-120.5 -459q0 -211 64 -358.5t182 -215.5v834h122v-139q31 75 85 119t126 44q60 0 88 -14l-12 -108q-32 14 -80 14q-70 -2 -125 -59t-82 -160v-576q36 -8 84 -8 q137 0 222 49l10 -119q-91 -45 -234 -45q-271 0 -427 202t-156 540z" />
<glyph unicode="&#x20a3;" horiz-adv-x="856" d="M51 563v88h99v187h-99v88h99v508h675v-113h-544v-395h456v-88h-456v-187h456v-88h-456v-563h-131v563h-99z" />
<glyph unicode="&#x20a4;" horiz-adv-x="831" d="M41 0v113h143v383h-114v88h114v188h-114v88h114v191q0 201 86.5 304t255.5 103q136 0 230 -49l-11 -119q-85 53 -204 53q-113 0 -169.5 -69.5t-56.5 -224.5v-189h353v-88h-353v-188h353v-88h-353v-383h476v-113h-750z" />
<glyph unicode="&#x20a6;" horiz-adv-x="1089" d="M31 535v88h112v186h-112v88h112v537h187l219 -537h293v537h127v-537h90v-88h-90v-186h90v-88h-90v-535h-187l-219 535h-293v-535h-127v535h-112zM270 623h258l-75 186h-183v-186zM270 897h146l-146 358v-358zM584 809l75 -186h183v186h-258zM696 535l146 -357v357h-146z " />
<glyph unicode="&#x20a7;" horiz-adv-x="1642" d="M143 0v1434h183q173 0 279 -95.5t124 -277.5h86v317h127v-317h291q63 24 125 24q116 0 184 -38l-10 -107q-62 41 -160 41q-76 0 -119 -43.5t-43 -118.5q0 -109 105 -180q65 -46 95.5 -69.5t70 -60.5t56 -67.5t28.5 -75t12 -98.5q0 -148 -69 -220.5t-210 -72.5h-249 q-80 0 -129 26.5t-77 97t-28 190.5v669h-84q-17 -217 -117.5 -323.5t-287.5 -106.5h-56v-528h-127zM270 641q171 0 252.5 78t81.5 262t-81.5 262t-252.5 78v-680zM942 276q0 -63 8.5 -104t25 -60.5t34 -26.5t43.5 -7h245q84 0 121 47.5t37 144.5q0 140 -141 222 q-234 118 -234 323q0 79 37 143h-176v-682z" />
<glyph unicode="&#x20a8;" horiz-adv-x="1591" d="M143 0v1434h342q188 0 296 -108.5t108 -301.5q0 -148 -63.5 -247t-180.5 -138l285 -639h-139l-271 616q-27 -2 -82 -2h-164v-614h-131zM274 727h207q134 0 204.5 77t70.5 220t-70.5 220t-204.5 77h-207v-594zM950 41l8 119q102 -80 236 -80q100 0 153.5 49.5t53.5 136.5 q0 84 -48.5 138t-162.5 102q-115 48 -175.5 124t-60.5 175q0 135 85 207.5t229 72.5q126 0 219 -41l-10 -108q-80 45 -197 45q-94 0 -145.5 -46t-51.5 -124q0 -71 46 -123t161 -102q240 -104 240 -314q0 -144 -86 -220.5t-240 -76.5q-147 0 -254 66z" />
<glyph unicode="&#x20a9;" horiz-adv-x="1495" d="M12 512v88h199l-39 176h-160v88h142l-123 570h135l117 -570h278l103 570h167l101 -570h278l119 570h135l-123 -570h142v-88h-160l-39 -176h199v-88h-217l-111 -512h-192l-93 512h-247l-91 -512h-192l-111 512h-217zM301 776l37 -176h178l31 176h-246zM356 512l78 -375 l66 375h-144zM637 600h219l-31 176h-157zM684 864h125l-61 357zM946 776l33 -176h178l35 176h-246zM993 512l68 -375l78 375h-146z" />
<glyph unicode="&#x20aa;" horiz-adv-x="1374" d="M143 0v1434h371q205 0 303 -141.5t98 -432.5v-334h-131v322q0 252 -69 362.5t-211 110.5h-230v-1321h-131zM459 571v336h131v-323q0 -250 69 -360.5t211 -110.5h230v1321h131v-1434h-371q-205 0 -303 140t-98 431z" />
<glyph unicode="&#x20ab;" horiz-adv-x="905" d="M61 514q0 261 98 400t267 139q71 0 132.5 -33t98.5 -86v270h-282v92h282v138h134v-138h98v-92h-98v-1204h-134v92q-36 -53 -97.5 -85t-133.5 -32q-169 0 -267 138.5t-98 400.5zM197 514q0 -211 67 -317.5t191 -106.5q60 0 113.5 31t88.5 88v608q-35 57 -88.5 89 t-113.5 32q-123 0 -190.5 -106.5t-67.5 -317.5zM215 -193h549v-98h-549v98z" />
<glyph unicode="&#x20ac;" horiz-adv-x="946" d="M41 545v88h86q-7 83 0 166h-86v88h94q12 93 37 174t68.5 155t102 127t141 84t182.5 31q125 0 221 -51l-8 -123q-92 57 -211 57q-77 0 -141 -27t-107 -70.5t-75 -104.5t-49.5 -122t-27.5 -130h527l-19 -88h-516q-10 -83 0 -166h477l-18 -88h-449q10 -69 28 -130.5t50 -122 t75.5 -104t107 -70t141.5 -26.5q122 0 215 58l8 -123q-98 -52 -225 -52q-100 0 -183 31t-141.5 83.5t-102.5 126.5t-69.5 155t-38.5 174h-94z" />
<glyph unicode="&#x2105;" horiz-adv-x="1527" d="M51 995q0 218 94.5 340.5t251.5 122.5q89 0 162 -39l-10 -98q-55 39 -143 39q-104 0 -171 -95t-67 -270t67 -269.5t171 -94.5q88 0 143 39l10 -99q-73 -39 -162 -39q-157 0 -251.5 122.5t-94.5 340.5zM389 -31l592 1495h100l-592 -1495h-100zM852 442q0 224 82.5 341.5 t226.5 119.5q145 0 228.5 -118t83.5 -343t-83.5 -342.5t-228.5 -117.5q-144 2 -226.5 119t-82.5 341zM969 442q0 -362 194 -362q193 0 193 362q0 363 -193 363q-194 0 -194 -363z" />
<glyph unicode="&#x2109;" horiz-adv-x="1327" d="M31 1202q0 102 73.5 174t176.5 72t176 -72t73 -174t-73 -174t-176 -72t-176.5 72t-73.5 174zM135 1202q0 -63 42 -106t104 -43q61 0 103 43t42 106t-42 106.5t-103 43.5t-103.5 -43.5t-42.5 -106.5zM623 0v1434h673v-113h-542v-520h506v-113h-506v-688h-131z" />
<glyph unicode="&#x2113;" horiz-adv-x="743" d="M61 197q61 30 113 67q-76 232 -76 582q0 309 84.5 460.5t227.5 151.5q121 0 180 -105.5t59 -326.5q0 -102 -14 -200.5t-48 -209t-101 -215.5t-162 -188q55 -127 143 -127q50 0 86.5 39.5t50.5 122.5l78 -80q-51 -193 -217 -193q-146 0 -238 164q-60 -42 -129 -71z M227 842q0 -277 52 -490q241 245 241 686q0 170 -29.5 240t-84.5 70q-76 0 -127.5 -122.5t-51.5 -383.5z" />
<glyph unicode="&#x2116;" horiz-adv-x="1456" d="M143 0v1434h172l322 -1221v1221h121v-1434h-172l-322 1221v-1221h-121zM821 0v111h572v-111h-572zM827 657q0 207 73 314.5t208 107.5t208 -107.5t73 -314.5t-73 -314t-208 -107t-208 107t-73 314zM952 657q0 -317 156 -317t156 317q0 318 -156 318t-156 -318z" />
<glyph unicode="&#x2117;" horiz-adv-x="1245" d="M72 717q0 219 66.5 386.5t192 261t292.5 93.5t292.5 -93.5t192 -261t66.5 -386.5t-66.5 -387t-192 -261.5t-292.5 -93.5t-292.5 93.5t-192 261.5t-66.5 387zM150 717q0 -301 128 -484.5t345 -183.5t345 183.5t128 484.5t-128 484t-345 183t-345 -183t-128 -484zM410 266 v875h229q125 0 195.5 -75t70.5 -218t-70.5 -219t-195.5 -76h-119v-287h-110zM520 649h119q76 0 116 52t40 147q0 94 -40 145t-116 51h-119v-395z" />
<glyph unicode="&#x2120;" horiz-adv-x="1038" d="M61 1270q0 78 47.5 126t131.5 48q60 0 116 -27l-6 -96q-39 27 -94 27q-43 0 -66.5 -22t-23.5 -58t22 -64.5t72 -58.5q67 -39 96 -85t29 -118q0 -86 -49.5 -137t-140.5 -51q-71 0 -132 28l7 103q48 -37 116 -37q49 0 72 26.5t23 69.5t-23.5 74t-77.5 63q-63 38 -91 81 t-28 108zM440 764v670h127l131 -297l131 297h127v-670h-102v520l-125 -280h-61l-125 280v-520h-103z" />
<glyph unicode="&#x2121;" horiz-adv-x="1470" d="M23 1321v113h622v-113h-246v-1321h-131v1321h-245zM502 535q0 550 307 550q311 0 311 -540q0 -44 -2 -62h-489q5 -190 68.5 -296.5t181.5 -106.5q108 0 172 59l10 -108q-79 -56 -191 -56q-185 0 -276.5 146t-91.5 414zM629 586h364q0 395 -184 395q-177 0 -180 -395z M1221 0v1495h127v-1495h-127z" />
<glyph unicode="&#x2122;" horiz-adv-x="1048" d="M18 1346v88h390v-88h-144v-580h-102v580h-144zM453 764v670h127l131 -297l131 297h127v-670h-103v520l-125 -280h-61l-125 280v-520h-102z" />
<glyph unicode="&#x2126;" horiz-adv-x="1105" d="M72 766q0 320 127.5 506t353.5 186t353.5 -186t127.5 -506q0 -201 -74.5 -370t-195.5 -283h254v-113h-395v125q137 125 207.5 280.5t70.5 360.5q0 272 -93 424.5t-255 152.5q-163 0 -255.5 -152t-92.5 -425q0 -206 69.5 -361.5t206.5 -279.5v-125h-393v113h254 q-122 113 -196 282t-74 371z" />
<glyph unicode="&#x212e;" horiz-adv-x="1161" d="M72 717q0 152 35 286t99 235.5t163.5 160.5t220.5 59q155 0 270 -101.5t172.5 -270.5t57.5 -379v-39h-750v-492q99 -117 297 -117q217 0 367 136l16 -97q-159 -123 -385 -123q-142 0 -251.5 55.5t-176.5 155.5t-101 234t-34 297zM340 754h489v506q-43 54 -108 83t-137 29 q-71 0 -136 -29t-108 -83v-506z" />
<glyph unicode="&#x2153;" horiz-adv-x="1505" d="M94 1253l213 183h96v-953h-114v793l-133 -111zM356 -31l598 1495h101l-598 -1495h-101zM971 20l8 107q62 -45 160 -45q85 0 128.5 45.5t43.5 120.5q0 92 -60.5 145t-191.5 53v97q121 0 181 51t60 123q0 69 -40 110t-109 41q-92 0 -164 -43l-4 99q75 43 178 43 q121 0 188.5 -64t67.5 -180q0 -77 -43 -136t-119 -89q172 -68 172 -246q0 -124 -73 -196t-205 -72q-107 0 -178 36z" />
<glyph unicode="&#x2154;" horiz-adv-x="1505" d="M86 483v97q143 156 254 342q84 136 84 260q0 170 -141 170q-94 0 -172 -58l-7 109q36 21 88.5 34t96.5 13q125 0 188.5 -67t63.5 -197q0 -148 -107 -326q-109 -176 -207 -280h320v-97h-461zM389 -31l598 1495h100l-598 -1495h-100zM971 20l8 107q62 -45 160 -45 q85 0 128.5 45.5t43.5 120.5q0 92 -60.5 145t-191.5 53v97q121 0 181 51t60 123q0 69 -40 110t-109 41q-92 0 -164 -43l-4 99q75 43 178 43q121 0 188.5 -64t67.5 -180q0 -77 -43 -136t-119 -89q172 -68 172 -246q0 -124 -73 -196t-205 -72q-107 0 -178 36z" />
<glyph unicode="&#x2155;" horiz-adv-x="1505" d="M94 1253l213 183h96v-953h-114v793l-133 -111zM352 -31l598 1495h101l-598 -1495h-101zM969 20l8 105q67 -43 147 -43q87 0 137 56.5t50 160.5q0 99 -45.5 153t-132.5 54q-83 0 -142 -41v485h416v-96h-305v-266q38 14 88 14q104 0 172 -80.5t68 -224.5q0 -146 -77 -229.5 t-212 -83.5q-104 0 -172 36z" />
<glyph unicode="&#x2156;" horiz-adv-x="1505" d="M86 483v97q143 156 254 342q84 136 84 260q0 170 -141 170q-94 0 -172 -58l-7 109q36 21 88.5 34t96.5 13q125 0 188.5 -67t63.5 -197q0 -148 -107 -326q-109 -176 -207 -280h320v-97h-461zM381 -31l598 1495h100l-598 -1495h-100zM969 20l8 105q67 -43 147 -43 q87 0 137 56.5t50 160.5q0 99 -45.5 153t-132.5 54q-83 0 -142 -41v485h416v-96h-305v-266q38 14 88 14q104 0 172 -80.5t68 -224.5q0 -146 -77 -229.5t-212 -83.5q-104 0 -172 36z" />
<glyph unicode="&#x2157;" horiz-adv-x="1505" d="M94 504l8 106q62 -45 160 -45q85 0 128.5 45.5t43.5 120.5q0 92 -60.5 145.5t-191.5 53.5v96q121 0 181.5 51t60.5 123q0 69 -40.5 110.5t-109.5 41.5q-91 0 -163 -43l-5 98q75 43 179 43q121 0 188.5 -64t67.5 -180q0 -77 -43 -136t-119 -89q172 -68 172 -246 q0 -124 -73.5 -196t-205.5 -72q-105 0 -178 37zM385 -31l598 1495h100l-598 -1495h-100zM969 20l8 105q67 -43 147 -43q87 0 137 56.5t50 160.5q0 99 -45.5 153t-132.5 54q-83 0 -142 -41v485h416v-96h-305v-266q38 14 88 14q104 0 172 -80.5t68 -224.5q0 -146 -77 -229.5 t-212 -83.5q-104 0 -172 36z" />
<glyph unicode="&#x2158;" horiz-adv-x="1505" d="M53 692v96l344 646h111v-646h84v-96h-84v-209h-115v209h-340zM160 788h233v439zM403 -31l598 1495h101l-598 -1495h-101zM969 20l8 105q67 -43 147 -43q87 0 137 56.5t50 160.5q0 99 -45.5 153t-132.5 54q-83 0 -142 -41v485h416v-96h-305v-266q38 14 88 14 q104 0 172 -80.5t68 -224.5q0 -146 -77 -229.5t-212 -83.5q-104 0 -172 36z" />
<glyph unicode="&#x2159;" horiz-adv-x="1505" d="M94 1253l213 183h96v-953h-114v793l-133 -111zM356 -31l598 1495h101l-598 -1495h-101zM924 436q0 278 78.5 404.5t232.5 126.5q81 0 151 -31l-8 -100q-54 32 -137 32q-85 0 -135.5 -70t-61.5 -245q69 65 158 65q111 0 174.5 -84.5t63.5 -234.5q0 -147 -66 -231t-180 -84 q-127 0 -198.5 112t-71.5 340zM1040 436q0 -354 152 -354q60 0 95.5 54.5t35.5 160.5q0 223 -141 223q-40 0 -79.5 -22.5t-62.5 -57.5v-4z" />
<glyph unicode="&#x215a;" horiz-adv-x="1505" d="M96 504l8 104q67 -43 148 -43q87 0 136.5 56t49.5 161q0 99 -45.5 153t-132.5 54q-82 0 -141 -41v486h416v-97h-306v-266q38 14 88 14q104 0 172 -80.5t68 -224.5q0 -146 -77 -229.5t-212 -83.5q-102 0 -172 37zM401 -31l598 1495h101l-598 -1495h-101zM924 436 q0 278 78.5 404.5t232.5 126.5q81 0 151 -31l-8 -100q-54 32 -137 32q-85 0 -135.5 -70t-61.5 -245q69 65 158 65q111 0 174.5 -84.5t63.5 -234.5q0 -147 -66 -231t-180 -84q-127 0 -198.5 112t-71.5 340zM1040 436q0 -354 152 -354q60 0 95.5 54.5t35.5 160.5 q0 223 -141 223q-40 0 -79.5 -22.5t-62.5 -57.5v-4z" />
<glyph unicode="&#x215b;" horiz-adv-x="1505" d="M94 1253l213 183h96v-953h-114v793l-133 -111zM342 -31l598 1495h100l-598 -1495h-100zM915 248q0 85 42.5 152t115.5 104q-64 36 -99.5 96.5t-35.5 128.5q0 111 63.5 174.5t167.5 63.5t167 -64.5t63 -173.5q0 -68 -36.5 -128.5t-100.5 -98.5q77 -41 120 -108t43 -144 q0 -123 -67 -194.5t-184 -71.5q-116 0 -187.5 70.5t-71.5 193.5zM1032 248q0 -78 39.5 -122t102.5 -44q61 0 98 44t37 120q0 67 -38.5 121t-113.5 86q-125 -67 -125 -205zM1055 727q0 -123 121 -178q51 29 78.5 76t27.5 102q0 65 -30.5 103t-82.5 38q-55 0 -84.5 -38.5 t-29.5 -102.5z" />
<glyph unicode="&#x215c;" horiz-adv-x="1505" d="M94 504l8 106q62 -45 160 -45q85 0 128.5 45.5t43.5 120.5q0 92 -60.5 145.5t-191.5 53.5v96q121 0 181.5 51t60.5 123q0 69 -40.5 110.5t-109.5 41.5q-91 0 -163 -43l-5 98q75 43 179 43q121 0 188.5 -64t67.5 -180q0 -77 -43 -136t-119 -89q172 -68 172 -246 q0 -124 -73.5 -196t-205.5 -72q-105 0 -178 37zM389 -31l598 1495h100l-598 -1495h-100zM915 248q0 85 42.5 152t115.5 104q-64 36 -99.5 96.5t-35.5 128.5q0 111 63.5 174.5t167.5 63.5t167 -64.5t63 -173.5q0 -68 -36.5 -128.5t-100.5 -98.5q77 -41 120 -108t43 -144 q0 -123 -67 -194.5t-184 -71.5q-116 0 -187.5 70.5t-71.5 193.5zM1032 248q0 -78 39.5 -122t102.5 -44q61 0 98 44t37 120q0 67 -38.5 121t-113.5 86q-125 -67 -125 -205zM1055 727q0 -123 121 -178q51 29 78.5 76t27.5 102q0 65 -30.5 103t-82.5 38q-55 0 -84.5 -38.5 t-29.5 -102.5z" />
<glyph unicode="&#x215d;" horiz-adv-x="1505" d="M96 504l8 104q67 -43 148 -43q87 0 136.5 56t49.5 161q0 99 -45.5 153t-132.5 54q-82 0 -141 -41v486h416v-97h-306v-266q38 14 88 14q104 0 172 -80.5t68 -224.5q0 -146 -77 -229.5t-212 -83.5q-102 0 -172 37zM389 -31l598 1495h100l-598 -1495h-100zM915 248 q0 85 42.5 152t115.5 104q-64 36 -99.5 96.5t-35.5 128.5q0 111 63.5 174.5t167.5 63.5t167 -64.5t63 -173.5q0 -68 -36.5 -128.5t-100.5 -98.5q77 -41 120 -108t43 -144q0 -123 -67 -194.5t-184 -71.5q-116 0 -187.5 70.5t-71.5 193.5zM1032 248q0 -78 39.5 -122t102.5 -44 q61 0 98 44t37 120q0 67 -38.5 121t-113.5 86q-125 -67 -125 -205zM1055 727q0 -123 121 -178q51 29 78.5 76t27.5 102q0 65 -30.5 103t-82.5 38q-55 0 -84.5 -38.5t-29.5 -102.5z" />
<glyph unicode="&#x215e;" horiz-adv-x="1505" d="M86 1337v97h465v-101l-262 -850h-123l264 854h-344zM313 -31l598 1495h101l-598 -1495h-101zM915 248q0 85 42.5 152t115.5 104q-64 36 -99.5 96.5t-35.5 128.5q0 111 63.5 174.5t167.5 63.5t167 -64.5t63 -173.5q0 -68 -36.5 -128.5t-100.5 -98.5q77 -41 120 -108 t43 -144q0 -123 -67 -194.5t-184 -71.5q-116 0 -187.5 70.5t-71.5 193.5zM1032 248q0 -78 39.5 -122t102.5 -44q61 0 98 44t37 120q0 67 -38.5 121t-113.5 86q-125 -67 -125 -205zM1055 727q0 -123 121 -178q51 29 78.5 76t27.5 102q0 65 -30.5 103t-82.5 38 q-55 0 -84.5 -38.5t-29.5 -102.5z" />
<glyph unicode="&#x215f;" horiz-adv-x="1505" d="M94 1253l213 183h96v-953h-114v793l-133 -111zM336 -31l598 1495h100l-598 -1495h-100z" />
<glyph unicode="&#x2190;" horiz-adv-x="1392" d="M53 680l510 459l-96 -371h872v-176h-872l96 -371z" />
<glyph unicode="&#x2191;" horiz-adv-x="1392" d="M238 1026l458 510l459 -510l-371 96v-1200h-176v1200z" />
<glyph unicode="&#x2192;" horiz-adv-x="1392" d="M53 592v176h873l-97 371l510 -459l-510 -459l97 371h-873z" />
<glyph unicode="&#x2193;" horiz-adv-x="1392" d="M238 432l370 -96v1200h176v-1200l371 96l-459 -510z" />
<glyph unicode="&#x2194;" horiz-adv-x="1392" d="M53 680l510 459l-96 -371h459l-97 371l510 -459l-510 -459l97 371h-459l96 -371z" />
<glyph unicode="&#x2195;" horiz-adv-x="1392" d="M238 432l370 -96v786l-370 -96l458 510l459 -510l-371 96v-786l371 96l-459 -510z" />
<glyph unicode="&#x21a8;" horiz-adv-x="1392" d="M238 432l370 -96v786l-370 -96l458 510l459 -510l-371 96v-786l371 96l-397 -440h354v-172h-831v172h352z" />
<glyph unicode="&#x2202;" horiz-adv-x="899" d="M61 373q0 168 59 310t160 224t218 82q124 0 207 -76q-6 426 -228 426q-113 0 -205 -59l-6 115q93 59 219 59q353 0 353 -559q0 -273 -60 -481.5t-171.5 -323.5t-260.5 -115q-134 0 -209.5 101.5t-75.5 296.5zM195 371q0 -148 39.5 -214.5t117.5 -66.5q65 0 124.5 45 t107.5 129.5t79.5 219.5t38.5 304q-43 41 -88 63.5t-108 22.5q-130 0 -220.5 -142.5t-90.5 -360.5z" />
<glyph unicode="&#x2206;" horiz-adv-x="1007" d="M10 0l406 1434h176l405 -1434h-987zM182 113h643l-321 1167z" />
<glyph unicode="&#x220f;" horiz-adv-x="1114" d="M143 -227v1743h828v-1743h-131v1630h-566v-1630h-131z" />
<glyph unicode="&#x2211;" horiz-adv-x="950" d="M61 -104l332 782l-332 749v121h848v-112h-706l311 -734v-51l-313 -766h708v-112h-848v123z" />
<glyph unicode="&#x2212;" horiz-adv-x="1085" d="M82 623v112h922v-112h-922z" />
<glyph unicode="&#x2215;" horiz-adv-x="708" d="M20 -31l537 1495h131l-536 -1495h-132z" />
<glyph unicode="&#x2219;" horiz-adv-x="368" d="M104 676q0 63 19 89t61 26t61 -26t19 -89t-19 -89t-61 -26t-61 26t-19 89z" />
<glyph unicode="&#x221a;" horiz-adv-x="1183" d="M184 670v102h199l172 -608l248 1413h115l-277 -1577h-147l-197 670h-113z" />
<glyph unicode="&#x221e;" horiz-adv-x="1208" d="M102 676q0 144 63.5 218.5t166.5 74.5q78 0 141.5 -44t130.5 -153q67 109 131 153t142 44q103 0 166 -74.5t63 -218.5t-63 -217.5t-166 -73.5q-79 0 -143 43.5t-130 153.5q-66 -110 -129.5 -153.5t-142.5 -43.5q-103 0 -166.5 74t-63.5 217zM219 676q0 -94 32.5 -142.5 t86.5 -48.5q52 0 101 44t108 147q-60 104 -109 148t-100 44q-54 0 -86.5 -48.5t-32.5 -143.5zM662 676q59 -103 107.5 -147t100.5 -44q54 0 86.5 48.5t32.5 142.5q0 95 -32.5 143.5t-86.5 48.5q-51 0 -99.5 -43.5t-108.5 -148.5z" />
<glyph unicode="&#x221f;" horiz-adv-x="1007" d="M184 0v1178h127v-1076h676v-102h-803z" />
<glyph unicode="&#x2229;" horiz-adv-x="1245" d="M184 0v682q0 293 114 437.5t325 144.5q210 0 324 -144.5t114 -437.5v-682h-127v678q0 481 -311 481q-312 0 -312 -481v-678h-127z" />
<glyph unicode="&#x222b;" horiz-adv-x="911" d="M143 -434l11 104q40 -16 90 -16q77 0 112 48t35 181v1309q0 168 64 248t200 80q60 0 113 -17l-10 -104q-40 16 -90 16q-51 0 -82 -18t-49.5 -69.5t-18.5 -141.5v-1309q0 -168 -63.5 -248t-198.5 -80q-64 0 -113 17z" />
<glyph unicode="&#x2248;" horiz-adv-x="1085" d="M88 322q0 321 246 321q128 0 237 -104q57 -54 98.5 -77.5t80.5 -23.5q57 0 86.5 46t29.5 155h131q0 -322 -245 -322q-127 0 -238 105q-57 54 -97.5 77t-80.5 23q-57 0 -87 -45.5t-30 -154.5h-131zM88 721q0 321 246 321q128 0 237 -104q57 -54 98 -77t81 -23 q57 0 86.5 45.5t29.5 154.5h131q0 -321 -245 -321q-129 0 -238 104q-58 55 -98.5 78t-79.5 23q-57 0 -87 -46t-30 -155h-131z" />
<glyph unicode="&#x2260;" horiz-adv-x="1085" d="M82 397v115h301l197 336h-498v115h565l215 362h121l-215 -362h236v-115h-304l-196 -336h500v-115h-568l-213 -362h-121l213 362h-233z" />
<glyph unicode="&#x2261;" horiz-adv-x="1085" d="M82 268v115h922v-115h-922zM82 625v114h922v-114h-922zM82 981v115h922v-115h-922z" />
<glyph unicode="&#x2264;" horiz-adv-x="1085" d="M82 96v115h922v-115h-922zM82 750v114l922 453v-135l-793 -375l793 -375v-135z" />
<glyph unicode="&#x2265;" horiz-adv-x="1085" d="M82 96v115h922v-115h-922zM82 297v135l792 375l-792 375v135l922 -453v-114z" />
<glyph unicode="&#x2302;" horiz-adv-x="1155" d="M184 0v668l394 612l393 -612v-668h-787zM311 102h533v533l-266 418l-267 -418v-533z" />
<glyph unicode="&#x2310;" horiz-adv-x="1085" d="M92 330v573h922v-115h-791v-458h-131z" />
<glyph unicode="&#x2318;" horiz-adv-x="1445" d="M184 262q0 134 73 201t189 67h74v261h-74q-116 0 -189 67t-73 201q0 131 61.5 203.5t168.5 72.5q111 0 169 -76.5t58 -224.5v-145h162v145q0 148 58 224.5t169 76.5q107 0 168.5 -72.5t61.5 -203.5q0 -134 -73.5 -201t-189.5 -67h-73v-261h73q116 0 189.5 -67t73.5 -201 q0 -131 -61.5 -203.5t-168.5 -72.5q-111 0 -169 76.5t-58 224.5v145h-162v-145q0 -148 -58 -224.5t-169 -76.5q-107 0 -168.5 72.5t-61.5 203.5zM305 262q0 -83 29 -126.5t80 -43.5q55 0 80.5 43.5t25.5 145.5v151h-74q-65 0 -103 -42t-38 -128zM305 1059q0 -86 38 -128 t103 -42h74v151q0 102 -25.5 145.5t-80.5 43.5q-51 0 -80 -43.5t-29 -126.5zM641 530h162v261h-162v-261zM924 281q0 -102 25.5 -145.5t80.5 -43.5q51 0 80 43.5t29 126.5q0 86 -38.5 128t-103.5 42h-73v-151zM924 889h73q65 0 103.5 42t38.5 128q0 83 -29 126.5t-80 43.5 q-55 0 -80.5 -43.5t-25.5 -145.5v-151z" />
<glyph unicode="&#x2320;" horiz-adv-x="1191" d="M492 0v338q0 390 51 696q71 424 338 424q85 0 137.5 -44t52.5 -114q0 -59 -34.5 -92.5t-94.5 -33.5q-48 0 -77.5 24.5t-36.5 53.5t-13 55t-12 28q-37 0 -61 -68.5t-35 -204.5t-15 -279t-4 -351v-432h-196z" />
<glyph unicode="&#x2321;" horiz-adv-x="1191" d="M109 745q0 59 34.5 93t94.5 34q48 0 77.5 -24.5t36.5 -53.5t13 -55t12 -28q37 0 61 68.5t35 204.5t15 279t4 351v432h196v-338q0 -390 -51 -696q-71 -424 -338 -424q-86 0 -138 43.5t-52 113.5z" />
<glyph unicode="&#x2500;" d="M0 567v95h2048v-95h-2048z" />
<glyph unicode="&#x2502;" d="M977 -635v2499h94v-2499h-94z" />
<glyph unicode="&#x250c;" d="M977 -635v1297h1071v-95h-977v-1202h-94z" />
<glyph unicode="&#x2510;" d="M0 567v95h1071v-1297h-94v1202h-977z" />
<glyph unicode="&#x2514;" d="M977 567v1297h94v-1202h977v-95h-1071z" />
<glyph unicode="&#x2518;" d="M0 567v95h977v1202h94v-1297h-1071z" />
<glyph unicode="&#x251c;" d="M977 -635v2499h94v-1202h977v-95h-977v-1202h-94z" />
<glyph unicode="&#x2524;" d="M0 567v95h977v1202h94v-2499h-94v1202h-977z" />
<glyph unicode="&#x252c;" d="M0 567v95h2048v-95h-977v-1202h-94v1202h-977z" />
<glyph unicode="&#x2534;" d="M0 567v95h977v1202h94v-1202h977v-95h-2048z" />
<glyph unicode="&#x253c;" d="M0 567v95h977v1202h94v-1202h977v-95h-977v-1202h-94v1202h-977z" />
<glyph unicode="&#x2550;" d="M0 436v94h2048v-94h-2048zM0 698v95h2048v-95h-2048z" />
<glyph unicode="&#x2551;" d="M846 -635v2499h94v-2499h-94zM1108 -635v2499h94v-2499h-94z" />
<glyph unicode="&#x2552;" d="M977 -635v1428h1071v-95h-977v-168h977v-94h-977v-1071h-94z" />
<glyph unicode="&#x2553;" d="M846 -635v1297h1202v-95h-846v-1202h-94v1202h-168v-1202h-94z" />
<glyph unicode="&#x2554;" d="M846 -635v1428h1202v-95h-1108v-1333h-94zM1108 530h940v-94h-846v-1071h-94v1165z" />
<glyph unicode="&#x2555;" d="M0 436v94h977v168h-977v95h1071v-1428h-94v1071h-977z" />
<glyph unicode="&#x2556;" d="M0 567v95h1202v-1297h-94v1202h-168v-1202h-94v1202h-846z" />
<glyph unicode="&#x2557;" d="M0 436v94h940v-1165h-94v1071h-846zM0 698v95h1202v-1428h-94v1333h-1108z" />
<glyph unicode="&#x2558;" d="M977 436v1428h94v-1071h977v-95h-977v-168h977v-94h-1071z" />
<glyph unicode="&#x2559;" d="M846 567v1297h94v-1202h168v1202h94v-1202h846v-95h-1202z" />
<glyph unicode="&#x255a;" d="M846 436v1428h94v-1334h1108v-94h-1202zM1108 698v1166h94v-1071h846v-95h-940z" />
<glyph unicode="&#x255b;" d="M0 436v94h977v168h-977v95h977v1071h94v-1428h-1071z" />
<glyph unicode="&#x255c;" d="M0 567v95h846v1202h94v-1202h168v1202h94v-1297h-1202z" />
<glyph unicode="&#x255d;" d="M0 436v94h1108v1334h94v-1428h-1202zM0 698v95h846v1071h94v-1166h-940z" />
<glyph unicode="&#x255e;" d="M977 -635v2499h94v-1071h977v-95h-977v-168h977v-94h-977v-1071h-94z" />
<glyph unicode="&#x255f;" d="M846 -635v2499h94v-2499h-94zM1108 -635v2499h94v-1202h846v-95h-846v-1202h-94z" />
<glyph unicode="&#x2560;" d="M846 -635v2499h94v-2499h-94zM1108 530h940v-94h-846v-1071h-94v1165zM1108 698v1166h94v-1071h846v-95h-940z" />
<glyph unicode="&#x2561;" d="M0 436v94h977v168h-977v95h977v1071h94v-2499h-94v1071h-977z" />
<glyph unicode="&#x2562;" d="M0 567v95h846v1202h94v-2499h-94v1202h-846zM1108 -635v2499h94v-2499h-94z" />
<glyph unicode="&#x2563;" d="M0 436v94h940v-1165h-94v1071h-846zM0 698v95h846v1071h94v-1166h-940zM1108 -635v2499h94v-2499h-94z" />
<glyph unicode="&#x2564;" d="M0 436v94h2048v-94h-977v-1071h-94v1071h-977zM0 698v95h2048v-95h-2048z" />
<glyph unicode="&#x2565;" d="M0 567v95h2048v-95h-846v-1202h-94v1202h-168v-1202h-94v1202h-846z" />
<glyph unicode="&#x2566;" d="M0 436v94h940v-1165h-94v1071h-846zM0 698v95h2048v-95h-2048zM1108 530h940v-94h-846v-1071h-94v1165z" />
<glyph unicode="&#x2567;" d="M0 436v94h2048v-94h-2048zM0 698v95h977v1071h94v-1071h977v-95h-2048z" />
<glyph unicode="&#x2568;" d="M0 567v95h846v1202h94v-1202h168v1202h94v-1202h846v-95h-2048z" />
<glyph unicode="&#x2569;" d="M0 436v94h2048v-94h-2048zM0 698v95h846v1071h94v-1166h-940zM1108 698v1166h94v-1071h846v-95h-940z" />
<glyph unicode="&#x256a;" d="M0 436v94h977v168h-977v95h977v1071h94v-1071h977v-95h-977v-168h977v-94h-977v-1071h-94v1071h-977z" />
<glyph unicode="&#x256b;" d="M0 567v95h846v1202h94v-1202h168v1202h94v-1202h846v-95h-846v-1202h-94v1202h-168v-1202h-94v1202h-846z" />
<glyph unicode="&#x256c;" d="M0 436v94h940v-1165h-94v1071h-846zM0 698v95h846v1071h94v-1166h-940zM1108 530h940v-94h-846v-1071h-94v1165zM1108 698v1166h94v-1071h846v-95h-940z" />
<glyph unicode="&#x256d;" d="M977 322q0 172 74 256t233 84h764v-95h-764q-120 0 -166.5 -64.5t-46.5 -221.5v-916h-94v957z" />
<glyph unicode="&#x256e;" d="M0 567v95h764q159 0 233 -84t74 -256v-957h-94v916q0 157 -46.5 221.5t-166.5 64.5h-764z" />
<glyph unicode="&#x256f;" d="M0 567v95h764q120 0 166.5 64.5t46.5 221.5v916h94v-957q0 -172 -74 -256t-233 -84h-764z" />
<glyph unicode="&#x2570;" d="M977 907v957h94v-916q0 -157 46.5 -221.5t166.5 -64.5h764v-95h-764q-159 0 -233 84t-74 256z" />
<glyph unicode="&#x2571;" d="M0 -625l1929 2478h119l-1929 -2478h-119z" />
<glyph unicode="&#x2572;" d="M0 1853h119l1929 -2478h-119z" />
<glyph unicode="&#x2573;" d="M0 -625l965 1239l-965 1239h119l905 -1163l905 1163h119l-965 -1239l965 -1239h-119l-905 1162l-905 -1162h-119z" />
<glyph unicode="&#x2574;" d="M0 567v95h1024v-95h-1024z" />
<glyph unicode="&#x2575;" d="M977 614v1250h94v-1250h-94z" />
<glyph unicode="&#x2576;" d="M1024 567v95h1024v-95h-1024z" />
<glyph unicode="&#x2577;" d="M977 614h94v-1249h-94v1249z" />
<glyph unicode="&#x2578;" d="M0 502v225h1024v-225h-1024z" />
<glyph unicode="&#x2579;" d="M911 614v1250h226v-1250h-226z" />
<glyph unicode="&#x257a;" d="M1024 502v225h1024v-225h-1024z" />
<glyph unicode="&#x257b;" d="M911 614h226v-1249h-226v1249z" />
<glyph unicode="&#x257c;" d="M0 567v95h1024v65h1024v-225h-1024v65h-1024z" />
<glyph unicode="&#x257d;" d="M911 614h66v1250h94v-1250h66v-1249h-226v1249z" />
<glyph unicode="&#x257e;" d="M0 502v225h1024v-65h1024v-95h-1024v-65h-1024z" />
<glyph unicode="&#x257f;" d="M911 614v1250h226v-1250h-66v-1249h-94v1249h-66z" />
<glyph unicode="&#x2580;" d="M0 612v1026h2048v-1026h-2048z" />
<glyph unicode="&#x2584;" d="M0 -412v1026h2048v-1026h-2048z" />
<glyph unicode="&#x2588;" d="M0 -410v2048h2048v-2048h-2048z" />
<glyph unicode="&#x258c;" d="M0 -410v2048h1024v-2048h-1024z" />
<glyph unicode="&#x2590;" d="M1024 -410v2048h1024v-2048h-1024z" />
<glyph unicode="&#x2591;" d="M31 31v104h104v-104h-104zM31 -74h104v-104h-104v104zM31 240v104h104v-104h-104zM31 -283h104v-104h-104v104zM31 449v104h104v-104h-104zM31 657v105h104v-105h-104zM31 866v105h104v-105h-104zM31 1075v105h104v-105h-104zM31 1284v105h104v-105h-104zM31 1493v104 h104v-104h-104zM240 31v104h104v-104h-104zM240 -74h104v-104h-104v104zM240 240v104h104v-104h-104zM240 -283h104v-104h-104v104zM240 449v104h104v-104h-104zM240 657v105h104v-105h-104zM240 866v105h104v-105h-104zM240 1075v105h104v-105h-104zM240 1284v105h104v-105 h-104zM240 1493v104h104v-104h-104zM449 31v104h104v-104h-104zM449 -74h104v-104h-104v104zM449 240v104h104v-104h-104zM449 -283h104v-104h-104v104zM449 449v104h104v-104h-104zM449 657v105h104v-105h-104zM449 866v105h104v-105h-104zM449 1075v105h104v-105h-104z M449 1284v105h104v-105h-104zM449 1493v104h104v-104h-104zM657 31v104h105v-104h-105zM657 -74h105v-104h-105v104zM657 240v104h105v-104h-105zM657 -283h105v-104h-105v104zM657 449v104h105v-104h-105zM657 657v105h105v-105h-105zM657 866v105h105v-105h-105zM657 1075 v105h105v-105h-105zM657 1284v105h105v-105h-105zM657 1493v104h105v-104h-105zM866 31v104h105v-104h-105zM866 -74h105v-104h-105v104zM866 240v104h105v-104h-105zM866 -283h105v-104h-105v104zM866 449v104h105v-104h-105zM866 657v105h105v-105h-105zM866 866v105h105 v-105h-105zM866 1075v105h105v-105h-105zM866 1284v105h105v-105h-105zM866 1493v104h105v-104h-105zM1075 31v104h105v-104h-105zM1075 -74h105v-104h-105v104zM1075 240v104h105v-104h-105zM1075 -283h105v-104h-105v104zM1075 449v104h105v-104h-105zM1075 657v105h105 v-105h-105zM1075 866v105h105v-105h-105zM1075 1075v105h105v-105h-105zM1075 1284v105h105v-105h-105zM1075 1493v104h105v-104h-105zM1284 31v104h105v-104h-105zM1284 -74h105v-104h-105v104zM1284 240v104h105v-104h-105zM1284 -283h105v-104h-105v104zM1284 449v104 h105v-104h-105zM1284 657v105h105v-105h-105zM1284 866v105h105v-105h-105zM1284 1075v105h105v-105h-105zM1284 1284v105h105v-105h-105zM1284 1493v104h105v-104h-105zM1493 31v104h104v-104h-104zM1493 -74h104v-104h-104v104zM1493 240v104h104v-104h-104zM1493 -283 h104v-104h-104v104zM1493 449v104h104v-104h-104zM1493 657v105h104v-105h-104zM1493 866v105h104v-105h-104zM1493 1075v105h104v-105h-104zM1493 1284v105h104v-105h-104zM1493 1493v104h104v-104h-104zM1702 31v104h104v-104h-104zM1702 -74h104v-104h-104v104zM1702 240 v104h104v-104h-104zM1702 -283h104v-104h-104v104zM1702 449v104h104v-104h-104zM1702 657v105h104v-105h-104zM1702 866v105h104v-105h-104zM1702 1075v105h104v-105h-104zM1702 1284v105h104v-105h-104zM1702 1493v104h104v-104h-104zM1911 31v104h106v-104h-106z M1911 -74h106v-104h-106v104zM1911 240v104h106v-104h-106zM1911 -283h106v-104h-106v104zM1911 449v104h106v-104h-106zM1911 657v105h106v-105h-106zM1911 866v105h106v-105h-106zM1911 1075v105h106v-105h-106zM1911 1284v105h106v-105h-106zM1911 1493v104h106v-104 h-106z" />
<glyph unicode="&#x2592;" d="M31 31v104h104v-104h105v-105h104v-104h105v-105h104v-104h-104v104h-105v105h-104v104h-105v105h-104zM31 -74h104v-104h105v-105h104v-104h-104v104h-105v105h-104v104zM31 240v104h104v-104h105v-105h104v-104h105v-105h104v-104h104v-105h105v-104h-105v104h-104v105 h-104v104h-105v105h-104v104h-105v105h-104zM31 -283h104v-104h-104v104zM31 449v104h104v-104h105v-105h104v-104h105v-105h104v-104h104v-105h105v-104h104v-105h105v-104h-105v104h-104v105h-105v104h-104v105h-104v104h-105v105h-104v104h-105v105h-104zM31 657v105h104 v-105h105v-104h104v-104h105v-105h104v-104h104v-105h105v-104h104v-105h105v-104h104v-105h105v-104h-105v104h-104v105h-105v104h-104v105h-105v104h-104v105h-104v104h-105v105h-104v104h-105v104h-104zM31 866v105h104v-105h105v-104h104v-105h105v-104h104v-104h104 v-105h105v-104h104v-105h105v-104h104v-105h105v-104h104v-105h105v-104h-105v104h-104v105h-105v104h-104v105h-105v104h-104v105h-105v104h-104v105h-104v104h-105v104h-104v105h-105v104h-104zM31 1075v105h104v-105h105v-104h104v-105h105v-104h104v-105h104v-104h105 v-104h104v-105h105v-104h104v-105h105v-104h104v-105h105v-104h104v-105h104v-104h-104v104h-104v105h-105v104h-104v105h-105v104h-104v105h-105v104h-104v105h-105v104h-104v104h-104v105h-105v104h-104v105h-105v104h-104zM31 1284v105h104v-105h105v-104h104v-105h105 v-104h104v-105h104v-104h105v-105h104v-104h105v-104h104v-105h105v-104h104v-105h105v-104h104v-105h104v-104h105v-105h104v-104h-104v104h-105v105h-104v104h-104v105h-105v104h-104v105h-105v104h-104v105h-105v104h-104v104h-105v105h-104v104h-104v105h-105v104h-104 v105h-105v104h-104zM31 1493v104h104v-104h105v-104h104v-105h105v-104h104v-105h104v-104h105v-105h104v-104h105v-105h104v-104h105v-104h104v-105h105v-104h104v-105h104v-104h105v-105h104v-104h105v-105h106v-104h-106v104h-105v105h-104v104h-105v105h-104v104h-104 v105h-105v104h-104v105h-105v104h-104v104h-105v105h-104v104h-105v105h-104v104h-104v105h-105v104h-104v105h-105v104h-104zM240 1493v104h104v-104h105v-104h104v-105h104v-104h105v-105h104v-104h105v-105h104v-104h105v-105h104v-104h105v-104h104v-105h104v-104h105 v-105h104v-104h105v-105h106v-104h-106v104h-105v105h-104v104h-105v105h-104v104h-104v105h-105v104h-104v104h-105v105h-104v104h-105v105h-104v104h-105v105h-104v104h-104v105h-105v104h-104zM449 1493v104h104v-104h104v-104h105v-105h104v-104h105v-105h104v-104h105 v-105h104v-104h105v-105h104v-104h104v-104h105v-105h104v-104h105v-105h106v-104h-106v104h-105v105h-104v104h-105v105h-104v104h-104v104h-105v105h-104v104h-105v105h-104v104h-105v105h-104v104h-105v105h-104v104h-104zM657 1493v104h105v-104h104v-104h105v-105h104 v-104h105v-105h104v-104h105v-105h104v-104h104v-105h105v-104h104v-104h105v-105h106v-104h-106v104h-105v105h-104v104h-105v104h-104v105h-104v104h-105v105h-104v104h-105v105h-104v104h-105v105h-104v104h-105zM866 1493v104h105v-104h104v-104h105v-105h104v-104h105 v-105h104v-104h104v-105h105v-104h104v-105h105v-104h106v-104h-106v104h-105v104h-104v105h-105v104h-104v105h-104v104h-105v105h-104v104h-105v105h-104v104h-105zM1075 1493v104h105v-104h104v-104h105v-105h104v-104h104v-105h105v-104h104v-105h105v-104h106v-105 h-106v105h-105v104h-104v105h-105v104h-104v105h-104v104h-105v105h-104v104h-105zM1284 1493v104h105v-104h104v-104h104v-105h105v-104h104v-105h105v-104h106v-105h-106v105h-105v104h-104v105h-105v104h-104v105h-104v104h-105zM1493 1493v104h104v-104h105v-104h104 v-105h105v-104h106v-105h-106v105h-105v104h-104v105h-105v104h-104zM1702 1493v104h104v-104h105v-104h106v-105h-106v105h-105v104h-104zM1911 1493v104h106v-104h-106z" />
<glyph unicode="&#x2593;" d="M0 -412v2048h2048v-65h-104v-105h104v-104h-104v-102h104v-105h-104v-104h104v-105h-104v-104h104v-103h-104v-104h104v-105h-104v-104h104v-102h-104v-105h104v-110h-104v-105h104v-102h-104v-105h104v-104h-104v-105h-105v105h-102v-105h-105v105h-104v-105h-109v105 h-102v-105h-107v105h-104v-105h-105v105h-104v-105h-102v105h-105v-105h-104v105h-105v-105h-102v105h-105v-105h-108v105h-105v-105h-61zM61 4h105v105h-105v-105zM61 -98v-105h105v105h-105zM61 219h105v105h-105v-105zM61 426h105v104h-105v-104zM61 635h105v104h-105 v-104zM61 842h105v104h-105v-104zM61 1051h105v104h-105v-104zM61 1260h105v102h-105v-102zM61 1466h105v105h-105v-105zM274 4h105v105h-105v-105zM274 -98v-105h105v105h-105zM274 219h105v105h-105v-105zM274 426h105v104h-105v-104zM274 635h105v104h-105v-104zM274 842 h105v104h-105v-104zM274 1051h105v104h-105v-104zM274 1260h105v102h-105v-102zM274 1466h105v105h-105v-105zM481 4h105v105h-105v-105zM481 -98v-105h105v105h-105zM481 219h105v105h-105v-105zM481 426h105v104h-105v-104zM481 635h105v104h-105v-104zM481 842h105v104 h-105v-104zM481 1051h105v104h-105v-104zM481 1260h105v102h-105v-102zM481 1466h105v105h-105v-105zM690 4h105v105h-105v-105zM690 -98v-105h105v105h-105zM690 219h105v105h-105v-105zM690 426h105v104h-105v-104zM690 635h105v104h-105v-104zM690 842h105v104h-105v-104 zM690 1051h105v104h-105v-104zM690 1260h105v102h-105v-102zM690 1466h105v105h-105v-105zM897 4h104v105h-104v-105zM897 -98v-105h104v105h-104zM897 219h104v105h-104v-105zM897 426h104v104h-104v-104zM897 635h104v104h-104v-104zM897 842h104v104h-104v-104zM897 1051 h104v104h-104v-104zM897 1260h104v102h-104v-102zM897 1466h104v105h-104v-105zM1106 4h104v105h-104v-105zM1106 -98v-105h104v105h-104zM1106 219h104v105h-104v-105zM1106 426h104v104h-104v-104zM1106 635h104v104h-104v-104zM1106 842h104v104h-104v-104zM1106 1051 h104v104h-104v-104zM1106 1260h104v102h-104v-102zM1106 1466h104v105h-104v-105zM1317 4h102v105h-102v-105zM1317 -98v-105h102v105h-102zM1317 219h102v105h-102v-105zM1317 426h102v104h-102v-104zM1317 635h102v104h-102v-104zM1317 842h102v104h-102v-104zM1317 1051 h102v104h-102v-104zM1317 1260h102v102h-102v-102zM1317 1466h102v105h-102v-105zM1528 4h104v105h-104v-105zM1528 -98v-105h104v105h-104zM1528 219h104v105h-104v-105zM1528 426h104v104h-104v-104zM1528 635h104v104h-104v-104zM1528 842h104v104h-104v-104zM1528 1051 h104v104h-104v-104zM1528 1260h104v102h-104v-102zM1528 1466h104v105h-104v-105zM1737 4h102v105h-102v-105zM1737 -98v-105h102v105h-102zM1737 219h102v105h-102v-105zM1737 426h102v104h-102v-104zM1737 635h102v104h-102v-104zM1737 842h102v104h-102v-104zM1737 1051 h102v104h-102v-104zM1737 1260h102v102h-102v-102zM1737 1466h102v105h-102v-105z" />
<glyph unicode="&#x25a0;" horiz-adv-x="1957" d="M184 -164v1575h1590v-1575h-1590z" />
<glyph unicode="&#x25a1;" horiz-adv-x="1957" d="M184 -164v1575h1590v-1575h-1590zM367 18h1224v1211h-1224v-1211z" />
<glyph unicode="&#x25aa;" horiz-adv-x="937" d="M143 299v651h652v-651h-652z" />
<glyph unicode="&#x25ab;" horiz-adv-x="937" d="M143 299v651h652v-651h-652zM291 434h360v373h-360v-373z" />
<glyph unicode="&#x25ac;" horiz-adv-x="1875" d="M143 244v760h1590v-760h-1590z" />
<glyph unicode="&#x25b2;" horiz-adv-x="1855" d="M61 -78l869 1471l864 -1471h-1733z" />
<glyph unicode="&#x25ba;" horiz-adv-x="1288" d="M143 262v701l1104 -334z" />
<glyph unicode="&#x25bc;" horiz-adv-x="1855" d="M61 1305h1733l-864 -1471z" />
<glyph unicode="&#x25c4;" horiz-adv-x="1288" d="M41 629l1104 334v-701z" />
<glyph unicode="&#x25ca;" horiz-adv-x="1163" d="M82 618l500 941l499 -941l-499 -940zM276 618l306 -583l305 583l-305 584z" />
<glyph unicode="&#x25cb;" d="M100 614q0 188 73 359t197 295t295 197t359 73q187 0 358 -73.5t295 -197.5t197.5 -295t73.5 -358q0 -188 -73 -359t-196.5 -294.5t-294.5 -196.5t-360 -73q-190 0 -361.5 73t-294.5 196.5t-195.5 294.5t-72.5 359zM289 614q0 -150 58 -286.5t157 -235.5t235.5 -157 t286.5 -58t286.5 58t235.5 157t157 235.5t58 286.5t-58 287t-157 235.5t-235.5 157t-286.5 58.5t-286.5 -58.5t-235.5 -157t-157 -235.5t-58 -287z" />
<glyph unicode="&#x25cf;" d="M100 614q0 188 71 357t200 295q126 129 295 200.5t358 71.5q188 0 356.5 -71.5t294.5 -200.5q129 -126 201 -295t72 -357q0 -189 -71.5 -357t-201.5 -298q-127 -127 -295.5 -197.5t-355.5 -70.5q-189 0 -357.5 70.5t-295.5 197.5q-129 130 -200 298t-71 357z" />
<glyph unicode="&#x25d8;" horiz-adv-x="1544" d="M184 -213v1655h1176v-1655h-1176zM375 614q0 -164 115.5 -280.5t279.5 -116.5q165 0 281 116t116 281q0 166 -115.5 282t-281.5 116q-164 0 -279.5 -116t-115.5 -282z" />
<glyph unicode="&#x25d9;" d="M12 -397v2023h2024v-2023h-2024zM100 614q0 -188 72.5 -359t195.5 -294.5t294.5 -196.5t361.5 -73q189 0 360 73t294.5 196.5t196.5 294.5t73 359q0 187 -73.5 358t-197.5 295t-295 197.5t-358 73.5q-188 0 -359 -73t-295 -197t-197 -295t-73 -359zM289 614q0 150 58 287 t157 235.5t235.5 157t286.5 58.5t286.5 -58.5t235.5 -157t157 -235.5t58 -287t-58 -286.5t-157 -235.5t-235.5 -157t-286.5 -58t-286.5 58t-235.5 157t-157 235.5t-58 286.5z" />
<glyph unicode="&#x25e6;" horiz-adv-x="909" d="M102 614q0 146 103.5 249.5t249.5 103.5t249 -103.5t103 -249.5t-103 -249t-249 -103t-249.5 103t-103.5 249zM231 614q0 -92 65 -156.5t157 -64.5t156.5 64.5t64.5 156.5t-64.5 157t-156.5 65t-157 -65t-65 -157z" />
<glyph unicode="&#x25fc;" horiz-adv-x="1064" d="M0 0v1065h1065v-1065h-1065z" />
<glyph unicode="&#x263a;" horiz-adv-x="1802" d="M123 623q0 158 61.5 302.5t165.5 248.5t248.5 165.5t302.5 61.5t302.5 -61.5t248.5 -165.5t165.5 -248.5t61.5 -302.5t-61.5 -302t-165.5 -248.5t-248.5 -166.5t-302.5 -62t-302.5 62t-248.5 166.5t-165.5 248.5t-61.5 302zM252 623q0 -130 51.5 -250t138.5 -207 t207 -139t250 -52t250 52t207 139t138.5 207t51.5 250q0 174 -87.5 323t-236.5 236.5t-323 87.5t-323 -87.5t-236.5 -236.5t-87.5 -323zM397 500l70 35q40 -143 160.5 -235.5t273.5 -92.5q150 0 272 93t162 235l70 -35q-55 -166 -192 -267.5t-312 -101.5q-178 0 -313.5 101 t-190.5 268zM479 838q0 45 34 78.5t81 33.5q44 0 78.5 -34t34.5 -78q0 -47 -34 -81t-79 -34q-47 0 -81 34t-34 81zM1096 838q0 44 34 78t78 34q47 0 81 -33.5t34 -78.5q0 -47 -34 -81t-81 -34q-45 0 -78.5 34t-33.5 81z" />
<glyph unicode="&#x263b;" horiz-adv-x="1802" d="M123 623q0 158 61.5 302.5t165.5 248.5t248.5 165.5t302.5 61.5t302.5 -61.5t248.5 -165.5t165.5 -248.5t61.5 -302.5t-61.5 -302t-165.5 -248.5t-248.5 -166.5t-302.5 -62t-302.5 62t-248.5 166.5t-165.5 248.5t-61.5 302zM383 506q55 -169 196 -274t322 -105t322 105 t196 274l-71 37q-40 -147 -165 -242.5t-282 -95.5t-281.5 95.5t-164.5 242.5zM473 838q0 -51 35 -86t86 -35q50 0 84.5 35t34.5 86q0 49 -34.5 83.5t-84.5 34.5q-51 0 -86 -34t-35 -84zM1090 838q0 -51 34 -86t84 -35q51 0 86 35t35 86q0 50 -35 84t-86 34q-50 0 -84 -34 t-34 -84z" />
<glyph unicode="&#x263c;" horiz-adv-x="1601" d="M82 561v139h201q17 131 100 244l-141 143l102 103l141 -143q110 83 244 98v201h143v-201q133 -21 242 -103l148 148l98 -98l-146 -146q85 -113 103 -246h203v-139h-203q-18 -136 -100 -248l145 -141l-102 -102l-144 143q-111 -84 -244 -102v-199h-143v199 q-133 17 -248 102l-141 -141l-98 98l143 143q-84 111 -102 248h-201zM410 629q0 -164 114.5 -278.5t278.5 -114.5t279.5 114.5t115.5 278.5t-115.5 279.5t-279.5 115.5t-278.5 -115.5t-114.5 -279.5z" />
<glyph unicode="&#x2640;" horiz-adv-x="1265" d="M123 932q0 137 68.5 253.5t186 184.5t255.5 68t255.5 -68t186 -184.5t68.5 -253.5q0 -189 -124.5 -331.5t-309.5 -170.5v-215h237v-137h-237v-271h-152v271h-238v137h238v215q-186 28 -310 170.5t-124 331.5zM276 932q0 -148 104.5 -252.5t252.5 -104.5t252 104.5 t104 252.5t-104 252t-252 104t-252.5 -104t-104.5 -252z" />
<glyph unicode="&#x2642;" horiz-adv-x="1236" d="M123 838l495 675l496 -675l-123 -82l-297 420v-521q160 -25 262.5 -146t102.5 -288q0 -184 -128.5 -311t-312.5 -127t-311 126.5t-127 311.5q0 167 101.5 288t261.5 146v521l-297 -420zM328 221q0 -122 84.5 -206.5t205.5 -84.5q123 0 208 84.5t85 206.5q0 123 -85 208 t-208 85q-122 0 -206 -85t-84 -208z" />
<glyph unicode="&#x2660;" horiz-adv-x="1941" d="M102 602q0 221 297 475q60 51 142 111t133 94.5t161 107t136 89.5q18 -12 89.5 -59t101 -66.5t93.5 -62.5t102.5 -71.5t89 -67t91.5 -73.5q143 -123 222 -240t79 -237q0 -183 -127 -293q-109 -100 -276 -100q-125 0 -248 76q-114 76 -176 178q28 -192 151 -352 q59 -81 132.5 -136t152.5 -73v-92h-959v92q153 36 281 204q115 144 154 349q-76 -102 -179 -172q-117 -74 -241 -74q-174 0 -283 100q-119 106 -119 293z" />
<glyph unicode="&#x2663;" horiz-adv-x="1951" d="M102 496q0 151 107 258q105 108 258 108q151 0 256 -108q108 -108 108 -258q0 -147 -108 -258q-105 -105 -256 -105q-153 0 -258 105q-107 110 -107 258zM496 -98q84 18 161.5 74.5t139.5 138.5q129 171 141 362h74q12 -197 139 -362q134 -174 303 -213v-92h-958v92z M610 1112q0 149 107 256q106 109 258 109q150 0 256 -109q108 -108 108 -256q0 -149 -108 -260q-104 -104 -256 -104q-154 0 -258 104q-107 110 -107 260zM1120 496q0 151 107 258q105 108 258 108q151 0 256 -108q108 -108 108 -258q0 -147 -108 -258q-105 -105 -256 -105 q-153 0 -258 105q-107 110 -107 258z" />
<glyph unicode="&#x2665;" horiz-adv-x="1941" d="M102 958q0 220 125 338q106 103 279 103q161 -3 289 -107q131 -105 176 -270q39 165 176 272q130 105 291 105q174 0 280 -103q121 -118 121 -338q0 -303 -270 -616q-241 -282 -598 -483q-171 93 -327 216t-275 263q-267 317 -267 620z" />
<glyph unicode="&#x2666;" horiz-adv-x="1310" d="M82 612q0 15 573 754l574 -739q0 -14 -574 -754z" />
<glyph unicode="&#x266a;" horiz-adv-x="1216" d="M61 -86q0 73 55.5 139t139 104t168.5 38q64 0 113 -17l2 1399h71q-2 -79 14 -144t52 -120t74.5 -95.5t97.5 -91.5q64 -54 108 -101.5t81.5 -103.5t56 -119.5t18.5 -135.5q-1 -127 -46.5 -247t-125.5 -253h-53q5 11 26.5 60t27.5 63.5t22.5 56t22.5 64t15 57.5t12 66t3 63 q0 176 -107 299t-268 172v-954q0 -153 -112.5 -252t-284.5 -99q-78 0 -130.5 40.5t-52.5 111.5z" />
<glyph unicode="&#x266b;" horiz-adv-x="1808" d="M61 -86q0 73 55.5 139t139 104t168.5 38q64 0 113 -17v1198l1087 242v-1301q0 -153 -112.5 -251.5t-284.5 -98.5q-78 0 -130.5 40.5t-52.5 111.5q0 73 55.5 139t139 103.5t168.5 37.5q67 0 113 -16v1020l-879 -197v-1093q0 -153 -112.5 -252t-284.5 -99 q-78 0 -130.5 40.5t-52.5 111.5z" />
<glyph unicode="&#xe00a;" horiz-adv-x="1007" d="M184 0v1178h127v-1076h676v-102h-803z" />
<glyph unicode="&#xf001;" horiz-adv-x="921" d="M20 958v103h166v104q0 169 64 249.5t199 80.5q66 0 112 -16l-10 -105q-42 17 -90 17q-77 0 -112.5 -49t-35.5 -181v-100h226v-103h-226v-958h-127v958h-166zM655 1378q0 63 19 90t61 27t61 -27t19 -90t-19 -89.5t-61 -26.5t-61 26.5t-19 89.5zM672 0v1061h127v-1061h-127 z" />
<glyph unicode="&#xf002;" horiz-adv-x="921" d="M20 958v103h166v104q0 169 64 249.5t199 80.5q66 0 112 -16l-10 -105q-42 17 -90 17q-77 0 -112.5 -49t-35.5 -181v-100h226v-103h-226v-958h-127v958h-166zM672 0v1495h127v-1495h-127z" />
<glyph unicode="&#xf506;" horiz-adv-x="1505" d="M94 1253l213 183h96v-953h-114v793l-133 -111zM332 -31l598 1495h100l-598 -1495h-100zM963 854v96h464v-100l-262 -850h-123l265 854h-344z" />
<glyph unicode="&#xf507;" horiz-adv-x="1505" d="M86 483v97q143 156 254 342q84 136 84 260q0 170 -141 170q-94 0 -172 -58l-7 109q36 21 88.5 34t96.5 13q125 0 188.5 -67t63.5 -197q0 -148 -107 -326q-109 -176 -207 -280h320v-97h-461zM369 -31l598 1495h100l-598 -1495h-100zM963 854v96h464v-100l-262 -850h-123 l265 854h-344z" />
<glyph unicode="&#xf508;" horiz-adv-x="1505" d="M94 504l8 106q62 -45 160 -45q85 0 128.5 45.5t43.5 120.5q0 92 -60.5 145.5t-191.5 53.5v96q121 0 181.5 51t60.5 123q0 69 -40.5 110.5t-109.5 41.5q-91 0 -163 -43l-5 98q75 43 179 43q121 0 188.5 -64t67.5 -180q0 -77 -43 -136t-119 -89q172 -68 172 -246 q0 -124 -73.5 -196t-205.5 -72q-105 0 -178 37zM373 -31l598 1495h100l-598 -1495h-100zM963 854v96h464v-100l-262 -850h-123l265 854h-344z" />
<glyph unicode="&#xf509;" horiz-adv-x="1505" d="M53 692v96l344 646h111v-646h84v-96h-84v-209h-115v209h-340zM160 788h233v439zM387 -31l598 1495h100l-598 -1495h-100zM963 854v96h464v-100l-262 -850h-123l265 854h-344z" />
<glyph unicode="&#xf50a;" horiz-adv-x="1505" d="M96 504l8 104q67 -43 148 -43q87 0 136.5 56t49.5 161q0 99 -45.5 153t-132.5 54q-82 0 -141 -41v486h416v-97h-306v-266q38 14 88 14q104 0 172 -80.5t68 -224.5q0 -146 -77 -229.5t-212 -83.5q-102 0 -172 37zM377 -31l598 1495h100l-598 -1495h-100zM963 854v96h464 v-100l-262 -850h-123l265 854h-344z" />
<glyph unicode="&#xf50b;" horiz-adv-x="1505" d="M66 920q0 278 78.5 404t232.5 126q81 0 151 -31l-8 -100q-56 33 -137 33q-85 0 -135.5 -70.5t-61.5 -245.5q70 66 158 66q111 0 174.5 -85t63.5 -235q0 -147 -66 -231t-180 -84q-126 0 -198 112t-72 341zM182 920q0 -355 152 -355q60 0 95.5 54.5t35.5 160.5 q0 224 -141 224q-40 0 -79.5 -22.5t-62.5 -57.5v-4zM385 -31l598 1495h100l-598 -1495h-100zM963 854v96h464v-100l-262 -850h-123l265 854h-344z" />
<glyph unicode="&#xf50c;" horiz-adv-x="1505" d="M94 1253l213 183h96v-953h-114v793l-133 -111zM338 -31l598 1495h100l-598 -1495h-100zM922 651q0 148 65.5 232t179.5 84q127 0 199 -112.5t72 -340.5q0 -278 -79 -404t-233 -126q-84 0 -151 30l8 101q56 -33 137 -33q84 0 134 70t63 243q-67 -63 -158 -63 q-111 0 -174 84.5t-63 234.5zM1038 653q0 -223 142 -223q39 0 77.5 22t63.5 58v4q0 354 -152 354q-60 0 -95.5 -54.5t-35.5 -160.5z" />
<glyph unicode="&#xf50d;" horiz-adv-x="1505" d="M86 483v97q143 156 254 342q84 136 84 260q0 170 -141 170q-94 0 -172 -58l-7 109q36 21 88.5 34t96.5 13q125 0 188.5 -67t63.5 -197q0 -148 -107 -326q-109 -176 -207 -280h320v-97h-461zM367 -31l598 1495h100l-598 -1495h-100zM922 651q0 148 65.5 232t179.5 84 q127 0 199 -112.5t72 -340.5q0 -278 -79 -404t-233 -126q-84 0 -151 30l8 101q56 -33 137 -33q84 0 134 70t63 243q-67 -63 -158 -63q-111 0 -174 84.5t-63 234.5zM1038 653q0 -223 142 -223q39 0 77.5 22t63.5 58v4q0 354 -152 354q-60 0 -95.5 -54.5t-35.5 -160.5z" />
<glyph unicode="&#xf50e;" horiz-adv-x="1505" d="M94 504l8 106q62 -45 160 -45q85 0 128.5 45.5t43.5 120.5q0 92 -60.5 145.5t-191.5 53.5v96q121 0 181.5 51t60.5 123q0 69 -40.5 110.5t-109.5 41.5q-91 0 -163 -43l-5 98q75 43 179 43q121 0 188.5 -64t67.5 -180q0 -77 -43 -136t-119 -89q172 -68 172 -246 q0 -124 -73.5 -196t-205.5 -72q-105 0 -178 37zM391 -31l598 1495h101l-598 -1495h-101zM922 651q0 148 65.5 232t179.5 84q127 0 199 -112.5t72 -340.5q0 -278 -79 -404t-233 -126q-84 0 -151 30l8 101q56 -33 137 -33q84 0 134 70t63 243q-67 -63 -158 -63 q-111 0 -174 84.5t-63 234.5zM1038 653q0 -223 142 -223q39 0 77.5 22t63.5 58v4q0 354 -152 354q-60 0 -95.5 -54.5t-35.5 -160.5z" />
<glyph unicode="&#xf50f;" horiz-adv-x="1505" d="M96 504l8 104q67 -43 148 -43q87 0 136.5 56t49.5 161q0 99 -45.5 153t-132.5 54q-82 0 -141 -41v486h416v-97h-306v-266q38 14 88 14q104 0 172 -80.5t68 -224.5q0 -146 -77 -229.5t-212 -83.5q-102 0 -172 37zM385 -31l598 1495h100l-598 -1495h-100zM922 651 q0 148 65.5 232t179.5 84q127 0 199 -112.5t72 -340.5q0 -278 -79 -404t-233 -126q-84 0 -151 30l8 101q56 -33 137 -33q84 0 134 70t63 243q-67 -63 -158 -63q-111 0 -174 84.5t-63 234.5zM1038 653q0 -223 142 -223q39 0 77.5 22t63.5 58v4q0 354 -152 354 q-60 0 -95.5 -54.5t-35.5 -160.5z" />
<glyph unicode="&#xf510;" horiz-adv-x="1505" d="M86 1337v97h465v-101l-262 -850h-123l264 854h-344zM303 -31l598 1495h100l-598 -1495h-100zM922 651q0 148 65.5 232t179.5 84q127 0 199 -112.5t72 -340.5q0 -278 -79 -404t-233 -126q-84 0 -151 30l8 101q56 -33 137 -33q84 0 134 70t63 243q-67 -63 -158 -63 q-111 0 -174 84.5t-63 234.5zM1038 653q0 -223 142 -223q39 0 77.5 22t63.5 58v4q0 354 -152 354q-60 0 -95.5 -54.5t-35.5 -160.5z" />
<glyph unicode="&#xf511;" horiz-adv-x="1505" d="M66 731q0 85 42 152t115 104q-64 36 -99.5 96.5t-35.5 128.5q0 111 63.5 174.5t167.5 63.5t167 -64.5t63 -173.5q0 -68 -36.5 -128.5t-100.5 -98.5q77 -41 120 -108t43 -144q0 -123 -67 -194.5t-184 -71.5q-116 0 -187 70.5t-71 193.5zM182 731q0 -78 39.5 -122 t102.5 -44q61 0 98 44t37 120q0 67 -38.5 121t-113.5 86q-125 -67 -125 -205zM205 1210q0 -123 121 -178q51 29 78.5 76t27.5 102q0 65 -30.5 103.5t-82.5 38.5q-55 0 -84.5 -39t-29.5 -103zM403 -31l598 1495h101l-598 -1495h-101zM922 651q0 148 65.5 232t179.5 84 q127 0 199 -112.5t72 -340.5q0 -278 -79 -404t-233 -126q-84 0 -151 30l8 101q56 -33 137 -33q84 0 134 70t63 243q-67 -63 -158 -63q-111 0 -174 84.5t-63 234.5zM1038 653q0 -223 142 -223q39 0 77.5 22t63.5 58v4q0 354 -152 354q-60 0 -95.5 -54.5t-35.5 -160.5z" />
<glyph unicode="&#xf800;" horiz-adv-x="950" d="M82 717q0 378 98.5 559.5t294.5 181.5t294.5 -181.5t98.5 -559.5t-98.5 -560t-294.5 -182t-294.5 182t-98.5 560zM215 717q0 -336 64 -481.5t196 -145.5t196 145.5t64 481.5q0 227 -30 367t-86.5 199.5t-143.5 59.5t-143.5 -59.5t-86.5 -199.5t-30 -367z" />
<glyph unicode="&#xf801;" horiz-adv-x="608" d="M20 1147l287 287h117v-1434h-131v1266l-203 -203z" />
<glyph unicode="&#xf802;" horiz-adv-x="811" d="M51 0v102q90 102 191 240.5t180 267.5q162 261 162 457q0 132 -67 204t-181 72q-139 0 -240 -69l-6 121q116 63 258 63q172 0 270.5 -99t98.5 -286q0 -125 -44.5 -249t-137.5 -275q-156 -247 -316 -436h502v-113h-670z" />
<glyph unicode="&#xf803;" horiz-adv-x="845" d="M82 41l10 125q110 -76 260 -76q129 0 200 77t71 200q0 152 -102.5 235.5t-293.5 91.5v113q173 3 276 81t103 218q0 106 -60.5 171.5t-183.5 65.5q-138 0 -247 -67l-11 121q113 61 271 61q177 0 270.5 -92t93.5 -246q0 -149 -77.5 -242t-212.5 -128q147 -37 226 -135.5 t79 -247.5q0 -176 -105.5 -284t-296.5 -108q-71 0 -144.5 18t-125.5 48z" />
<glyph unicode="&#xf804;" horiz-adv-x="876" d="M61 326v116l525 992h139v-996h137v-112h-137v-326h-131v326h-533zM188 438h406v768z" />
<glyph unicode="&#xf805;" horiz-adv-x="888" d="M135 33l10 127q97 -70 238 -70q134 0 213.5 89t79.5 253q0 157 -71 243.5t-208 86.5q-120 0 -223 -53v725h602v-113h-471v-473q63 26 139 26q162 0 263.5 -116t101.5 -326q0 -212 -108.5 -334.5t-311.5 -122.5q-149 0 -254 58z" />
<glyph unicode="&#xf806;" horiz-adv-x="913" d="M80 680q0 204 33 355t95.5 243t147.5 136t193 44q119 0 211 -37l-8 -123q-86 45 -203 45q-70 0 -125.5 -28t-101 -89.5t-73 -170.5t-34.5 -262q53 62 124.5 94.5t149.5 32.5q164 0 258.5 -123.5t94.5 -347.5t-98.5 -349t-262.5 -125q-193 0 -297 173.5t-104 531.5z M213 645q2 -114 16 -208.5t43.5 -175t82 -126t124.5 -45.5q105 0 167.5 97.5t62.5 258.5q0 171 -60 265t-174 94q-159 0 -262 -160z" />
<glyph unicode="&#xf807;" horiz-adv-x="753" d="M18 1321v113h693v-123l-404 -1311h-141l407 1321h-555z" />
<glyph unicode="&#xf808;" horiz-adv-x="933" d="M82 367q0 253 262 387q-217 136 -217 352q0 160 92 256t246 96q155 0 248.5 -94.5t93.5 -253.5q0 -124 -60.5 -213.5t-164.5 -144.5q66 -38 111.5 -72.5t83.5 -80.5t56.5 -105t18.5 -132q0 -180 -107 -283.5t-278 -103.5q-172 0 -278.5 103.5t-106.5 288.5zM213 365 q0 -128 70.5 -201.5t183.5 -73.5q112 0 183 73.5t71 196.5q0 61 -19 110.5t-59 89.5t-83 69t-109 65q-111 -48 -174.5 -133.5t-63.5 -195.5zM260 1110q0 -106 56 -173.5t161 -127.5q199 92 199 303q0 107 -57 169t-154 62q-92 0 -148.5 -63.5t-56.5 -169.5z" />
<glyph unicode="&#xf809;" horiz-adv-x="913" d="M72 985q0 224 98 348.5t262 124.5q193 0 297.5 -173.5t104.5 -530.5q0 -204 -33 -355t-95.5 -243t-147.5 -136.5t-193 -44.5q-119 0 -211 37l8 123q86 -45 203 -45q70 0 125 27.5t100 89.5t73 170.5t35 261.5q-113 -125 -274 -125q-164 0 -258 123.5t-94 347.5zM205 987 q0 -171 59.5 -264.5t173.5 -93.5q160 0 262 159q-2 113 -16 208t-44 175.5t-82.5 126t-123.5 45.5q-105 0 -167 -97.5t-62 -258.5z" />
<glyph unicode="&#xf80a;" horiz-adv-x="645" d="M47 961q0 489 275 489q274 0 274 -489q0 -490 -274 -490q-275 0 -275 490zM162 961q0 -392 160 -392q159 0 159 392q0 391 -159 391q-160 0 -160 -391z" />
<glyph unicode="&#xf80b;" horiz-adv-x="645" d="M94 1253l213 183h96v-953h-114v793l-133 -111z" />
<glyph unicode="&#xf80c;" horiz-adv-x="645" d="M86 483v97q143 156 254 342q84 136 84 260q0 170 -141 170q-94 0 -172 -58l-7 109q36 21 88.5 34t96.5 13q125 0 188.5 -67t63.5 -197q0 -148 -107 -326q-109 -176 -207 -280h320v-97h-461z" />
<glyph unicode="&#xf80d;" horiz-adv-x="645" d="M94 504l8 106q62 -45 160 -45q85 0 128.5 45.5t43.5 120.5q0 92 -60.5 145.5t-191.5 53.5v96q121 0 181.5 51t60.5 123q0 69 -40.5 110.5t-109.5 41.5q-91 0 -163 -43l-5 98q75 43 179 43q121 0 188.5 -64t67.5 -180q0 -77 -43 -136t-119 -89q172 -68 172 -246 q0 -124 -73.5 -196t-205.5 -72q-105 0 -178 37z" />
<glyph unicode="&#xf80e;" horiz-adv-x="645" d="M53 692v96l344 646h111v-646h84v-96h-84v-209h-115v209h-340zM160 788h233v439z" />
<glyph unicode="&#xf80f;" horiz-adv-x="645" d="M96 504l8 104q67 -43 148 -43q87 0 136.5 56t49.5 161q0 99 -45.5 153t-132.5 54q-82 0 -141 -41v486h416v-97h-306v-266q38 14 88 14q104 0 172 -80.5t68 -224.5q0 -146 -77 -229.5t-212 -83.5q-102 0 -172 37z" />
<glyph unicode="&#xf810;" horiz-adv-x="665" d="M76 920q0 278 78.5 404t232.5 126q82 0 152 -31l-9 -100q-56 33 -137 33q-85 0 -135 -70.5t-61 -245.5q70 66 157 66q111 0 174.5 -85t63.5 -235q0 -147 -66 -231t-180 -84q-126 0 -198 112t-72 341zM193 920q0 -355 151 -355q60 0 95.5 54.5t35.5 160.5q0 224 -141 224 q-40 0 -79 -22.5t-62 -57.5v-4z" />
<glyph unicode="&#xf811;" horiz-adv-x="645" d="M86 1337v97h465v-101l-262 -850h-123l264 854h-344z" />
<glyph unicode="&#xf812;" horiz-adv-x="645" d="M66 731q0 85 42 152t115 104q-64 36 -99.5 96.5t-35.5 128.5q0 111 63.5 174.5t167.5 63.5t167 -64.5t63 -173.5q0 -68 -36.5 -128.5t-100.5 -98.5q77 -41 120 -108t43 -144q0 -123 -67 -194.5t-184 -71.5q-116 0 -187 70.5t-71 193.5zM182 731q0 -78 39.5 -122 t102.5 -44q61 0 98 44t37 120q0 67 -38.5 121t-113.5 86q-125 -67 -125 -205zM205 1210q0 -123 121 -178q51 29 78.5 76t27.5 102q0 65 -30.5 103.5t-82.5 38.5q-55 0 -84.5 -39t-29.5 -103z" />
<glyph unicode="&#xf813;" horiz-adv-x="645" d="M59 1135q0 147 66 231t180 84q126 0 198 -112t72 -341q0 -278 -78.5 -404t-232.5 -126q-81 0 -151 31l8 100q56 -33 137 -33q84 0 134 70t63 244q-68 -64 -158 -64q-111 0 -174.5 85t-63.5 235zM176 1137q0 -224 141 -224q39 0 78 22t64 58v4q0 355 -152 355 q-60 0 -95.5 -54.5t-35.5 -160.5z" />
<glyph unicode="&#xf814;" horiz-adv-x="645" d="M47 217q0 490 275 490q274 0 274 -490q0 -489 -274 -489q-275 0 -275 489zM162 217q0 -391 160 -391q159 0 159 391t-159 391q-160 0 -160 -391z" />
<glyph unicode="&#xf815;" horiz-adv-x="645" d="M94 510l213 182h96v-952h-114v792l-133 -110z" />
<glyph unicode="&#xf816;" horiz-adv-x="645" d="M86 -164q143 156 254 342q84 136 84 260q0 170 -141 170q-95 0 -172 -57l-7 108q36 21 88.5 34.5t96.5 13.5q125 0 188.5 -67.5t63.5 -197.5q0 -147 -107 -325q-111 -179 -207 -281h320v-96h-461v96z" />
<glyph unicode="&#xf817;" horiz-adv-x="645" d="M94 -240l8 107q62 -45 160 -45q85 0 128.5 45.5t43.5 120.5q0 92 -60.5 145t-191.5 53v97q121 0 181.5 51t60.5 123q0 69 -40.5 110t-109.5 41q-91 0 -163 -43l-5 99q75 43 179 43q121 0 188.5 -64t67.5 -180q0 -77 -43 -136t-119 -89q172 -68 172 -246 q0 -124 -73.5 -196t-205.5 -72q-107 0 -178 36z" />
<glyph unicode="&#xf818;" horiz-adv-x="645" d="M53 45l344 645h111v-645h84v-96h-84v-209h-115v209h-340v96zM160 45h233v438z" />
<glyph unicode="&#xf819;" horiz-adv-x="645" d="M96 -240l8 105q67 -43 148 -43q87 0 136.5 56t49.5 161q0 99 -45.5 153t-132.5 54q-82 0 -141 -41v485h416v-96h-306v-266q38 14 88 14q104 0 172 -80.5t68 -224.5q0 -146 -77 -229.5t-212 -83.5q-104 0 -172 36z" />
<glyph unicode="&#xf81a;" horiz-adv-x="645" d="M66 176q0 278 78.5 404.5t232.5 126.5q81 0 151 -31l-8 -101q-56 33 -137 33q-85 0 -135.5 -70t-61.5 -245q69 65 158 65q111 0 174.5 -84.5t63.5 -234.5q0 -147 -66 -231t-180 -84q-127 0 -198.5 112t-71.5 340zM182 176q0 -354 152 -354q60 0 95.5 54.5t35.5 160.5 q0 223 -141 223q-40 0 -79.5 -22.5t-62.5 -57.5v-4z" />
<glyph unicode="&#xf81b;" horiz-adv-x="645" d="M86 594v96h465v-100l-262 -850h-123l264 854h-344z" />
<glyph unicode="&#xf81c;" horiz-adv-x="645" d="M66 -12q0 85 42 152t115 104q-64 36 -99.5 96.5t-35.5 128.5q0 111 63.5 174.5t167.5 63.5t167 -64.5t63 -173.5q0 -68 -36.5 -128.5t-100.5 -98.5q77 -41 120 -108t43 -144q0 -123 -67 -194.5t-184 -71.5q-116 0 -187 70.5t-71 193.5zM182 -12q0 -78 39.5 -122 t102.5 -44q61 0 98 44t37 120q0 67 -38.5 121t-113.5 86q-125 -67 -125 -205zM205 467q0 -123 121 -178q51 29 78.5 76t27.5 102q0 65 -30.5 103t-82.5 38q-55 0 -84.5 -38.5t-29.5 -102.5z" />
<glyph unicode="&#xf81d;" horiz-adv-x="645" d="M59 391q0 147 66 231.5t180 84.5q126 0 198 -112t72 -341q0 -278 -78.5 -404t-232.5 -126q-83 0 -151 30l8 101q56 -33 137 -33q84 0 134 70t63 243q-67 -63 -158 -63q-111 0 -174.5 84.5t-63.5 234.5zM176 393q0 -223 141 -223q39 0 78 22t64 58v4q0 354 -152 354 q-60 0 -95.5 -54.5t-35.5 -160.5z" />
<glyph horiz-adv-x="761" d="M63 0v1536h635v-1536h-635zM180 117h402v1300h-402v-1300z" />
<glyph horiz-adv-x="655" d="M49 1155l205 340h147l205 -340h-123l-155 248l-156 -248h-123z" />
<glyph horiz-adv-x="655" d="M252 1274q0 59 18 83.5t58 24.5t57.5 -24.5t17.5 -83.5t-17.5 -84t-57.5 -25t-58 25t-18 84z" />
<glyph horiz-adv-x="655" d="M49 1495h123l156 -248l155 248h123l-205 -340h-147z" />
<glyph horiz-adv-x="655" d="M135 1466v29h135l207 -332h-119z" />
<glyph horiz-adv-x="655" d="M61 1485h113q6 -228 154 -228q147 0 153 228h113q-4 -162 -75 -242t-191 -80t-191.5 80t-75.5 242z" />
<glyph horiz-adv-x="655" d="M231 -467q68 76 74 160q-49 14 -49 102q0 56 18 80.5t58 24.5t58 -24.5t18 -80.5q0 -101 -31 -170.5t-105 -134.5z" />
<glyph horiz-adv-x="655" d="M92 1329q0 61 16.5 85t55.5 24t55.5 -24t16.5 -85q0 -60 -16.5 -84t-55.5 -24t-55.5 24t-16.5 84zM420 1329q0 61 16.5 85t55.5 24t55 -24t16 -85t-16 -84.5t-55 -23.5t-55.5 24t-16.5 84z" />
<glyph horiz-adv-x="655" d="M90 1268v106h475v-106h-475z" />
<glyph horiz-adv-x="655" d="M178 -377q35 -18 82 -18q44 0 73 24t29 66q0 113 -153 127l70 178h116l-53 -129q61 -21 97 -68t36 -112q0 -80 -54.5 -129t-146.5 -49q-50 0 -96 16v94z" />
<glyph horiz-adv-x="655" d="M231 -467q68 76 74 160q-49 14 -49 102q0 56 18 80.5t58 24.5t58 -24.5t18 -80.5q0 -101 -31 -170.5t-105 -134.5z" />
<glyph horiz-adv-x="655" d="M111 1329q0 93 60.5 152t156.5 59t156.5 -59t60.5 -152t-60.5 -152t-156.5 -59t-156.5 59t-60.5 152zM203 1329q0 -59 35 -92t90 -33t90 33t35 92t-35 92t-90 33t-90 -33t-35 -92z" />
<glyph horiz-adv-x="1265" d="M33 1126q78 84 78 162q-29 11 -41.5 37t-12.5 78q0 63 19 90t61 27t61 -27.5t19 -95.5q0 -110 -33 -190.5t-108 -145.5zM297 0v1434h186l512 -1256v1256h127v-1434h-186l-512 1255v-1255h-127z" />
<glyph horiz-adv-x="655" d="M49 1495h123l156 -248l155 248h123l-205 -340h-147z" />
<glyph horiz-adv-x="1093" d="M143 0v1434h131v-652l461 652h148l-477 -670l544 -764h-155l-521 739v-739h-131zM877 1184q0 110 33 190.5t108 145.5l43 -66q-78 -84 -78 -162q29 -11 41 -36.5t12 -77.5q0 -63 -19 -90t-61 -27t-60.5 27.5t-18.5 95.5z" />
<glyph horiz-adv-x="655" d="M248 1184q0 110 33 190.5t108 145.5l43 -66q-78 -84 -78 -162q29 -11 41.5 -36.5t12.5 -77.5q0 -63 -19 -90t-61 -27t-61 27.5t-19 95.5z" />
<glyph horiz-adv-x="372" d="M106 1378q0 63 19 90t61 27t61 -27t19 -90t-19 -89.5t-61 -26.5t-61 26.5t-19 89.5zM123 0v1061h127v-1061h-127z" />
<glyph horiz-adv-x="655" d="M201 -272q0 134 114 272h121q-112 -135 -112 -266q0 -88 79 -88q41 0 68 16v-96q-38 -15 -96 -15q-84 0 -129 47.5t-45 129.5z" />
<glyph horiz-adv-x="655" d="M61 1198q0 149 37 209.5t111 60.5q95 0 145 -88q16 -29 24.5 -41t22 -21t31.5 -9q30 0 42.5 31.5t12.5 123.5h107q0 -149 -38 -209.5t-112 -60.5q-54 0 -86.5 17t-58.5 59q-29 49 -44 66.5t-34 17.5q-29 0 -41 -31.5t-12 -124.5h-107z" />
<glyph horiz-adv-x="655" d="M20 1163l207 332h135v-29l-223 -303h-119zM287 1163l207 332h135v-29l-223 -303h-119z" />
<glyph horiz-adv-x="655" d="M156 1163l206 332h136v-29l-224 -303h-118z" />
</font>
</defs>
</svg>
